<?xml version="1.0" encoding="UTF-8"?>
<svg width="1440px" height="812px" viewBox="0 0 1440 812" version="1.1" xmlns="http://www.w3.org/2000/svg" xmlns:xlink="http://www.w3.org/1999/xlink">
    <!-- Generator: Sketch 61.1 (89650) - https://sketch.com -->
    <title>Inbound_PSTN call   </title>
    <desc>Created with Sketch.</desc>
    <defs>
        <circle id="path-1" cx="95" cy="95" r="95"></circle>
        <filter x="-9.6%" y="-9.6%" width="119.2%" height="119.2%" filterUnits="objectBoundingBox" id="filter-2">
            <feMorphology radius="0.25" operator="dilate" in="SourceAlpha" result="shadowSpreadOuter1"></feMorphology>
            <feOffset dx="0" dy="0" in="shadowSpreadOuter1" result="shadowOffsetOuter1"></feOffset>
            <feGaussianBlur stdDeviation="6" in="shadowOffsetOuter1" result="shadowBlurOuter1"></feGaussianBlur>
            <feComposite in="shadowBlurOuter1" in2="SourceAlpha" operator="out" result="shadowBlurOuter1"></feComposite>
            <feColorMatrix values="0 0 0 0 0.832880435   0 0 0 0 0.832880435   0 0 0 0 0.832880435  0 0 0 0.5 0" type="matrix" in="shadowBlurOuter1"></feColorMatrix>
        </filter>
        <polygon id="path-3" points="0 90.5344741 73.6977273 90.5344741 73.6977273 -0.000340740741 0 -0.000340740741"></polygon>
        <circle id="path-5" cx="95" cy="95" r="95"></circle>
        <filter x="-9.6%" y="-9.6%" width="119.2%" height="119.2%" filterUnits="objectBoundingBox" id="filter-6">
            <feMorphology radius="0.25" operator="dilate" in="SourceAlpha" result="shadowSpreadOuter1"></feMorphology>
            <feOffset dx="0" dy="0" in="shadowSpreadOuter1" result="shadowOffsetOuter1"></feOffset>
            <feGaussianBlur stdDeviation="6" in="shadowOffsetOuter1" result="shadowBlurOuter1"></feGaussianBlur>
            <feComposite in="shadowBlurOuter1" in2="SourceAlpha" operator="out" result="shadowBlurOuter1"></feComposite>
            <feColorMatrix values="0 0 0 0 0.832880435   0 0 0 0 0.832880435   0 0 0 0 0.832880435  0 0 0 0.5 0" type="matrix" in="shadowBlurOuter1"></feColorMatrix>
        </filter>
        <polygon id="path-7" points="0 0.45956129 50.8453 0.45956129 50.8453 102.580303 0 102.580303"></polygon>
        <circle id="path-9" cx="95" cy="95" r="95"></circle>
        <filter x="-9.6%" y="-9.6%" width="119.2%" height="119.2%" filterUnits="objectBoundingBox" id="filter-10">
            <feMorphology radius="0.25" operator="dilate" in="SourceAlpha" result="shadowSpreadOuter1"></feMorphology>
            <feOffset dx="0" dy="0" in="shadowSpreadOuter1" result="shadowOffsetOuter1"></feOffset>
            <feGaussianBlur stdDeviation="6" in="shadowOffsetOuter1" result="shadowBlurOuter1"></feGaussianBlur>
            <feComposite in="shadowBlurOuter1" in2="SourceAlpha" operator="out" result="shadowBlurOuter1"></feComposite>
            <feColorMatrix values="0 0 0 0 0.832880435   0 0 0 0 0.832880435   0 0 0 0 0.832880435  0 0 0 0.5 0" type="matrix" in="shadowBlurOuter1"></feColorMatrix>
        </filter>
        <polygon id="path-11" points="0 90 89.084717 90 89.084717 0 0 0"></polygon>
    </defs>
    <g id="Inbound_PSTN-call---" stroke="none" stroke-width="1" fill="none" fill-rule="evenodd">
        <rect id="Rectangle" fill="#F5FBFF" x="0" y="0" width="1440" height="812"></rect>
        <g id="Group-9" transform="translate(916.000000, 568.000000)">
            <rect id="Rectangle" stroke="#05D06D" stroke-width="0.5" fill="#FFFFFF" x="0.75" y="0.25" width="399.5" height="65.5" rx="6"></rect>
            <path d="M93.756,29 L93.756,24.52 L95.564,24.52 C97.388,24.52 99.516,23.624 99.516,21.144 C99.516,18.696 97.372,17.8 95.564,17.8 L92.22,17.8 L92.22,29 L93.756,29 Z M95.164,23.144 L93.756,23.144 L93.756,19.176 L95.484,19.176 C96.908,19.176 97.884,19.928 97.884,21.192 C97.884,22.632 96.716,23.144 95.164,23.144 Z M102.796,29 L102.796,17 L101.34,17 L101.34,29 L102.796,29 Z M106.94,19.432 L106.94,17.8 L105.484,17.8 L105.484,19.432 L106.94,19.432 Z M106.94,29 L106.94,21 L105.484,21 L105.484,29 L106.94,29 Z M112.748,29 L115.852,21 L114.3,21 L112.188,27.192 L112.156,27.192 L110.028,21 L108.412,21 L111.436,29 L112.748,29 Z M120.7,29.192 C123.036,29.192 124.78,27.336 124.78,25 C124.78,22.664 123.036,20.808 120.7,20.808 C118.364,20.808 116.62,22.664 116.62,25 C116.62,27.336 118.364,29.192 120.7,29.192 Z M120.7,27.848 C119.196,27.848 118.108,26.552 118.108,25 C118.108,23.448 119.196,22.152 120.7,22.152 C122.204,22.152 123.292,23.448 123.292,25 C123.292,26.552 122.204,27.848 120.7,27.848 Z M132.252,29 L132.252,23.64 C132.748,22.776 133.34,22.296 134.156,22.296 C134.46,22.296 134.668,22.344 134.908,22.456 L135.18,20.904 C134.876,20.84 134.652,20.808 134.316,20.808 C133.452,20.808 132.732,21.464 132.252,22.328 L132.252,21 L130.796,21 L130.796,29 L132.252,29 Z M139.804,29.192 C141.42,29.192 142.508,28.6 143.308,27.32 L142.252,26.648 C141.772,27.56 140.924,27.944 139.868,27.944 C138.332,27.944 137.388,26.744 137.292,25.368 L143.388,25.368 C143.42,25.16 143.452,24.808 143.452,24.536 C143.452,22.392 141.916,20.808 139.804,20.808 C137.58,20.808 135.836,22.616 135.836,25 C135.836,27.336 137.26,29.192 139.804,29.192 Z M141.948,24.2 L137.404,24.2 C137.692,23 138.524,22.056 139.82,22.056 C141.02,22.056 141.884,23.064 141.948,24.2 Z M152.796,33 L152.796,21 L151.34,21 L151.34,21.88 C150.7,21.224 149.756,20.808 148.828,20.808 C146.38,20.808 144.796,22.872 144.796,25 C144.796,27.336 146.492,29.192 148.796,29.192 C149.756,29.192 150.764,28.776 151.34,27.928 L151.34,33 L152.796,33 Z M148.988,27.848 C147.324,27.848 146.284,26.504 146.284,25.032 C146.284,23.64 147.164,22.152 149.02,22.152 C149.836,22.152 150.78,22.584 151.34,23.368 L151.34,26.344 C150.924,27.32 149.852,27.848 148.988,27.848 Z M158.428,29.192 C159.5,29.192 160.444,28.632 161.036,27.688 L161.036,29 L162.492,29 L162.492,21 L161.036,21 L161.036,26.312 C160.46,27.208 159.58,27.848 158.652,27.848 C157.948,27.848 157.516,27.592 157.26,27.208 C156.876,26.632 156.844,25.784 156.844,25 L156.844,21 L155.388,21 L155.388,25.16 C155.388,26.376 155.564,27.448 156.108,28.184 C156.572,28.808 157.308,29.192 158.428,29.192 Z M168.476,29.192 C170.092,29.192 171.18,28.6 171.98,27.32 L170.924,26.648 C170.444,27.56 169.596,27.944 168.54,27.944 C167.004,27.944 166.06,26.744 165.964,25.368 L172.06,25.368 C172.092,25.16 172.124,24.808 172.124,24.536 C172.124,22.392 170.588,20.808 168.476,20.808 C166.252,20.808 164.508,22.616 164.508,25 C164.508,27.336 165.932,29.192 168.476,29.192 Z M170.62,24.2 L166.076,24.2 C166.364,23 167.196,22.056 168.492,22.056 C169.692,22.056 170.556,23.064 170.62,24.2 Z M176.236,29.192 C177.74,29.192 179.132,28.472 179.132,26.68 C179.132,25.288 177.836,24.696 176.796,24.296 C176.028,23.992 175.26,23.688 175.26,23.08 C175.26,22.456 175.724,22.024 176.46,22.024 C177.004,22.024 177.676,22.296 178.044,22.616 L178.908,21.688 C178.268,21.112 177.356,20.808 176.444,20.808 C175.116,20.808 173.868,21.576 173.868,23.192 C173.868,24.632 175.1,25.096 176.156,25.512 C176.956,25.832 177.692,26.12 177.692,26.744 C177.692,27.576 177.036,27.976 176.252,27.976 C175.612,27.976 175.036,27.688 174.508,27.128 L173.484,27.944 C174.108,28.76 175.148,29.192 176.236,29.192 Z M183.836,29.16 C184.364,29.16 184.924,29.016 185.324,28.808 L184.924,27.64 C184.668,27.768 184.348,27.864 184.028,27.864 C183.228,27.864 182.956,27.368 182.908,26.52 C182.892,26.28 182.892,26.104 182.892,25.896 L182.892,22.28 L185.132,22.28 L185.132,21 L182.892,21 L182.892,19.08 L181.436,19.08 L181.436,21 L180.364,21 L180.364,22.28 L181.436,22.28 L181.436,26.248 C181.436,26.872 181.5,27.464 181.692,27.912 C182.028,28.664 182.716,29.16 183.836,29.16 Z M188.988,29.192 C190.492,29.192 191.884,28.472 191.884,26.68 C191.884,25.288 190.588,24.696 189.548,24.296 C188.78,23.992 188.012,23.688 188.012,23.08 C188.012,22.456 188.476,22.024 189.212,22.024 C189.756,22.024 190.428,22.296 190.796,22.616 L191.66,21.688 C191.02,21.112 190.108,20.808 189.196,20.808 C187.868,20.808 186.62,21.576 186.62,23.192 C186.62,24.632 187.852,25.096 188.908,25.512 C189.708,25.832 190.444,26.12 190.444,26.744 C190.444,27.576 189.788,27.976 189.004,27.976 C188.364,27.976 187.788,27.688 187.26,27.128 L186.236,27.944 C186.86,28.76 187.9,29.192 188.988,29.192 Z M199.804,32.6 L204.3,21 L202.716,21 L200.588,27.064 L200.556,27.064 L198.476,21 L196.86,21 L199.788,28.76 L198.524,32.104 L199.804,32.6 Z M209.148,29.192 C211.484,29.192 213.228,27.336 213.228,25 C213.228,22.664 211.484,20.808 209.148,20.808 C206.812,20.808 205.068,22.664 205.068,25 C205.068,27.336 206.812,29.192 209.148,29.192 Z M209.148,27.848 C207.644,27.848 206.556,26.552 206.556,25 C206.556,23.448 207.644,22.152 209.148,22.152 C210.652,22.152 211.74,23.448 211.74,25 C211.74,26.552 210.652,27.848 209.148,27.848 Z M218.188,29.192 C219.26,29.192 220.204,28.632 220.796,27.688 L220.796,29 L222.252,29 L222.252,21 L220.796,21 L220.796,26.312 C220.22,27.208 219.34,27.848 218.412,27.848 C217.708,27.848 217.276,27.592 217.02,27.208 C216.636,26.632 216.604,25.784 216.604,25 L216.604,21 L215.148,21 L215.148,25.16 C215.148,26.376 215.324,27.448 215.868,28.184 C216.332,28.808 217.068,29.192 218.188,29.192 Z M226.396,29 L226.396,23.64 C226.892,22.776 227.484,22.296 228.3,22.296 C228.604,22.296 228.812,22.344 229.052,22.456 L229.324,20.904 C229.02,20.84 228.796,20.808 228.46,20.808 C227.596,20.808 226.876,21.464 226.396,22.328 L226.396,21 L224.94,21 L224.94,29 L226.396,29 Z M237.004,29.192 C238.028,29.192 238.748,28.888 239.404,28.152 L239.404,29 L240.796,29 L240.796,24.136 C240.796,22.072 239.948,20.808 237.628,20.808 C236.524,20.808 235.308,21.16 234.476,21.56 L234.908,22.776 C235.548,22.424 236.524,22.072 237.452,22.072 C238.764,22.072 239.34,22.776 239.34,23.992 L239.34,24.28 C238.652,24.136 238.14,24.104 237.74,24.104 C235.98,24.104 234.172,24.728 234.172,26.76 C234.172,28.472 235.532,29.192 237.004,29.192 Z M237.18,27.976 C236.332,27.976 235.596,27.624 235.596,26.648 C235.596,25.448 236.908,25.208 237.9,25.208 C238.3,25.208 238.748,25.24 239.34,25.368 L239.34,27.016 C238.7,27.56 237.996,27.976 237.18,27.976 Z M244.844,33 L244.844,28.136 C245.484,28.792 246.412,29.192 247.356,29.192 C249.804,29.192 251.388,27.128 251.388,25.016 C251.388,22.664 249.692,20.808 247.388,20.808 C246.428,20.808 245.42,21.24 244.844,22.072 L244.844,21 L243.388,21 L243.388,33 L244.844,33 Z M247.164,27.848 C246.332,27.848 245.388,27.416 244.844,26.632 L244.844,23.672 C245.244,22.68 246.332,22.152 247.196,22.152 C248.86,22.152 249.9,23.496 249.9,24.984 C249.9,26.36 249.02,27.848 247.164,27.848 Z M254.86,33 L254.86,28.136 C255.5,28.792 256.428,29.192 257.372,29.192 C259.82,29.192 261.404,27.128 261.404,25.016 C261.404,22.664 259.708,20.808 257.404,20.808 C256.444,20.808 255.436,21.24 254.86,22.072 L254.86,21 L253.404,21 L253.404,33 L254.86,33 Z M257.18,27.848 C256.348,27.848 255.404,27.416 254.86,26.632 L254.86,23.672 C255.26,22.68 256.348,22.152 257.212,22.152 C258.876,22.152 259.916,23.496 259.916,24.984 C259.916,26.36 259.036,27.848 257.18,27.848 Z M269.516,29.192 C271.02,29.192 272.412,28.472 272.412,26.68 C272.412,25.288 271.116,24.696 270.076,24.296 C269.308,23.992 268.54,23.688 268.54,23.08 C268.54,22.456 269.004,22.024 269.74,22.024 C270.284,22.024 270.956,22.296 271.324,22.616 L272.188,21.688 C271.548,21.112 270.636,20.808 269.724,20.808 C268.396,20.808 267.148,21.576 267.148,23.192 C267.148,24.632 268.38,25.096 269.436,25.512 C270.236,25.832 270.972,26.12 270.972,26.744 C270.972,27.576 270.316,27.976 269.532,27.976 C268.892,27.976 268.316,27.688 267.788,27.128 L266.764,27.944 C267.388,28.76 268.428,29.192 269.516,29.192 Z M277.932,29.192 C279.548,29.192 280.636,28.6 281.436,27.32 L280.38,26.648 C279.9,27.56 279.052,27.944 277.996,27.944 C276.46,27.944 275.516,26.744 275.42,25.368 L281.516,25.368 C281.548,25.16 281.58,24.808 281.58,24.536 C281.58,22.392 280.044,20.808 277.932,20.808 C275.708,20.808 273.964,22.616 273.964,25 C273.964,27.336 275.388,29.192 277.932,29.192 Z M280.076,24.2 L275.532,24.2 C275.82,23 276.652,22.056 277.948,22.056 C279.148,22.056 280.012,23.064 280.076,24.2 Z M285.052,29 L285.052,23.64 C285.548,22.776 286.14,22.296 286.956,22.296 C287.26,22.296 287.468,22.344 287.708,22.456 L287.98,20.904 C287.676,20.84 287.452,20.808 287.116,20.808 C286.252,20.808 285.532,21.464 285.052,22.328 L285.052,21 L283.596,21 L283.596,29 L285.052,29 Z M292.428,29 L295.532,21 L293.98,21 L291.868,27.192 L291.836,27.192 L289.708,21 L288.092,21 L291.116,29 L292.428,29 Z M300.268,29.192 C301.884,29.192 302.972,28.6 303.772,27.32 L302.716,26.648 C302.236,27.56 301.388,27.944 300.332,27.944 C298.796,27.944 297.852,26.744 297.756,25.368 L303.852,25.368 C303.884,25.16 303.916,24.808 303.916,24.536 C303.916,22.392 302.38,20.808 300.268,20.808 C298.044,20.808 296.3,22.616 296.3,25 C296.3,27.336 297.724,29.192 300.268,29.192 Z M302.412,24.2 L297.868,24.2 C298.156,23 298.988,22.056 300.284,22.056 C301.484,22.056 302.348,23.064 302.412,24.2 Z M307.388,29 L307.388,23.64 C307.884,22.776 308.476,22.296 309.292,22.296 C309.596,22.296 309.804,22.344 310.044,22.456 L310.316,20.904 C310.012,20.84 309.788,20.808 309.452,20.808 C308.588,20.808 307.868,21.464 307.388,22.328 L307.388,21 L305.932,21 L305.932,29 L307.388,29 Z M67.828,49 L67.828,42.28 L69.988,42.28 L69.988,41 L67.828,41 L67.828,39.992 C67.828,39.272 67.876,38.712 68.244,38.408 C68.452,38.248 68.74,38.152 69.172,38.152 C69.556,38.152 69.86,38.232 70.164,38.376 L70.58,37.16 C70.116,36.968 69.524,36.808 68.996,36.808 C67.924,36.808 67.268,37.16 66.868,37.752 C66.516,38.28 66.372,39.016 66.372,39.848 L66.372,41 L65.46,41 L65.46,42.28 L66.372,42.28 L66.372,49 L67.828,49 Z M74.868,49.192 C77.204,49.192 78.948,47.336 78.948,45 C78.948,42.664 77.204,40.808 74.868,40.808 C72.532,40.808 70.788,42.664 70.788,45 C70.788,47.336 72.532,49.192 74.868,49.192 Z M74.868,47.848 C73.364,47.848 72.276,46.552 72.276,45 C72.276,43.448 73.364,42.152 74.868,42.152 C76.372,42.152 77.46,43.448 77.46,45 C77.46,46.552 76.372,47.848 74.868,47.848 Z M82.42,49 L82.42,43.64 C82.916,42.776 83.508,42.296 84.324,42.296 C84.628,42.296 84.836,42.344 85.076,42.456 L85.348,40.904 C85.044,40.84 84.82,40.808 84.484,40.808 C83.62,40.808 82.9,41.464 82.42,42.328 L82.42,41 L80.964,41 L80.964,49 L82.42,49 Z M93.028,49.192 C94.052,49.192 94.772,48.888 95.428,48.152 L95.428,49 L96.82,49 L96.82,44.136 C96.82,42.072 95.972,40.808 93.652,40.808 C92.548,40.808 91.332,41.16 90.5,41.56 L90.932,42.776 C91.572,42.424 92.548,42.072 93.476,42.072 C94.788,42.072 95.364,42.776 95.364,43.992 L95.364,44.28 C94.676,44.136 94.164,44.104 93.764,44.104 C92.004,44.104 90.196,44.728 90.196,46.76 C90.196,48.472 91.556,49.192 93.028,49.192 Z M93.204,47.976 C92.356,47.976 91.62,47.624 91.62,46.648 C91.62,45.448 92.932,45.208 93.924,45.208 C94.324,45.208 94.772,45.24 95.364,45.368 L95.364,47.016 C94.724,47.56 94.02,47.976 93.204,47.976 Z M106.532,49 L109.636,41 L108.084,41 L105.972,47.192 L105.94,47.192 L103.812,41 L102.196,41 L105.22,49 L106.532,49 Z M113.428,49.192 C114.452,49.192 115.172,48.888 115.828,48.152 L115.828,49 L117.22,49 L117.22,44.136 C117.22,42.072 116.372,40.808 114.052,40.808 C112.948,40.808 111.732,41.16 110.9,41.56 L111.332,42.776 C111.972,42.424 112.948,42.072 113.876,42.072 C115.188,42.072 115.764,42.776 115.764,43.992 L115.764,44.28 C115.076,44.136 114.564,44.104 114.164,44.104 C112.404,44.104 110.596,44.728 110.596,46.76 C110.596,48.472 111.956,49.192 113.428,49.192 Z M113.604,47.976 C112.756,47.976 112.02,47.624 112.02,46.648 C112.02,45.448 113.332,45.208 114.324,45.208 C114.724,45.208 115.172,45.24 115.764,45.368 L115.764,47.016 C115.124,47.56 114.42,47.976 113.604,47.976 Z M121.268,49 L121.268,37 L119.812,37 L119.812,49 L121.268,49 Z M125.412,39.432 L125.412,37.8 L123.956,37.8 L123.956,39.432 L125.412,39.432 Z M125.412,49 L125.412,41 L123.956,41 L123.956,49 L125.412,49 Z M131.428,49.192 C132.388,49.192 133.396,48.776 133.972,47.928 L133.972,49 L135.428,49 L135.428,37 L133.972,37 L133.972,41.88 C133.332,41.224 132.388,40.808 131.46,40.808 C129.012,40.808 127.428,42.872 127.428,45 C127.428,47.336 129.124,49.192 131.428,49.192 Z M131.62,47.848 C129.956,47.848 128.916,46.504 128.916,45.032 C128.916,43.64 129.796,42.152 131.652,42.152 C132.468,42.152 133.412,42.584 133.972,43.368 L133.972,46.344 C133.556,47.32 132.484,47.848 131.62,47.848 Z M142.788,49 L145.924,44.568 L149.172,49 L151.108,49 L146.98,43.336 L151.044,37.8 L149.14,37.8 L146.052,42.104 L142.948,37.8 L140.98,37.8 L144.964,43.304 L140.852,49 L142.788,49 Z M154.244,49 L154.244,39.544 L158.004,49 L159.076,49 L162.9,39.544 L162.9,49 L164.436,49 L164.436,37.8 L162.004,37.8 L158.548,46.552 L155.14,37.8 L152.708,37.8 L152.708,49 L154.244,49 Z M173.876,49 L173.876,47.624 L169.012,47.624 L169.012,37.8 L167.476,37.8 L167.476,49 L173.876,49 Z M181.78,49.16 C182.308,49.16 182.868,49.016 183.268,48.808 L182.868,47.64 C182.612,47.768 182.292,47.864 181.972,47.864 C181.172,47.864 180.9,47.368 180.852,46.52 C180.84,46.34 180.837,46.196 180.83625,46.0475 L180.836,42.28 L183.076,42.28 L183.076,41 L180.836,41 L180.836,39.08 L179.38,39.08 L179.38,41 L178.308,41 L178.308,42.28 L179.38,42.28 L179.38,46.248 C179.38,46.872 179.444,47.464 179.636,47.912 C179.972,48.664 180.66,49.16 181.78,49.16 Z M188.244,49.192 C190.58,49.192 192.324,47.336 192.324,45 C192.324,42.664 190.58,40.808 188.244,40.808 C185.908,40.808 184.164,42.664 184.164,45 C184.164,47.336 185.908,49.192 188.244,49.192 Z M188.244,47.848 C186.74,47.848 185.652,46.552 185.652,45 C185.652,43.448 186.74,42.152 188.244,42.152 C189.748,42.152 190.836,43.448 190.836,45 C190.836,46.552 189.748,47.848 188.244,47.848 Z M201.764,49.192 C202.724,49.192 203.62,48.888 204.212,48.408 L203.492,47.288 C203.06,47.608 202.324,47.848 201.796,47.848 C200.404,47.848 199.156,46.728 199.156,45 C199.156,43.416 200.34,42.152 201.78,42.152 C202.356,42.152 202.964,42.36 203.412,42.696 L204.1,41.496 C203.46,41.064 202.692,40.808 201.844,40.808 C199.508,40.808 197.668,42.664 197.668,45 C197.668,47.528 199.476,49.192 201.764,49.192 Z M209.348,49.192 C211.684,49.192 213.428,47.336 213.428,45 C213.428,42.664 211.684,40.808 209.348,40.808 C207.012,40.808 205.268,42.664 205.268,45 C205.268,47.336 207.012,49.192 209.348,49.192 Z M209.348,47.848 C207.844,47.848 206.756,46.552 206.756,45 C206.756,43.448 207.844,42.152 209.348,42.152 C210.852,42.152 211.94,43.448 211.94,45 C211.94,46.552 210.852,47.848 209.348,47.848 Z M216.9,49 L216.9,43.688 C217.476,42.792 218.356,42.152 219.284,42.152 C219.988,42.152 220.42,42.408 220.676,42.792 C221.06,43.368 221.092,44.216 221.092,45 L221.092,49 L222.548,49 L222.548,44.84 C222.548,43.624 222.372,42.552 221.828,41.816 C221.364,41.192 220.628,40.808 219.508,40.808 C218.436,40.808 217.492,41.368 216.9,42.312 L216.9,41 L215.444,41 L215.444,49 L216.9,49 Z M227.62,49.16 C228.148,49.16 228.708,49.016 229.108,48.808 L228.708,47.64 C228.452,47.768 228.132,47.864 227.812,47.864 C227.012,47.864 226.74,47.368 226.692,46.52 C226.68,46.34 226.677,46.196 226.67625,46.0475 L226.676,42.28 L228.916,42.28 L228.916,41 L226.676,41 L226.676,39.08 L225.22,39.08 L225.22,41 L224.148,41 L224.148,42.28 L225.22,42.28 L225.22,46.248 C225.22,46.872 225.284,47.464 225.476,47.912 C225.812,48.664 226.5,49.16 227.62,49.16 Z M232.132,49 L232.132,43.64 C232.628,42.776 233.22,42.296 234.036,42.296 C234.34,42.296 234.548,42.344 234.788,42.456 L235.06,40.904 C234.756,40.84 234.532,40.808 234.196,40.808 C233.332,40.808 232.612,41.464 232.132,42.328 L232.132,41 L230.676,41 L230.676,49 L232.132,49 Z M239.796,49.192 C242.132,49.192 243.876,47.336 243.876,45 C243.876,42.664 242.132,40.808 239.796,40.808 C237.46,40.808 235.716,42.664 235.716,45 C235.716,47.336 237.46,49.192 239.796,49.192 Z M239.796,47.848 C238.292,47.848 237.204,46.552 237.204,45 C237.204,43.448 238.292,42.152 239.796,42.152 C241.3,42.152 242.388,43.448 242.388,45 C242.388,46.552 241.3,47.848 239.796,47.848 Z M247.348,49 L247.348,37 L245.892,37 L245.892,49 L247.348,49 Z M256.516,49.16 C257.044,49.16 257.604,49.016 258.004,48.808 L257.604,47.64 C257.348,47.768 257.028,47.864 256.708,47.864 C255.908,47.864 255.636,47.368 255.588,46.52 C255.572,46.28 255.572,46.104 255.572,45.896 L255.572,42.28 L257.812,42.28 L257.812,41 L255.572,41 L255.572,39.08 L254.116,39.08 L254.116,41 L253.044,41 L253.044,42.28 L254.116,42.28 L254.116,46.248 C254.116,46.872 254.18,47.464 254.372,47.912 C254.708,48.664 255.396,49.16 256.516,49.16 Z M261.028,49 L261.028,43.688 C261.604,42.792 262.484,42.152 263.412,42.152 C264.116,42.152 264.548,42.408 264.804,42.792 C265.188,43.368 265.22,44.216 265.22,45 L265.22,49 L266.676,49 L266.676,44.84 C266.676,43.624 266.5,42.552 265.956,41.816 C265.492,41.192 264.756,40.808 263.636,40.808 C262.564,40.808 261.62,41.368 261.028,42.312 L261.028,37 L259.572,37 L259.572,49 L261.028,49 Z M272.564,49.192 C274.18,49.192 275.268,48.6 276.068,47.32 L275.012,46.648 C274.532,47.56 273.684,47.944 272.628,47.944 C271.092,47.944 270.148,46.744 270.052,45.368 L276.148,45.368 C276.18,45.16 276.212,44.808 276.212,44.536 C276.212,42.392 274.676,40.808 272.564,40.808 C270.34,40.808 268.596,42.616 268.596,45 C268.596,47.336 270.02,49.192 272.564,49.192 Z M274.708,44.2 L270.164,44.2 C270.452,43 271.284,42.056 272.58,42.056 C273.78,42.056 274.644,43.064 274.708,44.2 Z M285.652,49.192 C286.612,49.192 287.508,48.888 288.1,48.408 L287.38,47.288 C286.948,47.608 286.212,47.848 285.684,47.848 C284.292,47.848 283.044,46.728 283.044,45 C283.044,43.416 284.228,42.152 285.668,42.152 C286.244,42.152 286.852,42.36 287.3,42.696 L287.988,41.496 C287.348,41.064 286.58,40.808 285.732,40.808 C283.396,40.808 281.556,42.664 281.556,45 C281.556,47.528 283.364,49.192 285.652,49.192 Z M292.18,49.192 C293.204,49.192 293.924,48.888 294.58,48.152 L294.58,49 L295.972,49 L295.972,44.136 C295.972,42.072 295.124,40.808 292.804,40.808 C291.7,40.808 290.484,41.16 289.652,41.56 L290.084,42.776 C290.724,42.424 291.7,42.072 292.628,42.072 C293.94,42.072 294.516,42.776 294.516,43.992 L294.516,44.28 C293.828,44.136 293.316,44.104 292.916,44.104 C291.156,44.104 289.348,44.728 289.348,46.76 C289.348,48.472 290.708,49.192 292.18,49.192 Z M292.356,47.976 C291.508,47.976 290.772,47.624 290.772,46.648 C290.772,45.448 292.084,45.208 293.076,45.208 C293.476,45.208 293.924,45.24 294.516,45.368 L294.516,47.016 C293.876,47.56 293.172,47.976 292.356,47.976 Z M300.02,49 L300.02,37 L298.564,37 L298.564,49 L300.02,49 Z M304.164,49 L304.164,37 L302.708,37 L302.708,49 L304.164,49 Z M312.612,49 L312.612,42.28 L314.772,42.28 L314.772,41 L312.612,41 L312.612,39.992 C312.612,39.272 312.66,38.712 313.028,38.408 C313.236,38.248 313.524,38.152 313.956,38.152 C314.244,38.152 314.5,38.2 314.74,38.28 L314.964,37.016 C314.58,36.888 314.164,36.808 313.78,36.808 C312.708,36.808 312.052,37.16 311.652,37.752 C311.3,38.28 311.156,39.016 311.156,39.848 L311.156,41 L310.244,41 L310.244,42.28 L311.156,42.28 L311.156,49 L312.612,49 Z M317.7,49 L317.7,37 L316.244,37 L316.244,49 L317.7,49 Z M323.796,49.192 C326.132,49.192 327.876,47.336 327.876,45 C327.876,42.664 326.132,40.808 323.796,40.808 C321.46,40.808 319.716,42.664 319.716,45 C319.716,47.336 321.46,49.192 323.796,49.192 Z M323.796,47.848 C322.292,47.848 321.204,46.552 321.204,45 C321.204,43.448 322.292,42.152 323.796,42.152 C325.3,42.152 326.388,43.448 326.388,45 C326.388,46.552 325.3,47.848 323.796,47.848 Z M332.644,49 L334.404,42.776 L334.436,42.776 L336.148,49 L337.716,49 L340.02,41 L338.548,41 L336.916,47.16 L336.868,47.16 L335.252,41 L333.684,41 L331.908,47.16 L331.876,47.16 L330.372,41 L328.804,41 L331.012,49 L332.644,49 Z" id="PlivorequestsyourappserverforavalidXMLtocontrolthecallfow" fill="#000000" fill-rule="nonzero"></path>
        </g>
        <g id="Group" transform="translate(625.000000, 71.000000)">
            <g id="Oval">
                <use fill="black" fill-opacity="1" filter="url(#filter-2)" xlink:href="#path-1"></use>
                <use stroke="#05D06D" stroke-width="0.5" fill="#FFFFFF" fill-rule="evenodd" xlink:href="#path-1"></use>
            </g>
            <g id="Group-23" transform="translate(58.000000, 49.000000)">
                <path d="M69.3683523,21.896 L4.32801136,21.896 C1.93653409,21.896 0.000170454545,19.9588889 0.000170454545,17.5685926 L0.000170454545,4.3257037 C0.000170454545,1.93711111 1.93653409,-1.21055429e-14 4.32801136,-1.21055429e-14 L69.3683523,-1.21055429e-14 C71.758125,-1.21055429e-14 73.6961932,1.93711111 73.6961932,4.3257037 L73.6961932,17.5685926 C73.6961932,19.9588889 71.758125,21.896 69.3683523,21.896" id="Fill-1" fill="#A9EBAC"></path>
                <path d="M69.3683523,48.2161778 L4.32801136,48.2161778 C1.93653409,48.2161778 0.000170454545,46.2790667 0.000170454545,43.8904741 L0.000170454545,30.6458815 C0.000170454545,28.2572889 1.93653409,26.3201778 4.32801136,26.3201778 L69.3683523,26.3201778 C71.758125,26.3201778 73.6961932,28.2572889 73.6961932,30.6458815 L73.6961932,43.8904741 C73.6961932,46.2790667 71.758125,48.2161778 69.3683523,48.2161778" id="Fill-3" fill="#A9EBAC"></path>
                <path d="M69.3683523,74.537037 L4.32801136,74.537037 C1.93653409,74.537037 0.000170454545,72.5999259 0.000170454545,70.2113333 L0.000170454545,56.9667407 C0.000170454545,54.5781481 1.93653409,52.641037 4.32801136,52.641037 L69.3683523,52.641037 C71.758125,52.641037 73.6961932,54.5781481 73.6961932,56.9667407 L73.6961932,70.2113333 C73.6961932,72.5999259 71.758125,74.537037 69.3683523,74.537037" id="Fill-5" fill="#A9EBAC"></path>
                <path d="M67.4856818,10.9476593 C67.4856818,14.0262519 64.9902273,16.5204741 61.9101136,16.5204741 C58.8317045,16.5204741 56.3345455,14.0262519 56.3345455,10.9476593 C56.3345455,7.86906667 58.8317045,5.37484444 61.9101136,5.37484444 C64.9902273,5.37484444 67.4856818,7.86906667 67.4856818,10.9476593" id="Fill-7" fill="#69C26B"></path>
                <path d="M26.8029545,14.2927111 L7.56375,14.2927111 C6.81545455,14.2927111 6.21034091,13.6878963 6.21034091,12.9399704 L6.21034091,8.95500741 C6.21034091,8.20878519 6.81545455,7.60397037 7.56375,7.60397037 L26.8029545,7.60397037 C27.5495455,7.60397037 28.1563636,8.20878519 28.1563636,8.95500741 L28.1563636,12.9399704 C28.1563636,13.6878963 27.5495455,14.2927111 26.8029545,14.2927111" id="Fill-9" fill="#69C26B"></path>
                <path d="M56.3345455,37.2685185 C56.3345455,34.1899259 58.8317045,31.6957037 61.9101136,31.6957037 C64.9902273,31.6957037 67.4856818,34.1899259 67.4856818,37.2685185 C67.4856818,40.3471111 64.9902273,42.8413333 61.9101136,42.8413333 C58.8317045,42.8413333 56.3345455,40.3471111 56.3345455,37.2685185" id="Fill-11" fill="#69C26B"></path>
                <path d="M26.8029545,40.6135704 L7.56375,40.6135704 C6.81545455,40.6135704 6.21034091,40.0087556 6.21034091,39.2608296 L6.21034091,35.2758667 C6.21034091,34.5296444 6.81545455,33.9248296 7.56375,33.9248296 L26.8029545,33.9248296 C27.5495455,33.9248296 28.1563636,34.5296444 28.1563636,35.2758667 L28.1563636,39.2608296 C28.1563636,40.0087556 27.5495455,40.6135704 26.8029545,40.6135704" id="Fill-13" fill="#69C26B"></path>
                <path d="M67.4856818,63.5893778 C67.4856818,66.6679704 64.9902273,69.1621926 61.9101136,69.1621926 C58.8317045,69.1621926 56.3345455,66.6679704 56.3345455,63.5893778 C56.3345455,60.5107852 58.8317045,58.016563 61.9101136,58.016563 C64.9902273,58.016563 67.4856818,60.5107852 67.4856818,63.5893778" id="Fill-15" fill="#69C26B"></path>
                <path d="M26.8029545,66.9344296 L7.56375,66.9344296 C6.81545455,66.9344296 6.21034091,66.3296148 6.21034091,65.5816889 L6.21034091,61.5967259 C6.21034091,60.8505037 6.81545455,60.2456889 7.56375,60.2456889 L26.8029545,60.2456889 C27.5495455,60.2456889 28.1563636,60.8505037 28.1563636,61.5967259 L28.1563636,65.5816889 C28.1563636,66.3296148 27.5495455,66.9344296 26.8029545,66.9344296" id="Fill-17" fill="#69C26B"></path>
                <mask id="mask-4" fill="white">
                    <use xlink:href="#path-3"></use>
                </mask>
                <g id="Clip-20"></g>
                <polygon id="Fill-19" fill="#A9EBAC" mask="url(#mask-4)" points="32.5840909 83.6225481 39.3698864 83.6225481 39.3698864 74.5366963 32.5840909 74.5366963"></polygon>
                <polygon id="Fill-21" fill="#A9EBAC" mask="url(#mask-4)" points="0 89.229437 72.3852273 89.229437 72.3852273 83.6208444 0 83.6208444"></polygon>
                <polygon id="Fill-22" fill="#A9EBAC" mask="url(#mask-4)" points="31.2784091 90.5344741 40.6738636 90.5344741 40.6738636 78.4041037 31.2784091 78.4041037"></polygon>
            </g>
        </g>
        <g id="Group-11" transform="translate(87.000000, 71.000000)">
            <g id="Group-5" transform="translate(17.000000, 0.000000)">
                <g id="Oval">
                    <use fill="black" fill-opacity="1" filter="url(#filter-6)" xlink:href="#path-5"></use>
                    <use stroke="#05D06D" stroke-width="0.5" fill="#FFFFFF" fill-rule="evenodd" xlink:href="#path-5"></use>
                </g>
                <g id="Group-12" transform="translate(70.000000, 42.000000)">
                    <g id="Group-3" transform="translate(0.000000, 1.251313)">
                        <mask id="mask-8" fill="white">
                            <use xlink:href="#path-7"></use>
                        </mask>
                        <g id="Clip-2"></g>
                        <path d="M45.43097,102.580303 L5.41297,102.580303 C2.42267,102.580303 -0.00153,100.144013 -0.00153,97.1366903 L-0.00153,5.90317419 C-0.00153,2.89585161 2.42267,0.45956129 5.41297,0.45956129 L45.43097,0.45956129 C48.42127,0.45956129 50.84547,2.89585161 50.84547,5.90317419 L50.84547,97.1366903 C50.84547,100.144013 48.42127,102.580303 45.43097,102.580303" id="Fill-1" fill="#A9EBAC" mask="url(#mask-8)"></path>
                    </g>
                    <path d="M29.47698,9.89116774 L21.36628,9.89116774 C21.05518,9.89116774 20.80018,9.63642581 20.80018,9.32184516 C20.80018,9.00555484 21.05518,8.7508129 21.36628,8.7508129 L29.47698,8.7508129 C29.78978,8.7508129 30.04308,9.00555484 30.04308,9.32184516 C30.04308,9.63642581 29.78978,9.89116774 29.47698,9.89116774" id="Fill-4" fill="#69C26B"></path>
                    <path d="M26.27622,6.70809032 C26.27622,7.18338065 25.89372,7.56805806 25.42282,7.56805806 C24.95022,7.56805806 24.56772,7.18338065 24.56772,6.70809032 C24.56772,6.23450968 24.95022,5.84983226 25.42282,5.84983226 C25.89372,5.84983226 26.27622,6.23450968 26.27622,6.70809032" id="Fill-6" fill="#69C26B"></path>
                    <path d="M30.30369,96.2122677 C30.30369,98.9238161 28.11919,101.122461 25.42299,101.122461 C22.72679,101.122461 20.54059,98.9238161 20.54059,96.2122677 C20.54059,93.5007194 22.72679,91.3020742 25.42299,91.3020742 C28.11919,91.3020742 30.30369,93.5007194 30.30369,96.2122677" id="Fill-8" fill="#69C26B"></path>
                    <path d="M36.22547,68.3207613 C35.49617,68.3207613 34.76517,68.1515032 34.11067,67.8317935 C30.27887,65.9614065 24.49547,62.5061484 18.69337,56.6710194 C12.88957,50.8358903 9.45387,45.0178581 7.59237,41.1659548 C6.68627,39.288729 7.07047,37.0302452 8.54777,35.5462452 L12.60057,31.4960194 L20.89657,39.8922452 L16.91177,43.9544387 L16.99337,44.1425032 C17.06307,44.2963742 18.72227,47.9841484 22.92467,52.210471 C27.12877,56.4419226 30.75657,58.0678258 30.90787,58.1362129 L31.09317,58.2165677 L35.21057,54.2090839 L43.73777,62.7967935 L39.70197,66.8692452 C38.76867,67.8061484 37.53617,68.3207613 36.22547,68.3207613 C36.22547,68.3207613 36.22717,68.3207613 36.22547,68.3207613" id="Fill-10" fill="#69C26B"></path>
                </g>
            </g>
            <path d="M14.376,227 L14.376,224.456 L6.864,224.456 L6.864,219.632 L14.376,219.632 L14.376,217.088 L6.864,217.088 L6.864,212.744 L14.376,212.744 L14.376,210.2 L3.888,210.2 L3.888,227 L14.376,227 Z M20.472,227 L20.472,218.792 C21.192,217.64 22.392,216.896 23.544,216.896 C24.432,216.896 25.056,217.208 25.416,217.832 C25.872,218.6 25.896,219.752 25.896,220.784 L25.896,227 L28.8,227 L28.8,220.568 C28.8,218.768 28.608,217.136 27.696,215.936 C26.928,214.952 25.776,214.352 24.288,214.352 C22.8,214.352 21.336,215.048 20.352,216.464 L20.208,214.64 L17.568,214.64 L17.568,227 L20.472,227 Z M37.296,227.288 C38.664,227.288 40.272,226.76 41.16,225.416 L41.304,227 L43.968,227 L43.968,209 L41.04,209 L41.04,215.912 C40.08,214.856 38.616,214.352 37.344,214.352 C33.792,214.352 31.368,217.4 31.368,220.784 C31.368,224.384 33.888,227.288 37.296,227.288 Z M37.848,224.744 C35.664,224.744 34.32,222.872 34.32,220.856 C34.32,218.96 35.472,216.896 37.896,216.896 C39.024,216.896 40.2,217.376 41.04,218.456 L41.04,222.824 C40.344,224.168 39,224.744 37.848,224.744 Z M60.336,227.288 C65.064,227.288 67.056,224.384 67.056,219.104 L67.056,210.2 L64.08,210.2 L64.08,219.608 C64.08,223.016 62.664,224.672 60.384,224.672 C58.128,224.672 56.712,223.016 56.712,219.608 L56.712,210.2 L53.736,210.2 L53.736,219.104 C53.736,224.384 55.728,227.288 60.336,227.288 Z M74.448,227.288 C76.848,227.288 79.104,226.088 79.104,223.352 C79.104,221.072 77.088,220.232 75.504,219.608 C74.4,219.152 73.368,218.72 73.368,217.88 C73.368,217.136 73.992,216.68 74.832,216.68 C75.744,216.68 76.68,217.112 77.28,217.64 L78.912,215.864 C77.832,214.856 76.368,214.352 74.832,214.352 C72.648,214.352 70.584,215.576 70.584,218.096 C70.584,220.304 72.456,221.144 73.92,221.744 C75.024,222.2 76.224,222.68 76.224,223.544 C76.224,224.528 75.264,224.96 74.376,224.96 C73.272,224.96 72.432,224.456 71.544,223.568 L69.768,225.248 C70.968,226.568 72.624,227.288 74.448,227.288 Z M87.36,227.288 C89.928,227.288 91.536,226.328 92.904,224.312 L90.936,222.992 C90.168,224.288 89.136,224.912 87.528,224.912 C85.512,224.912 84.264,223.4 84.072,221.552 L93.072,221.552 C93.144,221.096 93.192,220.544 93.192,220.088 C93.192,216.776 90.72,214.352 87.36,214.352 C83.856,214.352 81.144,217.184 81.144,220.904 C81.144,224.576 83.544,227.288 87.36,227.288 Z M90.216,219.464 L84.24,219.464 C84.624,217.88 85.656,216.68 87.432,216.68 C88.968,216.68 90.144,217.856 90.216,219.464 Z M98.808,227 L98.808,218.672 C99.408,217.616 100.296,217.016 101.352,217.016 C101.808,217.016 102.168,217.088 102.528,217.28 L103.176,214.568 C102.72,214.424 102.264,214.352 101.688,214.352 C100.416,214.352 99.432,215.192 98.688,216.392 L98.544,214.64 L95.88,214.64 L95.88,227 L98.808,227 Z M115.704,227.288 C117.072,227.288 118.68,226.76 119.568,225.416 L119.712,227 L122.376,227 L122.376,209 L119.448,209 L119.448,215.912 C118.488,214.856 117.024,214.352 115.752,214.352 C112.2,214.352 109.776,217.4 109.776,220.784 C109.776,224.384 112.296,227.288 115.704,227.288 Z M116.256,224.744 C114.072,224.744 112.728,222.872 112.728,220.856 C112.728,218.96 113.88,216.896 116.304,216.896 C117.432,216.896 118.608,217.376 119.448,218.456 L119.448,222.824 C118.752,224.168 117.408,224.744 116.256,224.744 Z M128.88,212.624 L128.88,209.912 L125.976,209.912 L125.976,212.624 L128.88,212.624 Z M128.88,227 L128.88,214.64 L125.976,214.64 L125.976,227 L128.88,227 Z M136.272,227.288 C137.688,227.288 138.888,226.904 139.776,225.848 L139.92,227 L142.512,227 L142.512,219.536 C142.512,216.32 141,214.352 137.496,214.352 C135.72,214.352 133.824,214.856 132.36,215.576 L133.152,217.76 C134.208,217.208 135.576,216.68 136.968,216.68 C138.864,216.68 139.608,217.688 139.608,219.368 L139.608,219.656 C138.696,219.464 137.928,219.392 137.28,219.392 C134.664,219.392 131.832,220.352 131.832,223.424 C131.832,226.016 133.968,227.288 136.272,227.288 Z M136.8,225.128 C135.672,225.128 134.688,224.576 134.688,223.328 C134.688,221.72 136.344,221.288 137.712,221.288 C138.264,221.288 138.864,221.36 139.608,221.528 L139.608,223.904 C138.768,224.624 137.88,225.128 136.8,225.128 Z M148.896,227 L148.896,209 L145.992,209 L145.992,227 L148.896,227 Z M156.12,227.288 C158.52,227.288 160.776,226.088 160.776,223.352 C160.776,221.072 158.76,220.232 157.176,219.608 C156.072,219.152 155.04,218.72 155.04,217.88 C155.04,217.136 155.664,216.68 156.504,216.68 C157.416,216.68 158.352,217.112 158.952,217.64 L160.584,215.864 C159.504,214.856 158.04,214.352 156.504,214.352 C154.32,214.352 152.256,215.576 152.256,218.096 C152.256,220.304 154.128,221.144 155.592,221.744 C156.696,222.2 157.896,222.68 157.896,223.544 C157.896,224.528 156.936,224.96 156.048,224.96 C154.944,224.96 154.104,224.456 153.216,223.568 L151.44,225.248 C152.64,226.568 154.296,227.288 156.12,227.288 Z M172.632,233 L172.632,225.752 C173.592,226.808 175.056,227.288 176.352,227.288 C179.88,227.288 182.328,224.24 182.328,220.856 C182.328,217.232 179.784,214.352 176.4,214.352 C175.032,214.352 173.4,214.904 172.536,216.224 L172.368,214.64 L169.728,214.64 L169.728,233 L172.632,233 Z M175.8,224.744 C174.648,224.744 173.472,224.264 172.632,223.184 L172.632,218.816 C173.328,217.472 174.672,216.896 175.848,216.896 C178.008,216.896 179.376,218.768 179.376,220.784 C179.376,222.68 178.224,224.744 175.8,224.744 Z M187.92,227 L187.92,209 L185.016,209 L185.016,227 L187.92,227 Z M194.424,212.624 L194.424,209.912 L191.52,209.912 L191.52,212.624 L194.424,212.624 Z M194.424,227 L194.424,214.64 L191.52,214.64 L191.52,227 L194.424,227 Z M203.448,227 L208.416,214.64 L205.248,214.64 L202.416,223.088 L202.368,223.088 L199.56,214.64 L196.344,214.64 L201.024,227 L203.448,227 Z M215.856,227.288 C219.552,227.288 222.264,224.432 222.264,220.808 C222.264,217.208 219.552,214.352 215.856,214.352 C212.16,214.352 209.448,217.208 209.448,220.808 C209.448,224.432 212.16,227.288 215.856,227.288 Z M215.856,224.744 C213.84,224.744 212.4,222.992 212.4,220.808 C212.4,218.648 213.84,216.896 215.856,216.896 C217.872,216.896 219.312,218.648 219.312,220.808 C219.312,222.992 217.872,224.744 215.856,224.744 Z M72.432,258 L72.432,249.792 C73.152,248.64 74.352,247.896 75.504,247.896 C76.392,247.896 77.016,248.208 77.376,248.832 C77.832,249.6 77.856,250.752 77.856,251.784 L77.856,258 L80.76,258 L80.76,251.568 C80.76,249.768 80.568,248.136 79.656,246.936 C78.888,245.952 77.736,245.352 76.248,245.352 C74.76,245.352 73.296,246.048 72.312,247.464 L72.168,245.64 L69.528,245.64 L69.528,258 L72.432,258 Z M88.632,258.288 C90.12,258.288 91.584,257.592 92.568,256.176 L92.712,258 L95.352,258 L95.352,245.64 L92.448,245.64 L92.448,253.848 C91.728,255 90.528,255.744 89.376,255.744 C88.488,255.744 87.864,255.432 87.504,254.808 C87.086,254.104 87.031,253.077333 87.0247361,252.116208 L87.024,245.64 L84.12,245.64 L84.12,252.072 C84.12,253.872 84.312,255.504 85.224,256.704 C85.992,257.688 87.144,258.288 88.632,258.288 Z M101.856,258 L101.856,249.552 C102.552,248.664 103.656,247.896 104.64,247.896 C105.432,247.896 106.032,248.184 106.368,248.76 C106.848,249.528 106.848,250.752 106.848,251.784 L106.848,258 L109.752,258 L109.752,251.568 C109.752,250.872 109.728,250.176 109.632,249.576 C110.376,248.544 111.456,247.896 112.464,247.896 C113.328,247.896 113.952,248.208 114.312,248.832 C114.744,249.6 114.744,250.752 114.744,251.784 L114.744,258 L117.672,258 L117.672,251.568 C117.672,249.744 117.48,248.088 116.544,246.888 C115.8,245.928 114.672,245.352 113.232,245.352 C111.744,245.352 110.16,245.904 109.032,247.512 C108.936,247.32 108.864,247.176 108.768,247.032 C107.976,245.928 106.776,245.352 105.432,245.352 C104.136,245.352 102.696,246 101.736,247.296 L101.616,245.64 L98.952,245.64 L98.952,258 L101.856,258 Z M127.776,258.288 C131.304,258.288 133.752,255.24 133.752,251.856 C133.752,248.232 131.208,245.352 127.824,245.352 C126.504,245.352 124.968,245.88 124.056,247.056 L124.056,240 L121.152,240 L121.152,258 L123.792,258 L123.936,256.56 C124.848,257.76 126.432,258.288 127.776,258.288 Z M127.224,255.744 C126.072,255.744 124.896,255.264 124.056,254.184 L124.056,249.816 C124.752,248.472 126.096,247.896 127.272,247.896 C129.432,247.896 130.8,249.768 130.8,251.784 C130.8,253.68 129.648,255.744 127.224,255.744 Z M141.744,258.288 C144.312,258.288 145.92,257.328 147.288,255.312 L145.32,253.992 C144.552,255.288 143.52,255.912 141.912,255.912 C139.896,255.912 138.648,254.4 138.456,252.552 L147.456,252.552 C147.528,252.096 147.576,251.544 147.576,251.088 C147.576,247.776 145.104,245.352 141.744,245.352 C138.24,245.352 135.528,248.184 135.528,251.904 C135.528,255.576 137.928,258.288 141.744,258.288 Z M144.6,250.464 L138.624,250.464 C139.008,248.88 140.04,247.68 141.816,247.68 C143.352,247.68 144.528,248.856 144.6,250.464 Z M153.192,258 L153.192,249.672 C153.792,248.616 154.68,248.016 155.736,248.016 C156.192,248.016 156.552,248.088 156.912,248.28 L157.56,245.568 C157.104,245.424 156.648,245.352 156.072,245.352 C154.8,245.352 153.816,246.192 153.072,247.392 L152.928,245.64 L150.264,245.64 L150.264,258 L153.192,258 Z" id="EndUserdialsplivonumber" fill="#000000" fill-rule="nonzero"></path>
        </g>
        <g id="Group-6" transform="translate(624.000000, 510.000000)">
            <g id="Oval">
                <use fill="black" fill-opacity="1" filter="url(#filter-10)" xlink:href="#path-9"></use>
                <use stroke="#05D06D" stroke-width="0.5" fill="#FFFFFF" fill-rule="evenodd" xlink:href="#path-9"></use>
            </g>
            <g id="Group-21" transform="translate(50.000000, 50.000000)">
                <path d="M64.9380566,24.6363962 C64.2825849,23.9894151 63.3859811,23.5903585 62.394283,23.5903585 L3.62428302,23.5903585 C1.62220755,23.5903585 0.000509433962,25.2120566 0.000509433962,27.2141321 L0.000509433962,39.5899811 C0.000509433962,41.5903585 1.62220755,43.2120566 3.62428302,43.2120566 L46.0261698,43.2120566 C48.0673019,33.8775283 55.4982453,26.5179057 64.9380566,24.6363962" id="Fill-1" fill="#A9EBAC"></path>
                <path d="M48.4709434,59.9569811 C46.6250943,56.6201887 45.5162264,52.8283019 45.45,48.78 C45.4415094,48.2416981 45.4771698,47.7118868 45.5043396,47.1803774 L3.62377358,47.1803774 C1.62339623,47.1803774 0,48.8020755 0,50.8024528 L0,63.1783019 C0,65.1803774 1.62339623,66.8020755 3.62377358,66.8020755 L43.4818868,66.8020755 C44.8030189,64.3092453 46.4824528,62.01 48.4709434,59.9569811" id="Fill-3" fill="#A9EBAC"></path>
                <path d="M61.7043396,19.6233962 L4.31150943,19.6233962 C1.93075472,19.6233962 0,17.6926415 0,15.3118868 L0,4.31150943 C0,1.93075472 1.93075472,0 4.31150943,0 L61.7043396,0 C64.0867925,0 66.0175472,1.93075472 66.0175472,4.31150943 L66.0175472,15.3118868 C66.0175472,17.6926415 64.0867925,19.6233962 61.7043396,19.6233962" id="Fill-5" fill="#A9EBAC"></path>
                <path d="M60.4538491,9.81118868 C60.4538491,12.5706226 58.217434,14.8070377 55.4596981,14.8070377 C52.7002642,14.8070377 50.4638491,12.5706226 50.4638491,9.81118868 C50.4638491,7.05345283 52.7002642,4.81703774 55.4596981,4.81703774 C58.217434,4.81703774 60.4538491,7.05345283 60.4538491,9.81118868" id="Fill-7" fill="#69C26B"></path>
                <path d="M23.8730943,12.8093774 L6.91064151,12.8093774 C6.16686792,12.8093774 5.56233962,12.2065472 5.56233962,11.4610755 L5.56233962,8.16333962 C5.56233962,7.41786792 6.16686792,6.81503774 6.91064151,6.81503774 L23.8730943,6.81503774 C24.6168679,6.81503774 25.2213962,7.41786792 25.2213962,8.16333962 L25.2213962,11.4610755 C25.2213962,12.2065472 24.6168679,12.8093774 23.8730943,12.8093774" id="Fill-9" fill="#69C26B"></path>
                <path d="M23.8730943,36.3988868 L6.91064151,36.3988868 C6.16686792,36.3988868 5.56233962,35.7960566 5.56233962,35.0505849 L5.56233962,31.7528491 C5.56233962,31.0073774 6.16686792,30.4045472 6.91064151,30.4045472 L23.8730943,30.4045472 C24.6168679,30.4045472 25.2213962,31.0073774 25.2213962,31.7528491 L25.2213962,35.0505849 C25.2213962,35.7960566 24.6168679,36.3988868 23.8730943,36.3988868" id="Fill-11" fill="#69C26B"></path>
                <path d="M23.8730943,59.9883962 L6.91064151,59.9883962 C6.16686792,59.9883962 5.56233962,59.385566 5.56233962,58.6400943 L5.56233962,55.3423585 C5.56233962,54.5968868 6.16686792,53.9940566 6.91064151,53.9940566 L23.8730943,53.9940566 C24.6168679,53.9940566 25.2213962,54.5968868 25.2213962,55.3423585 L25.2213962,58.6400943 C25.2213962,59.385566 24.6168679,59.9883962 23.8730943,59.9883962" id="Fill-13" fill="#69C26B"></path>
                <mask id="mask-12" fill="white">
                    <use xlink:href="#path-11"></use>
                </mask>
                <g id="Clip-16"></g>
                <polygon id="Fill-15" fill="#A9EBAC" mask="url(#mask-12)" points="29.1888679 74.9445283 35.2681132 74.9445283 35.2681132 66.8020755 29.1888679 66.8020755"></polygon>
                <polygon id="Fill-17" fill="#A9EBAC" mask="url(#mask-12)" points="28.0188679 81.1409434 36.4364151 81.1409434 36.4364151 70.2696226 28.0188679 70.2696226"></polygon>
                <g id="Group-8" mask="url(#mask-12)">
                    <g transform="translate(47.379875, 31.012558)">
                        <path d="M33.1976347,29.9128574 C29.3785781,32.5754989 26.1470687,34.6828574 21.2310309,34.5792725 C17.1131064,34.4926687 13.0749932,33.433046 9.89782338,30.7517253 C9.71782338,30.5988951 9.63801206,30.4273857 9.60065356,30.2507819 C3.71499319,34.2073857 -0.121044548,40.9607819 0.00291771591,48.5785177 L0.215181867,54.6356876 C0.238955452,56.126631 1.46499319,57.3136121 2.95593658,57.2881404 L40.747446,57.2898385 C42.2383894,57.2643668 43.4253705,56.0383291 43.4019479,54.5473857 L43.3082007,47.8687064 C43.1842385,40.2832347 39.1665026,33.6826687 33.1976347,29.9128574" id="Fill-18" fill="#69C26B"></path>
                        <path d="M36.814446,15.4158951 C36.9570875,24.0711781 30.0559555,31.2015555 21.4023705,31.3424989 C12.7470875,31.4851404 5.61671017,24.5823102 5.47406866,15.9287253 C5.33312526,7.27514039 12.2325592,0.14476303 20.8878422,0.00212152057 C29.5431253,-0.138821876 36.6735026,6.76061209 36.814446,15.4158951" id="Fill-19" fill="#A9EBAC"></path>
                    </g>
                </g>
                <path d="M40.5840566,74.9446981 L0.000849056604,74.9446981 L0.000849056604,79.9711132 L39.9999057,79.9711132 C40.0542453,78.2662075 40.2546226,76.5867736 40.5840566,74.9446981" id="Fill-20" fill="#A9EBAC" mask="url(#mask-12)"></path>
            </g>
        </g>
        <path d="M612.372,310 L612.372,303.496 L614.604,303.496 C617.436,303.496 620.748,302.128 620.748,298.336 C620.748,294.568 617.412,293.2 614.604,293.2 L609.396,293.2 L609.396,310 L612.372,310 Z M614.052,300.952 L612.372,300.952 L612.372,295.744 L614.532,295.744 C616.356,295.744 617.604,296.752 617.604,298.408 C617.604,300.28 616.092,300.952 614.052,300.952 Z M626.1,310 L626.1,292 L623.196,292 L623.196,310 L626.1,310 Z M632.604,295.624 L632.604,292.912 L629.7,292.912 L629.7,295.624 L632.604,295.624 Z M632.604,310 L632.604,297.64 L629.7,297.64 L629.7,310 L632.604,310 Z M641.628,310 L646.596,297.64 L643.428,297.64 L640.596,306.088 L640.548,306.088 L637.74,297.64 L634.524,297.64 L639.204,310 L641.628,310 Z M654.036,310.288 C657.732,310.288 660.444,307.432 660.444,303.808 C660.444,300.208 657.732,297.352 654.036,297.352 C650.34,297.352 647.628,300.208 647.628,303.808 C647.628,307.432 650.34,310.288 654.036,310.288 Z M654.036,307.744 C652.02,307.744 650.58,305.992 650.58,303.808 C650.58,301.648 652.02,299.896 654.036,299.896 C656.052,299.896 657.492,301.648 657.492,303.808 C657.492,305.992 656.052,307.744 654.036,307.744 Z M676.284,310 L682.98,293.2 L679.716,293.2 L675.252,305.464 L675.228,305.464 L670.86,293.2 L667.452,293.2 L673.812,310 L676.284,310 Z M690.396,310.288 C694.092,310.288 696.804,307.432 696.804,303.808 C696.804,300.208 694.092,297.352 690.396,297.352 C686.7,297.352 683.988,300.208 683.988,303.808 C683.988,307.432 686.7,310.288 690.396,310.288 Z M690.396,307.744 C688.38,307.744 686.94,305.992 686.94,303.808 C686.94,301.648 688.38,299.896 690.396,299.896 C692.412,299.896 693.852,301.648 693.852,303.808 C693.852,305.992 692.412,307.744 690.396,307.744 Z M702.396,295.624 L702.396,292.912 L699.492,292.912 L699.492,295.624 L702.396,295.624 Z M702.396,310 L702.396,297.64 L699.492,297.64 L699.492,310 L702.396,310 Z M711.372,310.288 C713.028,310.288 714.468,309.832 715.548,308.896 L714.036,306.832 C713.34,307.432 712.452,307.744 711.564,307.744 C709.644,307.744 708.036,306.112 708.036,303.808 C708.036,301.648 709.572,299.896 711.588,299.896 C712.5,299.896 713.34,300.232 714.036,300.832 L715.476,298.672 C714.372,297.832 713.004,297.352 711.492,297.352 C707.772,297.352 705.084,300.208 705.084,303.808 C705.084,307.672 707.772,310.288 711.372,310.288 Z M723.204,310.288 C725.772,310.288 727.38,309.328 728.748,307.312 L726.78,305.992 C726.012,307.288 724.98,307.912 723.372,307.912 C721.356,307.912 720.108,306.4 719.916,304.552 L728.916,304.552 C728.988,304.096 729.036,303.544 729.036,303.088 C729.036,299.776 726.564,297.352 723.204,297.352 C719.7,297.352 716.988,300.184 716.988,303.904 C716.988,307.576 719.388,310.288 723.204,310.288 Z M726.06,302.464 L720.084,302.464 C720.468,300.88 721.5,299.68 723.276,299.68 C724.812,299.68 725.988,300.856 726.06,302.464 Z M740.94,310 L740.94,303.496 L743.172,303.496 C746.004,303.496 749.316,302.128 749.316,298.336 C749.316,294.568 745.98,293.2 743.172,293.2 L737.964,293.2 L737.964,310 L740.94,310 Z M742.62,300.952 L740.94,300.952 L740.94,295.744 L743.1,295.744 C744.924,295.744 746.172,296.752 746.172,298.408 C746.172,300.28 744.66,300.952 742.62,300.952 Z M754.668,310 L754.668,292 L751.764,292 L751.764,310 L754.668,310 Z M762.06,310.288 C763.476,310.288 764.676,309.904 765.564,308.848 L765.708,310 L768.3,310 L768.3,302.536 C768.3,299.32 766.788,297.352 763.284,297.352 C761.508,297.352 759.612,297.856 758.148,298.576 L758.94,300.76 C759.996,300.208 761.364,299.68 762.756,299.68 C764.652,299.68 765.396,300.688 765.396,302.368 L765.396,302.656 C764.484,302.464 763.716,302.392 763.068,302.392 C760.452,302.392 757.62,303.352 757.62,306.424 C757.62,309.016 759.756,310.288 762.06,310.288 Z M762.588,308.128 C761.46,308.128 760.476,307.576 760.476,306.328 C760.476,304.72 762.132,304.288 763.5,304.288 C764.052,304.288 764.652,304.36 765.396,304.528 L765.396,306.904 C764.556,307.624 763.668,308.128 762.588,308.128 Z M775.692,310.264 C776.604,310.264 777.66,310.024 778.38,309.616 L777.516,307.408 C777.108,307.624 776.676,307.744 776.148,307.744 C775.236,307.744 774.9,307.192 774.804,306.232 C774.78,305.848 774.78,305.56 774.78,305.2 L774.78,300.088 L778.044,300.088 L778.044,297.64 L774.78,297.64 L774.78,294.808 L772.164,294.808 L771.852,297.64 L770.316,297.64 L770.316,300.088 L771.852,300.088 L771.852,305.632 C771.852,306.448 771.924,307.264 772.164,307.912 C772.644,309.328 773.844,310.264 775.692,310.264 Z M783.78,310 L783.78,300.088 L786.972,300.088 L786.972,297.64 L783.78,297.64 L783.78,296.536 C783.78,295.72 783.852,295.048 784.236,294.664 C784.476,294.4 784.836,294.256 785.412,294.256 C786.06,294.256 786.564,294.4 787.068,294.64 L787.932,292.36 C787.092,291.952 786.084,291.712 785.124,291.712 C783.444,291.712 782.364,292.192 781.716,293.056 C781.116,293.848 780.876,294.952 780.876,296.32 L780.876,297.64 L779.508,297.64 L779.508,300.088 L780.876,300.088 L780.876,310 L783.78,310 Z M794.34,310.288 C798.036,310.288 800.748,307.432 800.748,303.808 C800.748,300.208 798.036,297.352 794.34,297.352 C790.644,297.352 787.932,300.208 787.932,303.808 C787.932,307.432 790.644,310.288 794.34,310.288 Z M794.34,307.744 C792.324,307.744 790.884,305.992 790.884,303.808 C790.884,301.648 792.324,299.896 794.34,299.896 C796.356,299.896 797.796,301.648 797.796,303.808 C797.796,305.992 796.356,307.744 794.34,307.744 Z M806.364,310 L806.364,301.672 C806.964,300.616 807.852,300.016 808.908,300.016 C809.364,300.016 809.724,300.088 810.084,300.28 L810.732,297.568 C810.276,297.424 809.82,297.352 809.244,297.352 C807.972,297.352 806.988,298.192 806.244,299.392 L806.1,297.64 L803.436,297.64 L803.436,310 L806.364,310 Z M815.148,310 L815.148,301.552 C815.844,300.664 816.948,299.896 817.932,299.896 C818.724,299.896 819.324,300.184 819.66,300.76 C820.103077,301.468923 820.13716,302.566391 820.139782,303.542733 L820.14,310 L823.044,310 L823.044,303.568 C823.044,302.872 823.02,302.176 822.924,301.576 C823.668,300.544 824.748,299.896 825.756,299.896 C826.62,299.896 827.244,300.208 827.604,300.832 C828,301.536 828.033,302.562667 828.03575,303.523792 L828.036,310 L830.964,310 L830.964,303.568 C830.964,301.744 830.772,300.088 829.836,298.888 C829.092,297.928 827.964,297.352 826.524,297.352 C825.036,297.352 823.452,297.904 822.324,299.512 C822.228,299.32 822.156,299.176 822.06,299.032 C821.268,297.928 820.068,297.352 818.724,297.352 C817.428,297.352 815.988,298 815.028,299.296 L814.908,297.64 L812.244,297.64 L812.244,310 L815.148,310 Z" id="PlivoVoicePlatform" fill="#000000" fill-rule="nonzero"></path>
        <g id="Group-18" transform="translate(460.000000, 165.000000) scale(-1, 1) translate(-460.000000, -165.000000) translate(332.000000, 156.000000)">
            <line x1="254.5" y1="8.93" x2="5.5" y2="8.93" id="Path" stroke="#05D06D" stroke-width="3" stroke-linecap="round" stroke-linejoin="round"></line>
            <polygon id="Path" fill="#05D06D" fill-rule="nonzero" points="0 9 16 18 16 0 0 9 16 18 16 0"></polygon>
        </g>
        <line x1="824" y1="410" x2="687.76" y2="410.26" id="Path" stroke="#05D06D" stroke-width="3" stroke-linecap="round" stroke-linejoin="round" transform="translate(756.000000, 410.500000) scale(1, -1) rotate(90.000000) translate(-756.000000, -410.500000) "></line>
        <polygon id="Path" fill="#05D06D" fill-rule="nonzero" transform="translate(756.000000, 476.000000) scale(1, -1) rotate(90.000000) translate(-756.000000, -476.000000) " points="748 476 764 485 764 467 748 476 764 485 764 467"></polygon>
        <circle id="Oval" stroke="#05D06D" stroke-width="3" fill="#FFFFFF" cx="756" cy="413" r="23"></circle>
        <path d="M761.126,420 L761.126,417.712 L755.12,417.712 C756.44,416.304 757.826,414.742 758.948,413.158 C759.806,411.948 760.488,410.496 760.488,409.088 C760.488,406.602 758.244,405.106 755.89,405.106 C753.58,405.106 751.402,406.668 751.204,409.088 L753.866,409.55 C753.888,408.252 754.702,407.416 755.802,407.416 C756.858,407.416 757.76,408.054 757.76,409.132 C757.76,410.056 757.122,411.112 756.572,411.904 C755.208,413.818 753.228,416.106 751.534,417.866 L751.534,420 L761.126,420 Z" id="2" fill="#333333" fill-rule="nonzero"></path>
        <line x1="751" y1="415" x2="614.76" y2="415.26" id="Path" stroke="#05D06D" stroke-width="3" stroke-linecap="round" stroke-linejoin="round" transform="translate(683.000000, 415.500000) rotate(90.000000) translate(-683.000000, -415.500000) "></line>
        <polygon id="Path" fill="#05D06D" fill-rule="nonzero" transform="translate(683.000000, 350.000000) rotate(90.000000) translate(-683.000000, -350.000000) " points="675 350 691 359 691 341 675 350 691 359 691 341"></polygon>
        <circle id="Oval" stroke="#05D06D" stroke-width="3" fill="#FFFFFF" cx="683" cy="413" r="23"></circle>
        <path d="M682.725,420.264 C685.497,420.264 687.829,418.592 687.829,415.754 C687.829,414.104 686.817,412.674 685.321,412.146 C686.399,411.552 687.125,410.298 687.125,409.022 C687.125,406.624 684.969,405.106 682.351,405.106 C680.349,405.106 678.633,406.184 678.039,407.966 L680.305,408.956 C680.569,407.966 681.361,407.416 682.329,407.416 C683.605,407.416 684.419,408.208 684.419,409.242 C684.419,410.188 683.737,410.914 682.725,411.178 C682.263,411.288 681.625,411.354 680.855,411.354 L680.855,413.73 C681.383,413.62 681.889,413.598 682.241,413.598 C683.847,413.598 685.079,414.434 685.079,415.842 C685.079,417.25 683.913,417.954 682.659,417.954 C681.537,417.954 680.569,417.404 680.063,416.348 L677.863,417.448 C678.743,419.318 680.745,420.264 682.725,420.264 Z" id="3" fill="#333333" fill-rule="nonzero"></path>
        <circle id="Oval" stroke="#05D06D" stroke-width="3" fill="#FFFFFF" cx="460" cy="165" r="23"></circle>
        <path d="M462.013,172 L462.013,157.37 L460.253,157.37 C459.241,157.942 458.119,158.536 457.195,158.998 L457.195,161.44 C457.789,161.176 458.669,160.846 459.329,160.516 L459.329,172 L462.013,172 Z" id="1" fill="#000000" fill-rule="nonzero"></path>
        <rect id="Rectangle" stroke="#05D06D" stroke-width="0.5" fill="#FFFFFF" x="121.75" y="568.25" width="399.5" height="65.5" rx="6"></rect>
        <path d="M252.168,597 L256.504,585.8 L254.824,585.8 L251.576,594.664 L251.56,594.664 L248.312,585.8 L246.536,585.8 L250.824,597 L252.168,597 Z M260.28,597.192 C261.304,597.192 262.024,596.888 262.68,596.152 L262.68,597 L264.072,597 L264.072,592.136 C264.072,590.072 263.224,588.808 260.904,588.808 C259.8,588.808 258.584,589.16 257.752,589.56 L258.184,590.776 C258.824,590.424 259.8,590.072 260.728,590.072 C262.04,590.072 262.616,590.776 262.616,591.992 L262.616,592.28 C261.928,592.136 261.416,592.104 261.016,592.104 C259.256,592.104 257.448,592.728 257.448,594.76 C257.448,596.472 258.808,597.192 260.28,597.192 Z M260.456,595.976 C259.608,595.976 258.872,595.624 258.872,594.648 C258.872,593.448 260.184,593.208 261.176,593.208 C261.576,593.208 262.024,593.24 262.616,593.368 L262.616,595.016 C261.976,595.56 261.272,595.976 260.456,595.976 Z M268.12,597 L268.12,585 L266.664,585 L266.664,597 L268.12,597 Z M272.264,587.432 L272.264,585.8 L270.808,585.8 L270.808,587.432 L272.264,587.432 Z M272.264,597 L272.264,589 L270.808,589 L270.808,597 L272.264,597 Z M278.28,597.192 C279.24,597.192 280.248,596.776 280.824,595.928 L280.824,597 L282.28,597 L282.28,585 L280.824,585 L280.824,589.88 C280.184,589.224 279.24,588.808 278.312,588.808 C275.864,588.808 274.28,590.872 274.28,593 C274.28,595.336 275.976,597.192 278.28,597.192 Z M278.472,595.848 C276.808,595.848 275.768,594.504 275.768,593.032 C275.768,591.64 276.648,590.152 278.504,590.152 C279.32,590.152 280.264,590.584 280.824,591.368 L280.824,594.344 C280.408,595.32 279.336,595.848 278.472,595.848 Z M289.64,597 L292.776,592.568 L296.024,597 L297.96,597 L293.832,591.336 L297.896,585.8 L295.992,585.8 L292.904,590.104 L289.8,585.8 L287.832,585.8 L291.816,591.304 L287.704,597 L289.64,597 Z M301.096,597 L301.096,587.544 L304.856,597 L305.928,597 L309.752,587.544 L309.752,597 L311.288,597 L311.288,585.8 L308.856,585.8 L305.4,594.552 L301.992,585.8 L299.56,585.8 L299.56,597 L301.096,597 Z M320.728,597 L320.728,595.624 L315.864,595.624 L315.864,585.8 L314.328,585.8 L314.328,597 L320.728,597 Z M328.632,597.16 C329.16,597.16 329.72,597.016 330.12,596.808 L329.72,595.64 C329.464,595.768 329.144,595.864 328.824,595.864 C328.024,595.864 327.752,595.368 327.704,594.52 C327.692,594.34 327.689,594.196 327.68825,594.0475 L327.688,590.28 L329.928,590.28 L329.928,589 L327.688,589 L327.688,587.08 L326.232,587.08 L326.232,589 L325.16,589 L325.16,590.28 L326.232,590.28 L326.232,594.248 C326.232,594.872 326.296,595.464 326.488,595.912 C326.824,596.664 327.512,597.16 328.632,597.16 Z M335.096,597.192 C337.432,597.192 339.176,595.336 339.176,593 C339.176,590.664 337.432,588.808 335.096,588.808 C332.76,588.808 331.016,590.664 331.016,593 C331.016,595.336 332.76,597.192 335.096,597.192 Z M335.096,595.848 C333.592,595.848 332.504,594.552 332.504,593 C332.504,591.448 333.592,590.152 335.096,590.152 C336.6,590.152 337.688,591.448 337.688,593 C337.688,594.552 336.6,595.848 335.096,595.848 Z M348.616,597.192 C349.576,597.192 350.472,596.888 351.064,596.408 L350.344,595.288 C349.912,595.608 349.176,595.848 348.648,595.848 C347.256,595.848 346.008,594.728 346.008,593 C346.008,591.416 347.192,590.152 348.632,590.152 C349.208,590.152 349.816,590.36 350.264,590.696 L350.952,589.496 C350.312,589.064 349.544,588.808 348.696,588.808 C346.36,588.808 344.52,590.664 344.52,593 C344.52,595.528 346.328,597.192 348.616,597.192 Z M356.2,597.192 C358.536,597.192 360.28,595.336 360.28,593 C360.28,590.664 358.536,588.808 356.2,588.808 C353.864,588.808 352.12,590.664 352.12,593 C352.12,595.336 353.864,597.192 356.2,597.192 Z M356.2,595.848 C354.696,595.848 353.608,594.552 353.608,593 C353.608,591.448 354.696,590.152 356.2,590.152 C357.704,590.152 358.792,591.448 358.792,593 C358.792,594.552 357.704,595.848 356.2,595.848 Z M363.752,597 L363.752,591.688 C364.328,590.792 365.208,590.152 366.136,590.152 C366.84,590.152 367.272,590.408 367.528,590.792 C367.912,591.368 367.944,592.216 367.944,593 L367.944,597 L369.4,597 L369.4,592.84 C369.4,591.624 369.224,590.552 368.68,589.816 C368.216,589.192 367.48,588.808 366.36,588.808 C365.288,588.808 364.344,589.368 363.752,590.312 L363.752,589 L362.296,589 L362.296,597 L363.752,597 Z M374.472,597.16 C375,597.16 375.56,597.016 375.96,596.808 L375.56,595.64 C375.304,595.768 374.984,595.864 374.664,595.864 C373.864,595.864 373.592,595.368 373.544,594.52 C373.532,594.34 373.529,594.196 373.52825,594.0475 L373.528,590.28 L375.768,590.28 L375.768,589 L373.528,589 L373.528,587.08 L372.072,587.08 L372.072,589 L371,589 L371,590.28 L372.072,590.28 L372.072,594.248 C372.072,594.872 372.136,595.464 372.328,595.912 C372.664,596.664 373.352,597.16 374.472,597.16 Z M378.984,597 L378.984,591.64 C379.48,590.776 380.072,590.296 380.888,590.296 C381.192,590.296 381.4,590.344 381.64,590.456 L381.912,588.904 C381.608,588.84 381.384,588.808 381.048,588.808 C380.184,588.808 379.464,589.464 378.984,590.328 L378.984,589 L377.528,589 L377.528,597 L378.984,597 Z M386.648,597.192 C388.984,597.192 390.728,595.336 390.728,593 C390.728,590.664 388.984,588.808 386.648,588.808 C384.312,588.808 382.568,590.664 382.568,593 C382.568,595.336 384.312,597.192 386.648,597.192 Z M386.648,595.848 C385.144,595.848 384.056,594.552 384.056,593 C384.056,591.448 385.144,590.152 386.648,590.152 C388.152,590.152 389.24,591.448 389.24,593 C389.24,594.552 388.152,595.848 386.648,595.848 Z M394.2,597 L394.2,585 L392.744,585 L392.744,597 L394.2,597 Z M265.224,617.16 C265.752,617.16 266.312,617.016 266.712,616.808 L266.312,615.64 C266.056,615.768 265.736,615.864 265.416,615.864 C264.616,615.864 264.344,615.368 264.296,614.52 C264.28,614.28 264.28,614.104 264.28,613.896 L264.28,610.28 L266.52,610.28 L266.52,609 L264.28,609 L264.28,607.08 L262.824,607.08 L262.824,609 L261.752,609 L261.752,610.28 L262.824,610.28 L262.824,614.248 C262.824,614.872 262.888,615.464 263.08,615.912 C263.416,616.664 264.104,617.16 265.224,617.16 Z M269.736,617 L269.736,611.688 C270.312,610.792 271.192,610.152 272.12,610.152 C272.824,610.152 273.256,610.408 273.512,610.792 C273.896,611.368 273.928,612.216 273.928,613 L273.928,617 L275.384,617 L275.384,612.84 C275.384,611.624 275.208,610.552 274.664,609.816 C274.2,609.192 273.464,608.808 272.344,608.808 C271.272,608.808 270.328,609.368 269.736,610.312 L269.736,605 L268.28,605 L268.28,617 L269.736,617 Z M281.272,617.192 C282.888,617.192 283.976,616.6 284.776,615.32 L283.72,614.648 C283.24,615.56 282.392,615.944 281.336,615.944 C279.8,615.944 278.856,614.744 278.76,613.368 L284.856,613.368 C284.888,613.16 284.92,612.808 284.92,612.536 C284.92,610.392 283.384,608.808 281.272,608.808 C279.048,608.808 277.304,610.616 277.304,613 C277.304,615.336 278.728,617.192 281.272,617.192 Z M283.416,612.2 L278.872,612.2 C279.16,611 279.992,610.056 281.288,610.056 C282.488,610.056 283.352,611.064 283.416,612.2 Z M294.344,617.192 C296.68,617.192 298.424,615.336 298.424,613 C298.424,610.664 296.68,608.808 294.344,608.808 C292.008,608.808 290.264,610.664 290.264,613 C290.264,615.336 292.008,617.192 294.344,617.192 Z M294.344,615.848 C292.84,615.848 291.752,614.552 291.752,613 C291.752,611.448 292.84,610.152 294.344,610.152 C295.848,610.152 296.936,611.448 296.936,613 C296.936,614.552 295.848,615.848 294.344,615.848 Z M301.896,617 L301.896,611.688 C302.472,610.792 303.352,610.152 304.28,610.152 C304.984,610.152 305.416,610.408 305.672,610.792 C306.056,611.368 306.088,612.216 306.088,613 L306.088,617 L307.544,617 L307.544,612.84 C307.544,611.624 307.368,610.552 306.824,609.816 C306.36,609.192 305.624,608.808 304.504,608.808 C303.432,608.808 302.488,609.368 301.896,610.312 L301.896,609 L300.44,609 L300.44,617 L301.896,617 Z M313.432,620.552 C314.936,620.552 316.328,620.04 317.048,618.648 C317.336,618.088 317.464,617.384 317.464,616.552 L317.464,609 L316.008,609 L316.008,609.88 C315.368,609.224 314.424,608.808 313.496,608.808 C311.048,608.808 309.464,610.808 309.464,612.904 C309.464,615.208 311.176,617 313.448,617 C314.408,617 315.432,616.584 316.008,615.736 L316.008,616.84 C316.008,618.552 314.776,619.208 313.4,619.208 C312.392,619.208 311.192,618.776 310.456,618.248 L309.896,619.496 C310.856,620.2 312.2,620.552 313.432,620.552 Z M313.64,615.656 C312.008,615.656 310.952,614.376 310.952,612.936 C310.952,611.576 311.832,610.152 313.688,610.152 C314.504,610.152 315.448,610.584 316.008,611.368 L316.008,614.168 C315.592,615.128 314.504,615.656 313.64,615.656 Z M323.464,617.192 C325.8,617.192 327.544,615.336 327.544,613 C327.544,610.664 325.8,608.808 323.464,608.808 C321.128,608.808 319.384,610.664 319.384,613 C319.384,615.336 321.128,617.192 323.464,617.192 Z M323.464,615.848 C321.96,615.848 320.872,614.552 320.872,613 C320.872,611.448 321.96,610.152 323.464,610.152 C324.968,610.152 326.056,611.448 326.056,613 C326.056,614.552 324.968,615.848 323.464,615.848 Z M331.016,607.432 L331.016,605.8 L329.56,605.8 L329.56,607.432 L331.016,607.432 Z M331.016,617 L331.016,609 L329.56,609 L329.56,617 L331.016,617 Z M335.16,617 L335.16,611.688 C335.736,610.792 336.616,610.152 337.544,610.152 C338.248,610.152 338.68,610.408 338.936,610.792 C339.32,611.368 339.352,612.216 339.352,613 L339.352,617 L340.808,617 L340.808,612.84 C340.808,611.624 340.632,610.552 340.088,609.816 C339.624,609.192 338.888,608.808 337.768,608.808 C336.696,608.808 335.752,609.368 335.16,610.312 L335.16,609 L333.704,609 L333.704,617 L335.16,617 Z M346.696,620.552 C348.2,620.552 349.592,620.04 350.312,618.648 C350.6,618.088 350.728,617.384 350.728,616.552 L350.728,609 L349.272,609 L349.272,609.88 C348.632,609.224 347.688,608.808 346.76,608.808 C344.312,608.808 342.728,610.808 342.728,612.904 C342.728,615.208 344.44,617 346.712,617 C347.672,617 348.696,616.584 349.272,615.736 L349.272,616.84 C349.272,618.552 348.04,619.208 346.664,619.208 C345.656,619.208 344.456,618.776 343.72,618.248 L343.16,619.496 C344.12,620.2 345.464,620.552 346.696,620.552 Z M346.904,615.656 C345.272,615.656 344.216,614.376 344.216,612.936 C344.216,611.576 345.096,610.152 346.952,610.152 C347.768,610.152 348.712,610.584 349.272,611.368 L349.272,614.168 C348.856,615.128 347.768,615.656 346.904,615.656 Z M360.744,617.192 C361.704,617.192 362.6,616.888 363.192,616.408 L362.472,615.288 C362.04,615.608 361.304,615.848 360.776,615.848 C359.384,615.848 358.136,614.728 358.136,613 C358.136,611.416 359.32,610.152 360.76,610.152 C361.336,610.152 361.944,610.36 362.392,610.696 L363.08,609.496 C362.44,609.064 361.672,608.808 360.824,608.808 C358.488,608.808 356.648,610.664 356.648,613 C356.648,615.528 358.456,617.192 360.744,617.192 Z M367.272,617.192 C368.296,617.192 369.016,616.888 369.672,616.152 L369.672,617 L371.064,617 L371.064,612.136 C371.064,610.072 370.216,608.808 367.896,608.808 C366.792,608.808 365.576,609.16 364.744,609.56 L365.176,610.776 C365.816,610.424 366.792,610.072 367.72,610.072 C369.032,610.072 369.608,610.776 369.608,611.992 L369.608,612.28 C368.92,612.136 368.408,612.104 368.008,612.104 C366.248,612.104 364.44,612.728 364.44,614.76 C364.44,616.472 365.8,617.192 367.272,617.192 Z M367.448,615.976 C366.6,615.976 365.864,615.624 365.864,614.648 C365.864,613.448 367.176,613.208 368.168,613.208 C368.568,613.208 369.016,613.24 369.608,613.368 L369.608,615.016 C368.968,615.56 368.264,615.976 367.448,615.976 Z M375.112,617 L375.112,605 L373.656,605 L373.656,617 L375.112,617 Z M379.256,617 L379.256,605 L377.8,605 L377.8,617 L379.256,617 Z" id="ValidXMLtocontroltheongoingcall" fill="#000000" fill-rule="nonzero"></path>
        <path d="" id="Path-3" stroke="#979797"></path>
        <path d="M660,413 L322,413 L322,568" id="Path-4" stroke="#B0B0B0" stroke-dasharray="5"></path>
        <path d="M1117,413 L779,413 L779,568" id="Path-4-Copy" stroke="#B0B0B0" stroke-dasharray="5" transform="translate(948.000000, 490.500000) scale(-1, 1) translate(-948.000000, -490.500000) "></path>
        <path d="M636.852,740 L636.852,732.968 L642.372,723.2 L638.916,723.2 L635.532,729.656 L635.484,729.656 L632.22,723.2 L628.548,723.2 L633.876,732.848 L633.876,740 L636.852,740 Z M649.788,740.288 C653.484,740.288 656.196,737.432 656.196,733.808 C656.196,730.208 653.484,727.352 649.788,727.352 C646.092,727.352 643.38,730.208 643.38,733.808 C643.38,737.432 646.092,740.288 649.788,740.288 Z M649.788,737.744 C647.772,737.744 646.332,735.992 646.332,733.808 C646.332,731.648 647.772,729.896 649.788,729.896 C651.804,729.896 653.244,731.648 653.244,733.808 C653.244,735.992 651.804,737.744 649.788,737.744 Z M663.276,740.288 C664.764,740.288 666.228,739.592 667.212,738.176 L667.356,740 L669.996,740 L669.996,727.64 L667.092,727.64 L667.092,735.848 C666.372,737 665.172,737.744 664.02,737.744 C663.132,737.744 662.508,737.432 662.148,736.808 C661.73,736.104 661.675,735.077333 661.668736,734.116208 L661.668,727.64 L658.764,727.64 L658.764,734.072 C658.764,735.872 658.956,737.504 659.868,738.704 C660.636,739.688 661.788,740.288 663.276,740.288 Z M676.524,740 L676.524,731.672 C677.124,730.616 678.012,730.016 679.068,730.016 C679.524,730.016 679.884,730.088 680.244,730.28 L680.892,727.568 C680.436,727.424 679.98,727.352 679.404,727.352 C678.132,727.352 677.148,728.192 676.404,729.392 L676.26,727.64 L673.596,727.64 L673.596,740 L676.524,740 Z M690.204,740 L691.404,736.688 L697.884,736.688 L699.06,740 L702.468,740 L696.108,723.2 L693.636,723.2 L686.94,740 L690.204,740 Z M696.996,734.192 L692.316,734.192 L694.668,727.736 L694.692,727.736 L696.996,734.192 Z M707.484,746 L707.484,738.752 C708.444,739.808 709.908,740.288 711.204,740.288 C714.732,740.288 717.18,737.24 717.18,733.856 C717.18,730.232 714.636,727.352 711.252,727.352 C709.884,727.352 708.252,727.904 707.388,729.224 L707.22,727.64 L704.58,727.64 L704.58,746 L707.484,746 Z M710.652,737.744 C709.5,737.744 708.324,737.264 707.484,736.184 L707.484,731.816 C708.18,730.472 709.524,729.896 710.7,729.896 C712.86,729.896 714.228,731.768 714.228,733.784 C714.228,735.68 713.076,737.744 710.652,737.744 Z M722.772,746 L722.772,738.752 C723.732,739.808 725.196,740.288 726.492,740.288 C730.02,740.288 732.468,737.24 732.468,733.856 C732.468,730.232 729.924,727.352 726.54,727.352 C725.172,727.352 723.54,727.904 722.676,729.224 L722.508,727.64 L719.868,727.64 L719.868,746 L722.772,746 Z M725.94,737.744 C724.788,737.744 723.612,737.264 722.772,736.184 L722.772,731.816 C723.468,730.472 724.812,729.896 725.988,729.896 C728.148,729.896 729.516,731.768 729.516,733.784 C729.516,735.68 728.364,737.744 725.94,737.744 Z M746.604,740.288 C749.388,740.288 752.748,738.776 752.748,735.08 C752.748,731.696 749.964,730.592 747.492,729.752 C746.148,729.296 744.492,728.768 744.492,727.448 C744.492,726.176 745.596,725.48 746.988,725.48 C748.284,725.48 749.628,726.152 750.492,726.92 L752.244,724.784 C750.612,723.56 748.908,722.912 746.82,722.912 C744.06,722.912 741.516,724.4 741.516,727.592 C741.516,730.496 743.892,731.6 746.148,732.416 C747.9,733.04 749.604,733.64 749.604,735.248 C749.604,737 748.116,737.72 746.628,737.72 C744.9,737.72 743.796,737.072 742.332,735.656 L740.316,737.6 C742.14,739.4 744.06,740.288 746.604,740.288 Z M761.076,740.288 C763.644,740.288 765.252,739.328 766.62,737.312 L764.652,735.992 C763.884,737.288 762.852,737.912 761.244,737.912 C759.228,737.912 757.98,736.4 757.788,734.552 L766.788,734.552 C766.86,734.096 766.908,733.544 766.908,733.088 C766.908,729.776 764.436,727.352 761.076,727.352 C757.572,727.352 754.86,730.184 754.86,733.904 C754.86,737.576 757.26,740.288 761.076,740.288 Z M763.932,732.464 L757.956,732.464 C758.34,730.88 759.372,729.68 761.148,729.68 C762.684,729.68 763.86,730.856 763.932,732.464 Z M772.524,740 L772.524,731.672 C773.124,730.616 774.012,730.016 775.068,730.016 C775.524,730.016 775.884,730.088 776.244,730.28 L776.892,727.568 C776.436,727.424 775.98,727.352 775.404,727.352 C774.132,727.352 773.148,728.192 772.404,729.392 L772.26,727.64 L769.596,727.64 L769.596,740 L772.524,740 Z M783.828,740 L788.796,727.64 L785.628,727.64 L782.796,736.088 L782.748,736.088 L779.94,727.64 L776.724,727.64 L781.404,740 L783.828,740 Z M796.044,740.288 C798.612,740.288 800.22,739.328 801.588,737.312 L799.62,735.992 C798.852,737.288 797.82,737.912 796.212,737.912 C794.196,737.912 792.948,736.4 792.756,734.552 L801.756,734.552 C801.828,734.096 801.876,733.544 801.876,733.088 C801.876,729.776 799.404,727.352 796.044,727.352 C792.54,727.352 789.828,730.184 789.828,733.904 C789.828,737.576 792.228,740.288 796.044,740.288 Z M798.9,732.464 L792.924,732.464 C793.308,730.88 794.34,729.68 796.116,729.68 C797.652,729.68 798.828,730.856 798.9,732.464 Z M807.492,740 L807.492,731.672 C808.092,730.616 808.98,730.016 810.036,730.016 C810.492,730.016 810.852,730.088 811.212,730.28 L811.86,727.568 C811.404,727.424 810.948,727.352 810.372,727.352 C809.1,727.352 808.116,728.192 807.372,729.392 L807.228,727.64 L804.564,727.64 L804.564,740 L807.492,740 Z" id="YourAppServer" fill="#000000" fill-rule="nonzero"></path>
    </g>
</svg>