<svg width="116" height="120" viewBox="0 0 116 120" fill="none" xmlns="http://www.w3.org/2000/svg">
<path d="M113.245 72.0789C112.424 71.2569 111.448 70.6048 110.375 70.1599C109.301 69.715 108.15 69.486 106.988 69.486C105.826 69.486 104.675 69.715 103.602 70.1599C102.528 70.6048 101.553 71.2569 100.731 72.0789L85.0611 87.7489C84.4227 86.0748 83.2915 84.6337 81.817 83.616C80.3424 82.5983 78.5938 82.0519 76.8021 82.0489H56.6871L52.4451 77.6489C50.7813 75.9296 48.7895 74.5616 46.5876 73.6256C44.3858 72.6897 42.0186 72.2049 39.6261 72.1999H22.8621V69.8799C22.8618 69.4158 22.6774 68.9709 22.3492 68.6427C22.0211 68.3146 21.5761 68.1301 21.1121 68.1299H1.91309C1.44896 68.1299 1.00384 68.3143 0.675649 68.6424C0.347461 68.9706 0.163086 69.4158 0.163086 69.8799C0.163086 70.344 0.347461 70.7891 0.675649 71.1173C1.00384 71.4455 1.44896 71.6299 1.91309 71.6299H19.3621V115.943H1.91309C1.44896 115.943 1.00384 116.127 0.675649 116.455C0.347461 116.784 0.163086 117.229 0.163086 117.693C0.163086 118.157 0.347461 118.602 0.675649 118.93C1.00384 119.259 1.44896 119.443 1.91309 119.443H21.1131C21.5771 119.443 22.0221 119.258 22.3502 118.93C22.6784 118.602 22.8628 118.157 22.8631 117.693V115.378H77.4931C79.0684 115.382 80.6289 115.074 82.0843 114.471C83.5397 113.868 84.8611 112.983 85.9721 111.866L113.245 84.5919C114.067 83.7703 114.719 82.795 115.163 81.7215C115.608 80.648 115.837 79.4974 115.837 78.3354C115.837 77.1734 115.608 76.0228 115.163 74.9493C114.719 73.8758 114.067 72.9004 113.245 72.0789ZM110.77 82.1179L83.5001 109.391C82.714 110.181 81.7789 110.808 80.7491 111.235C79.7192 111.662 78.6149 111.88 77.5001 111.878H22.8621V75.6999H39.6261C41.5485 75.7037 43.4506 76.0931 45.2197 76.8451C46.9889 77.5971 48.5893 78.6964 49.9261 80.0779L54.6851 85.0179C54.8484 85.1871 55.0442 85.3217 55.2606 85.4136C55.4771 85.5055 55.7099 85.5529 55.9451 85.5529H76.8001C78.219 85.5529 79.5798 86.1165 80.5831 87.1199C81.5864 88.1232 82.1501 89.484 82.1501 90.9029C82.1501 92.3218 81.5864 93.6826 80.5831 94.6859C79.5798 95.6892 78.219 96.2529 76.8001 96.2529H51.4791C51.015 96.2529 50.5698 96.4373 50.2416 96.7654C49.9135 97.0936 49.7291 97.5388 49.7291 98.0029C49.7291 98.467 49.9135 98.9121 50.2416 99.2403C50.5698 99.5685 51.015 99.7529 51.4791 99.7529H76.8001C78.916 99.749 80.9606 98.9876 82.5637 97.6065C84.1667 96.2254 85.2222 94.316 85.5391 92.2239L103.204 74.5589C103.7 74.0575 104.29 73.659 104.94 73.3864C105.59 73.1138 106.288 72.9724 106.993 72.9704C107.698 72.9684 108.396 73.1058 109.048 73.3747C109.7 73.6436 110.292 74.0387 110.791 74.5373C111.289 75.0359 111.684 75.6281 111.953 76.2799C112.222 76.9317 112.359 77.6302 112.357 78.3353C112.355 79.0403 112.214 79.738 111.941 80.3882C111.668 81.0384 111.27 81.6283 110.768 82.1239L110.77 82.1179Z" fill="#05D06D"/>
<path d="M61.813 51.8477L59.77 54.3727C61.5923 56.0649 63.9089 57.1286 66.38 57.4077V59.3077H68.961V57.4927C73.074 57.2087 75.429 54.8267 75.429 51.5637C75.429 48.1037 72.848 46.7707 68.961 45.8917V40.5587C70.4598 40.9215 71.8443 41.6526 72.989 42.6857L74.918 40.0757C73.2603 38.5903 71.1752 37.6673 68.961 37.4387V35.6797H66.38V37.4097C62.891 37.8347 60.536 40.1897 60.536 43.2527C60.536 46.6007 62.891 47.8527 66.38 48.7527V54.2847C64.665 53.9011 63.0865 53.0587 61.813 51.8477ZM68.961 49.4087C70.975 50.0037 71.883 50.5997 71.883 51.9087C71.883 53.1567 70.891 54.2347 68.961 54.4617V49.4087ZM64.11 42.9407C64.1568 42.3371 64.4067 41.7672 64.8189 41.324C65.2312 40.8807 65.7815 40.5901 66.38 40.4997V45.2097C64.849 44.6717 64.11 44.0757 64.11 42.9407Z" fill="#05D06D"/>
<path d="M67.6001 73.4429C72.7323 73.4427 77.7492 71.9207 82.0164 69.0693C86.2835 66.2178 89.6093 62.1651 91.5732 57.4235C93.537 52.6819 94.0508 47.4645 93.0494 42.4309C92.0481 37.3974 89.5766 32.7738 85.9475 29.1449C82.3184 25.5159 77.6948 23.0446 72.6612 22.0435C67.6276 21.0423 62.4102 21.5562 57.6687 23.5203C52.9272 25.4843 48.8745 28.8103 46.0233 33.0775C43.172 37.3448 41.6501 42.3617 41.6501 47.4939C41.6581 54.3738 44.3947 60.9695 49.2596 65.8342C54.1244 70.6989 60.7203 73.4353 67.6001 73.4429ZM67.6001 25.0429C72.04 25.0431 76.3801 26.3599 80.0717 28.8266C83.7632 31.2934 86.6404 34.7994 88.3394 38.9013C90.0384 43.0032 90.483 47.5168 89.6168 51.8714C88.7507 56.226 86.6127 60.2259 83.4733 63.3654C80.3339 66.5049 76.3341 68.6431 71.9796 69.5094C67.6251 70.3758 63.1114 69.9314 59.0094 68.2326C54.9074 66.5338 51.4013 63.6567 48.9344 59.9653C46.4675 56.2738 45.1505 51.9338 45.1501 47.4939C45.157 41.542 47.5245 35.8359 51.7333 31.6273C55.942 27.4188 61.6482 25.0516 67.6001 25.0449V25.0429Z" fill="#05D06D"/>
<path d="M67.6 65.8446C71.2295 65.8446 74.7775 64.7683 77.7953 62.7519C80.8131 60.7355 83.1652 57.8694 84.5541 54.5162C85.9431 51.163 86.3065 47.4732 85.5984 43.9135C84.8903 40.3537 83.1426 37.0839 80.5761 34.5175C78.0097 31.951 74.7399 30.2033 71.1801 29.4952C67.6204 28.7871 63.9306 29.1505 60.5774 30.5395C57.2242 31.9284 54.3582 34.2805 52.3417 37.2983C50.3253 40.3161 49.249 43.8641 49.249 47.4936C49.2543 52.3589 51.1894 57.0235 54.6298 60.4639C58.0701 63.9042 62.7347 65.8393 67.6 65.8446ZM67.6 32.6446C70.5373 32.6446 73.4086 33.5156 75.8509 35.1475C78.2932 36.7794 80.1966 39.0989 81.3207 41.8126C82.4447 44.5263 82.7387 47.5124 82.1656 50.3932C81.5925 53.2741 80.178 55.9203 78.1009 57.9972C76.0239 60.0741 73.3776 61.4884 70.4967 62.0614C67.6158 62.6343 64.6297 62.34 61.9161 61.2158C59.2025 60.0916 56.8831 58.188 55.2514 55.7456C53.6197 53.3033 52.7488 50.4319 52.749 47.4946C52.7533 43.5572 54.3193 39.7822 57.1035 36.998C59.8876 34.2138 63.6626 32.6488 67.6 32.6446Z" fill="#05D06D"/>
<path d="M67.6001 17.6475C68.0642 17.6475 68.5094 17.4632 68.8375 17.135C69.1657 16.8068 69.3501 16.3617 69.3501 15.8975V11.0605C69.3501 10.5964 69.1657 10.1513 68.8375 9.82311C68.5094 9.49492 68.0642 9.31055 67.6001 9.31055C67.136 9.31055 66.6909 9.49492 66.3627 9.82311C66.0345 10.1513 65.8501 10.5964 65.8501 11.0605V15.8995C65.8502 16.1292 65.8956 16.3566 65.9836 16.5688C66.0716 16.7809 66.2006 16.9737 66.3631 17.136C66.5256 17.2983 66.7185 17.427 66.9307 17.5148C67.143 17.6026 67.3704 17.6477 67.6001 17.6475Z" fill="#05D06D"/>
<path d="M67.6001 6.23664C68.0642 6.23664 68.5094 6.05227 68.8375 5.72408C69.1657 5.39589 69.3501 4.95077 69.3501 4.48664V2.30664C69.3501 1.84251 69.1657 1.39739 68.8375 1.0692C68.5094 0.741015 68.0642 0.556641 67.6001 0.556641C67.136 0.556641 66.6909 0.741015 66.3627 1.0692C66.0345 1.39739 65.8501 1.84251 65.8501 2.30664V4.48664C65.85 4.71649 65.8951 4.94411 65.983 5.15649C66.0709 5.36887 66.1998 5.56184 66.3624 5.72437C66.5249 5.8869 66.7179 6.0158 66.9302 6.1037C67.1426 6.1916 67.3702 6.23677 67.6001 6.23664Z" fill="#05D06D"/>
<path d="M55 20.5997C55.464 20.5994 55.909 20.415 56.2371 20.0868C56.5653 19.7587 56.7497 19.3137 56.75 18.8497V14.0127C56.75 13.5486 56.5656 13.1034 56.2374 12.7753C55.9092 12.4471 55.4641 12.2627 55 12.2627C54.5359 12.2627 54.0908 12.4471 53.7626 12.7753C53.4344 13.1034 53.25 13.5486 53.25 14.0127V18.8507C53.2505 19.3146 53.4351 19.7593 53.7632 20.0872C54.0913 20.4151 54.5361 20.5994 55 20.5997Z" fill="#05D06D"/>
<path d="M55 9.18879C55.464 9.18852 55.909 9.00407 56.2371 8.67593C56.5653 8.3478 56.7497 7.90284 56.75 7.43879V5.25879C56.75 4.79466 56.5656 4.34954 56.2374 4.02135C55.9092 3.69316 55.4641 3.50879 55 3.50879C54.5359 3.50879 54.0908 3.69316 53.7626 4.02135C53.4344 4.34954 53.25 4.79466 53.25 5.25879V7.43879C53.2503 7.90284 53.4347 8.3478 53.7629 8.67593C54.091 9.00407 54.536 9.18852 55 9.18879Z" fill="#05D06D"/>
<path d="M80.2002 20.5997C80.6643 20.5997 81.1094 20.4153 81.4376 20.0871C81.7658 19.7589 81.9502 19.3138 81.9502 18.8497V14.0127C81.9502 13.5486 81.7658 13.1034 81.4376 12.7753C81.1094 12.4471 80.6643 12.2627 80.2002 12.2627C79.7361 12.2627 79.2909 12.4471 78.9628 12.7753C78.6346 13.1034 78.4502 13.5486 78.4502 14.0127V18.8507C78.4505 19.3147 78.635 19.7595 78.9631 20.0875C79.2913 20.4155 79.7362 20.5997 80.2002 20.5997Z" fill="#05D06D"/>
<path d="M80.2002 9.18879C80.6643 9.18879 81.1094 9.00441 81.4376 8.67623C81.7658 8.34804 81.9502 7.90292 81.9502 7.43879V5.25879C81.9502 4.79466 81.7658 4.34954 81.4376 4.02135C81.1094 3.69316 80.6643 3.50879 80.2002 3.50879C79.7361 3.50879 79.2909 3.69316 78.9628 4.02135C78.6346 4.34954 78.4502 4.79466 78.4502 5.25879V7.43879C78.4502 7.90292 78.6346 8.34804 78.9628 8.67623C79.2909 9.00441 79.7361 9.18879 80.2002 9.18879Z" fill="#05D06D"/>
</svg>
