<svg width="1440" height="348" viewBox="0 0 1440 348" fill="none" xmlns="http://www.w3.org/2000/svg">
<rect width="1440" height="348" fill="#F5FBFF"/>
<rect x="66.5" y="47.5" width="189" height="189" rx="94.5" stroke="#05D06D"/>
<path d="M95.582 144.482L97.2871 144.913C96.9297 146.313 96.2852 147.383 95.3535 148.121C94.4277 148.854 93.2939 149.22 91.9521 149.22C90.5635 149.22 89.4326 148.938 88.5596 148.376C87.6924 147.808 87.0303 146.987 86.5732 145.915C86.1221 144.843 85.8965 143.691 85.8965 142.461C85.8965 141.119 86.1514 139.95 86.6611 138.954C87.1768 137.952 87.9062 137.193 88.8496 136.678C89.7988 136.156 90.8418 135.896 91.9785 135.896C93.2676 135.896 94.3516 136.224 95.2305 136.88C96.1094 137.536 96.7217 138.459 97.0674 139.648L95.3887 140.044C95.0898 139.106 94.6562 138.424 94.0879 137.996C93.5195 137.568 92.8047 137.354 91.9434 137.354C90.9531 137.354 90.124 137.592 89.4561 138.066C88.7939 138.541 88.3281 139.18 88.0586 139.982C87.7891 140.779 87.6543 141.603 87.6543 142.452C87.6543 143.548 87.8125 144.506 88.1289 145.326C88.4512 146.141 88.9492 146.75 89.623 147.154C90.2969 147.559 91.0264 147.761 91.8115 147.761C92.7666 147.761 93.5752 147.485 94.2373 146.935C94.8994 146.384 95.3477 145.566 95.582 144.482ZM99.1768 149V139.666H100.601V141.081C100.964 140.419 101.298 139.982 101.603 139.771C101.913 139.561 102.253 139.455 102.622 139.455C103.155 139.455 103.697 139.625 104.248 139.965L103.703 141.433C103.316 141.204 102.93 141.09 102.543 141.09C102.197 141.09 101.887 141.195 101.611 141.406C101.336 141.611 101.14 141.898 101.022 142.268C100.847 142.83 100.759 143.445 100.759 144.113V149H99.1768ZM111.578 145.994L113.213 146.196C112.955 147.151 112.478 147.893 111.78 148.42C111.083 148.947 110.192 149.211 109.108 149.211C107.743 149.211 106.659 148.792 105.856 147.954C105.06 147.11 104.661 145.93 104.661 144.412C104.661 142.842 105.065 141.623 105.874 140.756C106.683 139.889 107.731 139.455 109.021 139.455C110.269 139.455 111.288 139.88 112.079 140.729C112.87 141.579 113.266 142.774 113.266 144.315C113.266 144.409 113.263 144.55 113.257 144.737H106.296C106.354 145.763 106.645 146.548 107.166 147.093C107.688 147.638 108.338 147.91 109.117 147.91C109.697 147.91 110.192 147.758 110.603 147.453C111.013 147.148 111.338 146.662 111.578 145.994ZM106.384 143.437H111.596C111.525 142.651 111.326 142.062 110.998 141.67C110.494 141.061 109.841 140.756 109.038 140.756C108.312 140.756 107.699 140.999 107.201 141.485C106.709 141.972 106.437 142.622 106.384 143.437ZM121.299 147.849C120.713 148.347 120.147 148.698 119.603 148.903C119.063 149.108 118.483 149.211 117.862 149.211C116.837 149.211 116.049 148.962 115.498 148.464C114.947 147.96 114.672 147.318 114.672 146.539C114.672 146.082 114.774 145.666 114.979 145.291C115.19 144.91 115.463 144.605 115.797 144.377C116.137 144.148 116.518 143.976 116.939 143.858C117.25 143.776 117.719 143.697 118.346 143.621C119.623 143.469 120.563 143.287 121.167 143.076C121.173 142.859 121.176 142.722 121.176 142.663C121.176 142.019 121.026 141.564 120.728 141.301C120.323 140.943 119.723 140.765 118.926 140.765C118.182 140.765 117.631 140.896 117.273 141.16C116.922 141.418 116.661 141.878 116.491 142.54L114.944 142.329C115.085 141.667 115.316 141.134 115.639 140.729C115.961 140.319 116.427 140.006 117.036 139.789C117.646 139.566 118.352 139.455 119.154 139.455C119.951 139.455 120.599 139.549 121.097 139.736C121.595 139.924 121.961 140.161 122.195 140.448C122.43 140.729 122.594 141.087 122.688 141.521C122.74 141.79 122.767 142.276 122.767 142.979V145.089C122.767 146.56 122.799 147.491 122.863 147.884C122.934 148.271 123.068 148.643 123.268 149H121.615C121.451 148.672 121.346 148.288 121.299 147.849ZM121.167 144.315C120.593 144.55 119.731 144.749 118.583 144.913C117.933 145.007 117.473 145.112 117.203 145.229C116.934 145.347 116.726 145.52 116.579 145.748C116.433 145.971 116.359 146.22 116.359 146.495C116.359 146.917 116.518 147.269 116.834 147.55C117.156 147.831 117.625 147.972 118.24 147.972C118.85 147.972 119.392 147.84 119.866 147.576C120.341 147.307 120.689 146.94 120.912 146.478C121.082 146.12 121.167 145.593 121.167 144.896V144.315ZM128.682 147.585L128.91 148.982C128.465 149.076 128.066 149.123 127.715 149.123C127.141 149.123 126.695 149.032 126.379 148.851C126.062 148.669 125.84 148.432 125.711 148.139C125.582 147.84 125.518 147.216 125.518 146.267V140.896H124.357V139.666H125.518V137.354L127.091 136.405V139.666H128.682V140.896H127.091V146.354C127.091 146.806 127.117 147.096 127.17 147.225C127.229 147.354 127.319 147.456 127.442 147.532C127.571 147.608 127.753 147.646 127.987 147.646C128.163 147.646 128.395 147.626 128.682 147.585ZM136.627 145.994L138.262 146.196C138.004 147.151 137.526 147.893 136.829 148.42C136.132 148.947 135.241 149.211 134.157 149.211C132.792 149.211 131.708 148.792 130.905 147.954C130.108 147.11 129.71 145.93 129.71 144.412C129.71 142.842 130.114 141.623 130.923 140.756C131.731 139.889 132.78 139.455 134.069 139.455C135.317 139.455 136.337 139.88 137.128 140.729C137.919 141.579 138.314 142.774 138.314 144.315C138.314 144.409 138.312 144.55 138.306 144.737H131.345C131.403 145.763 131.693 146.548 132.215 147.093C132.736 147.638 133.387 147.91 134.166 147.91C134.746 147.91 135.241 147.758 135.651 147.453C136.062 147.148 136.387 146.662 136.627 145.994ZM131.433 143.437H136.645C136.574 142.651 136.375 142.062 136.047 141.67C135.543 141.061 134.89 140.756 134.087 140.756C133.36 140.756 132.748 140.999 132.25 141.485C131.758 141.972 131.485 142.622 131.433 143.437ZM147.859 149L144.309 139.666H145.979L147.982 145.256C148.199 145.859 148.398 146.486 148.58 147.137C148.721 146.645 148.917 146.053 149.169 145.361L151.243 139.666H152.869L149.336 149H147.859ZM153.678 144.333C153.678 142.604 154.158 141.324 155.119 140.492C155.922 139.801 156.9 139.455 158.055 139.455C159.338 139.455 160.387 139.877 161.201 140.721C162.016 141.559 162.423 142.719 162.423 144.201C162.423 145.402 162.241 146.349 161.878 147.04C161.521 147.726 160.996 148.259 160.305 148.64C159.619 149.021 158.869 149.211 158.055 149.211C156.748 149.211 155.69 148.792 154.882 147.954C154.079 147.116 153.678 145.909 153.678 144.333ZM155.304 144.333C155.304 145.528 155.564 146.425 156.086 147.022C156.607 147.614 157.264 147.91 158.055 147.91C158.84 147.91 159.493 147.611 160.015 147.014C160.536 146.416 160.797 145.505 160.797 144.28C160.797 143.126 160.533 142.253 160.006 141.661C159.484 141.063 158.834 140.765 158.055 140.765C157.264 140.765 156.607 141.061 156.086 141.652C155.564 142.244 155.304 143.138 155.304 144.333ZM164.295 137.935V136.115H165.877V137.935H164.295ZM164.295 149V139.666H165.877V149H164.295ZM174.385 145.581L175.94 145.783C175.771 146.855 175.334 147.696 174.631 148.306C173.934 148.909 173.075 149.211 172.056 149.211C170.778 149.211 169.75 148.795 168.971 147.963C168.197 147.125 167.811 145.927 167.811 144.368C167.811 143.36 167.978 142.479 168.312 141.723C168.646 140.967 169.152 140.401 169.832 140.026C170.518 139.646 171.262 139.455 172.064 139.455C173.078 139.455 173.907 139.713 174.552 140.229C175.196 140.738 175.609 141.465 175.791 142.408L174.253 142.646C174.106 142.019 173.846 141.547 173.471 141.23C173.102 140.914 172.653 140.756 172.126 140.756C171.329 140.756 170.682 141.043 170.184 141.617C169.686 142.186 169.437 143.088 169.437 144.324C169.437 145.578 169.677 146.489 170.157 147.058C170.638 147.626 171.265 147.91 172.038 147.91C172.659 147.91 173.178 147.72 173.594 147.339C174.01 146.958 174.273 146.372 174.385 145.581ZM183.684 145.994L185.318 146.196C185.061 147.151 184.583 147.893 183.886 148.42C183.188 148.947 182.298 149.211 181.214 149.211C179.849 149.211 178.765 148.792 177.962 147.954C177.165 147.11 176.767 145.93 176.767 144.412C176.767 142.842 177.171 141.623 177.979 140.756C178.788 139.889 179.837 139.455 181.126 139.455C182.374 139.455 183.394 139.88 184.185 140.729C184.976 141.579 185.371 142.774 185.371 144.315C185.371 144.409 185.368 144.55 185.362 144.737H178.401C178.46 145.763 178.75 146.548 179.271 147.093C179.793 147.638 180.443 147.91 181.223 147.91C181.803 147.91 182.298 147.758 182.708 147.453C183.118 147.148 183.443 146.662 183.684 145.994ZM178.489 143.437H183.701C183.631 142.651 183.432 142.062 183.104 141.67C182.6 141.061 181.946 140.756 181.144 140.756C180.417 140.756 179.805 140.999 179.307 141.485C178.814 141.972 178.542 142.622 178.489 143.437ZM198.414 147.849C197.828 148.347 197.263 148.698 196.718 148.903C196.179 149.108 195.599 149.211 194.978 149.211C193.952 149.211 193.164 148.962 192.613 148.464C192.062 147.96 191.787 147.318 191.787 146.539C191.787 146.082 191.89 145.666 192.095 145.291C192.306 144.91 192.578 144.605 192.912 144.377C193.252 144.148 193.633 143.976 194.055 143.858C194.365 143.776 194.834 143.697 195.461 143.621C196.738 143.469 197.679 143.287 198.282 143.076C198.288 142.859 198.291 142.722 198.291 142.663C198.291 142.019 198.142 141.564 197.843 141.301C197.438 140.943 196.838 140.765 196.041 140.765C195.297 140.765 194.746 140.896 194.389 141.16C194.037 141.418 193.776 141.878 193.606 142.54L192.06 142.329C192.2 141.667 192.432 141.134 192.754 140.729C193.076 140.319 193.542 140.006 194.151 139.789C194.761 139.566 195.467 139.455 196.27 139.455C197.066 139.455 197.714 139.549 198.212 139.736C198.71 139.924 199.076 140.161 199.311 140.448C199.545 140.729 199.709 141.087 199.803 141.521C199.855 141.79 199.882 142.276 199.882 142.979V145.089C199.882 146.56 199.914 147.491 199.979 147.884C200.049 148.271 200.184 148.643 200.383 149H198.73C198.566 148.672 198.461 148.288 198.414 147.849ZM198.282 144.315C197.708 144.55 196.847 144.749 195.698 144.913C195.048 145.007 194.588 145.112 194.318 145.229C194.049 145.347 193.841 145.52 193.694 145.748C193.548 145.971 193.475 146.22 193.475 146.495C193.475 146.917 193.633 147.269 193.949 147.55C194.271 147.831 194.74 147.972 195.355 147.972C195.965 147.972 196.507 147.84 196.981 147.576C197.456 147.307 197.805 146.94 198.027 146.478C198.197 146.12 198.282 145.593 198.282 144.896V144.315ZM202.053 149.773L203.591 150.002C203.655 150.477 203.834 150.822 204.127 151.039C204.52 151.332 205.056 151.479 205.735 151.479C206.468 151.479 207.033 151.332 207.432 151.039C207.83 150.746 208.1 150.336 208.24 149.809C208.322 149.486 208.36 148.81 208.354 147.778C207.663 148.593 206.802 149 205.771 149C204.487 149 203.494 148.537 202.791 147.611C202.088 146.686 201.736 145.575 201.736 144.28C201.736 143.39 201.897 142.569 202.22 141.819C202.542 141.063 203.008 140.48 203.617 140.07C204.232 139.66 204.953 139.455 205.779 139.455C206.881 139.455 207.789 139.9 208.504 140.791V139.666H209.963V147.734C209.963 149.188 209.813 150.216 209.515 150.819C209.222 151.429 208.753 151.909 208.108 152.261C207.47 152.612 206.682 152.788 205.744 152.788C204.631 152.788 203.731 152.536 203.046 152.032C202.36 151.534 202.029 150.781 202.053 149.773ZM203.362 144.166C203.362 145.391 203.605 146.284 204.092 146.847C204.578 147.409 205.188 147.69 205.92 147.69C206.646 147.69 207.256 147.412 207.748 146.855C208.24 146.293 208.486 145.414 208.486 144.219C208.486 143.076 208.231 142.215 207.722 141.635C207.218 141.055 206.608 140.765 205.894 140.765C205.19 140.765 204.593 141.052 204.101 141.626C203.608 142.194 203.362 143.041 203.362 144.166ZM218.752 145.994L220.387 146.196C220.129 147.151 219.651 147.893 218.954 148.42C218.257 148.947 217.366 149.211 216.282 149.211C214.917 149.211 213.833 148.792 213.03 147.954C212.233 147.11 211.835 145.93 211.835 144.412C211.835 142.842 212.239 141.623 213.048 140.756C213.856 139.889 214.905 139.455 216.194 139.455C217.442 139.455 218.462 139.88 219.253 140.729C220.044 141.579 220.439 142.774 220.439 144.315C220.439 144.409 220.437 144.55 220.431 144.737H213.47C213.528 145.763 213.818 146.548 214.34 147.093C214.861 147.638 215.512 147.91 216.291 147.91C216.871 147.91 217.366 147.758 217.776 147.453C218.187 147.148 218.512 146.662 218.752 145.994ZM213.558 143.437H218.77C218.699 142.651 218.5 142.062 218.172 141.67C217.668 141.061 217.015 140.756 216.212 140.756C215.485 140.756 214.873 140.999 214.375 141.485C213.883 141.972 213.61 142.622 213.558 143.437ZM222.382 149V139.666H223.806V140.993C224.491 139.968 225.481 139.455 226.776 139.455C227.339 139.455 227.854 139.558 228.323 139.763C228.798 139.962 229.152 140.226 229.387 140.554C229.621 140.882 229.785 141.271 229.879 141.723C229.938 142.016 229.967 142.528 229.967 143.261V149H228.385V143.322C228.385 142.678 228.323 142.197 228.2 141.881C228.077 141.559 227.857 141.304 227.541 141.116C227.23 140.923 226.864 140.826 226.442 140.826C225.769 140.826 225.186 141.04 224.693 141.468C224.207 141.896 223.964 142.707 223.964 143.902V149H222.382ZM235.855 147.585L236.084 148.982C235.639 149.076 235.24 149.123 234.889 149.123C234.314 149.123 233.869 149.032 233.553 148.851C233.236 148.669 233.014 148.432 232.885 148.139C232.756 147.84 232.691 147.216 232.691 146.267V140.896H231.531V139.666H232.691V137.354L234.265 136.405V139.666H235.855V140.896H234.265V146.354C234.265 146.806 234.291 147.096 234.344 147.225C234.402 147.354 234.493 147.456 234.616 147.532C234.745 147.608 234.927 147.646 235.161 147.646C235.337 147.646 235.568 147.626 235.855 147.585Z" fill="black"/>
<path d="M382.731 143.061C383.317 142.475 383.317 141.525 382.731 140.939L373.185 131.393C372.599 130.808 371.649 130.808 371.064 131.393C370.478 131.979 370.478 132.929 371.064 133.515L379.549 142L371.064 150.485C370.478 151.071 370.478 152.021 371.064 152.607C371.649 153.192 372.599 153.192 373.185 152.607L382.731 143.061ZM309.663 143.5H381.67V140.5H309.663V143.5Z" fill="#05D06D"/>
<rect x="435.833" y="47.5" width="189" height="189" rx="94.5" stroke="#05D06D"/>
<path d="M475.394 149L480.342 136.115H482.179L487.452 149H485.51L484.007 145.098H478.619L477.204 149H475.394ZM479.111 143.709H483.479L482.135 140.141C481.725 139.057 481.42 138.166 481.221 137.469C481.057 138.295 480.825 139.115 480.526 139.93L479.111 143.709ZM494.668 149V147.822C494.076 148.748 493.206 149.211 492.058 149.211C491.313 149.211 490.628 149.006 490.001 148.596C489.38 148.186 488.896 147.614 488.551 146.882C488.211 146.144 488.041 145.297 488.041 144.342C488.041 143.41 488.196 142.566 488.507 141.811C488.817 141.049 489.283 140.466 489.904 140.062C490.525 139.657 491.22 139.455 491.987 139.455C492.55 139.455 493.051 139.575 493.49 139.815C493.93 140.05 494.287 140.357 494.562 140.738V136.115H496.136V149H494.668ZM489.667 144.342C489.667 145.537 489.919 146.431 490.423 147.022C490.927 147.614 491.521 147.91 492.207 147.91C492.898 147.91 493.484 147.629 493.965 147.066C494.451 146.498 494.694 145.634 494.694 144.474C494.694 143.196 494.448 142.259 493.956 141.661C493.464 141.063 492.857 140.765 492.137 140.765C491.434 140.765 490.845 141.052 490.37 141.626C489.901 142.2 489.667 143.105 489.667 144.342ZM504.688 149V147.822C504.096 148.748 503.226 149.211 502.077 149.211C501.333 149.211 500.647 149.006 500.021 148.596C499.399 148.186 498.916 147.614 498.57 146.882C498.23 146.144 498.061 145.297 498.061 144.342C498.061 143.41 498.216 142.566 498.526 141.811C498.837 141.049 499.303 140.466 499.924 140.062C500.545 139.657 501.239 139.455 502.007 139.455C502.569 139.455 503.07 139.575 503.51 139.815C503.949 140.05 504.307 140.357 504.582 140.738V136.115H506.155V149H504.688ZM499.687 144.342C499.687 145.537 499.938 146.431 500.442 147.022C500.946 147.614 501.541 147.91 502.227 147.91C502.918 147.91 503.504 147.629 503.984 147.066C504.471 146.498 504.714 145.634 504.714 144.474C504.714 143.196 504.468 142.259 503.976 141.661C503.483 141.063 502.877 140.765 502.156 140.765C501.453 140.765 500.864 141.052 500.39 141.626C499.921 142.2 499.687 143.105 499.687 144.342ZM514.039 149V140.896H512.642V139.666H514.039V138.673C514.039 138.046 514.095 137.58 514.206 137.275C514.358 136.865 514.625 136.534 515.006 136.282C515.393 136.024 515.932 135.896 516.623 135.896C517.068 135.896 517.561 135.948 518.1 136.054L517.862 137.434C517.534 137.375 517.224 137.346 516.931 137.346C516.45 137.346 516.11 137.448 515.911 137.653C515.712 137.858 515.612 138.242 515.612 138.805V139.666H517.432V140.896H515.612V149H514.039ZM524.788 149V147.629C524.062 148.684 523.074 149.211 521.826 149.211C521.275 149.211 520.76 149.105 520.279 148.895C519.805 148.684 519.45 148.42 519.216 148.104C518.987 147.781 518.826 147.389 518.732 146.926C518.668 146.615 518.636 146.123 518.636 145.449V139.666H520.218V144.843C520.218 145.669 520.25 146.226 520.314 146.513C520.414 146.929 520.625 147.257 520.947 147.497C521.27 147.731 521.668 147.849 522.143 147.849C522.617 147.849 523.062 147.729 523.479 147.488C523.895 147.242 524.188 146.911 524.357 146.495C524.533 146.073 524.621 145.464 524.621 144.667V139.666H526.203V149H524.788ZM528.69 149V139.666H530.114V140.993C530.8 139.968 531.79 139.455 533.085 139.455C533.647 139.455 534.163 139.558 534.632 139.763C535.106 139.962 535.461 140.226 535.695 140.554C535.93 140.882 536.094 141.271 536.188 141.723C536.246 142.016 536.275 142.528 536.275 143.261V149H534.693V143.322C534.693 142.678 534.632 142.197 534.509 141.881C534.386 141.559 534.166 141.304 533.85 141.116C533.539 140.923 533.173 140.826 532.751 140.826C532.077 140.826 531.494 141.04 531.002 141.468C530.516 141.896 530.272 142.707 530.272 143.902V149H528.69ZM544.801 145.581L546.356 145.783C546.187 146.855 545.75 147.696 545.047 148.306C544.35 148.909 543.491 149.211 542.472 149.211C541.194 149.211 540.166 148.795 539.387 147.963C538.613 147.125 538.227 145.927 538.227 144.368C538.227 143.36 538.394 142.479 538.728 141.723C539.062 140.967 539.568 140.401 540.248 140.026C540.934 139.646 541.678 139.455 542.48 139.455C543.494 139.455 544.323 139.713 544.968 140.229C545.612 140.738 546.025 141.465 546.207 142.408L544.669 142.646C544.522 142.019 544.262 141.547 543.887 141.23C543.518 140.914 543.069 140.756 542.542 140.756C541.745 140.756 541.098 141.043 540.6 141.617C540.102 142.186 539.853 143.088 539.853 144.324C539.853 145.578 540.093 146.489 540.573 147.058C541.054 147.626 541.681 147.91 542.454 147.91C543.075 147.91 543.594 147.72 544.01 147.339C544.426 146.958 544.689 146.372 544.801 145.581ZM551.164 147.585L551.393 148.982C550.947 149.076 550.549 149.123 550.197 149.123C549.623 149.123 549.178 149.032 548.861 148.851C548.545 148.669 548.322 148.432 548.193 148.139C548.064 147.84 548 147.216 548 146.267V140.896H546.84V139.666H548V137.354L549.573 136.405V139.666H551.164V140.896H549.573V146.354C549.573 146.806 549.6 147.096 549.652 147.225C549.711 147.354 549.802 147.456 549.925 147.532C550.054 147.608 550.235 147.646 550.47 147.646C550.646 147.646 550.877 147.626 551.164 147.585ZM552.729 137.935V136.115H554.311V137.935H552.729ZM552.729 149V139.666H554.311V149H552.729ZM556.139 144.333C556.139 142.604 556.619 141.324 557.58 140.492C558.383 139.801 559.361 139.455 560.516 139.455C561.799 139.455 562.848 139.877 563.662 140.721C564.477 141.559 564.884 142.719 564.884 144.201C564.884 145.402 564.702 146.349 564.339 147.04C563.981 147.726 563.457 148.259 562.766 148.64C562.08 149.021 561.33 149.211 560.516 149.211C559.209 149.211 558.151 148.792 557.343 147.954C556.54 147.116 556.139 145.909 556.139 144.333ZM557.765 144.333C557.765 145.528 558.025 146.425 558.547 147.022C559.068 147.614 559.725 147.91 560.516 147.91C561.301 147.91 561.954 147.611 562.476 147.014C562.997 146.416 563.258 145.505 563.258 144.28C563.258 143.126 562.994 142.253 562.467 141.661C561.945 141.063 561.295 140.765 560.516 140.765C559.725 140.765 559.068 141.061 558.547 141.652C558.025 142.244 557.765 143.138 557.765 144.333ZM566.747 149V139.666H568.171V140.993C568.856 139.968 569.847 139.455 571.142 139.455C571.704 139.455 572.22 139.558 572.688 139.763C573.163 139.962 573.518 140.226 573.752 140.554C573.986 140.882 574.15 141.271 574.244 141.723C574.303 142.016 574.332 142.528 574.332 143.261V149H572.75V143.322C572.75 142.678 572.688 142.197 572.565 141.881C572.442 141.559 572.223 141.304 571.906 141.116C571.596 140.923 571.229 140.826 570.808 140.826C570.134 140.826 569.551 141.04 569.059 141.468C568.572 141.896 568.329 142.707 568.329 143.902V149H566.747ZM576.134 146.214L577.698 145.968C577.786 146.595 578.029 147.075 578.428 147.409C578.832 147.743 579.395 147.91 580.115 147.91C580.842 147.91 581.381 147.764 581.732 147.471C582.084 147.172 582.26 146.823 582.26 146.425C582.26 146.067 582.104 145.786 581.794 145.581C581.577 145.44 581.038 145.262 580.177 145.045C579.017 144.752 578.211 144.5 577.76 144.289C577.314 144.072 576.975 143.776 576.74 143.401C576.512 143.021 576.397 142.602 576.397 142.145C576.397 141.729 576.491 141.345 576.679 140.993C576.872 140.636 577.133 140.34 577.461 140.105C577.707 139.924 578.041 139.771 578.463 139.648C578.891 139.52 579.348 139.455 579.834 139.455C580.566 139.455 581.208 139.561 581.759 139.771C582.315 139.982 582.726 140.27 582.989 140.633C583.253 140.99 583.435 141.471 583.534 142.074L581.987 142.285C581.917 141.805 581.712 141.43 581.372 141.16C581.038 140.891 580.563 140.756 579.948 140.756C579.222 140.756 578.703 140.876 578.393 141.116C578.082 141.356 577.927 141.638 577.927 141.96C577.927 142.165 577.991 142.35 578.12 142.514C578.249 142.684 578.451 142.824 578.727 142.936C578.885 142.994 579.351 143.129 580.124 143.34C581.243 143.639 582.022 143.885 582.462 144.078C582.907 144.266 583.256 144.541 583.508 144.904C583.76 145.268 583.886 145.719 583.886 146.258C583.886 146.785 583.73 147.283 583.42 147.752C583.115 148.215 582.673 148.575 582.093 148.833C581.513 149.085 580.856 149.211 580.124 149.211C578.911 149.211 577.985 148.959 577.347 148.455C576.714 147.951 576.31 147.204 576.134 146.214ZM496.654 173.788C495.781 172.687 495.043 171.397 494.439 169.921C493.836 168.444 493.534 166.915 493.534 165.333C493.534 163.938 493.76 162.603 494.211 161.325C494.738 159.843 495.553 158.366 496.654 156.896H497.788C497.079 158.114 496.61 158.984 496.382 159.506C496.024 160.314 495.743 161.158 495.538 162.037C495.286 163.133 495.16 164.234 495.16 165.342C495.16 168.16 496.036 170.976 497.788 173.788H496.654ZM499.036 165.333C499.036 163.604 499.517 162.324 500.478 161.492C501.28 160.801 502.259 160.455 503.413 160.455C504.696 160.455 505.745 160.877 506.56 161.721C507.374 162.559 507.781 163.719 507.781 165.201C507.781 166.402 507.6 167.349 507.236 168.04C506.879 168.726 506.354 169.259 505.663 169.64C504.978 170.021 504.228 170.211 503.413 170.211C502.106 170.211 501.049 169.792 500.24 168.954C499.438 168.116 499.036 166.909 499.036 165.333ZM500.662 165.333C500.662 166.528 500.923 167.425 501.444 168.022C501.966 168.614 502.622 168.91 503.413 168.91C504.198 168.91 504.852 168.611 505.373 168.014C505.895 167.416 506.155 166.505 506.155 165.28C506.155 164.126 505.892 163.253 505.364 162.661C504.843 162.063 504.192 161.765 503.413 161.765C502.622 161.765 501.966 162.061 501.444 162.652C500.923 163.244 500.662 164.138 500.662 165.333ZM509.645 173.577V160.666H511.086V161.879C511.426 161.404 511.81 161.05 512.237 160.815C512.665 160.575 513.184 160.455 513.793 160.455C514.59 160.455 515.293 160.66 515.902 161.07C516.512 161.48 516.972 162.061 517.282 162.811C517.593 163.555 517.748 164.372 517.748 165.263C517.748 166.218 517.575 167.079 517.229 167.847C516.89 168.608 516.392 169.194 515.735 169.604C515.085 170.009 514.399 170.211 513.679 170.211C513.151 170.211 512.677 170.1 512.255 169.877C511.839 169.654 511.496 169.373 511.227 169.033V173.577H509.645ZM511.077 165.386C511.077 166.587 511.32 167.475 511.807 168.049C512.293 168.623 512.882 168.91 513.573 168.91C514.276 168.91 514.877 168.614 515.375 168.022C515.879 167.425 516.131 166.502 516.131 165.254C516.131 164.064 515.885 163.174 515.393 162.582C514.906 161.99 514.323 161.694 513.644 161.694C512.97 161.694 512.372 162.011 511.851 162.644C511.335 163.271 511.077 164.185 511.077 165.386ZM523.118 168.585L523.347 169.982C522.901 170.076 522.503 170.123 522.151 170.123C521.577 170.123 521.132 170.032 520.815 169.851C520.499 169.669 520.276 169.432 520.147 169.139C520.019 168.84 519.954 168.216 519.954 167.267V161.896H518.794V160.666H519.954V158.354L521.527 157.405V160.666H523.118V161.896H521.527V167.354C521.527 167.806 521.554 168.096 521.606 168.225C521.665 168.354 521.756 168.456 521.879 168.532C522.008 168.608 522.189 168.646 522.424 168.646C522.6 168.646 522.831 168.626 523.118 168.585ZM524.683 158.935V157.115H526.265V158.935H524.683ZM524.683 170V160.666H526.265V170H524.683ZM528.093 165.333C528.093 163.604 528.573 162.324 529.534 161.492C530.337 160.801 531.315 160.455 532.47 160.455C533.753 160.455 534.802 160.877 535.616 161.721C536.431 162.559 536.838 163.719 536.838 165.201C536.838 166.402 536.656 167.349 536.293 168.04C535.936 168.726 535.411 169.259 534.72 169.64C534.034 170.021 533.284 170.211 532.47 170.211C531.163 170.211 530.105 169.792 529.297 168.954C528.494 168.116 528.093 166.909 528.093 165.333ZM529.719 165.333C529.719 166.528 529.979 167.425 530.501 168.022C531.022 168.614 531.679 168.91 532.47 168.91C533.255 168.91 533.908 168.611 534.43 168.014C534.951 167.416 535.212 166.505 535.212 165.28C535.212 164.126 534.948 163.253 534.421 162.661C533.899 162.063 533.249 161.765 532.47 161.765C531.679 161.765 531.022 162.061 530.501 162.652C529.979 163.244 529.719 164.138 529.719 165.333ZM538.701 170V160.666H540.125V161.993C540.811 160.968 541.801 160.455 543.096 160.455C543.658 160.455 544.174 160.558 544.643 160.763C545.117 160.962 545.472 161.226 545.706 161.554C545.94 161.882 546.104 162.271 546.198 162.723C546.257 163.016 546.286 163.528 546.286 164.261V170H544.704V164.322C544.704 163.678 544.643 163.197 544.52 162.881C544.396 162.559 544.177 162.304 543.86 162.116C543.55 161.923 543.184 161.826 542.762 161.826C542.088 161.826 541.505 162.04 541.013 162.468C540.526 162.896 540.283 163.707 540.283 164.902V170H538.701ZM554.812 168.849C554.226 169.347 553.66 169.698 553.115 169.903C552.576 170.108 551.996 170.211 551.375 170.211C550.35 170.211 549.562 169.962 549.011 169.464C548.46 168.96 548.185 168.318 548.185 167.539C548.185 167.082 548.287 166.666 548.492 166.291C548.703 165.91 548.976 165.605 549.31 165.377C549.649 165.148 550.03 164.976 550.452 164.858C550.763 164.776 551.231 164.697 551.858 164.621C553.136 164.469 554.076 164.287 554.68 164.076C554.686 163.859 554.688 163.722 554.688 163.663C554.688 163.019 554.539 162.564 554.24 162.301C553.836 161.943 553.235 161.765 552.438 161.765C551.694 161.765 551.144 161.896 550.786 162.16C550.435 162.418 550.174 162.878 550.004 163.54L548.457 163.329C548.598 162.667 548.829 162.134 549.151 161.729C549.474 161.319 549.939 161.006 550.549 160.789C551.158 160.566 551.864 160.455 552.667 160.455C553.464 160.455 554.111 160.549 554.609 160.736C555.107 160.924 555.474 161.161 555.708 161.448C555.942 161.729 556.106 162.087 556.2 162.521C556.253 162.79 556.279 163.276 556.279 163.979V166.089C556.279 167.56 556.312 168.491 556.376 168.884C556.446 169.271 556.581 169.643 556.78 170H555.128C554.964 169.672 554.858 169.288 554.812 168.849ZM554.68 165.315C554.105 165.55 553.244 165.749 552.096 165.913C551.445 166.007 550.985 166.112 550.716 166.229C550.446 166.347 550.238 166.52 550.092 166.748C549.945 166.971 549.872 167.22 549.872 167.495C549.872 167.917 550.03 168.269 550.347 168.55C550.669 168.831 551.138 168.972 551.753 168.972C552.362 168.972 552.904 168.84 553.379 168.576C553.854 168.307 554.202 167.94 554.425 167.478C554.595 167.12 554.68 166.593 554.68 165.896V165.315ZM558.705 170V157.115H560.287V170H558.705ZM563.785 173.788H562.651C564.403 170.976 565.279 168.16 565.279 165.342C565.279 164.24 565.153 163.147 564.901 162.063C564.702 161.185 564.424 160.341 564.066 159.532C563.838 159.005 563.366 158.126 562.651 156.896H563.785C564.887 158.366 565.701 159.843 566.229 161.325C566.68 162.603 566.905 163.938 566.905 165.333C566.905 166.915 566.601 168.444 565.991 169.921C565.388 171.397 564.652 172.687 563.785 173.788Z" fill="black"/>
<path d="M752.064 143.061C752.65 142.475 752.65 141.525 752.064 140.939L742.518 131.393C741.932 130.808 740.983 130.808 740.397 131.393C739.811 131.979 739.811 132.929 740.397 133.515L748.882 142L740.397 150.485C739.811 151.071 739.811 152.021 740.397 152.607C740.983 153.192 741.932 153.192 742.518 152.607L752.064 143.061ZM678.997 143.5H751.003V140.5H678.997V143.5Z" fill="#05D06D"/>
<rect x="805.167" y="47.5" width="189" height="189" rx="94.5" stroke="#05D06D"/>
<path d="M818.346 149L823.294 136.115H825.131L830.404 149H828.462L826.959 145.098H821.571L820.156 149H818.346ZM822.063 143.709H826.432L825.087 140.141C824.677 139.057 824.372 138.166 824.173 137.469C824.009 138.295 823.777 139.115 823.479 139.93L822.063 143.709ZM837.62 149V147.822C837.028 148.748 836.158 149.211 835.01 149.211C834.266 149.211 833.58 149.006 832.953 148.596C832.332 148.186 831.849 147.614 831.503 146.882C831.163 146.144 830.993 145.297 830.993 144.342C830.993 143.41 831.148 142.566 831.459 141.811C831.77 141.049 832.235 140.466 832.856 140.062C833.478 139.657 834.172 139.455 834.939 139.455C835.502 139.455 836.003 139.575 836.442 139.815C836.882 140.05 837.239 140.357 837.515 140.738V136.115H839.088V149H837.62ZM832.619 144.342C832.619 145.537 832.871 146.431 833.375 147.022C833.879 147.614 834.474 147.91 835.159 147.91C835.851 147.91 836.437 147.629 836.917 147.066C837.403 146.498 837.646 145.634 837.646 144.474C837.646 143.196 837.4 142.259 836.908 141.661C836.416 141.063 835.81 140.765 835.089 140.765C834.386 140.765 833.797 141.052 833.322 141.626C832.854 142.2 832.619 143.105 832.619 144.342ZM847.64 149V147.822C847.048 148.748 846.178 149.211 845.029 149.211C844.285 149.211 843.6 149.006 842.973 148.596C842.352 148.186 841.868 147.614 841.522 146.882C841.183 146.144 841.013 145.297 841.013 144.342C841.013 143.41 841.168 142.566 841.479 141.811C841.789 141.049 842.255 140.466 842.876 140.062C843.497 139.657 844.191 139.455 844.959 139.455C845.521 139.455 846.022 139.575 846.462 139.815C846.901 140.05 847.259 140.357 847.534 140.738V136.115H849.107V149H847.64ZM842.639 144.342C842.639 145.537 842.891 146.431 843.395 147.022C843.898 147.614 844.493 147.91 845.179 147.91C845.87 147.91 846.456 147.629 846.937 147.066C847.423 146.498 847.666 145.634 847.666 144.474C847.666 143.196 847.42 142.259 846.928 141.661C846.436 141.063 845.829 140.765 845.108 140.765C844.405 140.765 843.816 141.052 843.342 141.626C842.873 142.2 842.639 143.105 842.639 144.342ZM856.622 149V136.115H858.204V143.463L861.948 139.666H863.996L860.428 143.129L864.356 149H862.405L859.32 144.228L858.204 145.3V149H856.622ZM865.613 149V139.666H867.037V140.993C867.723 139.968 868.713 139.455 870.008 139.455C870.57 139.455 871.086 139.558 871.555 139.763C872.029 139.962 872.384 140.226 872.618 140.554C872.853 140.882 873.017 141.271 873.11 141.723C873.169 142.016 873.198 142.528 873.198 143.261V149H871.616V143.322C871.616 142.678 871.555 142.197 871.432 141.881C871.309 141.559 871.089 141.304 870.772 141.116C870.462 140.923 870.096 140.826 869.674 140.826C869 140.826 868.417 141.04 867.925 141.468C867.438 141.896 867.195 142.707 867.195 143.902V149H865.613ZM875.044 144.333C875.044 142.604 875.524 141.324 876.485 140.492C877.288 139.801 878.267 139.455 879.421 139.455C880.704 139.455 881.753 139.877 882.567 140.721C883.382 141.559 883.789 142.719 883.789 144.201C883.789 145.402 883.607 146.349 883.244 147.04C882.887 147.726 882.362 148.259 881.671 148.64C880.985 149.021 880.235 149.211 879.421 149.211C878.114 149.211 877.057 148.792 876.248 147.954C875.445 147.116 875.044 145.909 875.044 144.333ZM876.67 144.333C876.67 145.528 876.931 146.425 877.452 147.022C877.974 147.614 878.63 147.91 879.421 147.91C880.206 147.91 880.859 147.611 881.381 147.014C881.902 146.416 882.163 145.505 882.163 144.28C882.163 143.126 881.899 142.253 881.372 141.661C880.851 141.063 880.2 140.765 879.421 140.765C878.63 140.765 877.974 141.061 877.452 141.652C876.931 142.244 876.67 143.138 876.67 144.333ZM887.375 149L884.519 139.666H886.153L887.639 145.054L888.192 147.058C888.216 146.958 888.377 146.316 888.676 145.133L890.161 139.666H891.787L893.185 145.08L893.65 146.864L894.187 145.062L895.786 139.666H897.324L894.406 149H892.763L891.277 143.41L890.917 141.819L889.027 149H887.375ZM898.625 149V136.115H900.207V149H898.625ZM909.058 145.994L910.692 146.196C910.435 147.151 909.957 147.893 909.26 148.42C908.562 148.947 907.672 149.211 906.588 149.211C905.223 149.211 904.139 148.792 903.336 147.954C902.539 147.11 902.141 145.93 902.141 144.412C902.141 142.842 902.545 141.623 903.354 140.756C904.162 139.889 905.211 139.455 906.5 139.455C907.748 139.455 908.768 139.88 909.559 140.729C910.35 141.579 910.745 142.774 910.745 144.315C910.745 144.409 910.742 144.55 910.736 144.737H903.775C903.834 145.763 904.124 146.548 904.646 147.093C905.167 147.638 905.817 147.91 906.597 147.91C907.177 147.91 907.672 147.758 908.082 147.453C908.492 147.148 908.817 146.662 909.058 145.994ZM903.863 143.437H909.075C909.005 142.651 908.806 142.062 908.478 141.67C907.974 141.061 907.32 140.756 906.518 140.756C905.791 140.756 905.179 140.999 904.681 141.485C904.188 141.972 903.916 142.622 903.863 143.437ZM918.743 149V147.822C918.151 148.748 917.281 149.211 916.133 149.211C915.389 149.211 914.703 149.006 914.076 148.596C913.455 148.186 912.972 147.614 912.626 146.882C912.286 146.144 912.116 145.297 912.116 144.342C912.116 143.41 912.271 142.566 912.582 141.811C912.893 141.049 913.358 140.466 913.979 140.062C914.601 139.657 915.295 139.455 916.062 139.455C916.625 139.455 917.126 139.575 917.565 139.815C918.005 140.05 918.362 140.357 918.638 140.738V136.115H920.211V149H918.743ZM913.742 144.342C913.742 145.537 913.994 146.431 914.498 147.022C915.002 147.614 915.597 147.91 916.282 147.91C916.974 147.91 917.56 147.629 918.04 147.066C918.526 146.498 918.77 145.634 918.77 144.474C918.77 143.196 918.523 142.259 918.031 141.661C917.539 141.063 916.933 140.765 916.212 140.765C915.509 140.765 914.92 141.052 914.445 141.626C913.977 142.2 913.742 143.105 913.742 144.342ZM922.417 149.773L923.955 150.002C924.02 150.477 924.198 150.822 924.491 151.039C924.884 151.332 925.42 151.479 926.1 151.479C926.832 151.479 927.397 151.332 927.796 151.039C928.194 150.746 928.464 150.336 928.604 149.809C928.687 149.486 928.725 148.81 928.719 147.778C928.027 148.593 927.166 149 926.135 149C924.852 149 923.858 148.537 923.155 147.611C922.452 146.686 922.101 145.575 922.101 144.28C922.101 143.39 922.262 142.569 922.584 141.819C922.906 141.063 923.372 140.48 923.981 140.07C924.597 139.66 925.317 139.455 926.144 139.455C927.245 139.455 928.153 139.9 928.868 140.791V139.666H930.327V147.734C930.327 149.188 930.178 150.216 929.879 150.819C929.586 151.429 929.117 151.909 928.473 152.261C927.834 152.612 927.046 152.788 926.108 152.788C924.995 152.788 924.096 152.536 923.41 152.032C922.725 151.534 922.394 150.781 922.417 149.773ZM923.727 144.166C923.727 145.391 923.97 146.284 924.456 146.847C924.942 147.409 925.552 147.69 926.284 147.69C927.011 147.69 927.62 147.412 928.112 146.855C928.604 146.293 928.851 145.414 928.851 144.219C928.851 143.076 928.596 142.215 928.086 141.635C927.582 141.055 926.973 140.765 926.258 140.765C925.555 140.765 924.957 141.052 924.465 141.626C923.973 142.194 923.727 143.041 923.727 144.166ZM939.116 145.994L940.751 146.196C940.493 147.151 940.016 147.893 939.318 148.42C938.621 148.947 937.73 149.211 936.646 149.211C935.281 149.211 934.197 148.792 933.395 147.954C932.598 147.11 932.199 145.93 932.199 144.412C932.199 142.842 932.604 141.623 933.412 140.756C934.221 139.889 935.27 139.455 936.559 139.455C937.807 139.455 938.826 139.88 939.617 140.729C940.408 141.579 940.804 142.774 940.804 144.315C940.804 144.409 940.801 144.55 940.795 144.737H933.834C933.893 145.763 934.183 146.548 934.704 147.093C935.226 147.638 935.876 147.91 936.655 147.91C937.235 147.91 937.73 147.758 938.141 147.453C938.551 147.148 938.876 146.662 939.116 145.994ZM933.922 143.437H939.134C939.063 142.651 938.864 142.062 938.536 141.67C938.032 141.061 937.379 140.756 936.576 140.756C935.85 140.756 935.237 140.999 934.739 141.485C934.247 141.972 933.975 142.622 933.922 143.437ZM949.215 149H947.747V136.115H949.329V140.712C949.997 139.874 950.85 139.455 951.887 139.455C952.461 139.455 953.003 139.572 953.513 139.807C954.028 140.035 954.45 140.36 954.778 140.782C955.112 141.198 955.373 141.702 955.561 142.294C955.748 142.886 955.842 143.519 955.842 144.192C955.842 145.792 955.446 147.028 954.655 147.901C953.864 148.774 952.915 149.211 951.808 149.211C950.706 149.211 949.842 148.751 949.215 147.831V149ZM949.197 144.263C949.197 145.382 949.35 146.19 949.654 146.688C950.152 147.503 950.826 147.91 951.676 147.91C952.367 147.91 952.965 147.611 953.469 147.014C953.973 146.41 954.225 145.514 954.225 144.324C954.225 143.105 953.981 142.206 953.495 141.626C953.015 141.046 952.432 140.756 951.746 140.756C951.055 140.756 950.457 141.058 949.953 141.661C949.449 142.259 949.197 143.126 949.197 144.263ZM963.866 147.849C963.28 148.347 962.715 148.698 962.17 148.903C961.631 149.108 961.051 149.211 960.43 149.211C959.404 149.211 958.616 148.962 958.065 148.464C957.515 147.96 957.239 147.318 957.239 146.539C957.239 146.082 957.342 145.666 957.547 145.291C957.758 144.91 958.03 144.605 958.364 144.377C958.704 144.148 959.085 143.976 959.507 143.858C959.817 143.776 960.286 143.697 960.913 143.621C962.19 143.469 963.131 143.287 963.734 143.076C963.74 142.859 963.743 142.722 963.743 142.663C963.743 142.019 963.594 141.564 963.295 141.301C962.891 140.943 962.29 140.765 961.493 140.765C960.749 140.765 960.198 140.896 959.841 141.16C959.489 141.418 959.229 141.878 959.059 142.54L957.512 142.329C957.652 141.667 957.884 141.134 958.206 140.729C958.528 140.319 958.994 140.006 959.604 139.789C960.213 139.566 960.919 139.455 961.722 139.455C962.519 139.455 963.166 139.549 963.664 139.736C964.162 139.924 964.528 140.161 964.763 140.448C964.997 140.729 965.161 141.087 965.255 141.521C965.308 141.79 965.334 142.276 965.334 142.979V145.089C965.334 146.56 965.366 147.491 965.431 147.884C965.501 148.271 965.636 148.643 965.835 149H964.183C964.019 148.672 963.913 148.288 963.866 147.849ZM963.734 144.315C963.16 144.55 962.299 144.749 961.15 144.913C960.5 145.007 960.04 145.112 959.771 145.229C959.501 145.347 959.293 145.52 959.146 145.748C959 145.971 958.927 146.22 958.927 146.495C958.927 146.917 959.085 147.269 959.401 147.55C959.724 147.831 960.192 147.972 960.808 147.972C961.417 147.972 961.959 147.84 962.434 147.576C962.908 147.307 963.257 146.94 963.479 146.478C963.649 146.12 963.734 145.593 963.734 144.896V144.315ZM967.162 146.214L968.727 145.968C968.814 146.595 969.058 147.075 969.456 147.409C969.86 147.743 970.423 147.91 971.144 147.91C971.87 147.91 972.409 147.764 972.761 147.471C973.112 147.172 973.288 146.823 973.288 146.425C973.288 146.067 973.133 145.786 972.822 145.581C972.605 145.44 972.066 145.262 971.205 145.045C970.045 144.752 969.239 144.5 968.788 144.289C968.343 144.072 968.003 143.776 967.769 143.401C967.54 143.021 967.426 142.602 967.426 142.145C967.426 141.729 967.52 141.345 967.707 140.993C967.9 140.636 968.161 140.34 968.489 140.105C968.735 139.924 969.069 139.771 969.491 139.648C969.919 139.52 970.376 139.455 970.862 139.455C971.595 139.455 972.236 139.561 972.787 139.771C973.344 139.982 973.754 140.27 974.018 140.633C974.281 140.99 974.463 141.471 974.562 142.074L973.016 142.285C972.945 141.805 972.74 141.43 972.4 141.16C972.066 140.891 971.592 140.756 970.977 140.756C970.25 140.756 969.731 140.876 969.421 141.116C969.11 141.356 968.955 141.638 968.955 141.96C968.955 142.165 969.02 142.35 969.148 142.514C969.277 142.684 969.479 142.824 969.755 142.936C969.913 142.994 970.379 143.129 971.152 143.34C972.271 143.639 973.051 143.885 973.49 144.078C973.936 144.266 974.284 144.541 974.536 144.904C974.788 145.268 974.914 145.719 974.914 146.258C974.914 146.785 974.759 147.283 974.448 147.752C974.144 148.215 973.701 148.575 973.121 148.833C972.541 149.085 971.885 149.211 971.152 149.211C969.939 149.211 969.014 148.959 968.375 148.455C967.742 147.951 967.338 147.204 967.162 146.214ZM983.185 145.994L984.819 146.196C984.562 147.151 984.084 147.893 983.387 148.42C982.689 148.947 981.799 149.211 980.715 149.211C979.35 149.211 978.266 148.792 977.463 147.954C976.666 147.11 976.268 145.93 976.268 144.412C976.268 142.842 976.672 141.623 977.48 140.756C978.289 139.889 979.338 139.455 980.627 139.455C981.875 139.455 982.895 139.88 983.686 140.729C984.477 141.579 984.872 142.774 984.872 144.315C984.872 144.409 984.869 144.55 984.863 144.737H977.902C977.961 145.763 978.251 146.548 978.772 147.093C979.294 147.638 979.944 147.91 980.724 147.91C981.304 147.91 981.799 147.758 982.209 147.453C982.619 147.148 982.944 146.662 983.185 145.994ZM977.99 143.437H983.202C983.132 142.651 982.933 142.062 982.604 141.67C982.101 141.061 981.447 140.756 980.645 140.756C979.918 140.756 979.306 140.999 978.808 141.485C978.315 141.972 978.043 142.622 977.99 143.437ZM868.654 173.788C867.781 172.687 867.043 171.397 866.439 169.921C865.836 168.444 865.534 166.915 865.534 165.333C865.534 163.938 865.76 162.603 866.211 161.325C866.738 159.843 867.553 158.366 868.654 156.896H869.788C869.079 158.114 868.61 158.984 868.382 159.506C868.024 160.314 867.743 161.158 867.538 162.037C867.286 163.133 867.16 164.234 867.16 165.342C867.16 168.16 868.036 170.976 869.788 173.788H868.654ZM871.036 165.333C871.036 163.604 871.517 162.324 872.478 161.492C873.28 160.801 874.259 160.455 875.413 160.455C876.696 160.455 877.745 160.877 878.56 161.721C879.374 162.559 879.781 163.719 879.781 165.201C879.781 166.402 879.6 167.349 879.236 168.04C878.879 168.726 878.354 169.259 877.663 169.64C876.978 170.021 876.228 170.211 875.413 170.211C874.106 170.211 873.049 169.792 872.24 168.954C871.438 168.116 871.036 166.909 871.036 165.333ZM872.662 165.333C872.662 166.528 872.923 167.425 873.444 168.022C873.966 168.614 874.622 168.91 875.413 168.91C876.198 168.91 876.852 168.611 877.373 168.014C877.895 167.416 878.155 166.505 878.155 165.28C878.155 164.126 877.892 163.253 877.364 162.661C876.843 162.063 876.192 161.765 875.413 161.765C874.622 161.765 873.966 162.061 873.444 162.652C872.923 163.244 872.662 164.138 872.662 165.333ZM881.645 173.577V160.666H883.086V161.879C883.426 161.404 883.81 161.05 884.237 160.815C884.665 160.575 885.184 160.455 885.793 160.455C886.59 160.455 887.293 160.66 887.902 161.07C888.512 161.48 888.972 162.061 889.282 162.811C889.593 163.555 889.748 164.372 889.748 165.263C889.748 166.218 889.575 167.079 889.229 167.847C888.89 168.608 888.392 169.194 887.735 169.604C887.085 170.009 886.399 170.211 885.679 170.211C885.151 170.211 884.677 170.1 884.255 169.877C883.839 169.654 883.496 169.373 883.227 169.033V173.577H881.645ZM883.077 165.386C883.077 166.587 883.32 167.475 883.807 168.049C884.293 168.623 884.882 168.91 885.573 168.91C886.276 168.91 886.877 168.614 887.375 168.022C887.879 167.425 888.131 166.502 888.131 165.254C888.131 164.064 887.885 163.174 887.393 162.582C886.906 161.99 886.323 161.694 885.644 161.694C884.97 161.694 884.372 162.011 883.851 162.644C883.335 163.271 883.077 164.185 883.077 165.386ZM895.118 168.585L895.347 169.982C894.901 170.076 894.503 170.123 894.151 170.123C893.577 170.123 893.132 170.032 892.815 169.851C892.499 169.669 892.276 169.432 892.147 169.139C892.019 168.84 891.954 168.216 891.954 167.267V161.896H890.794V160.666H891.954V158.354L893.527 157.405V160.666H895.118V161.896H893.527V167.354C893.527 167.806 893.554 168.096 893.606 168.225C893.665 168.354 893.756 168.456 893.879 168.532C894.008 168.608 894.189 168.646 894.424 168.646C894.6 168.646 894.831 168.626 895.118 168.585ZM896.683 158.935V157.115H898.265V158.935H896.683ZM896.683 170V160.666H898.265V170H896.683ZM900.093 165.333C900.093 163.604 900.573 162.324 901.534 161.492C902.337 160.801 903.315 160.455 904.47 160.455C905.753 160.455 906.802 160.877 907.616 161.721C908.431 162.559 908.838 163.719 908.838 165.201C908.838 166.402 908.656 167.349 908.293 168.04C907.936 168.726 907.411 169.259 906.72 169.64C906.034 170.021 905.284 170.211 904.47 170.211C903.163 170.211 902.105 169.792 901.297 168.954C900.494 168.116 900.093 166.909 900.093 165.333ZM901.719 165.333C901.719 166.528 901.979 167.425 902.501 168.022C903.022 168.614 903.679 168.91 904.47 168.91C905.255 168.91 905.908 168.611 906.43 168.014C906.951 167.416 907.212 166.505 907.212 165.28C907.212 164.126 906.948 163.253 906.421 162.661C905.899 162.063 905.249 161.765 904.47 161.765C903.679 161.765 903.022 162.061 902.501 162.652C901.979 163.244 901.719 164.138 901.719 165.333ZM910.701 170V160.666H912.125V161.993C912.811 160.968 913.801 160.455 915.096 160.455C915.658 160.455 916.174 160.558 916.643 160.763C917.117 160.962 917.472 161.226 917.706 161.554C917.94 161.882 918.104 162.271 918.198 162.723C918.257 163.016 918.286 163.528 918.286 164.261V170H916.704V164.322C916.704 163.678 916.643 163.197 916.52 162.881C916.396 162.559 916.177 162.304 915.86 162.116C915.55 161.923 915.184 161.826 914.762 161.826C914.088 161.826 913.505 162.04 913.013 162.468C912.526 162.896 912.283 163.707 912.283 164.902V170H910.701ZM926.812 168.849C926.226 169.347 925.66 169.698 925.115 169.903C924.576 170.108 923.996 170.211 923.375 170.211C922.35 170.211 921.562 169.962 921.011 169.464C920.46 168.96 920.185 168.318 920.185 167.539C920.185 167.082 920.287 166.666 920.492 166.291C920.703 165.91 920.976 165.605 921.31 165.377C921.649 165.148 922.03 164.976 922.452 164.858C922.763 164.776 923.231 164.697 923.858 164.621C925.136 164.469 926.076 164.287 926.68 164.076C926.686 163.859 926.688 163.722 926.688 163.663C926.688 163.019 926.539 162.564 926.24 162.301C925.836 161.943 925.235 161.765 924.438 161.765C923.694 161.765 923.144 161.896 922.786 162.16C922.435 162.418 922.174 162.878 922.004 163.54L920.457 163.329C920.598 162.667 920.829 162.134 921.151 161.729C921.474 161.319 921.939 161.006 922.549 160.789C923.158 160.566 923.864 160.455 924.667 160.455C925.464 160.455 926.111 160.549 926.609 160.736C927.107 160.924 927.474 161.161 927.708 161.448C927.942 161.729 928.106 162.087 928.2 162.521C928.253 162.79 928.279 163.276 928.279 163.979V166.089C928.279 167.56 928.312 168.491 928.376 168.884C928.446 169.271 928.581 169.643 928.78 170H927.128C926.964 169.672 926.858 169.288 926.812 168.849ZM926.68 165.315C926.105 165.55 925.244 165.749 924.096 165.913C923.445 166.007 922.985 166.112 922.716 166.229C922.446 166.347 922.238 166.52 922.092 166.748C921.945 166.971 921.872 167.22 921.872 167.495C921.872 167.917 922.03 168.269 922.347 168.55C922.669 168.831 923.138 168.972 923.753 168.972C924.362 168.972 924.904 168.84 925.379 168.576C925.854 168.307 926.202 167.94 926.425 167.478C926.595 167.12 926.68 166.593 926.68 165.896V165.315ZM930.705 170V157.115H932.287V170H930.705ZM935.785 173.788H934.651C936.403 170.976 937.279 168.16 937.279 165.342C937.279 164.24 937.153 163.147 936.901 162.063C936.702 161.185 936.424 160.341 936.066 159.532C935.838 159.005 935.366 158.126 934.651 156.896H935.785C936.887 158.366 937.701 159.843 938.229 161.325C938.68 162.603 938.905 163.938 938.905 165.333C938.905 166.915 938.601 168.444 937.991 169.921C937.388 171.397 936.652 172.687 935.785 173.788Z" fill="black"/>
<path d="M1121.75 143.414C1122.53 142.633 1122.53 141.367 1121.75 140.586L1109.02 127.858C1108.24 127.077 1106.98 127.077 1106.19 127.858C1105.41 128.639 1105.41 129.905 1106.19 130.686L1117.51 142L1106.19 153.314C1105.41 154.095 1105.41 155.361 1106.19 156.142C1106.98 156.923 1108.24 156.923 1109.02 156.142L1121.75 143.414ZM1048.33 144H1120.34V140H1048.33V144Z" fill="#05D06D"/>
<rect x="1174.5" y="42.5" width="199" height="199" rx="99.5" stroke="#05D06D"/>
<path d="M1218.75 125.115H1220.46V132.56C1220.46 133.854 1220.31 134.883 1220.02 135.645C1219.73 136.406 1219.2 137.027 1218.43 137.508C1217.67 137.982 1216.66 138.22 1215.42 138.22C1214.21 138.22 1213.23 138.012 1212.46 137.596C1211.69 137.18 1211.14 136.579 1210.82 135.794C1210.49 135.003 1210.32 133.925 1210.32 132.56V125.115H1212.03V132.551C1212.03 133.67 1212.13 134.496 1212.34 135.029C1212.55 135.557 1212.91 135.964 1213.41 136.251C1213.92 136.538 1214.54 136.682 1215.27 136.682C1216.53 136.682 1217.42 136.397 1217.95 135.829C1218.49 135.261 1218.75 134.168 1218.75 132.551V125.115ZM1222.47 135.214L1224.04 134.968C1224.12 135.595 1224.37 136.075 1224.76 136.409C1225.17 136.743 1225.73 136.91 1226.45 136.91C1227.18 136.91 1227.72 136.764 1228.07 136.471C1228.42 136.172 1228.6 135.823 1228.6 135.425C1228.6 135.067 1228.44 134.786 1228.13 134.581C1227.91 134.44 1227.38 134.262 1226.51 134.045C1225.35 133.752 1224.55 133.5 1224.1 133.289C1223.65 133.072 1223.31 132.776 1223.08 132.401C1222.85 132.021 1222.73 131.602 1222.73 131.145C1222.73 130.729 1222.83 130.345 1223.02 129.993C1223.21 129.636 1223.47 129.34 1223.8 129.105C1224.04 128.924 1224.38 128.771 1224.8 128.648C1225.23 128.52 1225.68 128.455 1226.17 128.455C1226.9 128.455 1227.54 128.561 1228.1 128.771C1228.65 128.982 1229.06 129.27 1229.33 129.633C1229.59 129.99 1229.77 130.471 1229.87 131.074L1228.32 131.285C1228.25 130.805 1228.05 130.43 1227.71 130.16C1227.38 129.891 1226.9 129.756 1226.29 129.756C1225.56 129.756 1225.04 129.876 1224.73 130.116C1224.42 130.356 1224.26 130.638 1224.26 130.96C1224.26 131.165 1224.33 131.35 1224.46 131.514C1224.59 131.684 1224.79 131.824 1225.06 131.936C1225.22 131.994 1225.69 132.129 1226.46 132.34C1227.58 132.639 1228.36 132.885 1228.8 133.078C1229.24 133.266 1229.59 133.541 1229.84 133.904C1230.1 134.268 1230.22 134.719 1230.22 135.258C1230.22 135.785 1230.07 136.283 1229.76 136.752C1229.45 137.215 1229.01 137.575 1228.43 137.833C1227.85 138.085 1227.19 138.211 1226.46 138.211C1225.25 138.211 1224.32 137.959 1223.68 137.455C1223.05 136.951 1222.65 136.204 1222.47 135.214ZM1238.49 134.994L1240.13 135.196C1239.87 136.151 1239.39 136.893 1238.7 137.42C1238 137.947 1237.11 138.211 1236.02 138.211C1234.66 138.211 1233.57 137.792 1232.77 136.954C1231.97 136.11 1231.58 134.93 1231.58 133.412C1231.58 131.842 1231.98 130.623 1232.79 129.756C1233.6 128.889 1234.65 128.455 1235.94 128.455C1237.18 128.455 1238.2 128.88 1238.99 129.729C1239.79 130.579 1240.18 131.774 1240.18 133.315C1240.18 133.409 1240.18 133.55 1240.17 133.737H1233.21C1233.27 134.763 1233.56 135.548 1234.08 136.093C1234.6 136.638 1235.25 136.91 1236.03 136.91C1236.61 136.91 1237.11 136.758 1237.52 136.453C1237.93 136.148 1238.25 135.662 1238.49 134.994ZM1233.3 132.437H1238.51C1238.44 131.651 1238.24 131.062 1237.91 130.67C1237.41 130.061 1236.76 129.756 1235.95 129.756C1235.23 129.756 1234.61 129.999 1234.12 130.485C1233.62 130.972 1233.35 131.622 1233.3 132.437ZM1249.73 138L1246.17 128.666H1247.84L1249.85 134.256C1250.07 134.859 1250.26 135.486 1250.45 136.137C1250.59 135.645 1250.78 135.053 1251.04 134.361L1253.11 128.666H1254.74L1251.2 138H1249.73ZM1255.54 133.333C1255.54 131.604 1256.02 130.324 1256.99 129.492C1257.79 128.801 1258.77 128.455 1259.92 128.455C1261.2 128.455 1262.25 128.877 1263.07 129.721C1263.88 130.559 1264.29 131.719 1264.29 133.201C1264.29 134.402 1264.11 135.349 1263.74 136.04C1263.39 136.726 1262.86 137.259 1262.17 137.64C1261.49 138.021 1260.74 138.211 1259.92 138.211C1258.61 138.211 1257.56 137.792 1256.75 136.954C1255.95 136.116 1255.54 134.909 1255.54 133.333ZM1257.17 133.333C1257.17 134.528 1257.43 135.425 1257.95 136.022C1258.47 136.614 1259.13 136.91 1259.92 136.91C1260.71 136.91 1261.36 136.611 1261.88 136.014C1262.4 135.416 1262.66 134.505 1262.66 133.28C1262.66 132.126 1262.4 131.253 1261.87 130.661C1261.35 130.063 1260.7 129.765 1259.92 129.765C1259.13 129.765 1258.47 130.061 1257.95 130.652C1257.43 131.244 1257.17 132.138 1257.17 133.333ZM1266.16 126.935V125.115H1267.74V126.935H1266.16ZM1266.16 138V128.666H1267.74V138H1266.16ZM1276.25 134.581L1277.81 134.783C1277.64 135.855 1277.2 136.696 1276.5 137.306C1275.8 137.909 1274.94 138.211 1273.92 138.211C1272.64 138.211 1271.62 137.795 1270.84 136.963C1270.06 136.125 1269.68 134.927 1269.68 133.368C1269.68 132.36 1269.84 131.479 1270.18 130.723C1270.51 129.967 1271.02 129.401 1271.7 129.026C1272.38 128.646 1273.13 128.455 1273.93 128.455C1274.94 128.455 1275.77 128.713 1276.42 129.229C1277.06 129.738 1277.48 130.465 1277.66 131.408L1276.12 131.646C1275.97 131.019 1275.71 130.547 1275.34 130.23C1274.97 129.914 1274.52 129.756 1273.99 129.756C1273.2 129.756 1272.55 130.043 1272.05 130.617C1271.55 131.186 1271.3 132.088 1271.3 133.324C1271.3 134.578 1271.54 135.489 1272.02 136.058C1272.5 136.626 1273.13 136.91 1273.9 136.91C1274.53 136.91 1275.04 136.72 1275.46 136.339C1275.88 135.958 1276.14 135.372 1276.25 134.581ZM1285.55 134.994L1287.18 135.196C1286.93 136.151 1286.45 136.893 1285.75 137.42C1285.05 137.947 1284.16 138.211 1283.08 138.211C1281.71 138.211 1280.63 137.792 1279.83 136.954C1279.03 136.11 1278.63 134.93 1278.63 133.412C1278.63 131.842 1279.04 130.623 1279.85 129.756C1280.65 128.889 1281.7 128.455 1282.99 128.455C1284.24 128.455 1285.26 128.88 1286.05 129.729C1286.84 130.579 1287.24 131.774 1287.24 133.315C1287.24 133.409 1287.23 133.55 1287.23 133.737H1280.27C1280.33 134.763 1280.62 135.548 1281.14 136.093C1281.66 136.638 1282.31 136.91 1283.09 136.91C1283.67 136.91 1284.16 136.758 1284.57 136.453C1284.98 136.148 1285.31 135.662 1285.55 134.994ZM1280.36 132.437H1285.57C1285.5 131.651 1285.3 131.062 1284.97 130.67C1284.47 130.061 1283.81 129.756 1283.01 129.756C1282.28 129.756 1281.67 129.999 1281.17 130.485C1280.68 130.972 1280.41 131.622 1280.36 132.437ZM1300.28 136.849C1299.69 137.347 1299.13 137.698 1298.58 137.903C1298.04 138.108 1297.46 138.211 1296.84 138.211C1295.82 138.211 1295.03 137.962 1294.48 137.464C1293.93 136.96 1293.65 136.318 1293.65 135.539C1293.65 135.082 1293.76 134.666 1293.96 134.291C1294.17 133.91 1294.44 133.605 1294.78 133.377C1295.12 133.148 1295.5 132.976 1295.92 132.858C1296.23 132.776 1296.7 132.697 1297.33 132.621C1298.6 132.469 1299.54 132.287 1300.15 132.076C1300.15 131.859 1300.16 131.722 1300.16 131.663C1300.16 131.019 1300.01 130.564 1299.71 130.301C1299.3 129.943 1298.7 129.765 1297.91 129.765C1297.16 129.765 1296.61 129.896 1296.25 130.16C1295.9 130.418 1295.64 130.878 1295.47 131.54L1293.93 131.329C1294.07 130.667 1294.3 130.134 1294.62 129.729C1294.94 129.319 1295.41 129.006 1296.02 128.789C1296.63 128.566 1297.33 128.455 1298.14 128.455C1298.93 128.455 1299.58 128.549 1300.08 128.736C1300.58 128.924 1300.94 129.161 1301.18 129.448C1301.41 129.729 1301.58 130.087 1301.67 130.521C1301.72 130.79 1301.75 131.276 1301.75 131.979V134.089C1301.75 135.56 1301.78 136.491 1301.84 136.884C1301.92 137.271 1302.05 137.643 1302.25 138H1300.6C1300.43 137.672 1300.33 137.288 1300.28 136.849ZM1300.15 133.315C1299.57 133.55 1298.71 133.749 1297.56 133.913C1296.91 134.007 1296.45 134.112 1296.18 134.229C1295.92 134.347 1295.71 134.52 1295.56 134.748C1295.41 134.971 1295.34 135.22 1295.34 135.495C1295.34 135.917 1295.5 136.269 1295.82 136.55C1296.14 136.831 1296.61 136.972 1297.22 136.972C1297.83 136.972 1298.37 136.84 1298.85 136.576C1299.32 136.307 1299.67 135.94 1299.89 135.478C1300.06 135.12 1300.15 134.593 1300.15 133.896V133.315ZM1303.92 138.773L1305.46 139.002C1305.52 139.477 1305.7 139.822 1305.99 140.039C1306.39 140.332 1306.92 140.479 1307.6 140.479C1308.33 140.479 1308.9 140.332 1309.3 140.039C1309.7 139.746 1309.97 139.336 1310.11 138.809C1310.19 138.486 1310.23 137.81 1310.22 136.778C1309.53 137.593 1308.67 138 1307.64 138C1306.35 138 1305.36 137.537 1304.66 136.611C1303.95 135.686 1303.6 134.575 1303.6 133.28C1303.6 132.39 1303.76 131.569 1304.09 130.819C1304.41 130.063 1304.87 129.48 1305.48 129.07C1306.1 128.66 1306.82 128.455 1307.65 128.455C1308.75 128.455 1309.66 128.9 1310.37 129.791V128.666H1311.83V136.734C1311.83 138.188 1311.68 139.216 1311.38 139.819C1311.09 140.429 1310.62 140.909 1309.97 141.261C1309.34 141.612 1308.55 141.788 1307.61 141.788C1306.5 141.788 1305.6 141.536 1304.91 141.032C1304.23 140.534 1303.9 139.781 1303.92 138.773ZM1305.23 133.166C1305.23 134.391 1305.47 135.284 1305.96 135.847C1306.44 136.409 1307.05 136.69 1307.79 136.69C1308.51 136.69 1309.12 136.412 1309.61 135.855C1310.11 135.293 1310.35 134.414 1310.35 133.219C1310.35 132.076 1310.1 131.215 1309.59 130.635C1309.08 130.055 1308.47 129.765 1307.76 129.765C1307.06 129.765 1306.46 130.052 1305.97 130.626C1305.47 131.194 1305.23 132.041 1305.23 133.166ZM1320.62 134.994L1322.25 135.196C1322 136.151 1321.52 136.893 1320.82 137.42C1320.12 137.947 1319.23 138.211 1318.15 138.211C1316.78 138.211 1315.7 137.792 1314.9 136.954C1314.1 136.11 1313.7 134.93 1313.7 133.412C1313.7 131.842 1314.11 130.623 1314.91 129.756C1315.72 128.889 1316.77 128.455 1318.06 128.455C1319.31 128.455 1320.33 128.88 1321.12 129.729C1321.91 130.579 1322.31 131.774 1322.31 133.315C1322.31 133.409 1322.3 133.55 1322.3 133.737H1315.34C1315.39 134.763 1315.68 135.548 1316.21 136.093C1316.73 136.638 1317.38 136.91 1318.16 136.91C1318.74 136.91 1319.23 136.758 1319.64 136.453C1320.05 136.148 1320.38 135.662 1320.62 134.994ZM1315.42 132.437H1320.64C1320.57 131.651 1320.37 131.062 1320.04 130.67C1319.53 130.061 1318.88 129.756 1318.08 129.756C1317.35 129.756 1316.74 129.999 1316.24 130.485C1315.75 130.972 1315.48 131.622 1315.42 132.437ZM1324.25 138V128.666H1325.67V129.993C1326.36 128.968 1327.35 128.455 1328.64 128.455C1329.21 128.455 1329.72 128.558 1330.19 128.763C1330.66 128.962 1331.02 129.226 1331.25 129.554C1331.49 129.882 1331.65 130.271 1331.75 130.723C1331.8 131.016 1331.83 131.528 1331.83 132.261V138H1330.25V132.322C1330.25 131.678 1330.19 131.197 1330.07 130.881C1329.94 130.559 1329.72 130.304 1329.41 130.116C1329.1 129.923 1328.73 129.826 1328.31 129.826C1327.63 129.826 1327.05 130.04 1326.56 130.468C1326.07 130.896 1325.83 131.707 1325.83 132.902V138H1324.25ZM1337.72 136.585L1337.95 137.982C1337.5 138.076 1337.11 138.123 1336.75 138.123C1336.18 138.123 1335.74 138.032 1335.42 137.851C1335.1 137.669 1334.88 137.432 1334.75 137.139C1334.62 136.84 1334.56 136.216 1334.56 135.267V129.896H1333.4V128.666H1334.56V126.354L1336.13 125.405V128.666H1337.72V129.896H1336.13V135.354C1336.13 135.806 1336.16 136.096 1336.21 136.225C1336.27 136.354 1336.36 136.456 1336.48 136.532C1336.61 136.608 1336.79 136.646 1337.03 136.646C1337.2 136.646 1337.43 136.626 1337.72 136.585ZM1230.73 159V157.629C1230.01 158.684 1229.02 159.211 1227.77 159.211C1227.22 159.211 1226.7 159.105 1226.22 158.895C1225.75 158.684 1225.39 158.42 1225.16 158.104C1224.93 157.781 1224.77 157.389 1224.68 156.926C1224.61 156.615 1224.58 156.123 1224.58 155.449V149.666H1226.16V154.843C1226.16 155.669 1226.19 156.226 1226.26 156.513C1226.36 156.929 1226.57 157.257 1226.89 157.497C1227.21 157.731 1227.61 157.849 1228.09 157.849C1228.56 157.849 1229.01 157.729 1229.42 157.488C1229.84 157.242 1230.13 156.911 1230.3 156.495C1230.48 156.073 1230.57 155.464 1230.57 154.667V149.666H1232.15V159H1230.73ZM1234 156.214L1235.57 155.968C1235.65 156.595 1235.9 157.075 1236.3 157.409C1236.7 157.743 1237.26 157.91 1237.98 157.91C1238.71 157.91 1239.25 157.764 1239.6 157.471C1239.95 157.172 1240.13 156.823 1240.13 156.425C1240.13 156.067 1239.97 155.786 1239.66 155.581C1239.45 155.44 1238.91 155.262 1238.04 155.045C1236.88 154.752 1236.08 154.5 1235.63 154.289C1235.18 154.072 1234.84 153.776 1234.61 153.401C1234.38 153.021 1234.27 152.602 1234.27 152.145C1234.27 151.729 1234.36 151.345 1234.55 150.993C1234.74 150.636 1235 150.34 1235.33 150.105C1235.58 149.924 1235.91 149.771 1236.33 149.648C1236.76 149.52 1237.22 149.455 1237.7 149.455C1238.43 149.455 1239.08 149.561 1239.63 149.771C1240.18 149.982 1240.59 150.27 1240.86 150.633C1241.12 150.99 1241.3 151.471 1241.4 152.074L1239.86 152.285C1239.79 151.805 1239.58 151.43 1239.24 151.16C1238.91 150.891 1238.43 150.756 1237.82 150.756C1237.09 150.756 1236.57 150.876 1236.26 151.116C1235.95 151.356 1235.79 151.638 1235.79 151.96C1235.79 152.165 1235.86 152.35 1235.99 152.514C1236.12 152.684 1236.32 152.824 1236.59 152.936C1236.75 152.994 1237.22 153.129 1237.99 153.34C1239.11 153.639 1239.89 153.885 1240.33 154.078C1240.78 154.266 1241.12 154.541 1241.38 154.904C1241.63 155.268 1241.75 155.719 1241.75 156.258C1241.75 156.785 1241.6 157.283 1241.29 157.752C1240.98 158.215 1240.54 158.575 1239.96 158.833C1239.38 159.085 1238.72 159.211 1237.99 159.211C1236.78 159.211 1235.85 158.959 1235.21 158.455C1234.58 157.951 1234.18 157.204 1234 156.214ZM1243.64 147.935V146.115H1245.23V147.935H1243.64ZM1243.64 159V149.666H1245.23V159H1243.64ZM1247.64 159V149.666H1249.07V150.993C1249.75 149.968 1250.74 149.455 1252.04 149.455C1252.6 149.455 1253.12 149.558 1253.58 149.763C1254.06 149.962 1254.41 150.226 1254.65 150.554C1254.88 150.882 1255.05 151.271 1255.14 151.723C1255.2 152.016 1255.23 152.528 1255.23 153.261V159H1253.65V153.322C1253.65 152.678 1253.58 152.197 1253.46 151.881C1253.34 151.559 1253.12 151.304 1252.8 151.116C1252.49 150.923 1252.12 150.826 1251.7 150.826C1251.03 150.826 1250.45 151.04 1249.95 151.468C1249.47 151.896 1249.22 152.707 1249.22 153.902V159H1247.64ZM1257.37 159.773L1258.91 160.002C1258.97 160.477 1259.15 160.822 1259.45 161.039C1259.84 161.332 1260.38 161.479 1261.05 161.479C1261.79 161.479 1262.35 161.332 1262.75 161.039C1263.15 160.746 1263.42 160.336 1263.56 159.809C1263.64 159.486 1263.68 158.81 1263.67 157.778C1262.98 158.593 1262.12 159 1261.09 159C1259.81 159 1258.81 158.537 1258.11 157.611C1257.41 156.686 1257.06 155.575 1257.06 154.28C1257.06 153.39 1257.22 152.569 1257.54 151.819C1257.86 151.063 1258.33 150.48 1258.94 150.07C1259.55 149.66 1260.27 149.455 1261.1 149.455C1262.2 149.455 1263.11 149.9 1263.82 150.791V149.666H1265.28V157.734C1265.28 159.188 1265.13 160.216 1264.83 160.819C1264.54 161.429 1264.07 161.909 1263.43 162.261C1262.79 162.612 1262 162.788 1261.06 162.788C1259.95 162.788 1259.05 162.536 1258.37 162.032C1257.68 161.534 1257.35 160.781 1257.37 159.773ZM1258.68 154.166C1258.68 155.391 1258.92 156.284 1259.41 156.847C1259.9 157.409 1260.51 157.69 1261.24 157.69C1261.97 157.69 1262.58 157.412 1263.07 156.855C1263.56 156.293 1263.81 155.414 1263.81 154.219C1263.81 153.076 1263.55 152.215 1263.04 151.635C1262.54 151.055 1261.93 150.765 1261.21 150.765C1260.51 150.765 1259.91 151.052 1259.42 151.626C1258.93 152.194 1258.68 153.041 1258.68 154.166ZM1278.78 155.581L1280.34 155.783C1280.17 156.855 1279.73 157.696 1279.03 158.306C1278.33 158.909 1277.47 159.211 1276.45 159.211C1275.18 159.211 1274.15 158.795 1273.37 157.963C1272.59 157.125 1272.21 155.927 1272.21 154.368C1272.21 153.36 1272.38 152.479 1272.71 151.723C1273.04 150.967 1273.55 150.401 1274.23 150.026C1274.92 149.646 1275.66 149.455 1276.46 149.455C1277.48 149.455 1278.3 149.713 1278.95 150.229C1279.59 150.738 1280.01 151.465 1280.19 152.408L1278.65 152.646C1278.5 152.019 1278.24 151.547 1277.87 151.23C1277.5 150.914 1277.05 150.756 1276.52 150.756C1275.73 150.756 1275.08 151.043 1274.58 151.617C1274.08 152.186 1273.83 153.088 1273.83 154.324C1273.83 155.578 1274.07 156.489 1274.55 157.058C1275.04 157.626 1275.66 157.91 1276.44 157.91C1277.06 157.91 1277.58 157.72 1277.99 157.339C1278.41 156.958 1278.67 156.372 1278.78 155.581ZM1287.78 157.849C1287.2 158.347 1286.63 158.698 1286.09 158.903C1285.55 159.108 1284.97 159.211 1284.35 159.211C1283.32 159.211 1282.53 158.962 1281.98 158.464C1281.43 157.96 1281.16 157.318 1281.16 156.539C1281.16 156.082 1281.26 155.666 1281.46 155.291C1281.67 154.91 1281.95 154.605 1282.28 154.377C1282.62 154.148 1283 153.976 1283.42 153.858C1283.73 153.776 1284.2 153.697 1284.83 153.621C1286.11 153.469 1287.05 153.287 1287.65 153.076C1287.66 152.859 1287.66 152.722 1287.66 152.663C1287.66 152.019 1287.51 151.564 1287.21 151.301C1286.81 150.943 1286.21 150.765 1285.41 150.765C1284.67 150.765 1284.11 150.896 1283.76 151.16C1283.41 151.418 1283.14 151.878 1282.97 152.54L1281.43 152.329C1281.57 151.667 1281.8 151.134 1282.12 150.729C1282.44 150.319 1282.91 150.006 1283.52 149.789C1284.13 149.566 1284.83 149.455 1285.64 149.455C1286.43 149.455 1287.08 149.549 1287.58 149.736C1288.08 149.924 1288.44 150.161 1288.68 150.448C1288.91 150.729 1289.08 151.087 1289.17 151.521C1289.22 151.79 1289.25 152.276 1289.25 152.979V155.089C1289.25 156.56 1289.28 157.491 1289.35 157.884C1289.42 158.271 1289.55 158.643 1289.75 159H1288.1C1287.93 158.672 1287.83 158.288 1287.78 157.849ZM1287.65 154.315C1287.08 154.55 1286.21 154.749 1285.07 154.913C1284.42 155.007 1283.96 155.112 1283.69 155.229C1283.42 155.347 1283.21 155.52 1283.06 155.748C1282.92 155.971 1282.84 156.22 1282.84 156.495C1282.84 156.917 1283 157.269 1283.32 157.55C1283.64 157.831 1284.11 157.972 1284.72 157.972C1285.33 157.972 1285.88 157.84 1286.35 157.576C1286.82 157.307 1287.17 156.94 1287.4 156.478C1287.57 156.12 1287.65 155.593 1287.65 154.896V154.315ZM1291.68 159V146.115H1293.26V159H1291.68ZM1295.68 159V146.115H1297.27V159H1295.68ZM1310.85 159V157.629C1310.13 158.684 1309.14 159.211 1307.89 159.211C1307.34 159.211 1306.83 159.105 1306.34 158.895C1305.87 158.684 1305.52 158.42 1305.28 158.104C1305.05 157.781 1304.89 157.389 1304.8 156.926C1304.73 156.615 1304.7 156.123 1304.7 155.449V149.666H1306.28V154.843C1306.28 155.669 1306.32 156.226 1306.38 156.513C1306.48 156.929 1306.69 157.257 1307.01 157.497C1307.33 157.731 1307.73 157.849 1308.21 157.849C1308.68 157.849 1309.13 157.729 1309.54 157.488C1309.96 157.242 1310.25 156.911 1310.42 156.495C1310.6 156.073 1310.69 155.464 1310.69 154.667V149.666H1312.27V159H1310.85ZM1314.74 159V149.666H1316.16V151.081C1316.53 150.419 1316.86 149.982 1317.16 149.771C1317.47 149.561 1317.81 149.455 1318.18 149.455C1318.72 149.455 1319.26 149.625 1319.81 149.965L1319.26 151.433C1318.88 151.204 1318.49 151.09 1318.1 151.09C1317.76 151.09 1317.45 151.195 1317.17 151.406C1316.9 151.611 1316.7 151.898 1316.58 152.268C1316.41 152.83 1316.32 153.445 1316.32 154.113V159H1314.74ZM1320.71 159V146.115H1322.3V159H1320.71Z" fill="black"/>
<path d="M542.717 303.479L546.654 303.096C546.891 304.417 547.37 305.388 548.09 306.008C548.819 306.628 549.799 306.938 551.029 306.938C552.333 306.938 553.312 306.664 553.969 306.117C554.634 305.561 554.967 304.914 554.967 304.176C554.967 303.702 554.826 303.301 554.543 302.973C554.27 302.635 553.786 302.344 553.094 302.098C552.62 301.934 551.54 301.642 549.854 301.223C547.684 300.685 546.162 300.024 545.287 299.24C544.057 298.137 543.441 296.793 543.441 295.207C543.441 294.186 543.729 293.234 544.303 292.35C544.886 291.456 545.72 290.777 546.805 290.312C547.898 289.848 549.215 289.615 550.756 289.615C553.271 289.615 555.163 290.167 556.43 291.27C557.706 292.372 558.376 293.844 558.439 295.686L554.393 295.863C554.219 294.833 553.846 294.095 553.271 293.648C552.706 293.193 551.854 292.965 550.715 292.965C549.539 292.965 548.618 293.206 547.953 293.689C547.525 293.999 547.311 294.414 547.311 294.934C547.311 295.408 547.511 295.813 547.912 296.15C548.423 296.579 549.662 297.025 551.631 297.49C553.6 297.955 555.053 298.438 555.992 298.939C556.94 299.432 557.678 300.111 558.207 300.977C558.745 301.833 559.014 302.895 559.014 304.162C559.014 305.311 558.695 306.386 558.057 307.389C557.419 308.391 556.516 309.139 555.35 309.631C554.183 310.114 552.729 310.355 550.988 310.355C548.454 310.355 546.508 309.772 545.15 308.605C543.792 307.43 542.981 305.721 542.717 303.479ZM569.049 295.48V298.543H566.424V304.395C566.424 305.579 566.447 306.272 566.492 306.473C566.547 306.664 566.661 306.824 566.834 306.951C567.016 307.079 567.235 307.143 567.49 307.143C567.846 307.143 568.361 307.02 569.035 306.773L569.363 309.754C568.47 310.137 567.458 310.328 566.328 310.328C565.635 310.328 565.011 310.214 564.455 309.986C563.899 309.749 563.489 309.449 563.225 309.084C562.969 308.71 562.792 308.209 562.691 307.58C562.609 307.133 562.568 306.231 562.568 304.873V298.543H560.805V295.48H562.568V292.596L566.424 290.354V295.48H569.049ZM580.123 305.379L583.951 306.021C583.459 307.425 582.68 308.496 581.613 309.234C580.556 309.964 579.23 310.328 577.635 310.328C575.11 310.328 573.242 309.503 572.029 307.854C571.072 306.532 570.594 304.864 570.594 302.85C570.594 300.443 571.223 298.561 572.48 297.203C573.738 295.836 575.329 295.152 577.252 295.152C579.412 295.152 581.117 295.868 582.365 297.299C583.614 298.721 584.211 300.904 584.156 303.848H574.531C574.559 304.987 574.868 305.876 575.461 306.514C576.053 307.143 576.792 307.457 577.676 307.457C578.277 307.457 578.783 307.293 579.193 306.965C579.604 306.637 579.913 306.108 580.123 305.379ZM580.342 301.496C580.314 300.384 580.027 299.541 579.48 298.967C578.934 298.383 578.268 298.092 577.484 298.092C576.646 298.092 575.953 298.397 575.406 299.008C574.859 299.618 574.59 300.448 574.6 301.496H580.342ZM587.191 295.48H590.773V297.613C591.238 296.884 591.867 296.292 592.66 295.836C593.453 295.38 594.333 295.152 595.299 295.152C596.985 295.152 598.416 295.813 599.592 297.135C600.768 298.456 601.355 300.298 601.355 302.658C601.355 305.083 600.763 306.969 599.578 308.318C598.393 309.658 596.958 310.328 595.271 310.328C594.469 310.328 593.74 310.169 593.084 309.85C592.437 309.531 591.753 308.984 591.033 308.209V315.523H587.191V295.48ZM590.992 302.494C590.992 304.126 591.316 305.333 591.963 306.117C592.61 306.892 593.398 307.279 594.328 307.279C595.221 307.279 595.964 306.924 596.557 306.213C597.149 305.493 597.445 304.317 597.445 302.686C597.445 301.163 597.14 300.033 596.529 299.295C595.919 298.557 595.162 298.188 594.26 298.188C593.321 298.188 592.542 298.552 591.922 299.281C591.302 300.001 590.992 301.072 590.992 302.494ZM603.064 305.857L606.92 305.27C607.084 306.017 607.417 306.587 607.918 306.979C608.419 307.361 609.121 307.553 610.023 307.553C611.017 307.553 611.764 307.37 612.266 307.006C612.603 306.751 612.771 306.409 612.771 305.98C612.771 305.689 612.68 305.447 612.498 305.256C612.307 305.074 611.878 304.905 611.213 304.75C608.114 304.066 606.15 303.442 605.32 302.877C604.172 302.093 603.598 301.004 603.598 299.609C603.598 298.352 604.094 297.294 605.088 296.438C606.081 295.581 607.622 295.152 609.709 295.152C611.696 295.152 613.173 295.476 614.139 296.123C615.105 296.77 615.77 297.727 616.135 298.994L612.512 299.664C612.357 299.099 612.061 298.666 611.623 298.365C611.195 298.064 610.579 297.914 609.777 297.914C608.766 297.914 608.041 298.055 607.604 298.338C607.312 298.538 607.166 298.798 607.166 299.117C607.166 299.391 607.294 299.623 607.549 299.814C607.895 300.07 609.089 300.43 611.131 300.895C613.182 301.359 614.613 301.929 615.424 302.604C616.226 303.287 616.627 304.24 616.627 305.461C616.627 306.792 616.071 307.936 614.959 308.893C613.847 309.85 612.202 310.328 610.023 310.328C608.046 310.328 606.478 309.927 605.32 309.125C604.172 308.323 603.42 307.234 603.064 305.857ZM634.455 295.48V298.543H631.83V304.395C631.83 305.579 631.853 306.272 631.898 306.473C631.953 306.664 632.067 306.824 632.24 306.951C632.423 307.079 632.641 307.143 632.896 307.143C633.252 307.143 633.767 307.02 634.441 306.773L634.77 309.754C633.876 310.137 632.865 310.328 631.734 310.328C631.042 310.328 630.417 310.214 629.861 309.986C629.305 309.749 628.895 309.449 628.631 309.084C628.376 308.71 628.198 308.209 628.098 307.58C628.016 307.133 627.975 306.231 627.975 304.873V298.543H626.211V295.48H627.975V292.596L631.83 290.354V295.48H634.455ZM636.232 302.535C636.232 301.259 636.547 300.024 637.176 298.83C637.805 297.636 638.693 296.725 639.842 296.096C640.999 295.467 642.289 295.152 643.711 295.152C645.908 295.152 647.708 295.868 649.111 297.299C650.515 298.721 651.217 300.521 651.217 302.699C651.217 304.896 650.506 306.719 649.084 308.168C647.671 309.608 645.889 310.328 643.738 310.328C642.408 310.328 641.136 310.027 639.924 309.426C638.721 308.824 637.805 307.945 637.176 306.787C636.547 305.62 636.232 304.203 636.232 302.535ZM640.17 302.74C640.17 304.18 640.512 305.283 641.195 306.049C641.879 306.814 642.722 307.197 643.725 307.197C644.727 307.197 645.566 306.814 646.24 306.049C646.924 305.283 647.266 304.171 647.266 302.713C647.266 301.291 646.924 300.197 646.24 299.432C645.566 298.666 644.727 298.283 643.725 298.283C642.722 298.283 641.879 298.666 641.195 299.432C640.512 300.197 640.17 301.3 640.17 302.74ZM671.588 310V307.826C671.059 308.601 670.362 309.212 669.496 309.658C668.639 310.105 667.732 310.328 666.775 310.328C665.8 310.328 664.925 310.114 664.15 309.686C663.376 309.257 662.815 308.656 662.469 307.881C662.122 307.106 661.949 306.035 661.949 304.668V295.48H665.791V302.152C665.791 304.194 665.859 305.447 665.996 305.912C666.142 306.368 666.402 306.732 666.775 307.006C667.149 307.27 667.623 307.402 668.197 307.402C668.854 307.402 669.441 307.225 669.961 306.869C670.48 306.505 670.836 306.058 671.027 305.529C671.219 304.992 671.314 303.684 671.314 301.605V295.48H675.156V310H671.588ZM677.795 305.857L681.65 305.27C681.814 306.017 682.147 306.587 682.648 306.979C683.15 307.361 683.852 307.553 684.754 307.553C685.747 307.553 686.495 307.37 686.996 307.006C687.333 306.751 687.502 306.409 687.502 305.98C687.502 305.689 687.411 305.447 687.229 305.256C687.037 305.074 686.609 304.905 685.943 304.75C682.844 304.066 680.88 303.442 680.051 302.877C678.902 302.093 678.328 301.004 678.328 299.609C678.328 298.352 678.825 297.294 679.818 296.438C680.812 295.581 682.352 295.152 684.439 295.152C686.426 295.152 687.903 295.476 688.869 296.123C689.835 296.77 690.501 297.727 690.865 298.994L687.242 299.664C687.087 299.099 686.791 298.666 686.354 298.365C685.925 298.064 685.31 297.914 684.508 297.914C683.496 297.914 682.771 298.055 682.334 298.338C682.042 298.538 681.896 298.798 681.896 299.117C681.896 299.391 682.024 299.623 682.279 299.814C682.626 300.07 683.82 300.43 685.861 300.895C687.912 301.359 689.343 301.929 690.154 302.604C690.956 303.287 691.357 304.24 691.357 305.461C691.357 306.792 690.801 307.936 689.689 308.893C688.577 309.85 686.932 310.328 684.754 310.328C682.776 310.328 681.208 309.927 680.051 309.125C678.902 308.323 678.15 307.234 677.795 305.857ZM703.143 305.379L706.971 306.021C706.479 307.425 705.699 308.496 704.633 309.234C703.576 309.964 702.249 310.328 700.654 310.328C698.13 310.328 696.261 309.503 695.049 307.854C694.092 306.532 693.613 304.864 693.613 302.85C693.613 300.443 694.242 298.561 695.5 297.203C696.758 295.836 698.348 295.152 700.271 295.152C702.432 295.152 704.136 295.868 705.385 297.299C706.633 298.721 707.23 300.904 707.176 303.848H697.551C697.578 304.987 697.888 305.876 698.48 306.514C699.073 307.143 699.811 307.457 700.695 307.457C701.297 307.457 701.803 307.293 702.213 306.965C702.623 306.637 702.933 306.108 703.143 305.379ZM703.361 301.496C703.334 300.384 703.047 299.541 702.5 298.967C701.953 298.383 701.288 298.092 700.504 298.092C699.665 298.092 698.973 298.397 698.426 299.008C697.879 299.618 697.61 300.448 697.619 301.496H703.361ZM720.984 299.91L717.498 299.281C717.89 297.878 718.564 296.839 719.521 296.164C720.479 295.49 721.9 295.152 723.787 295.152C725.501 295.152 726.777 295.357 727.615 295.768C728.454 296.169 729.042 296.684 729.379 297.312C729.725 297.932 729.898 299.076 729.898 300.744L729.857 305.229C729.857 306.505 729.917 307.448 730.035 308.059C730.163 308.66 730.395 309.307 730.732 310H726.932C726.831 309.745 726.708 309.367 726.562 308.865C726.499 308.637 726.453 308.487 726.426 308.414C725.77 309.052 725.068 309.531 724.32 309.85C723.573 310.169 722.775 310.328 721.928 310.328C720.433 310.328 719.253 309.923 718.387 309.111C717.53 308.3 717.102 307.275 717.102 306.035C717.102 305.215 717.298 304.486 717.689 303.848C718.081 303.201 718.628 302.708 719.33 302.371C720.041 302.025 721.062 301.724 722.393 301.469C724.188 301.132 725.432 300.817 726.125 300.525V300.143C726.125 299.404 725.943 298.88 725.578 298.57C725.214 298.251 724.525 298.092 723.514 298.092C722.83 298.092 722.297 298.229 721.914 298.502C721.531 298.766 721.221 299.236 720.984 299.91ZM726.125 303.027C725.633 303.191 724.854 303.387 723.787 303.615C722.721 303.843 722.023 304.066 721.695 304.285C721.194 304.641 720.943 305.092 720.943 305.639C720.943 306.176 721.144 306.641 721.545 307.033C721.946 307.425 722.456 307.621 723.076 307.621C723.769 307.621 724.43 307.393 725.059 306.938C725.523 306.591 725.829 306.167 725.975 305.666C726.075 305.338 726.125 304.714 726.125 303.793V303.027ZM746.633 310L739.469 289.957H743.857L748.93 304.791L753.838 289.957H758.131L750.953 310H746.633ZM757.201 302.535C757.201 301.259 757.516 300.024 758.145 298.83C758.773 297.636 759.662 296.725 760.811 296.096C761.968 295.467 763.258 295.152 764.68 295.152C766.876 295.152 768.676 295.868 770.08 297.299C771.484 298.721 772.186 300.521 772.186 302.699C772.186 304.896 771.475 306.719 770.053 308.168C768.64 309.608 766.858 310.328 764.707 310.328C763.376 310.328 762.105 310.027 760.893 309.426C759.689 308.824 758.773 307.945 758.145 306.787C757.516 305.62 757.201 304.203 757.201 302.535ZM761.139 302.74C761.139 304.18 761.48 305.283 762.164 306.049C762.848 306.814 763.691 307.197 764.693 307.197C765.696 307.197 766.535 306.814 767.209 306.049C767.893 305.283 768.234 304.171 768.234 302.713C768.234 301.291 767.893 300.197 767.209 299.432C766.535 298.666 765.696 298.283 764.693 298.283C763.691 298.283 762.848 298.666 762.164 299.432C761.48 300.197 761.139 301.3 761.139 302.74ZM775.207 293.512V289.957H779.049V293.512H775.207ZM775.207 310V295.48H779.049V310H775.207ZM795.66 299.773L791.873 300.457C791.745 299.701 791.454 299.131 790.998 298.748C790.551 298.365 789.968 298.174 789.248 298.174C788.291 298.174 787.525 298.507 786.951 299.172C786.386 299.828 786.104 300.931 786.104 302.48C786.104 304.203 786.391 305.42 786.965 306.131C787.548 306.842 788.327 307.197 789.303 307.197C790.032 307.197 790.629 306.992 791.094 306.582C791.559 306.163 791.887 305.447 792.078 304.436L795.852 305.078C795.46 306.81 794.708 308.118 793.596 309.002C792.484 309.886 790.993 310.328 789.125 310.328C787.001 310.328 785.306 309.658 784.039 308.318C782.781 306.979 782.152 305.124 782.152 302.754C782.152 300.357 782.786 298.493 784.053 297.162C785.32 295.822 787.033 295.152 789.193 295.152C790.962 295.152 792.365 295.535 793.404 296.301C794.452 297.057 795.204 298.215 795.66 299.773ZM806.994 305.379L810.822 306.021C810.33 307.425 809.551 308.496 808.484 309.234C807.427 309.964 806.101 310.328 804.506 310.328C801.981 310.328 800.113 309.503 798.9 307.854C797.943 306.532 797.465 304.864 797.465 302.85C797.465 300.443 798.094 298.561 799.352 297.203C800.609 295.836 802.2 295.152 804.123 295.152C806.283 295.152 807.988 295.868 809.236 297.299C810.485 298.721 811.082 300.904 811.027 303.848H801.402C801.43 304.987 801.74 305.876 802.332 306.514C802.924 307.143 803.663 307.457 804.547 307.457C805.148 307.457 805.654 307.293 806.064 306.965C806.475 306.637 806.785 306.108 806.994 305.379ZM807.213 301.496C807.186 300.384 806.898 299.541 806.352 298.967C805.805 298.383 805.139 298.092 804.355 298.092C803.517 298.092 802.824 298.397 802.277 299.008C801.73 299.618 801.462 300.448 801.471 301.496H807.213ZM839.027 310H834.625L832.875 305.447H824.863L823.209 310H818.916L826.723 289.957H831.002L839.027 310ZM831.576 302.07L828.814 294.633L826.107 302.07H831.576ZM840.805 310.957L845.193 311.49C845.266 312.001 845.435 312.352 845.699 312.543C846.064 312.816 846.638 312.953 847.422 312.953C848.424 312.953 849.176 312.803 849.678 312.502C850.015 312.301 850.27 311.978 850.443 311.531C850.562 311.212 850.621 310.624 850.621 309.768V307.648C849.473 309.216 848.023 310 846.273 310C844.323 310 842.778 309.175 841.639 307.525C840.745 306.222 840.299 304.6 840.299 302.658C840.299 300.225 840.882 298.365 842.049 297.08C843.225 295.795 844.683 295.152 846.424 295.152C848.219 295.152 849.701 295.941 850.867 297.518V295.48H854.463V308.51C854.463 310.223 854.322 311.504 854.039 312.352C853.757 313.199 853.36 313.865 852.85 314.348C852.339 314.831 851.656 315.209 850.799 315.482C849.951 315.756 848.876 315.893 847.572 315.893C845.111 315.893 843.366 315.469 842.336 314.621C841.306 313.783 840.791 312.716 840.791 311.422C840.791 311.294 840.796 311.139 840.805 310.957ZM844.236 302.439C844.236 303.98 844.533 305.11 845.125 305.83C845.727 306.541 846.465 306.896 847.34 306.896C848.279 306.896 849.072 306.532 849.719 305.803C850.366 305.064 850.689 303.975 850.689 302.535C850.689 301.031 850.38 299.915 849.76 299.186C849.14 298.456 848.356 298.092 847.408 298.092C846.488 298.092 845.727 298.452 845.125 299.172C844.533 299.883 844.236 300.972 844.236 302.439ZM866.686 305.379L870.514 306.021C870.021 307.425 869.242 308.496 868.176 309.234C867.118 309.964 865.792 310.328 864.197 310.328C861.673 310.328 859.804 309.503 858.592 307.854C857.635 306.532 857.156 304.864 857.156 302.85C857.156 300.443 857.785 298.561 859.043 297.203C860.301 295.836 861.891 295.152 863.814 295.152C865.975 295.152 867.679 295.868 868.928 297.299C870.176 298.721 870.773 300.904 870.719 303.848H861.094C861.121 304.987 861.431 305.876 862.023 306.514C862.616 307.143 863.354 307.457 864.238 307.457C864.84 307.457 865.346 307.293 865.756 306.965C866.166 306.637 866.476 306.108 866.686 305.379ZM866.904 301.496C866.877 300.384 866.59 299.541 866.043 298.967C865.496 298.383 864.831 298.092 864.047 298.092C863.208 298.092 862.516 298.397 861.969 299.008C861.422 299.618 861.153 300.448 861.162 301.496H866.904ZM887.07 310H883.229V302.59C883.229 301.022 883.146 300.01 882.982 299.555C882.818 299.09 882.549 298.73 882.176 298.475C881.811 298.219 881.369 298.092 880.85 298.092C880.184 298.092 879.587 298.274 879.059 298.639C878.53 299.003 878.165 299.486 877.965 300.088C877.773 300.689 877.678 301.801 877.678 303.424V310H873.836V295.48H877.404V297.613C878.671 295.973 880.266 295.152 882.189 295.152C883.037 295.152 883.812 295.307 884.514 295.617C885.215 295.918 885.744 296.305 886.1 296.779C886.464 297.253 886.715 297.791 886.852 298.393C886.997 298.994 887.07 299.855 887.07 300.977V310ZM897.639 295.48V298.543H895.014V304.395C895.014 305.579 895.036 306.272 895.082 306.473C895.137 306.664 895.251 306.824 895.424 306.951C895.606 307.079 895.825 307.143 896.08 307.143C896.436 307.143 896.951 307.02 897.625 306.773L897.953 309.754C897.06 310.137 896.048 310.328 894.918 310.328C894.225 310.328 893.601 310.214 893.045 309.986C892.489 309.749 892.079 309.449 891.814 309.084C891.559 308.71 891.382 308.209 891.281 307.58C891.199 307.133 891.158 306.231 891.158 304.873V298.543H889.395V295.48H891.158V292.596L895.014 290.354V295.48H897.639Z" fill="black"/>
<path d="M558.549 335.479L562.486 335.096C562.723 336.417 563.202 337.388 563.922 338.008C564.651 338.628 565.631 338.938 566.861 338.938C568.165 338.938 569.145 338.664 569.801 338.117C570.466 337.561 570.799 336.914 570.799 336.176C570.799 335.702 570.658 335.301 570.375 334.973C570.102 334.635 569.618 334.344 568.926 334.098C568.452 333.934 567.372 333.642 565.686 333.223C563.516 332.685 561.994 332.024 561.119 331.24C559.889 330.137 559.273 328.793 559.273 327.207C559.273 326.186 559.561 325.234 560.135 324.35C560.718 323.456 561.552 322.777 562.637 322.312C563.73 321.848 565.048 321.615 566.588 321.615C569.104 321.615 570.995 322.167 572.262 323.27C573.538 324.372 574.208 325.844 574.271 327.686L570.225 327.863C570.051 326.833 569.678 326.095 569.104 325.648C568.538 325.193 567.686 324.965 566.547 324.965C565.371 324.965 564.451 325.206 563.785 325.689C563.357 325.999 563.143 326.414 563.143 326.934C563.143 327.408 563.343 327.813 563.744 328.15C564.255 328.579 565.494 329.025 567.463 329.49C569.432 329.955 570.885 330.438 571.824 330.939C572.772 331.432 573.51 332.111 574.039 332.977C574.577 333.833 574.846 334.895 574.846 336.162C574.846 337.311 574.527 338.386 573.889 339.389C573.251 340.391 572.348 341.139 571.182 341.631C570.015 342.114 568.561 342.355 566.82 342.355C564.286 342.355 562.34 341.772 560.982 340.605C559.624 339.43 558.813 337.721 558.549 335.479ZM584.881 327.48V330.543H582.256V336.395C582.256 337.579 582.279 338.272 582.324 338.473C582.379 338.664 582.493 338.824 582.666 338.951C582.848 339.079 583.067 339.143 583.322 339.143C583.678 339.143 584.193 339.02 584.867 338.773L585.195 341.754C584.302 342.137 583.29 342.328 582.16 342.328C581.467 342.328 580.843 342.214 580.287 341.986C579.731 341.749 579.321 341.449 579.057 341.084C578.801 340.71 578.624 340.209 578.523 339.58C578.441 339.133 578.4 338.231 578.4 336.873V330.543H576.637V327.48H578.4V324.596L582.256 322.354V327.48H584.881ZM595.955 337.379L599.783 338.021C599.291 339.425 598.512 340.496 597.445 341.234C596.388 341.964 595.062 342.328 593.467 342.328C590.942 342.328 589.074 341.503 587.861 339.854C586.904 338.532 586.426 336.864 586.426 334.85C586.426 332.443 587.055 330.561 588.312 329.203C589.57 327.836 591.161 327.152 593.084 327.152C595.244 327.152 596.949 327.868 598.197 329.299C599.446 330.721 600.043 332.904 599.988 335.848H590.363C590.391 336.987 590.701 337.876 591.293 338.514C591.885 339.143 592.624 339.457 593.508 339.457C594.109 339.457 594.615 339.293 595.025 338.965C595.436 338.637 595.745 338.108 595.955 337.379ZM596.174 333.496C596.146 332.384 595.859 331.541 595.312 330.967C594.766 330.383 594.1 330.092 593.316 330.092C592.478 330.092 591.785 330.397 591.238 331.008C590.691 331.618 590.423 332.448 590.432 333.496H596.174ZM603.023 327.48H606.605V329.613C607.07 328.884 607.699 328.292 608.492 327.836C609.285 327.38 610.165 327.152 611.131 327.152C612.817 327.152 614.248 327.813 615.424 329.135C616.6 330.456 617.188 332.298 617.188 334.658C617.188 337.083 616.595 338.969 615.41 340.318C614.225 341.658 612.79 342.328 611.104 342.328C610.301 342.328 609.572 342.169 608.916 341.85C608.269 341.531 607.585 340.984 606.865 340.209V347.523H603.023V327.48ZM606.824 334.494C606.824 336.126 607.148 337.333 607.795 338.117C608.442 338.892 609.23 339.279 610.16 339.279C611.053 339.279 611.796 338.924 612.389 338.213C612.981 337.493 613.277 336.317 613.277 334.686C613.277 333.163 612.972 332.033 612.361 331.295C611.751 330.557 610.994 330.188 610.092 330.188C609.153 330.188 608.374 330.552 607.754 331.281C607.134 332.001 606.824 333.072 606.824 334.494ZM618.896 337.857L622.752 337.27C622.916 338.017 623.249 338.587 623.75 338.979C624.251 339.361 624.953 339.553 625.855 339.553C626.849 339.553 627.596 339.37 628.098 339.006C628.435 338.751 628.604 338.409 628.604 337.98C628.604 337.689 628.512 337.447 628.33 337.256C628.139 337.074 627.71 336.905 627.045 336.75C623.946 336.066 621.982 335.442 621.152 334.877C620.004 334.093 619.43 333.004 619.43 331.609C619.43 330.352 619.926 329.294 620.92 328.438C621.913 327.581 623.454 327.152 625.541 327.152C627.528 327.152 629.005 327.476 629.971 328.123C630.937 328.77 631.602 329.727 631.967 330.994L628.344 331.664C628.189 331.099 627.893 330.666 627.455 330.365C627.027 330.064 626.411 329.914 625.609 329.914C624.598 329.914 623.873 330.055 623.436 330.338C623.144 330.538 622.998 330.798 622.998 331.117C622.998 331.391 623.126 331.623 623.381 331.814C623.727 332.07 624.921 332.43 626.963 332.895C629.014 333.359 630.445 333.929 631.256 334.604C632.058 335.287 632.459 336.24 632.459 337.461C632.459 338.792 631.903 339.936 630.791 340.893C629.679 341.85 628.034 342.328 625.855 342.328C623.878 342.328 622.31 341.927 621.152 341.125C620.004 340.323 619.252 339.234 618.896 337.857ZM650.287 327.48V330.543H647.662V336.395C647.662 337.579 647.685 338.272 647.73 338.473C647.785 338.664 647.899 338.824 648.072 338.951C648.255 339.079 648.473 339.143 648.729 339.143C649.084 339.143 649.599 339.02 650.273 338.773L650.602 341.754C649.708 342.137 648.697 342.328 647.566 342.328C646.874 342.328 646.249 342.214 645.693 341.986C645.137 341.749 644.727 341.449 644.463 341.084C644.208 340.71 644.03 340.209 643.93 339.58C643.848 339.133 643.807 338.231 643.807 336.873V330.543H642.043V327.48H643.807V324.596L647.662 322.354V327.48H650.287ZM652.064 334.535C652.064 333.259 652.379 332.024 653.008 330.83C653.637 329.636 654.525 328.725 655.674 328.096C656.831 327.467 658.121 327.152 659.543 327.152C661.74 327.152 663.54 327.868 664.943 329.299C666.347 330.721 667.049 332.521 667.049 334.699C667.049 336.896 666.338 338.719 664.916 340.168C663.503 341.608 661.721 342.328 659.57 342.328C658.24 342.328 656.968 342.027 655.756 341.426C654.553 340.824 653.637 339.945 653.008 338.787C652.379 337.62 652.064 336.203 652.064 334.535ZM656.002 334.74C656.002 336.18 656.344 337.283 657.027 338.049C657.711 338.814 658.554 339.197 659.557 339.197C660.559 339.197 661.398 338.814 662.072 338.049C662.756 337.283 663.098 336.171 663.098 334.713C663.098 333.291 662.756 332.197 662.072 331.432C661.398 330.666 660.559 330.283 659.557 330.283C658.554 330.283 657.711 330.666 657.027 331.432C656.344 332.197 656.002 333.3 656.002 334.74ZM687.42 342V339.826C686.891 340.601 686.194 341.212 685.328 341.658C684.471 342.105 683.564 342.328 682.607 342.328C681.632 342.328 680.757 342.114 679.982 341.686C679.208 341.257 678.647 340.656 678.301 339.881C677.954 339.106 677.781 338.035 677.781 336.668V327.48H681.623V334.152C681.623 336.194 681.691 337.447 681.828 337.912C681.974 338.368 682.234 338.732 682.607 339.006C682.981 339.27 683.455 339.402 684.029 339.402C684.686 339.402 685.273 339.225 685.793 338.869C686.312 338.505 686.668 338.058 686.859 337.529C687.051 336.992 687.146 335.684 687.146 333.605V327.48H690.988V342H687.42ZM693.627 337.857L697.482 337.27C697.646 338.017 697.979 338.587 698.48 338.979C698.982 339.361 699.684 339.553 700.586 339.553C701.579 339.553 702.327 339.37 702.828 339.006C703.165 338.751 703.334 338.409 703.334 337.98C703.334 337.689 703.243 337.447 703.061 337.256C702.869 337.074 702.441 336.905 701.775 336.75C698.676 336.066 696.712 335.442 695.883 334.877C694.734 334.093 694.16 333.004 694.16 331.609C694.16 330.352 694.657 329.294 695.65 328.438C696.644 327.581 698.184 327.152 700.271 327.152C702.258 327.152 703.735 327.476 704.701 328.123C705.667 328.77 706.333 329.727 706.697 330.994L703.074 331.664C702.919 331.099 702.623 330.666 702.186 330.365C701.757 330.064 701.142 329.914 700.34 329.914C699.328 329.914 698.604 330.055 698.166 330.338C697.874 330.538 697.729 330.798 697.729 331.117C697.729 331.391 697.856 331.623 698.111 331.814C698.458 332.07 699.652 332.43 701.693 332.895C703.744 333.359 705.175 333.929 705.986 334.604C706.788 335.287 707.189 336.24 707.189 337.461C707.189 338.792 706.633 339.936 705.521 340.893C704.41 341.85 702.764 342.328 700.586 342.328C698.608 342.328 697.04 341.927 695.883 341.125C694.734 340.323 693.982 339.234 693.627 337.857ZM718.975 337.379L722.803 338.021C722.311 339.425 721.531 340.496 720.465 341.234C719.408 341.964 718.081 342.328 716.486 342.328C713.962 342.328 712.093 341.503 710.881 339.854C709.924 338.532 709.445 336.864 709.445 334.85C709.445 332.443 710.074 330.561 711.332 329.203C712.59 327.836 714.18 327.152 716.104 327.152C718.264 327.152 719.968 327.868 721.217 329.299C722.465 330.721 723.062 332.904 723.008 335.848H713.383C713.41 336.987 713.72 337.876 714.312 338.514C714.905 339.143 715.643 339.457 716.527 339.457C717.129 339.457 717.635 339.293 718.045 338.965C718.455 338.637 718.765 338.108 718.975 337.379ZM719.193 333.496C719.166 332.384 718.879 331.541 718.332 330.967C717.785 330.383 717.12 330.092 716.336 330.092C715.497 330.092 714.805 330.397 714.258 331.008C713.711 331.618 713.442 332.448 713.451 333.496H719.193ZM736.816 331.91L733.33 331.281C733.722 329.878 734.396 328.839 735.354 328.164C736.311 327.49 737.732 327.152 739.619 327.152C741.333 327.152 742.609 327.357 743.447 327.768C744.286 328.169 744.874 328.684 745.211 329.312C745.557 329.932 745.73 331.076 745.73 332.744L745.689 337.229C745.689 338.505 745.749 339.448 745.867 340.059C745.995 340.66 746.227 341.307 746.564 342H742.764C742.663 341.745 742.54 341.367 742.395 340.865C742.331 340.637 742.285 340.487 742.258 340.414C741.602 341.052 740.9 341.531 740.152 341.85C739.405 342.169 738.607 342.328 737.76 342.328C736.265 342.328 735.085 341.923 734.219 341.111C733.362 340.3 732.934 339.275 732.934 338.035C732.934 337.215 733.13 336.486 733.521 335.848C733.913 335.201 734.46 334.708 735.162 334.371C735.873 334.025 736.894 333.724 738.225 333.469C740.02 333.132 741.264 332.817 741.957 332.525V332.143C741.957 331.404 741.775 330.88 741.41 330.57C741.046 330.251 740.357 330.092 739.346 330.092C738.662 330.092 738.129 330.229 737.746 330.502C737.363 330.766 737.053 331.236 736.816 331.91ZM741.957 335.027C741.465 335.191 740.686 335.387 739.619 335.615C738.553 335.843 737.855 336.066 737.527 336.285C737.026 336.641 736.775 337.092 736.775 337.639C736.775 338.176 736.976 338.641 737.377 339.033C737.778 339.425 738.288 339.621 738.908 339.621C739.601 339.621 740.262 339.393 740.891 338.938C741.355 338.591 741.661 338.167 741.807 337.666C741.907 337.338 741.957 336.714 741.957 335.793V335.027ZM762.465 342L755.301 321.957H759.689L764.762 336.791L769.67 321.957H773.963L766.785 342H762.465ZM773.033 334.535C773.033 333.259 773.348 332.024 773.977 330.83C774.605 329.636 775.494 328.725 776.643 328.096C777.8 327.467 779.09 327.152 780.512 327.152C782.708 327.152 784.508 327.868 785.912 329.299C787.316 330.721 788.018 332.521 788.018 334.699C788.018 336.896 787.307 338.719 785.885 340.168C784.472 341.608 782.69 342.328 780.539 342.328C779.208 342.328 777.937 342.027 776.725 341.426C775.521 340.824 774.605 339.945 773.977 338.787C773.348 337.62 773.033 336.203 773.033 334.535ZM776.971 334.74C776.971 336.18 777.312 337.283 777.996 338.049C778.68 338.814 779.523 339.197 780.525 339.197C781.528 339.197 782.367 338.814 783.041 338.049C783.725 337.283 784.066 336.171 784.066 334.713C784.066 333.291 783.725 332.197 783.041 331.432C782.367 330.666 781.528 330.283 780.525 330.283C779.523 330.283 778.68 330.666 777.996 331.432C777.312 332.197 776.971 333.3 776.971 334.74ZM791.039 325.512V321.957H794.881V325.512H791.039ZM791.039 342V327.48H794.881V342H791.039ZM811.492 331.773L807.705 332.457C807.577 331.701 807.286 331.131 806.83 330.748C806.383 330.365 805.8 330.174 805.08 330.174C804.123 330.174 803.357 330.507 802.783 331.172C802.218 331.828 801.936 332.931 801.936 334.48C801.936 336.203 802.223 337.42 802.797 338.131C803.38 338.842 804.16 339.197 805.135 339.197C805.864 339.197 806.461 338.992 806.926 338.582C807.391 338.163 807.719 337.447 807.91 336.436L811.684 337.078C811.292 338.81 810.54 340.118 809.428 341.002C808.316 341.886 806.826 342.328 804.957 342.328C802.833 342.328 801.138 341.658 799.871 340.318C798.613 338.979 797.984 337.124 797.984 334.754C797.984 332.357 798.618 330.493 799.885 329.162C801.152 327.822 802.865 327.152 805.025 327.152C806.794 327.152 808.197 327.535 809.236 328.301C810.285 329.057 811.036 330.215 811.492 331.773ZM822.826 337.379L826.654 338.021C826.162 339.425 825.383 340.496 824.316 341.234C823.259 341.964 821.933 342.328 820.338 342.328C817.813 342.328 815.945 341.503 814.732 339.854C813.775 338.532 813.297 336.864 813.297 334.85C813.297 332.443 813.926 330.561 815.184 329.203C816.441 327.836 818.032 327.152 819.955 327.152C822.115 327.152 823.82 327.868 825.068 329.299C826.317 330.721 826.914 332.904 826.859 335.848H817.234C817.262 336.987 817.572 337.876 818.164 338.514C818.757 339.143 819.495 339.457 820.379 339.457C820.98 339.457 821.486 339.293 821.896 338.965C822.307 338.637 822.617 338.108 822.826 337.379ZM823.045 333.496C823.018 332.384 822.73 331.541 822.184 330.967C821.637 330.383 820.971 330.092 820.188 330.092C819.349 330.092 818.656 330.397 818.109 331.008C817.562 331.618 817.294 332.448 817.303 333.496H823.045ZM837.838 321.957H845.85C847.436 321.957 848.616 322.025 849.391 322.162C850.174 322.29 850.872 322.563 851.482 322.982C852.102 323.402 852.617 323.962 853.027 324.664C853.438 325.357 853.643 326.136 853.643 327.002C853.643 327.941 853.387 328.802 852.877 329.586C852.376 330.37 851.692 330.958 850.826 331.35C852.048 331.705 852.986 332.311 853.643 333.168C854.299 334.025 854.627 335.032 854.627 336.189C854.627 337.101 854.413 337.99 853.984 338.855C853.565 339.712 852.986 340.4 852.248 340.92C851.519 341.43 850.617 341.745 849.541 341.863C848.867 341.936 847.24 341.982 844.66 342H837.838V321.957ZM841.885 325.293V329.928H844.537C846.114 329.928 847.094 329.905 847.477 329.859C848.169 329.777 848.712 329.54 849.104 329.148C849.505 328.747 849.705 328.223 849.705 327.576C849.705 326.956 849.532 326.455 849.186 326.072C848.848 325.68 848.342 325.443 847.668 325.361C847.267 325.316 846.114 325.293 844.209 325.293H841.885ZM841.885 333.264V338.623H845.631C847.089 338.623 848.014 338.582 848.406 338.5C849.008 338.391 849.495 338.126 849.869 337.707C850.252 337.279 850.443 336.709 850.443 335.998C850.443 335.396 850.298 334.886 850.006 334.467C849.714 334.048 849.29 333.742 848.734 333.551C848.188 333.359 846.993 333.264 845.152 333.264H841.885ZM857.143 334.535C857.143 333.259 857.457 332.024 858.086 330.83C858.715 329.636 859.604 328.725 860.752 328.096C861.91 327.467 863.199 327.152 864.621 327.152C866.818 327.152 868.618 327.868 870.021 329.299C871.425 330.721 872.127 332.521 872.127 334.699C872.127 336.896 871.416 338.719 869.994 340.168C868.581 341.608 866.799 342.328 864.648 342.328C863.318 342.328 862.046 342.027 860.834 341.426C859.631 340.824 858.715 339.945 858.086 338.787C857.457 337.62 857.143 336.203 857.143 334.535ZM861.08 334.74C861.08 336.18 861.422 337.283 862.105 338.049C862.789 338.814 863.632 339.197 864.635 339.197C865.637 339.197 866.476 338.814 867.15 338.049C867.834 337.283 868.176 336.171 868.176 334.713C868.176 333.291 867.834 332.197 867.15 331.432C866.476 330.666 865.637 330.283 864.635 330.283C863.632 330.283 862.789 330.666 862.105 331.432C861.422 332.197 861.08 333.3 861.08 334.74ZM881.807 327.48V330.543H879.182V336.395C879.182 337.579 879.204 338.272 879.25 338.473C879.305 338.664 879.419 338.824 879.592 338.951C879.774 339.079 879.993 339.143 880.248 339.143C880.604 339.143 881.118 339.02 881.793 338.773L882.121 341.754C881.228 342.137 880.216 342.328 879.086 342.328C878.393 342.328 877.769 342.214 877.213 341.986C876.657 341.749 876.247 341.449 875.982 341.084C875.727 340.71 875.549 340.209 875.449 339.58C875.367 339.133 875.326 338.231 875.326 336.873V330.543H873.562V327.48H875.326V324.596L879.182 322.354V327.48H881.807Z" fill="#F5FBFF"/>
</svg>
