<svg xmlns="http://www.w3.org/2000/svg" width="549.334" height="428.462" viewBox="0 0 549.334 428.462"><defs><style>.a{fill:#f2fbff;}.b,.j{fill:#ebf5ff;}.b,.e,.h,.k,.l,.m{stroke:#212b47;}.b,.e,.g,.h,.k,.l,.m,.n{stroke-miterlimit:10;}.c{opacity:0.5;}.d{fill:#fff;}.e{fill:#01f7cf;}.f{fill:#212b47;}.g,.n,.p{fill:none;}.g{stroke:#fff;}.h{fill:#cce6ff;}.i{fill:#00e5c4;}.k{fill:#887cd9;}.l{fill:#23cf6a;}.m{fill:#27e696;}.n{stroke:#00e5c4;stroke-width:2px;}.o{stroke:none;}</style></defs><g transform="translate(-298.028 -156.143)"><path class="a" d="M451.552,534.969a51.956,51.956,0,0,1-38.9,17.57c-34.2-.012-78.583-18.149-102.944-59.475-35.625-60.435,20.993-94.787,27.354-122.777,10.179-42.622-20.918-88.829,27.991-121.5C419.191,212.614,485.924,297.129,533,272.956c33.674-17.292,97.941-59.212,156.493-34.352,23.3,9.892,51.041,25.55,67.431,64.887,12.723,30.535,15.977,73,12.087,101.148-9.126,66.052-40.713,97.967-78.882,104.328-26.464,4.411-70.792,4.929-148.223-28.626C508.126,476.587,469.5,514.7,451.552,534.969Z"></path><path class="b" d="M20,0H322.94a20,20,0,0,1,20,20V204.772a0,0,0,0,1,0,0H0a0,0,0,0,1,0,0V20A20,20,0,0,1,20,0Z" transform="translate(369.102 271.762)"></path><g class="c"><rect class="d" width="233.542" height="42.048" transform="translate(423.801 310.328)"></rect><rect class="d" width="169.171" height="12.664" transform="translate(423.801 365.444)"></rect><rect class="d" width="169.171" height="12.664" transform="translate(423.801 385.397)"></rect><rect class="d" width="169.171" height="12.664" transform="translate(423.801 405.35)"></rect><rect class="d" width="169.171" height="12.664" transform="translate(423.801 425.304)"></rect><rect class="d" width="54.546" height="72.524" transform="translate(602.797 365.444)"></rect></g><path class="b" d="M580.968,570.282H500.176l10-93.748h60.793Z"></path><path class="e" d="M6.3,0H41.8a6.3,6.3,0,0,1,6.3,6.3v5.187a0,0,0,0,1,0,0H0a0,0,0,0,1,0,0V6.3A6.3,6.3,0,0,1,6.3,0Z" transform="translate(510.998 200.497)"></path><path class="e" d="M541.989,163.586a6.943,6.943,0,1,0-9.6,6.413v30.5h5.318V170A6.943,6.943,0,0,0,541.989,163.586Z"></path><path class="e" d="M70.827,0h30.518a70.827,70.827,0,0,1,70.827,70.827V90.763a39.822,39.822,0,0,1-39.822,39.822H39.822A39.822,39.822,0,0,1,0,90.763V70.827A70.827,70.827,0,0,1,70.827,0Z" transform="translate(448.205 211.527)"></path><path class="f" d="M42.206,0H90.546a42.206,42.206,0,0,1,42.206,42.206h0a10.185,10.185,0,0,1-10.185,10.185H10.185A10.185,10.185,0,0,1,0,42.206H0A42.206,42.206,0,0,1,42.206,0Z" transform="translate(467.916 248.949)"></path><g class="g" transform="translate(548.465 265.16)"><circle class="o" cx="11.686" cy="11.686" r="11.686"></circle><circle class="p" cx="11.686" cy="11.686" r="12.186"></circle></g><g class="g" transform="translate(496.073 264.945)"><circle class="o" cx="11.901" cy="11.901" r="11.901"></circle><circle class="p" cx="11.901" cy="11.901" r="12.401"></circle></g><path class="d" d="M551.832,306.978A15.919,15.919,0,1,1,520.568,313Z"></path><path class="e" d="M543.233,434.29H531.957a38.564,38.564,0,0,1-35.969-24.658L480.7,370.1a22.667,22.667,0,0,1,22.667-22.667h72.441a17.16,17.16,0,0,1,17.16,17.16l-12.835,42.326A38.563,38.563,0,0,1,543.233,434.29Z"></path><path class="e" d="M496.073,359.839c-3.552,31.021-54.958,4.53-59.1-12.409-3.1-12.676,16.551-5.318,29.548-2.954S497.959,343.359,496.073,359.839Z"></path><path class="e" d="M586.2,353.443c24.7-.1,12.881,51.894.65,63.436-9.607,9.066-8.869-15.924-9.372-29.8S569.436,353.511,586.2,353.443Z"></path><circle class="d" cx="3.383" cy="3.383" r="3.383" transform="translate(501.207 272.75)"></circle><circle class="d" cx="3.383" cy="3.383" r="3.383" transform="translate(553.384 271.762)"></circle><path class="h" d="M0,0H342.94a0,0,0,0,1,0,0V27.485a20,20,0,0,1-20,20H20a20,20,0,0,1-20-20V0A0,0,0,0,1,0,0Z" transform="translate(369.102 476.534)"></path><path class="b" d="M9,0H141.348a9,9,0,0,1,9,9v7a0,0,0,0,1,0,0H0a0,0,0,0,1,0,0V9A9,9,0,0,1,9,0Z" transform="translate(465.398 554.282)"></path><circle class="d" cx="9.089" cy="9.089" r="9.089" transform="translate(531.482 491.187)"></circle><circle class="i" cx="22.85" cy="22.85" r="22.85" transform="translate(644.467 211.865)"></circle><path class="d" d="M659.69,224.74h4.694l2.347,5.868-2.934,1.76a12.906,12.906,0,0,0,5.868,5.868l1.76-2.934,5.868,2.347v4.694a2.348,2.348,0,0,1-2.348,2.347,18.776,18.776,0,0,1-17.6-17.6,2.347,2.347,0,0,1,2.347-2.347"></path><path class="i" d="M421.949,296.969a14.319,14.319,0,0,0-20-2.993l-3.968,2.935-3.968,2.935a4.437,4.437,0,0,0-.928,6.2l.979,1.322a4.436,4.436,0,0,0,6.2.928l3.968-2.935a4.437,4.437,0,0,0,.928-6.2l-.979-1.323a4.409,4.409,0,0,0-1.726-1.4l.854-.631A12.019,12.019,0,1,1,417.6,315.138l-.854.632a4.414,4.414,0,0,0-.828-2.06l-.979-1.322a4.436,4.436,0,0,0-6.2-.928l-3.968,2.935a4.437,4.437,0,0,0-.928,6.2l.978,1.322a4.437,4.437,0,0,0,6.2.928l3.968-2.935,3.968-2.935A14.32,14.32,0,0,0,421.949,296.969ZM402.34,299.2l.978,1.323a2.15,2.15,0,0,1-.45,3l-3.968,2.935a2.151,2.151,0,0,1-3.005-.449l-.978-1.323a2.15,2.15,0,0,1,.45-3.005l3.968-2.935A2.151,2.151,0,0,1,402.34,299.2Zm7.322,21.812a2.151,2.151,0,0,1-3-.449l-.978-1.323a2.151,2.151,0,0,1,.449-3.005L410.1,313.3a2.151,2.151,0,0,1,3.006.45l.978,1.322a2.151,2.151,0,0,1-.45,3.005Z"></path><path class="j" d="M320.674,570.282H846.862V584.6H320.674"></path><path class="k" d="M787.006,543.71H738.882c-2.363,0-4.081,3.127-3.464,6.306l4.911,17.045a5,5,0,0,0,4.8,3.615h35.62a5,5,0,0,0,4.8-3.615l4.911-17.045C791.087,546.837,789.369,543.71,787.006,543.71Z"></path><path class="l" d="M754.276,543.71s-3.173-10.283-11.338-9.106-13.992-.378-13.44-6.616c.7-7.938,13.8-1.815,14.923-8.228s-10.511-.921-12.107-8.1c-1.881-8.465,14.5-6.233,9.686-13.451-4.039-6.059-2.219-8.918,1.295-10.2,2.956-1.078,10.84,1.127,10.981,8.447.114,5.965,11.513-.974,13.515,4.364,2.534,6.758-9.385,11.271-6.288,13.805s12.388-8.526,18.3-1.205-11.45,15.877-11.45,21a18.534,18.534,0,0,1-2.816,9.3Z"></path><path class="m" d="M770.113,543.71s2.584-8.373,9.232-7.415,11.393-.307,10.943-5.387c-.572-6.463-11.234-1.478-12.151-6.7s8.559-.75,9.859-6.6c1.531-6.894-11.8-5.076-7.887-10.953,3.288-4.934,1.807-7.262-1.055-8.3-2.407-.878-8.826.917-8.941,6.878-.093,4.857-9.375-.794-11.005,3.553-2.063,5.5,7.642,9.177,5.12,11.24s-10.087-6.942-14.9-.981,9.324,12.928,9.324,17.1a15.1,15.1,0,0,0,2.292,7.57Z"></path><path class="n" d="M694.885,321.429c-3.378,10.358,26.468-1.866,21.4,8.27s3.64.238,13.589,10.5"></path><line class="n" x1="6.141" y2="8.257" transform="translate(399.118 357.187)"></line><path class="n" d="M628.5,178.493l-9.736,6.318-9.736,6.318-.6-11.59-.6-11.59,10.339,5.272Z"></path><circle class="n" cx="5.883" cy="5.883" r="5.883" transform="translate(665.526 429.524)"></circle><path class="b" d="M320.674,570.282H846.862V584.6"></path><line class="b" x1="10.49" transform="translate(306.96 570.282)"></line></g></svg>