<svg width="325" height="290" viewBox="0 0 325 290" fill="none" xmlns="http://www.w3.org/2000/svg">
<path d="M142.472 81.0957C142.472 81.0957 144.547 109.052 156.181 115.65C156.181 115.65 118.828 109.199 109.643 95.2097C100.458 81.2197 142.472 81.0957 142.472 81.0957Z" fill="url(#paint0_linear_57_71)"/>
<path d="M179.677 163.581C202.694 169.886 208.132 168.121 212.234 174.291C212.705 174.999 215.11 178.619 214.629 183.265C214.245 186.967 212.183 189.824 210.886 191.08C203.001 198.713 181.304 189.375 168.878 179.162C166.169 176.935 158.9 170.962 160.364 166.719C160.964 164.981 162.827 164.117 164.164 163.519C170.075 160.875 176.206 162.63 179.677 163.581Z" fill="url(#paint1_linear_57_71)"/>
<path d="M250.742 8.86914H245.843V41.0171H250.742V8.86914Z" fill="url(#paint2_linear_57_71)"/>
<path d="M265.21 58.7744H231.376C228.881 58.7744 226.859 56.7524 226.859 54.2574V42.1654C226.859 39.6704 228.881 37.6484 231.376 37.6484H265.21C267.705 37.6484 269.727 39.6704 269.727 42.1654V54.2574C269.726 56.7524 267.704 58.7744 265.21 58.7744Z" fill="url(#paint3_linear_57_71)"/>
<path d="M324.989 129.042C324.989 148.572 309.156 164.405 289.626 164.405H206.959C187.509 164.405 171.596 148.492 171.596 129.042V110.672C171.596 76.0669 199.909 47.7529 234.515 47.7529H262.071C296.676 47.7529 324.99 76.0659 324.99 110.672L324.989 129.042Z" fill="url(#paint4_linear_57_71)"/>
<path d="M300.862 125.693C298.855 126.685 296.605 127.205 294.319 127.205H202.267C199.981 127.205 197.731 126.685 195.724 125.693C190.794 123.256 188.012 118.335 188.708 113.287L188.759 112.92C191.118 95.821 206.604 82.675 225.59 81.687C233.623 81.269 242.053 81.053 250.846 81.104C257.734 81.144 264.392 81.346 270.803 81.676C289.861 82.658 305.461 95.752 307.829 112.916C307.846 113.039 307.863 113.163 307.88 113.286C308.575 118.335 305.792 123.256 300.862 125.693Z" fill="url(#paint5_linear_57_71)"/>
<path d="M224.032 123.437C233.618 123.437 241.39 115.665 241.39 106.079C241.39 96.4921 233.618 88.7207 224.032 88.7207C214.445 88.7207 206.674 96.4921 206.674 106.079C206.674 115.665 214.445 123.437 224.032 123.437Z" fill="url(#paint6_radial_57_71)"/>
<path d="M224.032 118.538C230.913 118.538 236.491 112.96 236.491 106.079C236.491 99.1982 230.913 93.6201 224.032 93.6201C217.151 93.6201 211.573 99.1982 211.573 106.079C211.573 112.96 217.151 118.538 224.032 118.538Z" fill="#EEFDFF"/>
<path d="M224.032 116.542C229.811 116.542 234.496 111.857 234.496 106.078C234.496 100.299 229.811 95.6143 224.032 95.6143C218.253 95.6143 213.568 100.299 213.568 106.078C213.568 111.857 218.253 116.542 224.032 116.542Z" fill="url(#paint7_linear_57_71)"/>
<path d="M230.735 103.366C230.735 105.507 229 107.242 226.859 107.242C224.718 107.242 222.983 105.506 222.983 103.366C222.983 101.226 224.718 99.4902 226.859 99.4902C229 99.4902 230.735 101.226 230.735 103.366Z" fill="#EEFDFF"/>
<path d="M222.485 115.651C223.339 115.651 224.032 114.958 224.032 114.104C224.032 113.249 223.339 112.557 222.485 112.557C221.63 112.557 220.938 113.249 220.938 114.104C220.938 114.958 221.63 115.651 222.485 115.651Z" fill="#EEFDFF"/>
<path d="M218.649 111.783C218.649 112.21 218.303 112.556 217.876 112.556C217.449 112.556 217.103 112.21 217.103 111.783C217.103 111.356 217.449 111.01 217.876 111.01C218.303 111.01 218.649 111.357 218.649 111.783Z" fill="#EEFDFF"/>
<path d="M270.924 123.437C280.51 123.437 288.282 115.665 288.282 106.079C288.282 96.4921 280.51 88.7207 270.924 88.7207C261.337 88.7207 253.566 96.4921 253.566 106.079C253.566 115.665 261.337 123.437 270.924 123.437Z" fill="url(#paint8_radial_57_71)"/>
<path d="M270.924 118.538C277.805 118.538 283.383 112.96 283.383 106.079C283.383 99.1982 277.805 93.6201 270.924 93.6201C264.043 93.6201 258.465 99.1982 258.465 106.079C258.465 112.96 264.043 118.538 270.924 118.538Z" fill="#EEFDFF"/>
<path d="M270.924 116.542C276.703 116.542 281.388 111.857 281.388 106.078C281.388 100.299 276.703 95.6143 270.924 95.6143C265.145 95.6143 260.46 100.299 260.46 106.078C260.46 111.857 265.145 116.542 270.924 116.542Z" fill="url(#paint9_linear_57_71)"/>
<path d="M277.628 103.366C277.628 105.507 275.892 107.242 273.752 107.242C271.612 107.242 269.875 105.506 269.875 103.366C269.875 101.226 271.611 99.4902 273.752 99.4902C275.893 99.4902 277.628 101.226 277.628 103.366Z" fill="#EEFDFF"/>
<path d="M269.377 115.651C270.231 115.651 270.924 114.958 270.924 114.104C270.924 113.249 270.231 112.557 269.377 112.557C268.522 112.557 267.83 113.249 267.83 114.104C267.83 114.958 268.522 115.651 269.377 115.651Z" fill="#EEFDFF"/>
<path d="M265.541 111.783C265.541 112.21 265.195 112.556 264.768 112.556C264.341 112.556 263.995 112.21 263.995 111.783C263.995 111.356 264.341 111.01 264.768 111.01C265.195 111.01 265.541 111.357 265.541 111.783Z" fill="#EEFDFF"/>
<path d="M254.569 6.72622C254.569 10.1922 251.759 13.0032 248.292 13.0032C244.826 13.0032 242.016 10.1932 242.016 6.72622C242.016 3.26022 244.826 0.449219 248.292 0.449219C251.759 0.449219 254.569 3.25922 254.569 6.72622Z" fill="url(#paint10_linear_57_71)"/>
<path d="M252.656 4.27631C252.656 5.33331 251.799 6.18931 250.742 6.18931C249.685 6.18931 248.828 5.33231 248.828 4.27631C248.828 3.21931 249.685 2.3623 250.742 2.3623C251.799 2.3633 252.656 3.21931 252.656 4.27631Z" fill="white"/>
<path d="M302.337 67.878C302.42 70.808 300.028 74.313 297.288 74.612C294.72 74.893 292.669 72.269 290.554 69.563C288.469 66.896 283.91 60.044 285.726 58.106C288.119 55.551 302.14 60.965 302.337 67.878Z" fill="white"/>
<path d="M278.875 56.7077C280.079 56.7077 281.056 55.7312 281.056 54.5267C281.056 53.3222 280.079 52.3457 278.875 52.3457C277.67 52.3457 276.694 53.3222 276.694 54.5267C276.694 55.7312 277.67 56.7077 278.875 56.7077Z" fill="white"/>
<path d="M302.026 108.526C301.326 109.02 296.447 99.0801 283.349 90.4621C278.745 87.4321 274.2 85.2731 274.47 84.6451C274.744 84.0081 279.863 85.1931 283.961 87.0941C297.019 93.1521 302.858 107.939 302.026 108.526Z" fill="white"/>
<path d="M268.486 43.9027C268.33 43.9247 268.23 43.0077 267.466 41.5907C267.466 41.5907 267.109 40.9277 266.701 40.3657C265.386 38.5557 260.928 38.5957 260.578 38.5987C253.635 38.6587 249.171 38.2187 249.173 38.2607C249.174 38.2957 252.43 38.2297 254.816 38.1817C261.547 38.0447 265.557 37.6827 267.276 39.4857C267.989 40.2337 268.348 41.2077 268.348 41.2077C268.834 42.5297 268.672 43.8757 268.486 43.9027Z" fill="white"/>
<path d="M267.042 134.654C266.872 136.317 265.488 137.598 263.824 137.758L240.83 139.975C239.167 140.135 237.563 139.144 237.078 137.544C236.862 136.833 236.696 136.1 236.583 135.346C236.552 135.138 236.607 134.926 236.737 134.759C236.867 134.593 237.059 134.488 237.269 134.467L266.278 131.669C266.485 131.649 266.69 131.715 266.847 131.851C267.004 131.987 267.097 132.182 267.106 132.389C267.141 133.156 267.118 133.912 267.042 134.654Z" fill="#EEFDFF"/>
<path d="M267.043 134.656C266.308 141.784 260.641 147.644 253.238 148.351C245.936 149.058 239.341 144.53 237.173 137.825C237.752 139.258 239.258 140.131 240.829 139.974L263.829 137.76C265.491 137.595 266.869 136.318 267.043 134.656Z" fill="url(#paint11_linear_57_71)"/>
<path d="M303.271 186.299C303.271 186.51 303.271 186.712 303.262 186.905C303.189 188.834 302.738 190.285 302.518 190.937C296.189 210.272 292.396 220.468 287.078 228.716C286.16 230.14 285.195 231.508 284.157 232.849C282.798 234.64 281.31 236.385 279.656 238.186C275.982 242.182 270.425 243.991 268.634 244.616C262.085 246.931 256.298 246.508 252.45 246.545H251.779C247.921 246.508 242.144 246.931 235.595 244.616C233.804 243.991 228.238 242.182 224.573 238.186C214.469 227.191 210.584 218.052 201.711 190.937C201.5 190.313 201.077 188.962 200.976 187.153C200.949 186.629 200.939 186.106 200.967 185.582C201.16 182.34 202.473 179.161 204.807 176.259C208.803 171.281 214.975 168.553 221.359 168.525L252.12 168.396L282.321 168.277C288.843 168.249 295.162 170.987 299.304 176.029C301.307 178.472 302.583 181.108 303.052 183.827C303.116 184.213 303.171 184.608 303.208 184.994C303.243 185.426 303.271 185.858 303.271 186.299Z" fill="url(#paint12_linear_57_71)"/>
<path d="M252.114 168.4L221.353 168.529C214.969 168.557 208.797 171.285 204.801 176.263C202.468 179.166 201.155 182.344 200.961 185.586C201.117 182.261 202.486 179 204.92 176.033C209.053 170.99 215.382 168.253 221.903 168.281L252.114 168.4Z" fill="url(#paint13_linear_57_71)"/>
<path d="M282.687 213.72C282.238 189.859 279.009 185.14 283.771 179.464C284.318 178.812 287.111 175.483 291.704 174.633C295.364 173.956 298.686 175.128 300.258 176.018C309.806 181.427 306.973 204.878 300.683 219.682C299.312 222.91 295.633 231.569 291.149 231.362C289.312 231.277 287.957 229.733 287.007 228.62C282.802 223.695 282.755 217.317 282.687 213.72Z" fill="url(#paint14_linear_57_71)"/>
<path d="M287.077 228.716C286.159 230.14 285.194 231.508 284.156 232.849C283.825 232.509 283.531 232.169 283.265 231.857C279.058 226.934 279.012 220.559 278.948 216.959C278.498 193.096 275.265 188.384 280.032 182.707C280.381 182.285 281.658 180.769 283.734 179.511C279.031 185.169 282.237 189.927 282.687 213.717C282.751 217.317 282.806 223.692 287.004 228.625C287.031 228.652 287.059 228.679 287.077 228.716Z" fill="url(#paint15_linear_57_71)"/>
<path d="M300.542 193.849C300.407 191.285 299.926 189.4 298.964 185.628C297.706 180.694 296.128 178.289 297.153 177.336C297.82 176.716 299.134 177.135 299.432 177.23C303.942 178.669 305.338 187.13 305.144 192.425C305.025 195.667 304.234 199.292 303.046 199.452C302.859 199.477 302.393 199.453 302.06 199.158C300.734 197.987 300.645 195.798 300.542 193.849Z" fill="white"/>
<path d="M303.639 202.899C303.639 203.416 303.22 203.835 302.703 203.835C302.186 203.835 301.767 203.416 301.767 202.899C301.767 202.382 302.186 201.963 302.703 201.963C303.22 201.963 303.639 202.382 303.639 202.899Z" fill="white"/>
<path d="M250.742 289.644C277.842 289.644 299.812 280.65 299.812 269.555C299.812 258.46 277.842 249.466 250.742 249.466C223.641 249.466 201.672 258.46 201.672 269.555C201.672 280.65 223.641 289.644 250.742 289.644Z" fill="url(#paint16_radial_57_71)"/>
<path d="M114.55 95.2099H47.49C21.389 95.2099 0.032959 73.8539 0.032959 47.7529C0.032959 21.6519 21.389 0.295898 47.49 0.295898H114.55C140.651 0.295898 162.007 21.6519 162.007 47.7529C162.007 73.8539 140.652 95.2099 114.55 95.2099Z" fill="url(#paint17_linear_57_71)"/>
<path d="M50.9401 65.9127C50.9651 66.4587 49.3551 66.8057 46.1121 66.9557C42.8681 67.1047 41.2341 66.9067 41.2091 66.3607L40.7001 55.2807L33.9561 55.5907L34.4651 66.6707C34.4901 67.2167 32.8811 67.5647 29.6371 67.7137C26.3931 67.8627 24.7591 67.6647 24.7341 67.1187L23.2661 35.1797C23.2351 34.5057 24.8411 34.0937 28.0851 33.9447C31.3291 33.7957 32.9661 34.0587 32.9971 34.7327L33.5171 46.0537L40.2621 45.7437L39.7461 34.5197C39.7251 34.0697 40.5131 33.7117 42.1101 33.4457C42.9421 33.3437 43.7591 33.2737 44.5631 33.2367L47.0241 33.2197C48.6391 33.3387 49.4571 33.6227 49.4771 34.0727L50.9401 65.9127Z" fill="url(#paint18_linear_57_71)"/>
<path d="M73.7031 64.3831C71.7341 65.6641 69.1601 66.3781 65.9811 66.5241C62.8021 66.6701 60.0701 65.7091 57.7871 63.6421C55.5031 61.5751 54.2731 58.6231 54.0971 54.7851C53.9211 50.9481 54.8301 47.8081 56.8261 45.3661C58.8211 42.9251 61.4251 41.6301 64.6371 41.4831C67.8481 41.3351 70.3661 42.0401 72.1921 43.5981C74.0181 45.1561 74.9841 47.1071 75.0921 49.4511C75.3311 54.6541 72.4641 57.3921 66.4911 57.6671L63.1671 57.8201C63.2111 58.7841 63.5071 59.4381 64.0531 59.7831C64.6001 60.1281 65.3871 60.2771 66.4151 60.2291C68.6631 60.1261 70.7751 59.5141 72.7511 58.3931C72.7811 58.3601 72.9361 58.5771 73.2151 59.0471C74.0491 60.3931 74.4881 61.5391 74.5321 62.4861C74.5771 63.4351 74.2991 64.0671 73.7031 64.3831ZM67.0421 50.7381C66.9801 49.3891 66.2901 48.7451 64.9741 48.8061C64.3631 48.8341 63.8501 49.0431 63.4341 49.4321C63.0171 49.8221 62.8251 50.3701 62.8581 51.0761L62.9271 52.5691L65.5281 52.4491C66.5871 52.4011 67.0921 51.8311 67.0421 50.7381Z" fill="url(#paint19_linear_57_71)"/>
<path d="M87.7151 64.6573C87.7281 64.9463 86.0971 65.1663 82.8211 65.3163C80.2501 65.4023 78.9601 65.3333 78.9491 65.1083L77.4411 32.3023C77.4191 31.8203 78.9651 31.5083 82.0811 31.3653C84.8141 31.3363 86.1871 31.4343 86.1981 31.6583L87.7151 64.6573Z" fill="url(#paint20_linear_57_71)"/>
<path d="M100.817 64.0548C100.83 64.3438 99.199 64.5638 95.923 64.7138C93.352 64.7998 92.062 64.7308 92.051 64.5058L90.543 31.6998C90.521 31.2178 92.067 30.9058 95.183 30.7628C97.917 30.7338 99.289 30.8318 99.3 31.0568L100.817 64.0548Z" fill="url(#paint21_linear_57_71)"/>
<path d="M107.135 61.3025C105.026 59.1785 103.881 56.1585 103.701 52.2395C103.521 48.3215 104.384 45.2085 106.289 42.9005C108.194 40.5925 110.849 39.3595 114.253 39.2035C117.657 39.0475 120.406 40.0315 122.499 42.1555C124.592 44.2795 125.729 47.3015 125.909 51.2195C126.089 55.1385 125.234 58.2505 123.345 60.5575C121.455 62.8645 118.808 64.0975 115.405 64.2535C112.001 64.4095 109.244 63.4265 107.135 61.3025ZM114.647 47.2475C112.832 47.3305 111.993 48.8505 112.129 51.8045C112.265 54.7595 113.24 56.1945 115.054 56.1115C116.868 56.0285 117.708 54.5095 117.572 51.5545C117.437 48.5995 116.461 47.1635 114.647 47.2475Z" fill="url(#paint22_linear_57_71)"/>
<path d="M129.549 55.8791C129.539 55.6541 131.019 55.4731 133.99 55.3371C136.96 55.2001 138.45 55.2281 138.459 55.4211L138.778 62.3581C138.793 62.6801 137.314 62.9081 134.344 63.0451C131.373 63.1821 129.883 63.1531 129.875 62.9611L129.549 55.8791ZM137.365 52.6231C137.374 52.8161 136.23 52.9651 133.934 53.0701C131.637 53.1761 130.486 53.1491 130.478 52.9881L128.423 29.2831C128.411 29.0271 129.874 28.8301 132.813 28.6951C135.751 28.5601 137.226 28.6051 137.236 28.8301L137.365 52.6231Z" fill="url(#paint23_linear_57_71)"/>
<path d="M136.14 48.0227C136.14 48.0227 134.241 30.8237 135.185 30.3547C136.129 29.8867 136.578 39.2807 136.14 48.0227Z" fill="white"/>
<path d="M138.022 56.7078C138.022 57.2788 137.559 57.7408 136.989 57.7408C136.418 57.7408 135.956 57.2778 135.956 56.7078C135.956 56.1368 136.419 55.6748 136.989 55.6748C137.559 55.6748 138.022 56.1378 138.022 56.7078Z" fill="white"/>
<path d="M124.49 49.1762C124.496 48.2172 124.381 45.4832 122.396 43.2672C120.689 41.3622 118.406 40.7402 117.367 40.8612C117.169 40.8842 116.497 41.0002 116.453 41.2812C116.362 41.8622 119.107 42.2682 121.16 43.8072C122.309 44.6672 123.671 46.2052 124.49 49.1762Z" fill="white"/>
<path d="M97.7689 31.3652C98.8239 31.3552 99.2259 50.6432 98.9189 54.1322C98.6119 57.6212 97.3439 31.3692 97.7689 31.3652Z" fill="white"/>
<path d="M73.908 47.8796C73.446 45.2716 70.469 42.3436 68.611 42.8016C66.752 43.2596 70.813 44.6696 72.269 45.9276C73.724 47.1866 73.908 47.8796 73.908 47.8796Z" fill="white"/>
<path d="M57.5939 62.7348C59.7529 65.1288 62.8369 65.5908 62.8799 65.4888C62.9259 65.3818 59.5029 64.9229 57.7029 62.1749C56.8559 60.8829 56.0169 58.5489 55.4589 58.5479C55.4459 58.5479 55.4239 58.5488 55.4039 58.5638C55.1179 58.7708 56.2109 61.2018 57.5939 62.7348Z" fill="white"/>
<path d="M49.688 62.2476C48.999 63.1936 48.907 38.8526 48.466 36.4736C48.466 36.4736 48.466 36.4736 48.466 36.3176C48.457 36.1616 48.448 35.8496 48.438 35.2246C48.436 35.0866 48.308 34.6096 48.198 34.5096C47.296 33.6936 43.332 34.1046 45.022 33.8836C46.515 33.6886 48.238 33.8346 48.677 33.9926C48.869 34.0616 48.88 34.4346 48.926 34.5726C49.789 39.3946 50.606 60.9986 49.688 62.2476Z" fill="white"/>
<path d="M156.051 35.9894C154.997 36.7724 147.657 22.5644 129.328 12.8264C119.016 7.34844 110.604 6.14144 110.824 5.14644C111.082 3.97944 123.102 3.54843 134 9.00043C150.368 17.1894 157.192 35.1424 156.051 35.9894Z" fill="white"/>
<path d="M157.428 42.719C158.121 42.719 158.683 42.1571 158.683 41.464C158.683 40.7709 158.121 40.209 157.428 40.209C156.735 40.209 156.173 40.7709 156.173 41.464C156.173 42.1571 156.735 42.719 157.428 42.719Z" fill="white"/>
<path d="M59.2049 7.35938C64.0672 7.35938 68.0089 6.46394 68.0089 5.35938C68.0089 4.25481 64.0672 3.35938 59.2049 3.35938C54.3426 3.35938 50.4009 4.25481 50.4009 5.35938C50.4009 6.46394 54.3426 7.35938 59.2049 7.35938Z" fill="white"/>
<path d="M78.78 5.35937C78.78 5.95737 77.713 6.44237 76.396 6.44237C75.079 6.44237 74.012 5.95737 74.012 5.35937C74.012 4.76137 75.079 4.27637 76.396 4.27637C77.713 4.27637 78.78 4.76137 78.78 5.35937Z" fill="white"/>
<path d="M32.6239 40.6659C32.7969 43.7329 32.7699 46.2289 32.5629 46.2409C32.3559 46.2529 32.0479 43.7758 31.8749 40.7078C31.7019 37.6408 31.7289 35.1448 31.9359 35.1328C32.1429 35.1218 32.4509 37.5989 32.6239 40.6659Z" fill="white"/>
<path d="M144.667 101.333C146.098 105.351 147.596 107.699 147.25 107.916C146.86 108.161 144.279 105.604 142.75 102.249C140.075 96.3791 141.512 90.0181 142.083 89.9991C142.564 89.9841 142.219 94.4611 144.667 101.333Z" fill="white"/>
<defs>
<linearGradient id="paint0_linear_57_71" x1="122.963" y1="78.794" x2="135.823" y2="113.698" gradientUnits="userSpaceOnUse">
<stop stop-color="#AEF0EB"/>
<stop offset="0.0131" stop-color="#B0F0EB"/>
<stop offset="0.1379" stop-color="#C2F4EB"/>
<stop offset="0.2895" stop-color="#CEF6EA"/>
<stop offset="0.4961" stop-color="#D5F8EA"/>
<stop offset="1" stop-color="#D7F8EA"/>
</linearGradient>
<linearGradient id="paint1_linear_57_71" x1="192.776" y1="178.087" x2="282.02" y2="247.446" gradientUnits="userSpaceOnUse">
<stop offset="0.0397" stop-color="#06BED8"/>
<stop offset="1" stop-color="#DEFA8E"/>
</linearGradient>
<linearGradient id="paint2_linear_57_71" x1="238.309" y1="26.399" x2="253.005" y2="24.2558" gradientUnits="userSpaceOnUse">
<stop offset="0.0397" stop-color="#06CFF1"/>
<stop offset="1" stop-color="#DEFA8E"/>
</linearGradient>
<linearGradient id="paint3_linear_57_71" x1="234.56" y1="63.7158" x2="260.641" y2="34.2698" gradientUnits="userSpaceOnUse">
<stop offset="0.0397" stop-color="#06CFF1"/>
<stop offset="1" stop-color="#DEFA8E"/>
</linearGradient>
<linearGradient id="paint4_linear_57_71" x1="196.784" y1="165.712" x2="300.133" y2="62.3632" gradientUnits="userSpaceOnUse">
<stop offset="0.0397" stop-color="#06CFF1"/>
<stop offset="1" stop-color="#DEFA8E"/>
</linearGradient>
<linearGradient id="paint5_linear_57_71" x1="248.021" y1="127.056" x2="248.939" y2="85.7225" gradientUnits="userSpaceOnUse">
<stop stop-color="#030D14"/>
<stop offset="1" stop-color="#0B2F45"/>
</linearGradient>
<radialGradient id="paint6_radial_57_71" cx="0" cy="0" r="1" gradientUnits="userSpaceOnUse" gradientTransform="translate(224.031 106.079) scale(17.1784 17.1784)">
<stop offset="0.1296" stop-color="#3280FC"/>
<stop offset="1"/>
</radialGradient>
<linearGradient id="paint7_linear_57_71" x1="213.567" y1="106.078" x2="234.496" y2="106.078" gradientUnits="userSpaceOnUse">
<stop stop-color="#030D14"/>
<stop offset="1" stop-color="#0B2F45"/>
</linearGradient>
<radialGradient id="paint8_radial_57_71" cx="0" cy="0" r="1" gradientUnits="userSpaceOnUse" gradientTransform="translate(270.924 106.079) scale(17.1784)">
<stop offset="0.1296" stop-color="#3280FC"/>
<stop offset="1"/>
</radialGradient>
<linearGradient id="paint9_linear_57_71" x1="260.459" y1="106.078" x2="281.388" y2="106.078" gradientUnits="userSpaceOnUse">
<stop stop-color="#030D14"/>
<stop offset="1" stop-color="#0B2F45"/>
</linearGradient>
<linearGradient id="paint10_linear_57_71" x1="235.08" y1="8.65262" x2="254.529" y2="5.81622" gradientUnits="userSpaceOnUse">
<stop offset="0.0397" stop-color="#06CFF1"/>
<stop offset="1" stop-color="#DEFA8E"/>
</linearGradient>
<linearGradient id="paint11_linear_57_71" x1="247.664" y1="143.11" x2="277.587" y2="113.188" gradientUnits="userSpaceOnUse">
<stop offset="0.0714" stop-color="#0DA9AB"/>
<stop offset="1" stop-color="#DEFA8E"/>
</linearGradient>
<linearGradient id="paint12_linear_57_71" x1="219.404" y1="233.914" x2="298.684" y2="141.334" gradientUnits="userSpaceOnUse">
<stop offset="0.0397" stop-color="#06CFF1"/>
<stop offset="0.0408" stop-color="#06CFF1"/>
<stop offset="0.1607" stop-color="#37D9DB"/>
<stop offset="0.2745" stop-color="#5DE0CA"/>
<stop offset="0.3793" stop-color="#78E6BD"/>
<stop offset="0.4719" stop-color="#88E9B6"/>
<stop offset="0.5423" stop-color="#8EEAB3"/>
<stop offset="0.8004" stop-color="#B9F39F"/>
<stop offset="1" stop-color="#DEFA8E"/>
</linearGradient>
<linearGradient id="paint13_linear_57_71" x1="215.204" y1="187.759" x2="262.88" y2="132.085" gradientUnits="userSpaceOnUse">
<stop offset="0.0397" stop-color="#06CFF1"/>
<stop offset="1" stop-color="#DEFA8E"/>
</linearGradient>
<linearGradient id="paint14_linear_57_71" x1="317.643" y1="220.09" x2="258.284" y2="176.676" gradientUnits="userSpaceOnUse">
<stop offset="0.0397" stop-color="#06CFF1"/>
<stop offset="0.0734" stop-color="#0FD1ED"/>
<stop offset="0.4151" stop-color="#67E2C5"/>
<stop offset="0.6937" stop-color="#A7EFA7"/>
<stop offset="0.8955" stop-color="#CFF795"/>
<stop offset="1" stop-color="#DEFA8E"/>
</linearGradient>
<linearGradient id="paint15_linear_57_71" x1="265.332" y1="215.88" x2="307.4" y2="193.957" gradientUnits="userSpaceOnUse">
<stop offset="0.0397" stop-color="#06BED8"/>
<stop offset="1" stop-color="#DEFA8E"/>
</linearGradient>
<radialGradient id="paint16_radial_57_71" cx="0" cy="0" r="1" gradientUnits="userSpaceOnUse" gradientTransform="translate(250.742 269.555) scale(49.0699 20.0886)">
<stop stop-color="#BCD7D6"/>
<stop offset="1" stop-color="white"/>
</radialGradient>
<linearGradient id="paint17_linear_57_71" x1="0.033159" y1="47.7527" x2="162.007" y2="47.7527" gradientUnits="userSpaceOnUse">
<stop stop-color="#D7F8EA"/>
<stop offset="0.5053" stop-color="#ECF8F2"/>
<stop offset="1" stop-color="#D7F8EA"/>
</linearGradient>
<linearGradient id="paint18_linear_57_71" x1="25.5702" y1="53.4833" x2="154.899" y2="19.7512" gradientUnits="userSpaceOnUse">
<stop offset="0.0397" stop-color="#06CFF1"/>
<stop offset="1" stop-color="#DEFA8E"/>
</linearGradient>
<linearGradient id="paint19_linear_57_71" x1="28.2542" y1="63.7735" x2="157.584" y2="30.0412" gradientUnits="userSpaceOnUse">
<stop offset="0.0397" stop-color="#06CFF1"/>
<stop offset="1" stop-color="#DEFA8E"/>
</linearGradient>
<linearGradient id="paint20_linear_57_71" x1="27.9592" y1="62.6361" x2="157.285" y2="28.9047" gradientUnits="userSpaceOnUse">
<stop offset="0.0397" stop-color="#06CFF1"/>
<stop offset="1" stop-color="#DEFA8E"/>
</linearGradient>
<linearGradient id="paint21_linear_57_71" x1="28.6472" y1="65.2712" x2="157.973" y2="31.5399" gradientUnits="userSpaceOnUse">
<stop offset="0.0397" stop-color="#06CFF1"/>
<stop offset="1" stop-color="#DEFA8E"/>
</linearGradient>
<linearGradient id="paint22_linear_57_71" x1="30.8271" y1="73.6379" x2="160.157" y2="39.9055" gradientUnits="userSpaceOnUse">
<stop offset="0.0397" stop-color="#06CFF1"/>
<stop offset="1" stop-color="#DEFA8E"/>
</linearGradient>
<linearGradient id="paint23_linear_57_71" x1="30.59" y1="72.7137" x2="159.916" y2="38.9825" gradientUnits="userSpaceOnUse">
<stop offset="0.0397" stop-color="#06CFF1"/>
<stop offset="1" stop-color="#DEFA8E"/>
</linearGradient>
</defs>
</svg>
