<svg width="305" height="305" viewBox="0 0 305 305" fill="none" xmlns="http://www.w3.org/2000/svg">
<path d="M297.308 122.991C296.991 121.267 296.005 119.738 294.565 118.737C293.125 117.736 291.348 117.345 289.622 117.649C287.931 117.966 286.435 118.938 285.459 120.354C284.483 121.769 284.106 123.514 284.41 125.206C285.864 133.334 286.605 141.573 286.625 149.83C286.625 151.557 287.311 153.214 288.533 154.436C289.755 155.658 291.412 156.344 293.139 156.344C294.867 156.344 296.524 155.658 297.745 154.436C298.967 153.214 299.653 151.557 299.653 149.83C299.661 140.832 298.876 131.851 297.308 122.991Z" fill="#05D06D"/>
<path d="M214.319 270.467C209.127 273.216 203.776 275.652 198.294 277.763C196.566 278.074 195.032 279.059 194.031 280.5C193.029 281.942 192.641 283.722 192.952 285.45C193.263 287.178 194.247 288.711 195.689 289.713C197.131 290.715 198.911 291.103 200.639 290.792C201.415 290.916 202.207 290.916 202.984 290.792C208.98 288.499 214.813 285.8 220.442 282.714C221.192 282.318 221.855 281.776 222.393 281.121C222.931 280.465 223.333 279.709 223.576 278.896C223.818 278.084 223.897 277.231 223.806 276.387C223.715 275.544 223.457 274.728 223.048 273.985C222.737 273.157 222.257 272.402 221.639 271.768C221.021 271.135 220.278 270.637 219.457 270.306C218.636 269.976 217.755 269.819 216.871 269.847C215.986 269.875 215.117 270.086 214.319 270.467Z" fill="#05D06D"/>
<path d="M257.311 234.519C253.315 239.478 248.96 244.138 244.283 248.46C243.345 249.363 242.7 250.527 242.43 251.801C242.161 253.075 242.279 254.4 242.77 255.606C243.26 256.812 244.101 257.843 245.184 258.566C246.266 259.29 247.541 259.672 248.843 259.664C249.686 259.676 250.522 259.521 251.305 259.208C252.088 258.895 252.801 258.43 253.403 257.84C258.376 253.108 262.993 248.013 267.213 242.597C267.832 241.941 268.308 241.164 268.611 240.314C268.914 239.464 269.038 238.561 268.973 237.661C268.909 236.762 268.659 235.885 268.238 235.087C267.817 234.289 267.235 233.587 266.529 233.026C265.823 232.465 265.008 232.056 264.136 231.826C263.263 231.597 262.353 231.55 261.462 231.691C260.571 231.831 259.719 232.155 258.959 232.642C258.2 233.129 257.55 233.768 257.051 234.519H257.311Z" fill="#05D06D"/>
<path d="M289.493 182.404C288.672 182.165 287.811 182.089 286.961 182.182C286.111 182.275 285.287 182.535 284.537 182.946C283.787 183.357 283.125 183.912 282.589 184.579C282.054 185.247 281.655 186.013 281.415 186.834C279.693 193.023 277.516 199.076 274.901 204.943C274.534 205.719 274.327 206.561 274.293 207.419C274.259 208.277 274.398 209.132 274.702 209.935C275.006 210.738 275.469 211.471 276.063 212.091C276.656 212.711 277.369 213.204 278.158 213.542C279.017 213.725 279.905 213.725 280.764 213.542C282.035 213.547 283.28 213.179 284.345 212.484C285.41 211.79 286.249 210.799 286.757 209.634C289.644 203.268 292.04 196.692 293.923 189.961C294.256 188.376 293.987 186.724 293.168 185.327C292.349 183.93 291.039 182.888 289.493 182.404Z" fill="#05D06D"/>
<path d="M280.112 91.2019H281.024C281.958 91.0479 282.847 90.6922 283.629 90.1596H284.281C285.266 89.2361 286.063 88.1299 286.626 86.9025L299.654 47.8171C299.937 46.9617 300.048 46.059 299.981 45.1606C299.915 44.2622 299.672 43.3858 299.267 42.5813C298.861 41.7767 298.301 41.0599 297.619 40.4717C296.937 39.8836 296.145 39.4355 295.29 39.1532C294.434 38.8709 293.532 38.7599 292.633 38.8264C291.735 38.893 290.859 39.1358 290.054 39.5411C289.25 39.9464 288.533 40.5062 287.945 41.1885C287.356 41.8708 286.908 42.6623 286.626 43.5177L278.158 68.6627C264.179 47.4339 245.119 30.0339 222.708 18.0432C200.296 6.05259 175.244 -0.148703 149.827 0.00270749C110.091 0.00270749 71.9814 15.788 43.8834 43.8861C15.7853 71.9841 0 110.093 0 149.83C0 189.567 15.7853 227.676 43.8834 255.774C71.9814 283.872 110.091 299.657 149.827 299.657C155.835 299.638 161.837 299.291 167.806 298.615C169.525 298.387 171.086 297.496 172.157 296.133C173.228 294.77 173.724 293.043 173.539 291.319C173.443 290.465 173.177 289.64 172.755 288.892C172.333 288.144 171.764 287.489 171.083 286.966C170.402 286.443 169.622 286.063 168.79 285.848C167.959 285.633 167.092 285.589 166.243 285.717C160.901 285.717 155.299 286.629 149.827 286.629C113.546 286.629 78.7506 272.216 53.0959 246.561C27.4411 220.907 13.0285 186.111 13.0285 149.83C13.0285 113.549 27.4411 78.7533 53.0959 53.0986C78.7506 27.4439 113.546 13.0312 149.827 13.0312C173.552 12.8137 196.935 18.689 217.739 30.0947C238.543 41.5004 256.071 58.0548 268.647 78.1734H241.026C240.156 78.1159 239.283 78.2449 238.467 78.5519C237.651 78.8589 236.909 79.3368 236.292 79.9536C235.676 80.5704 235.198 81.3118 234.891 82.1282C234.584 82.9447 234.455 83.8173 234.512 84.6877C234.512 86.4153 235.198 88.0723 236.42 89.2939C237.642 90.5156 239.299 91.2019 241.026 91.2019H280.112Z" fill="#05D06D"/>
<path d="M117.256 136.804C114.39 139.67 110.611 143.188 105.791 147.226L75.0437 177.452C73.9016 178.409 72.9322 179.555 72.1775 180.84C71.708 181.726 71.441 182.705 71.3958 183.706V188.266C71.4281 189.154 71.7953 189.997 72.4237 190.625C73.0521 191.254 73.8951 191.621 74.7831 191.653H137.58C138.042 191.658 138.5 191.567 138.926 191.388C139.351 191.209 139.736 190.944 140.056 190.611C140.384 190.322 140.639 189.958 140.797 189.55C140.956 189.142 141.014 188.701 140.968 188.266V182.403C141.014 181.968 140.956 181.528 140.797 181.12C140.639 180.711 140.384 180.347 140.056 180.058C139.367 179.466 138.488 179.143 137.58 179.146H93.1533L120.513 151.395C124.112 148.317 127.467 144.963 130.545 141.364C133.109 138.32 135.175 134.89 136.668 131.201C138.165 127.566 138.918 123.668 138.883 119.736C138.923 114.673 137.762 109.673 135.496 105.144C133.089 100.558 129.369 96.7934 124.812 94.3308C119.098 91.4083 112.724 90.0167 106.312 90.292C101.354 90.1933 96.4297 91.125 91.8504 93.028C87.9409 94.6424 84.429 97.0874 81.5579 100.194C78.7957 103.039 76.6258 106.405 75.174 110.095C73.7741 113.583 72.981 117.284 72.8289 121.039C72.8406 121.41 72.9274 121.774 73.0842 122.11C73.241 122.446 73.4644 122.746 73.7409 122.993C74.3096 123.512 75.056 123.792 75.8254 123.775H83.2516C84.0496 123.732 84.8184 123.461 85.4665 122.993C85.8896 122.717 86.2482 122.353 86.518 121.926C86.7877 121.499 86.9623 121.019 87.0299 120.518C87.48 117.265 88.5409 114.127 90.1567 111.268C91.6229 108.567 93.8404 106.35 96.5407 104.884C99.5355 103.258 102.906 102.449 106.312 102.539C108.697 102.416 111.082 102.779 113.322 103.608C115.562 104.437 117.61 105.713 119.34 107.359C120.953 109.103 122.189 111.159 122.974 113.4C123.758 115.641 124.074 118.02 123.9 120.388C123.916 123.212 123.339 126.008 122.207 128.596C120.986 131.569 119.317 134.337 117.256 136.804Z" fill="#05D06D"/>
<path d="M227.085 155.43H214.057V95.1085C214.075 94.6758 214.004 94.2439 213.847 93.8402C213.69 93.4365 213.451 93.0698 213.145 92.7634C212.843 92.4505 212.477 92.2068 212.072 92.0493C211.667 91.8919 211.233 91.8243 210.799 91.8514H200.637C199.642 91.7775 198.644 91.9533 197.734 92.3628C196.824 92.7723 196.031 93.4027 195.426 94.1965L152.693 154.518C152.17 155.274 151.774 156.11 151.52 156.994C151.434 157.599 151.434 158.213 151.52 158.818V164.55C151.501 164.983 151.573 165.415 151.73 165.819C151.887 166.222 152.126 166.589 152.432 166.895C153.087 167.458 153.914 167.78 154.777 167.807H200.898V188.262C200.887 188.694 200.962 189.124 201.118 189.526C201.275 189.929 201.51 190.296 201.81 190.607C202.13 190.94 202.514 191.205 202.94 191.384C203.365 191.563 203.823 191.654 204.285 191.649H211.321C211.764 191.66 212.205 191.572 212.61 191.392C213.016 191.212 213.376 190.944 213.666 190.607C213.994 190.318 214.249 189.954 214.407 189.546C214.566 189.138 214.624 188.697 214.578 188.262V167.807H227.606C228.469 167.78 229.297 167.458 229.951 166.895C230.257 166.589 230.497 166.222 230.654 165.819C230.811 165.415 230.882 164.983 230.863 164.55V158.687C230.89 158.254 230.823 157.819 230.665 157.414C230.508 157.01 230.264 156.644 229.951 156.342C229.582 155.971 229.129 155.694 228.63 155.536C228.131 155.377 227.601 155.341 227.085 155.43ZM201.028 155.43H166.372L200.637 106.834L201.028 155.43Z" fill="#05D06D"/>
</svg>
