<svg width="1000" height="1000" viewBox="0 0 1000 1000" fill="none" xmlns="http://www.w3.org/2000/svg">
<rect width="1000" height="1000" rx="500" fill="#DCFEE9"/>
<path d="M509.127 618.708L521.16 604.972L503.539 583.852L491.616 594.733L486.457 615.113L509.127 618.708Z" fill="#F0C9B9"/>
<path d="M493.569 592.467C493.569 592.467 469.241 604.911 470.741 607.487L510.179 665.479C510.179 665.479 517.776 654.306 511.975 641.878C503.218 623.116 511.941 619.128 511.941 619.128L488.755 613.428L493.569 592.467Z" fill="#272327"/>
<path d="M564.066 486.961C565.695 489.645 497.294 584.112 497.294 584.112C504.686 595.283 515.502 611.096 515.502 611.096C515.698 611.419 516.065 611.595 516.44 611.549C516.44 611.549 593.486 547.581 618.136 498.208C618.388 497.703 618.628 497.121 618.852 496.476C623.547 483.001 614.109 468.697 599.939 467.013L533.922 467.468" fill="#1F5C85"/>
<path d="M561.72 390.351C561.72 390.351 536.773 399.819 547.515 413.759C554.134 422.351 570.003 463.318 584.633 483.794C593.912 496.778 592.536 514.538 581.375 525.944L510.991 602.693" stroke="white" stroke-width="0.3196" stroke-miterlimit="10"/>
<path d="M294.516 518.237H294.628H325.134V607.066H294.628H294.74C287.187 618.702 273.991 624.344 259.085 624.344V500.959C273.991 500.959 286.963 506.601 294.516 518.237Z" fill="#E1A62C"/>
<path d="M259.085 527.897C252.593 525.017 243.351 523.256 236.269 522.713C235.197 522.632 234.083 522.583 233.086 522.983C230.742 523.92 229.964 527.055 230.781 529.443C231.596 531.832 233.54 533.632 235.412 535.326C211.298 536.586 187.887 548.091 172.155 566.41C171.373 567.322 170.561 568.393 170.685 569.588C170.786 570.579 171.509 571.379 172.208 572.09C189.21 589.382 214.078 598.617 238.244 596.616C235.465 600.883 240.137 606.809 245.213 607.206C250.29 607.602 254.917 604.542 259.085 601.616" fill="#F26D76"/>
<path d="M226.236 606.683C217.606 609.139 209.429 612.69 201.951 617.326C194.497 621.981 187.707 627.654 182.013 634.284C176.271 640.869 171.627 648.403 168.09 656.446C164.574 664.51 162.228 673.11 161.028 682.002C160.697 673.022 162.297 663.921 165.432 655.381C168.547 646.822 173.271 638.825 179.241 631.884C185.26 624.986 192.496 619.164 200.522 614.858C208.526 610.533 217.303 607.646 226.236 606.683Z" fill="#F26D76"/>
<path d="M217.608 529.59C209.613 528.666 201.752 526.338 194.351 523C186.931 519.681 179.993 515.28 173.689 510.123C167.427 504.914 161.791 498.936 157.124 492.279C152.443 485.646 148.667 478.366 146.25 470.689C150.073 477.761 154.433 484.415 159.408 490.553C164.398 496.67 169.936 502.312 176.022 507.296C182.067 512.332 188.657 516.699 195.608 520.441C202.579 524.163 209.94 527.181 217.608 529.59Z" fill="#F26D76"/>
<path d="M174.929 536.824C172.15 536.283 169.533 535.419 166.972 534.441C164.413 533.461 161.91 532.368 159.471 531.146C157.027 529.934 154.653 528.584 152.332 527.127C150.013 525.667 147.751 524.091 145.653 522.188C148.435 522.724 151.053 523.587 153.613 524.566C156.171 525.548 158.676 526.638 161.111 527.866C163.552 529.083 165.927 530.43 168.248 531.89C170.567 533.35 172.829 534.926 174.929 536.824Z" fill="#F26D76"/>
<path d="M156.638 569.735C155.543 570.691 154.386 571.269 153.214 571.76C152.039 572.228 150.839 572.555 149.62 572.76C148.4 572.965 147.159 573.044 145.896 572.981C144.629 572.897 143.346 572.723 142 572.166C143.094 571.205 144.251 570.625 145.424 570.136C146.599 569.668 147.799 569.342 149.019 569.142C150.239 568.942 151.48 568.862 152.744 568.925C154.011 569.012 155.293 569.184 156.638 569.735Z" fill="#F26D76"/>
<path d="M176.214 594.314L168.327 599.211C165.769 600.847 163.296 602.558 160.875 604.337C158.461 606.126 156.089 607.973 153.769 609.93L146.744 615.998C147.938 613.036 149.695 610.348 151.74 607.912C153.787 605.475 156.126 603.267 158.703 601.383C161.272 599.489 164.073 597.91 167.011 596.683C169.945 595.456 173.032 594.577 176.214 594.314Z" fill="#F26D76"/>
<path opacity="0.5" d="M317.814 578.104C309.865 558.656 294.628 518.236 294.628 518.236H325.134V596.076C322.57 590.142 320.256 584.077 317.814 578.104Z" fill="#E1A62C"/>
<path d="M439.238 481.763L399.936 448.177C390.378 440.009 377.811 436.265 365.342 437.87L294.351 447.007C289.361 447.65 285.918 452.331 286.793 457.285C287.567 461.674 291.496 464.795 295.946 464.557L327.982 462.849C347.662 461.799 365.151 475.295 369.125 494.598L439.238 481.763Z" fill="#F2C75E"/>
<path d="M439.238 641.459L399.936 675.044C390.378 683.212 377.811 686.956 365.342 685.351L294.351 676.214C289.361 675.572 285.918 670.89 286.793 665.935C287.567 661.546 291.496 658.425 295.946 658.663L327.982 660.371C347.662 661.421 365.151 647.925 369.125 628.622L439.238 641.459Z" fill="#E1A62C"/>
<path d="M335.549 624.951C335.549 624.951 388.874 645.689 445.163 644.701C501.451 643.714 682.225 657.539 763.2 618.039C811.508 594.474 831.348 579.696 839.494 571.607C843.18 567.948 842.736 561.877 838.574 558.77C821.942 546.357 778.238 514.363 759.25 506.451C735.55 496.576 633.777 473.863 439.238 481.763C439.238 481.763 367.151 485.713 335.55 499.538L335.549 624.951Z" fill="white"/>
<path opacity="0.37" d="M699.169 623.742C737.835 617.989 777.916 608.595 810.093 585.297C811.442 584.32 812.444 583.175 813.152 581.941C822.736 576.045 832.198 569.941 841.822 564.111C842.287 566.737 841.565 569.549 839.493 571.606C831.347 579.695 811.507 594.474 763.199 618.038C682.223 657.538 501.449 643.713 445.161 644.7C388.874 645.688 335.548 624.951 335.548 624.951L336.124 498.498C337.47 621.646 504.266 631.604 565.39 633.226C610.053 634.412 655.019 630.31 699.169 623.742Z" fill="#C67D00"/>
<path d="M762.169 522.443C761.326 517.092 760.332 511.755 759.216 506.435C759.227 506.439 759.238 506.444 759.25 506.449C778.237 514.36 821.941 546.354 838.574 558.767C842.737 561.874 843.181 567.944 839.494 571.605C831.348 579.693 811.508 594.472 763.2 618.036C762.164 618.541 761.093 619.001 760.044 619.488C767.917 587.916 767.217 554.458 762.169 522.443Z" fill="#E1A62C"/>
<path d="M319.302 503.883V619.628C319.302 624.831 323.52 629.049 328.724 629.049C333.927 629.049 338.145 624.831 338.145 619.628V503.883C338.145 498.679 333.927 494.461 328.724 494.461C323.52 494.461 319.302 498.679 319.302 503.883Z" fill="#E6D4BE"/>
<path d="M669.053 514.648C641.551 514.648 619.256 536.944 619.256 564.446C619.256 591.948 641.551 614.243 669.053 614.243C696.555 614.243 718.85 591.948 718.85 564.446C718.852 536.944 696.556 514.648 669.053 514.648ZM669.053 529.153C688.545 529.153 704.345 544.954 704.345 564.446C704.345 583.937 688.545 599.738 669.053 599.738C649.562 599.738 633.761 583.937 633.761 564.446C633.761 544.955 649.562 529.153 669.053 529.153Z" fill="#E6D4BE"/>
<path opacity="0.37" d="M669.053 599.737C688.544 599.737 704.345 583.936 704.345 564.445C704.345 544.953 688.544 529.152 669.053 529.152C649.562 529.152 633.761 544.953 633.761 564.445C633.761 583.936 649.562 599.737 669.053 599.737Z" fill="#C67D00"/>
<g opacity="0.6">
<path d="M666.594 599.614C648.254 598.347 633.761 583.107 633.761 564.446C633.761 561.531 634.153 558.715 634.818 556.006C645.21 570.685 655.806 585.219 666.594 599.614Z" fill="#FAF9F4"/>
<path d="M646.33 537.461C652.471 532.285 660.393 529.152 669.053 529.152C688.544 529.152 704.345 544.953 704.345 564.445C704.345 577.065 697.699 588.108 687.738 594.346C673.596 575.631 659.769 556.681 646.33 537.461Z" fill="#FAF9F4"/>
</g>
<path d="M711.448 561.08C713.307 561.08 714.813 562.587 714.813 564.445C714.813 566.302 713.306 567.809 711.448 567.809C709.591 567.809 708.084 566.302 708.084 564.445C708.084 562.587 709.591 561.08 711.448 561.08Z" stroke="#E6D4BE" stroke-width="0.3478" stroke-miterlimit="10"/>
<path d="M626.658 561.08C628.517 561.08 630.023 562.587 630.023 564.445C630.023 566.302 628.516 567.809 626.658 567.809C624.801 567.809 623.294 566.302 623.294 564.445C623.294 562.587 624.8 561.08 626.658 561.08Z" stroke="#E6D4BE" stroke-width="0.3478" stroke-miterlimit="10"/>
<path d="M696.652 532.087C697.966 530.773 700.097 530.773 701.41 532.087C702.724 533.402 702.724 535.532 701.41 536.845C700.095 538.16 697.965 538.16 696.652 536.845C695.337 535.532 695.337 533.402 696.652 532.087Z" stroke="#E6D4BE" stroke-width="0.3478" stroke-miterlimit="10"/>
<path d="M636.696 592.043C638.01 590.729 640.14 590.729 641.454 592.043C642.768 593.358 642.768 595.488 641.454 596.801C640.14 598.116 638.009 598.116 636.696 596.801C635.383 595.488 635.383 593.358 636.696 592.043Z" stroke="#E6D4BE" stroke-width="0.3478" stroke-miterlimit="10"/>
<path d="M665.688 522.051C665.688 520.192 667.195 518.687 669.053 518.687C670.911 518.687 672.417 520.193 672.417 522.051C672.417 523.909 670.911 525.415 669.053 525.415C667.195 525.415 665.688 523.909 665.688 522.051Z" stroke="#E6D4BE" stroke-width="0.3478" stroke-miterlimit="10"/>
<path d="M665.688 606.841C665.688 604.982 667.195 603.477 669.053 603.477C670.911 603.477 672.417 604.983 672.417 606.841C672.417 608.699 670.911 610.205 669.053 610.205C667.195 610.205 665.688 608.7 665.688 606.841Z" stroke="#E6D4BE" stroke-width="0.3478" stroke-miterlimit="10"/>
<path d="M636.696 536.847C635.382 535.533 635.382 533.402 636.696 532.089C638.01 530.775 640.14 530.775 641.454 532.089C642.769 533.404 642.769 535.534 641.454 536.847C640.141 538.16 638.01 538.16 636.696 536.847Z" stroke="#E6D4BE" stroke-width="0.3478" stroke-miterlimit="10"/>
<path d="M696.652 596.803C695.338 595.489 695.338 593.36 696.652 592.045C697.967 590.731 700.097 590.731 701.41 592.045C702.724 593.36 702.724 595.49 701.41 596.803C700.097 598.116 697.967 598.116 696.652 596.803Z" stroke="#E6D4BE" stroke-width="0.3478" stroke-miterlimit="10"/>
<path d="M597.722 645.2C597.722 645.2 625.986 561.755 599.068 483.693" stroke="#E6D4BE" stroke-width="0.6955" stroke-miterlimit="10" stroke-dasharray="5.56 5.56"/>
<path d="M720.487 629.574C726.828 603.287 736.273 547.713 720.463 493.037" stroke="#E6D4BE" stroke-width="0.6955" stroke-miterlimit="10" stroke-dasharray="5.56 5.56"/>
<path d="M577.533 645.2C577.533 645.2 605.796 561.755 578.878 483.693" stroke="#E6D4BE" stroke-width="0.6955" stroke-miterlimit="10" stroke-dasharray="5.56 5.56"/>
<path d="M588.015 629.124L586.612 611.027L559.217 613.5L558.337 629.881L572.16 645.721L588.015 629.124Z" fill="#F0C9B9"/>
<path d="M557.585 626.985C557.585 626.985 553.974 654.072 556.947 654.304L627.075 654.872C627.075 654.872 622.21 642.268 608.689 639.966C588.278 636.491 589.963 627.048 589.963 627.048L572.082 642.871L557.585 626.985Z" fill="#272327"/>
<path d="M444.37 463.411V463.416C444.37 490.941 466.473 513.255 493.738 513.255H547.494C550.632 513.255 552.919 516.258 552.112 519.32L556.47 619.004C556.309 619.616 556.766 620.216 557.393 620.216H576.084C576.46 620.216 587.425 621.039 587.579 620.691L602.143 493.227C607.715 480.605 598.726 466.335 585.041 466.076L444.37 463.411Z" fill="#444968"/>
<path d="M475.576 464.846C475.576 464.846 470.718 494.971 498.899 493.999C514.562 493.459 539.831 493.82 559.189 494.246C572.947 494.55 582.695 507.789 578.915 521.02L571.872 619.434" stroke="white" stroke-width="0.3196" stroke-miterlimit="10"/>
<path d="M630.733 358.388L645.435 335.621L634.012 323.641C634.012 323.641 639.305 308.596 638.748 306.089C637.533 300.622 611.391 344.486 611.391 344.486L592.345 363.403L615.166 385.609L630.733 358.388Z" fill="#F0C9B9"/>
<path d="M622.11 328.441C623.748 329.241 625.386 330.041 627.024 330.841C628.025 331.329 631.092 332.369 629.437 333.888C628.861 334.418 627.99 334.549 627.253 334.7C626.299 334.894 625.337 335.043 624.368 335.139C622.574 335.319 620.769 335.328 618.973 335.186C618.466 335.146 618.469 335.936 618.973 335.977C621.13 336.148 623.296 336.092 625.441 335.803C626.433 335.669 627.442 335.513 628.41 335.245C629.177 335.034 629.937 334.681 630.377 333.985C630.774 333.359 630.819 332.571 630.386 331.952C629.925 331.292 629.101 330.977 628.406 330.638C626.44 329.678 624.475 328.718 622.509 327.759C622.054 327.537 621.653 328.218 622.11 328.441Z" fill="#D18362"/>
<path d="M633.316 323.939C631.771 325.974 630.428 328.155 629.306 330.45C629.084 330.905 629.765 331.306 629.989 330.849C631.112 328.554 632.454 326.373 633.999 324.338C634.306 323.933 633.62 323.539 633.316 323.939Z" fill="#D18362"/>
<path d="M627.942 335.012C627.696 336.122 628.579 337.095 629.64 337.302C630.927 337.553 632.09 336.648 632.962 335.82C634.987 333.896 636.642 331.585 637.848 329.068C638.066 328.612 637.385 328.211 637.165 328.669C636.189 330.709 634.925 332.598 633.389 334.26C632.678 335.03 631.889 335.924 630.911 336.356C630.404 336.578 629.849 336.637 629.351 336.366C628.936 336.141 628.595 335.715 628.703 335.223C628.814 334.726 628.053 334.514 627.942 335.012Z" fill="#D18362"/>
<path d="M630.579 337.12C630.702 337.977 630.925 338.81 631.256 339.61C631.518 340.246 631.824 340.957 632.304 341.462C633.362 342.576 634.926 341.583 635.869 340.814C637.03 339.867 637.882 338.598 638.739 337.385C639.814 335.862 640.891 334.338 641.966 332.815C642.26 332.398 641.575 332.003 641.284 332.416C640.407 333.657 639.531 334.899 638.654 336.139C637.86 337.265 637.102 338.44 636.161 339.45C635.515 340.143 633.69 341.919 632.795 340.817C631.939 339.763 631.53 338.227 631.342 336.909C631.27 336.409 630.508 336.622 630.579 337.12Z" fill="#D18362"/>
<path d="M635.268 340.709C635.47 342.073 636.517 343.265 637.842 343.647C639.198 344.039 640.752 343.54 641.64 342.449C641.958 342.058 641.402 341.495 641.081 341.89C640.364 342.773 639.161 343.205 638.051 342.886C636.968 342.572 636.193 341.597 636.029 340.499C635.998 340.286 635.732 340.173 635.543 340.222C635.317 340.283 635.236 340.499 635.268 340.709Z" fill="#D18362"/>
<path d="M541.886 461.135C541.886 461.135 523.619 335.212 518.958 327.371C518.958 327.371 529.765 321.65 544.173 351.951C558.583 382.252 560.622 391.025 560.622 391.025L592.345 358.471L618.251 385.611L560.622 460.531L543.7 462.344" fill="#DE4A54"/>
<path d="M470.563 319.293C470.563 319.293 436.613 330.114 432.329 363.404C428.046 396.694 447.554 482.093 447.554 482.093C447.554 482.093 468.306 473.29 476.868 470.94C489.526 467.466 498.998 467.279 508.024 467.121L545.37 466.468L532.153 353.573C530.175 345.078 529.118 332.871 521.384 328L508.325 320.101L482.47 313.46L470.563 319.293Z" fill="#F26D76"/>
<path d="M546.515 459.984C536.664 440.284 458.901 332.628 460.25 324.097C449.886 330.064 435.065 342.148 432.33 363.403C428.047 396.693 447.555 482.093 447.555 482.093C447.555 482.093 468.307 473.29 476.869 470.94C489.527 467.466 498.999 467.279 508.025 467.121L550.402 466.788C551.373 465.815 547 460.957 546.515 459.984Z" fill="#DE4A54"/>
<path d="M506.611 433.72L536.833 442.355C536.833 442.355 565.822 450.991 573.841 464.561L504.76 462.71L506.611 433.72Z" fill="#F0C9B9"/>
<path d="M472.686 321.462C464.999 316.589 435.682 332.881 429.325 364.242C422.875 397.865 434.279 464.681 445.271 468.707C456.264 472.733 503.526 467.645 503.526 467.645C503.526 467.645 505.768 437.897 507.226 428.787L469.602 427.553C469.602 427.553 478.152 381.59 472.686 321.462Z" fill="#F26D76"/>
<path d="M558.349 462.052H496.535V469.301H558.349V462.052Z" fill="#060B0F"/>
<path d="M496.535 462.052H536.925L533.748 469.302H496.535V462.052Z" fill="#272327"/>
<path d="M635.62 469.301H538.193L561.709 402.11H659.136L635.62 469.301Z" fill="#272327"/>
<path d="M604.396 437.593C604.396 434.215 601.658 431.477 598.28 431.477C594.901 431.477 592.163 434.215 592.163 437.593C592.163 440.972 594.901 443.71 598.28 443.71C601.657 443.71 604.396 440.972 604.396 437.593Z" fill="#6E626E"/>
<path d="M486.483 288.68L481.527 312.21L490.573 322.49C504.652 337.682 506.609 327.63 509.248 326.353L507.435 298.752L494.315 293.516L486.483 288.68Z" fill="#F0C9B9"/>
<path d="M494.316 293.518L507.436 300.768C507.436 300.768 508.846 313.461 505.018 313.863C501.816 314.2 490.785 303.928 491.923 296.133" fill="#D18362"/>
<path d="M486.385 291.85C486.385 291.85 484.621 282.095 486.838 284.824L492.725 262.935C492.725 262.935 496.413 267.167 500.018 269.659C503.623 272.151 512.068 270.752 514.298 269.771C516.528 268.79 515.605 258.609 515.605 258.609C515.605 258.609 524.827 250.577 523.348 247.688C521.868 244.799 515.059 250.663 515.059 250.663C515.059 250.663 522.388 242.339 518.704 240.006C511.382 235.37 485.667 248.261 485.667 248.261C485.667 248.261 472.368 252.151 478.726 259.624C478.726 259.624 471.649 295.989 485.062 292.605" fill="#272327"/>
<path d="M516.336 258.258C520.733 291.301 519.508 301.114 516.417 303.675C511.969 307.36 503.899 305.135 499.973 303.641C493.53 301.191 488.98 294.349 487.566 292.315C486.868 291.312 478.744 292.989 479.84 285.264C480.648 279.573 483.677 281.391 485.215 282.744C485.664 283.138 486.368 282.948 486.559 282.383C487.699 279.016 491.398 266.311 492.619 262.242C493.148 260.477 500.88 260.751 501.645 260.639C508.318 259.667 514.316 259.85 516.027 258.5L516.336 258.258Z" fill="#F0C9B9"/>
<path d="M517.262 287.749C517.262 287.749 514.778 289.095 508.55 288.797C508.55 288.797 512.08 293.069 514.487 292.107C516.894 291.144 517.262 287.749 517.262 287.749Z" fill="white"/>
<path d="M481.042 284.642L485.503 287.635C485.503 287.635 483.555 280.006 481.042 284.642Z" fill="#D49C85"/>
<path d="M511.803 279.021C511.843 279.943 511.502 280.706 511.041 280.727C510.579 280.747 510.174 280.017 510.133 279.094C510.092 278.172 510.434 277.408 510.894 277.388C511.356 277.367 511.762 278.098 511.803 279.021Z" fill="#13223B"/>
<path d="M517.2 277.966C517.241 278.889 516.899 279.652 516.438 279.672C515.978 279.692 515.571 278.961 515.531 278.04C515.49 277.118 515.832 276.354 516.293 276.333C516.753 276.312 517.16 277.044 517.2 277.966Z" fill="#13223B"/>
<path d="M504.723 271.16C503.523 272.058 505.291 268.156 506.954 267.657C508.617 267.158 510.314 267.918 510.744 269.354C510.744 269.354 507.606 269.003 504.723 271.16Z" fill="#13223B"/>
<path d="M517.927 271.186C516.144 271.038 514.885 271.402 514.885 271.402C515.055 270.016 516.32 268.997 517.857 268.89" fill="#13223B"/>
<path d="M514.642 278.03L517.497 284.991C517.544 285.104 517.474 285.233 517.359 285.247L514.366 285.6C514.262 285.613 514.171 285.524 514.173 285.413L514.312 278.098C514.316 277.901 514.568 277.85 514.642 278.03Z" fill="#D49C85"/>
<path d="M475.153 315.912C475.153 314.987 480.396 304.81 480.396 304.81L506.919 327.631L505.685 343.976L475.153 315.912Z" fill="white"/>
<path d="M506.917 327.631L508.666 312.827L516.273 324.958L513.394 341.817L506.917 327.631Z" fill="white"/>
</svg>
