<svg width="1000" height="1000" viewBox="0 0 1000 1000" fill="none" xmlns="http://www.w3.org/2000/svg">
<rect width="1000" height="1000" rx="500" fill="#DCFEE9"/>
<path d="M728.506 496.293C728.506 503.591 722.59 509.507 715.292 509.507C707.994 509.507 702.077 503.591 702.077 496.293C702.077 488.995 707.994 483.078 715.292 483.078C722.59 483.077 728.506 488.993 728.506 496.293Z" fill="#EBEBEB"/>
<path d="M686 506.247C691.498 500.75 691.498 491.837 686 486.34C680.503 480.842 671.59 480.842 666.093 486.34C660.595 491.837 660.595 500.75 666.093 506.247C671.59 511.745 680.503 511.745 686 506.247Z" fill="#EBEBEB"/>
<path d="M645.89 486.329C654.143 486.329 660.833 479.639 660.833 471.387C660.833 463.135 654.143 456.445 645.89 456.445C637.638 456.445 630.948 463.135 630.948 471.387C630.948 479.639 637.638 486.329 645.89 486.329Z" fill="#EBEBEB"/>
<path d="M655.157 435.848C656.68 427.363 651.037 419.251 642.553 417.728C634.068 416.205 625.956 421.848 624.433 430.332C622.91 438.816 628.553 446.929 637.037 448.452C645.521 449.975 653.634 444.332 655.157 435.848Z" fill="#EBEBEB"/>
<path d="M658.881 415.703C667.789 415.703 675.011 408.482 675.011 399.574C675.011 390.666 667.789 383.444 658.881 383.444C649.973 383.444 642.752 390.666 642.752 399.574C642.752 408.482 649.973 415.703 658.881 415.703Z" fill="#EBEBEB"/>
<path d="M702.41 402.577C711.368 398.833 715.595 388.537 711.851 379.579C708.108 370.621 697.811 366.394 688.853 370.138C679.896 373.881 675.669 384.178 679.412 393.136C683.156 402.093 693.452 406.32 702.41 402.577Z" fill="#EBEBEB"/>
<path d="M756.91 473.988C758.524 467.126 754.269 460.255 747.407 458.641C740.544 457.028 733.673 461.283 732.059 468.145C730.446 475.008 734.701 481.879 741.563 483.492C748.426 485.106 755.297 480.851 756.91 473.988Z" fill="#EBEBEB"/>
<path d="M755.527 443.763C761.637 441.423 764.694 434.573 762.354 428.463C760.014 422.353 753.164 419.296 747.054 421.636C740.944 423.975 737.887 430.825 740.227 436.936C742.566 443.046 749.416 446.103 755.527 443.763Z" fill="#EBEBEB"/>
<path d="M742.248 400.89C743.204 394.99 739.195 389.433 733.295 388.478C727.396 387.523 721.839 391.532 720.884 397.431C719.929 403.331 723.937 408.888 729.837 409.843C735.736 410.798 741.293 406.79 742.248 400.89Z" fill="#EBEBEB"/>
<path fill-rule="evenodd" clip-rule="evenodd" d="M349.168 335.547C352.426 339.028 355.16 342.892 357.337 347.014L370.391 346.964L375.242 368.011L363.483 373.683C363.332 378.34 362.568 383.012 361.161 387.572L370.425 396.764L358.971 415.076L346.653 410.774C343.171 414.036 339.304 416.768 335.182 418.942L335.231 431.998L314.187 436.849L308.514 425.091C303.856 424.938 299.186 424.172 294.624 422.764L285.433 432.028L267.117 420.576L271.421 408.256C268.159 404.774 265.429 400.91 263.253 396.787L250.197 396.836L245.346 375.788L257.107 370.118C257.26 365.46 258.026 360.79 259.431 356.23L250.17 347.038L261.622 328.724L273.941 333.028C277.423 329.766 281.289 327.033 285.411 324.859L285.362 311.803L306.407 306.952L312.078 318.712C316.736 318.863 321.406 319.629 325.968 321.036L335.159 311.773L353.471 323.224L349.168 335.547ZM323.411 352.776C312.563 345.992 298.266 349.286 291.48 360.138C284.696 370.988 287.993 385.284 298.84 392.067C309.691 398.852 323.985 395.556 330.771 384.708C337.557 373.856 334.263 359.562 323.411 352.776Z" fill="#E0E0E0"/>
<path fill-rule="evenodd" clip-rule="evenodd" d="M361.884 247.023C363.687 248.951 365.201 251.09 366.406 253.372L373.633 253.344L376.318 264.996L369.808 268.136C369.724 270.715 369.301 273.302 368.521 275.827L373.65 280.916L367.308 291.054L360.487 288.673C358.559 290.479 356.418 291.991 354.136 293.195L354.164 300.423L342.514 303.11L339.373 296.6C336.795 296.516 334.209 296.092 331.685 295.312L326.596 300.441L316.455 294.101L318.838 287.28C317.032 285.352 315.52 283.213 314.316 280.93L307.088 280.956L304.401 269.303L310.913 266.164C310.997 263.585 311.422 260.999 312.199 258.475L307.071 253.386L313.412 243.246L320.233 245.629C322.16 243.823 324.301 242.309 326.583 241.105L326.555 233.877L338.206 231.19L341.346 237.702C343.925 237.786 346.511 238.21 349.036 238.988L354.125 233.86L364.264 240.199L361.884 247.023ZM347.624 256.563C341.618 252.806 333.702 254.631 329.946 260.638C326.19 266.645 328.015 274.56 334.021 278.316C340.029 282.072 347.943 280.248 351.699 274.24C355.455 268.233 353.631 260.319 347.624 256.563Z" fill="#E0E0E0"/>
<path d="M260.5 268.562C260.512 268.543 260.712 268.655 261.083 268.889C261.458 269.114 261.979 269.507 262.572 270.095C263.75 271.242 265.242 273.369 265.561 276.402C265.708 277.898 265.573 279.599 264.917 281.262C264.261 282.908 263.177 284.563 261.577 285.792C260.797 286.426 259.891 286.943 258.913 287.328C257.938 287.727 256.879 287.979 255.787 288.052C253.601 288.246 251.288 287.684 249.307 286.468C247.346 285.22 245.827 283.386 245.046 281.335C244.633 280.32 244.396 279.256 244.328 278.206C244.245 277.157 244.314 276.115 244.542 275.137C244.946 273.159 245.959 271.46 247.153 270.149C248.362 268.833 249.831 267.965 251.241 267.442C254.108 266.402 256.674 266.811 258.22 267.368C259.008 267.644 259.59 267.941 259.956 268.179C260.324 268.413 260.513 268.544 260.5 268.562C260.463 268.631 259.698 268.098 258.137 267.615C256.604 267.144 254.122 266.829 251.402 267.881C250.065 268.408 248.68 269.255 247.552 270.521C246.437 271.782 245.497 273.398 245.133 275.266C244.924 276.19 244.868 277.171 244.952 278.158C245.022 279.146 245.25 280.146 245.644 281.098C246.387 283.023 247.814 284.737 249.655 285.911C251.517 287.051 253.681 287.584 255.736 287.409C256.764 287.346 257.762 287.114 258.682 286.744C259.606 286.389 260.463 285.908 261.202 285.316C262.722 284.172 263.762 282.618 264.408 281.064C265.05 279.496 265.207 277.881 265.097 276.447C264.852 273.541 263.482 271.446 262.386 270.275C261.269 269.08 260.454 268.625 260.5 268.562Z" fill="#E0E0E0"/>
<path d="M272.054 260.833C272.046 260.834 272.078 260.717 272.151 260.481C272.236 260.22 272.348 259.871 272.491 259.427C272.816 258.458 273.281 257.07 273.883 255.271L273.926 255.394C271.812 254.09 269.036 252.378 265.679 250.309L265.886 250.285C264.641 251.549 263.26 252.955 261.781 254.459L261.7 254.541L261.587 254.508C259.705 253.935 257.62 253.561 255.407 253.497L255.277 253.493L255.219 253.374C254.421 251.731 253.558 249.955 252.659 248.105L252.922 248.231C249.951 248.924 246.797 249.659 243.487 250.432L243.689 250.179C243.7 251.992 243.711 253.988 243.724 256.035L243.725 256.2L243.58 256.277C241.863 257.186 240.091 258.409 238.502 259.909L238.377 260.026L238.214 259.97C236.5 259.375 234.61 258.717 232.685 258.05L233.031 257.928C231.421 260.511 229.685 263.295 227.905 266.15L227.862 265.771C229.157 267.053 230.579 268.463 232.021 269.889L232.156 270.022L232.1 270.203C231.524 272.071 231.144 274.19 231.076 276.352L231.071 276.544L230.897 276.628C229.245 277.426 227.443 278.296 225.623 279.176L225.797 278.813C226.487 281.802 227.228 285.005 227.978 288.253L227.658 288C229.507 287.993 231.503 287.984 233.515 287.976L233.714 287.975L233.806 288.151C234.729 289.902 235.953 291.661 237.417 293.22L237.418 293.222L237.42 293.223C237.452 293.373 237.35 292.89 237.491 293.558L237.49 293.563L237.486 293.575L237.479 293.597L237.463 293.64L237.432 293.727L237.371 293.901L237.249 294.248L237.007 294.942L236.522 296.328C236.2 297.251 235.88 298.169 235.559 299.084L235.423 298.697C238.2 300.435 240.938 302.148 243.639 303.837L243.234 303.884C244.623 302.486 245.998 301.101 247.358 299.73L247.497 299.592L247.683 299.649C249.698 300.272 251.771 300.614 253.828 300.682L254.021 300.689L254.105 300.863C254.965 302.648 255.81 304.405 256.645 306.14L256.292 305.97C259.515 305.231 262.665 304.509 265.735 303.804L265.5 304.101C265.495 302.115 265.49 300.162 265.486 298.245V298.066L265.644 297.983C267.531 296.991 269.24 295.764 270.731 294.373L270.857 294.255L271.02 294.312C272.914 294.977 274.749 295.623 276.543 296.253L276.221 296.366C278.035 293.481 279.747 290.756 281.377 288.164L281.413 288.476C279.956 287.021 278.588 285.658 277.269 284.342L277.167 284.239L277.209 284.104C277.873 281.971 278.188 279.906 278.261 277.937L278.266 277.805L278.384 277.749C280.305 276.832 282.034 276.006 283.667 275.225L283.561 275.44C282.736 271.779 282.034 268.66 281.432 265.989L281.576 266.104C279.238 266.095 277.32 266.09 275.72 266.084H275.655L275.626 266.028C274.643 264.141 273.691 262.87 273.044 262.047C272.725 261.659 272.48 261.361 272.298 261.138C272.123 260.932 272.046 260.834 272.054 260.833C272.063 260.831 272.161 260.924 272.339 261.102C272.518 261.289 272.788 261.575 273.128 261.977C273.804 262.78 274.791 264.04 275.812 265.927L275.718 265.871C277.318 265.855 279.236 265.834 281.574 265.807L281.692 265.806L281.72 265.922C282.349 268.587 283.081 271.701 283.942 275.352L283.977 275.503L283.835 275.572C282.207 276.364 280.484 277.204 278.57 278.135L278.692 277.948C278.632 279.954 278.324 282.061 277.659 284.241L277.6 284.003C278.926 285.312 280.3 286.67 281.766 288.116L281.909 288.257L281.803 288.43C280.184 291.031 278.483 293.762 276.683 296.656L276.568 296.841L276.361 296.769C274.566 296.146 272.726 295.508 270.831 294.85L271.119 294.788C269.596 296.221 267.847 297.483 265.917 298.505L266.074 298.244C266.083 300.162 266.093 302.113 266.103 304.1L266.104 304.342L265.868 304.397C262.799 305.108 259.652 305.837 256.43 306.583L256.187 306.639L256.078 306.414C255.239 304.681 254.391 302.925 253.528 301.142L253.805 301.322C251.693 301.255 249.561 300.906 247.49 300.268L247.815 300.187C246.454 301.559 245.081 302.945 243.695 304.345L243.511 304.53L243.29 304.391C240.589 302.704 237.85 300.992 235.072 299.256L234.849 299.116L234.936 298.868C235.255 297.954 235.576 297.035 235.898 296.113L236.382 294.727L236.625 294.032L236.746 293.684L236.807 293.51L236.837 293.423L236.853 293.38L236.86 293.359L236.864 293.348L236.865 293.342C237.007 294.009 236.905 293.527 236.935 293.675L236.934 293.674L236.931 293.671C235.426 292.068 234.168 290.259 233.221 288.459L233.512 288.634C231.502 288.641 229.506 288.648 227.655 288.655L227.393 288.656L227.334 288.402C226.587 285.154 225.85 281.949 225.163 278.959L225.105 278.707L225.338 278.595C227.159 277.718 228.962 276.85 230.616 276.055L230.435 276.331C230.507 274.11 230.903 271.935 231.496 270.02L231.575 270.333C230.137 268.902 228.717 267.491 227.425 266.206L227.252 266.032L227.382 265.825C229.17 262.976 230.913 260.194 232.53 257.617L232.654 257.418L232.875 257.495C234.799 258.17 236.686 258.834 238.398 259.434L238.111 259.496C239.745 257.967 241.564 256.72 243.324 255.798L243.178 256.039C243.175 253.992 243.171 251.996 243.168 250.183V249.974L243.37 249.928C246.684 249.174 249.841 248.454 252.816 247.776L252.999 247.734L253.08 247.902C253.968 249.756 254.82 251.54 255.609 253.186L255.421 253.064C257.675 253.145 259.793 253.542 261.701 254.138L261.51 254.188C263.001 252.699 264.396 251.306 265.651 250.051L265.746 249.956L265.858 250.028C269.189 252.14 271.942 253.886 274.04 255.217L274.111 255.264L274.083 255.342C273.442 257.107 272.946 258.47 272.6 259.422C272.434 259.865 272.304 260.213 272.206 260.474C272.115 260.71 272.064 260.831 272.054 260.833Z" fill="#E0E0E0"/>
<path d="M607.186 208.345L566.025 208.156C560.506 208.131 556.009 212.788 555.987 218.558L555.953 226.024C555.931 231.795 551.434 236.453 545.915 236.427L465.681 236.056C460.163 236.031 455.706 231.333 455.73 225.562L455.762 218.096C455.786 212.325 451.33 207.625 445.811 207.601L431.335 207.534L395.309 207.368C377.417 207.286 362.847 221.726 362.772 239.619L360.576 759.13C360.501 777.015 374.932 791.574 392.814 791.656L604.693 792.633C622.584 792.716 637.153 778.275 637.23 760.383L639.427 240.871C639.5 222.987 625.069 208.429 607.186 208.345Z" fill="white"/>
<path d="M607.187 208.345C607.187 208.345 607.559 208.353 608.296 208.387C609.028 208.461 610.142 208.381 611.577 208.66C614.446 209.013 618.807 209.965 623.703 212.912C626.175 214.32 628.687 216.345 631.061 218.929C633.426 221.518 635.618 224.75 637.182 228.618C638.767 232.474 639.614 236.971 639.548 241.767C639.532 246.55 639.517 251.641 639.5 257.036C639.345 300.192 639.121 362.629 638.844 439.779C638.54 516.934 638.177 608.801 637.775 710.809C637.724 723.56 637.672 736.47 637.619 749.529C637.606 752.794 637.592 756.068 637.578 759.351C637.528 762.637 637.302 766.011 636.3 769.203C635.356 772.395 634.021 775.507 632.138 778.291C630.262 781.072 627.984 783.585 625.378 785.73C620.109 789.925 613.518 792.586 606.695 792.895C604.986 793.009 603.302 792.985 601.612 792.974L596.536 792.951C593.146 792.936 589.75 792.921 586.345 792.905C572.723 792.844 558.971 792.782 545.095 792.719C517.345 792.593 489.102 792.464 460.44 792.334C446.11 792.268 431.674 792.202 417.142 792.135C409.876 792.102 402.587 792.068 395.274 792.034C387.94 792.379 380.363 790.416 374.256 786.14C368.124 781.896 363.612 775.496 361.523 768.405C360.399 764.869 360.204 761.107 360.218 757.468C360.234 753.823 360.249 750.183 360.265 746.548C360.326 732.012 360.388 717.573 360.449 703.238C360.573 674.569 360.693 646.318 360.813 618.56C361.056 563.045 361.289 509.495 361.512 458.483C361.739 407.471 361.956 358.998 362.157 313.632C362.261 290.949 362.36 269.043 362.456 247.987C362.468 245.355 362.479 242.736 362.492 240.131C362.516 238.826 362.614 237.511 362.689 236.209C362.922 234.924 363.027 233.616 363.366 232.359C364.568 227.304 366.929 222.576 370.219 218.691C373.532 214.827 377.681 211.769 382.242 209.779C386.8 207.743 391.797 207.039 396.624 207.117C406.269 207.166 415.682 207.214 424.858 207.26C429.446 207.284 433.973 207.306 438.441 207.33C440.674 207.341 442.893 207.352 445.095 207.364C447.315 207.263 449.613 207.879 451.43 209.16C453.246 210.441 454.639 212.28 455.35 214.35C456.167 216.422 455.962 218.655 455.978 220.729C455.973 221.784 455.969 222.835 455.963 223.882C455.962 224.932 455.92 225.975 456.053 226.978C456.303 228.994 457.147 230.928 458.462 232.438C459.75 233.971 461.521 235.068 463.428 235.548C464.388 235.792 465.353 235.865 466.359 235.849C467.359 235.855 468.353 235.859 469.344 235.865C473.306 235.886 477.204 235.905 481.034 235.926C496.357 236.008 510.616 236.085 523.743 236.155C530.306 236.191 536.585 236.225 542.573 236.257C544.061 236.237 545.567 236.337 546.988 236.218C548.418 236.061 549.785 235.572 550.974 234.833C553.367 233.356 554.996 230.898 555.555 228.301C555.857 227.001 555.811 225.676 555.824 224.361C555.831 223.051 555.838 221.758 555.845 220.487C555.866 219.223 555.793 217.952 556.028 216.716C556.245 215.486 556.666 214.315 557.259 213.26C558.43 211.139 560.327 209.541 562.432 208.723C564.554 207.809 566.811 208.097 568.855 208.062C577.157 208.114 584.183 208.159 589.865 208.194C595.539 208.236 599.868 208.268 602.784 208.289C605.696 208.313 607.187 208.345 607.187 208.345C607.187 208.345 605.696 208.363 602.785 208.362C599.869 208.356 595.54 208.349 589.865 208.338C584.183 208.321 577.157 208.3 568.855 208.276C566.791 208.316 564.576 208.041 562.517 208.937C560.466 209.741 558.617 211.305 557.477 213.379C556.902 214.41 556.491 215.555 556.283 216.756C556.056 217.953 556.129 219.21 556.111 220.484C556.106 221.757 556.102 223.048 556.098 224.358C556.087 225.659 556.139 227.018 555.831 228.357C555.262 231.024 553.595 233.556 551.131 235.082C549.907 235.847 548.495 236.353 547.02 236.519C545.529 236.643 544.073 236.544 542.57 236.568C536.583 236.545 530.303 236.521 523.74 236.496C510.613 236.444 496.353 236.388 481.03 236.33C477.2 236.314 473.302 236.299 469.34 236.282C468.349 236.278 467.355 236.274 466.357 236.269C465.367 236.288 464.314 236.215 463.323 235.96C461.328 235.46 459.477 234.314 458.132 232.718C456.76 231.144 455.876 229.129 455.613 227.029C455.473 225.97 455.518 224.917 455.516 223.877C455.521 222.829 455.525 221.779 455.528 220.724C455.509 218.614 455.704 216.472 454.917 214.498C454.234 212.516 452.897 210.757 451.162 209.536C449.411 208.316 447.275 207.733 445.091 207.83C442.887 207.82 440.669 207.812 438.436 207.802C433.969 207.784 429.441 207.764 424.854 207.746C415.678 207.708 406.264 207.669 396.62 207.628C391.826 207.557 386.94 208.251 382.449 210.259C377.965 212.222 373.885 215.233 370.629 219.035C367.396 222.86 365.081 227.51 363.902 232.48C363.569 233.714 363.469 235.001 363.24 236.264C363.168 237.548 363.07 238.827 363.048 240.128C363.038 242.733 363.028 245.353 363.017 247.985C362.934 269.042 362.849 290.948 362.761 313.629C362.579 358.995 362.386 407.468 362.183 458.48C361.974 509.492 361.754 563.042 361.527 618.558C361.411 646.315 361.294 674.565 361.175 703.235C361.114 717.57 361.054 732.011 360.993 746.547C360.977 750.181 360.962 753.821 360.946 757.467C360.934 761.099 361.121 764.725 362.222 768.198C364.264 775.128 368.676 781.389 374.672 785.538C380.668 789.717 387.993 791.635 395.276 791.301C402.588 791.334 409.878 791.368 417.144 791.402C431.676 791.469 446.111 791.536 460.442 791.603C489.104 791.738 517.345 791.869 545.097 791.999C558.972 792.065 572.726 792.13 586.346 792.194C589.751 792.211 593.149 792.226 596.537 792.243L601.613 792.267C603.305 792.279 604.996 792.302 606.655 792.191C613.333 791.892 619.78 789.288 624.94 785.184C627.491 783.086 629.721 780.626 631.558 777.904C633.403 775.181 634.709 772.135 635.635 769.011C636.619 765.878 636.837 762.606 636.889 759.346C636.903 756.063 636.919 752.788 636.933 749.523C636.99 736.464 637.047 723.555 637.103 710.804C637.564 608.797 637.978 516.929 638.327 439.775C638.702 362.625 639.006 300.188 639.216 257.033C639.244 251.639 639.272 246.547 639.297 241.764C639.373 236.99 638.544 232.534 636.98 228.698C635.439 224.852 633.269 221.632 630.925 219.051C628.573 216.473 626.083 214.449 623.626 213.038C618.765 210.084 614.425 209.109 611.566 208.734C610.137 208.444 609.025 208.513 608.294 208.426C607.559 208.379 607.187 208.345 607.187 208.345Z" fill="#263238"/>
<path d="M569.146 371.919L565.964 368.142L575.435 363.068L531.462 348.185L546.346 390.804L551.758 383.7C551.758 383.7 580.21 433.767 551.758 464.203C523.502 494.429 490.197 487.88 490.197 487.88L496.623 508.852C496.623 508.852 549.052 512.573 577.126 465.218C605.2 417.864 569.146 371.919 569.146 371.919Z" fill="#E8505B"/>
<path d="M437.289 476.966L440.472 480.743L431.001 485.816L474.973 500.7L460.09 458.081L454.677 465.185C454.677 465.185 426.225 415.118 454.677 384.682C482.934 354.456 516.238 361.004 516.238 361.004L509.811 340.032C509.811 340.032 457.382 336.31 429.308 383.665C401.235 431.02 437.289 476.966 437.289 476.966Z" fill="#E8505B"/>
<path d="M569.146 371.919L565.964 368.142L575.435 363.068L531.462 348.185L546.346 390.804L551.758 383.7C551.758 383.7 580.21 433.767 551.758 464.203C523.502 494.429 490.197 487.88 490.197 487.88L496.623 508.852C496.623 508.852 549.052 512.573 577.126 465.218C605.2 417.864 569.146 371.919 569.146 371.919Z" fill="#E8505B"/>
<path d="M437.289 476.966L440.472 480.743L431.001 485.816L474.973 500.7L460.09 458.081L454.677 465.185C454.677 465.185 426.225 415.118 454.677 384.682C482.934 354.456 516.238 361.004 516.238 361.004L509.811 340.032C509.811 340.032 457.382 336.31 429.308 383.665C401.235 431.02 437.289 476.966 437.289 476.966Z" fill="#E8505B"/>
<g opacity="0.8">
<path d="M569.146 371.919L565.964 368.142L575.435 363.068L531.462 348.185L546.346 390.804L551.758 383.7C551.758 383.7 580.21 433.767 551.758 464.203C523.502 494.429 490.197 487.88 490.197 487.88L496.623 508.852C496.623 508.852 549.052 512.573 577.126 465.218C605.2 417.864 569.146 371.919 569.146 371.919Z" fill="white"/>
</g>
<g opacity="0.8">
<path d="M437.289 476.966L440.472 480.743L431.001 485.816L474.973 500.7L460.09 458.081L454.677 465.185C454.677 465.185 426.225 415.118 454.677 384.682C482.934 354.456 516.238 361.004 516.238 361.004L509.811 340.032C509.811 340.032 457.382 336.31 429.308 383.665C401.235 431.02 437.289 476.966 437.289 476.966Z" fill="white"/>
</g>
<path fill-rule="evenodd" clip-rule="evenodd" d="M528.291 399.582C530.399 401.836 532.169 404.338 533.578 407.005L542.027 406.972L545.168 420.596L537.557 424.267C537.459 427.282 536.964 430.306 536.054 433.257L542.05 439.207L534.635 451.06L526.661 448.275C524.407 450.386 521.905 452.155 519.237 453.563L519.269 462.013L505.647 465.154L501.975 457.543C498.959 457.445 495.937 456.948 492.986 456.037L487.037 462.033L475.182 454.62L477.968 446.646C475.856 444.392 474.09 441.89 472.68 439.221L464.228 439.254L461.088 425.63L468.701 421.959C468.799 418.944 469.296 415.921 470.205 412.97L464.21 407.02L471.623 395.166L479.596 397.952C481.85 395.841 484.353 394.073 487.02 392.664L486.988 384.214L500.61 381.074L504.281 388.686C507.296 388.784 510.319 389.279 513.272 390.191L519.22 384.194L531.074 391.606L528.291 399.582ZM511.618 410.736C504.596 406.344 495.342 408.476 490.95 415.5C486.558 422.522 488.692 431.776 495.714 436.168C502.738 440.56 511.99 438.426 516.382 431.404C520.774 424.38 518.642 415.127 511.618 410.736Z" fill="#E8505B"/>
<g opacity="0.6">
<path fill-rule="evenodd" clip-rule="evenodd" d="M511.618 410.736C504.595 406.344 495.341 408.476 490.95 415.5C486.558 422.522 488.691 431.776 495.714 436.168C502.738 440.56 511.99 438.426 516.382 431.404C520.774 424.38 518.642 415.127 511.618 410.736Z" fill="white"/>
</g>
<path d="M457.566 562.709V553.733H459.223V562.642C459.223 566.357 460.968 568.058 464.012 568.058C467.078 568.058 468.824 566.357 468.824 562.642V553.733H470.435V562.709C470.435 567.207 468.017 569.535 464.011 569.535C460.007 569.537 457.566 567.208 457.566 562.709Z" fill="#263238"/>
<path d="M487.684 559.107C487.684 562.441 485.268 564.456 481.284 564.456H477.075V569.402H475.419V553.733H481.284C485.268 553.733 487.684 555.748 487.684 559.107ZM486.03 559.107C486.03 556.599 484.372 555.167 481.239 555.167H477.075V563.001H481.239C484.372 563.001 486.03 561.569 486.03 559.107Z" fill="#263238"/>
<path d="M491.259 553.733H497.639C502.652 553.733 506.033 556.958 506.033 561.568C506.033 566.178 502.653 569.401 497.639 569.401H491.259V553.733ZM497.549 567.97C501.713 567.97 504.398 565.328 504.398 561.569C504.398 557.809 501.713 555.167 497.549 555.167H492.916V567.97H497.549Z" fill="#263238"/>
<path d="M519.339 565.216H510.61L508.73 569.401H507.008L514.17 553.732H515.804L522.966 569.401H521.221L519.339 565.216ZM518.736 563.874L514.975 555.458L511.215 563.874H518.736Z" fill="#263238"/>
<path d="M527.815 555.166H522.308V553.733H534.976V555.166H529.469V569.402H527.814V555.166H527.815Z" fill="#263238"/>
<path d="M548.691 567.97V569.402H537.611V553.733H548.355V555.166H539.269V560.739H547.371V562.15H539.269V567.97H548.691Z" fill="#263238"/>
<path d="M619.468 258.749C619.469 258.896 613.795 259.064 606.796 259.121C599.795 259.179 594.119 259.107 594.119 258.959C594.118 258.812 599.791 258.644 606.792 258.587C613.789 258.529 619.466 258.602 619.468 258.749Z" fill="#263238"/>
<path d="M619.52 265.235C619.522 265.382 613.848 265.549 606.849 265.608C599.848 265.666 594.172 265.592 594.172 265.445C594.17 265.298 599.843 265.132 606.845 265.073C613.843 265.015 619.519 265.088 619.52 265.235Z" fill="#263238"/>
<path d="M619.574 271.721C619.575 271.868 613.901 272.035 606.903 272.094C599.901 272.151 594.226 272.078 594.226 271.931C594.224 271.784 599.897 271.618 606.898 271.559C613.897 271.5 619.573 271.574 619.574 271.721Z" fill="#263238"/>
<path d="M388.907 279.125C388.917 279.115 389.097 279.104 389.433 279.09C389.849 279.076 390.331 279.06 390.899 279.041C392.282 279.009 394.091 278.965 396.312 278.912L396.162 279.065C396.142 277.865 396.121 276.554 396.099 275.14C396.106 274.411 396.036 273.724 396.107 272.881C396.253 272.041 397.002 271.299 397.923 271.212C398.795 271.195 399.564 271.156 400.509 271.199C401.485 271.318 402.313 272.256 402.284 273.29C402.305 275.119 402.326 277.032 402.348 279.014L402.098 278.768C404.29 278.745 406.574 278.723 408.926 278.698L408.667 278.962C408.643 276.213 408.618 273.368 408.591 270.455C408.585 269.728 408.578 269.006 408.573 268.287C408.57 267.62 408.164 267.173 407.612 266.675C406.602 265.679 405.606 264.698 404.628 263.732C403.65 262.767 402.69 261.819 401.748 260.89C401.277 260.425 400.813 259.966 400.352 259.511C399.872 259.049 399.495 258.571 398.939 258.457C398.4 258.311 397.807 258.426 397.373 258.756C396.96 259.106 396.519 259.6 396.102 260.006C395.26 260.855 394.444 261.679 393.652 262.477C392.11 264.078 390.506 265.541 389.338 266.922C388.847 267.685 389.03 268.621 388.995 269.47C388.994 270.316 388.992 271.12 388.99 271.876C388.981 273.351 388.973 274.643 388.966 275.751C388.955 276.741 388.946 277.56 388.938 278.229C388.931 278.803 388.92 279.111 388.907 279.125C388.894 279.137 388.879 278.856 388.859 278.304C388.841 277.645 388.819 276.84 388.791 275.864C388.766 274.747 388.736 273.445 388.703 271.957C388.689 271.185 388.673 270.366 388.658 269.504C388.651 269.067 388.644 268.619 388.637 268.161C388.633 267.677 388.757 267.176 389.013 266.732C390.276 265.184 391.784 263.814 393.337 262.167C394.122 261.362 394.934 260.53 395.767 259.676C396.205 259.246 396.564 258.818 397.084 258.37C397.63 257.95 398.381 257.8 399.064 257.981C399.791 258.14 400.264 258.737 400.703 259.154C401.165 259.606 401.633 260.064 402.105 260.526C403.05 261.451 404.013 262.396 404.993 263.358C405.974 264.321 406.971 265.3 407.983 266.294C408.224 266.547 408.513 266.763 408.746 267.12C408.968 267.46 409.094 267.863 409.105 268.271C409.112 268.992 409.117 269.718 409.124 270.448C409.147 273.361 409.168 276.206 409.189 278.955L409.192 279.217L408.93 279.219C406.578 279.234 404.294 279.248 402.102 279.262L401.851 279.263L401.85 279.014C401.84 277.032 401.83 275.119 401.821 273.29C401.85 272.465 401.207 271.737 400.442 271.632C399.656 271.59 398.729 271.618 397.965 271.625C397.231 271.685 396.618 272.275 396.492 272.952C396.426 273.638 396.477 274.439 396.463 275.133C396.463 276.547 396.464 277.858 396.464 279.059V279.213L396.314 279.212C394.056 279.196 392.218 279.182 390.811 279.172C390.254 279.163 389.783 279.154 389.377 279.147C389.058 279.143 388.897 279.135 388.907 279.125Z" fill="#263238"/>
<path d="M556.697 273.591C556.697 273.792 535.364 273.955 509.054 273.955C482.735 273.955 461.406 273.791 461.406 273.591C461.406 273.39 482.735 273.227 509.054 273.227C535.364 273.225 556.697 273.389 556.697 273.591Z" fill="#263238"/>
<path d="M554.225 716.062H454.186C441.41 716.062 431.053 705.705 431.053 692.928C431.053 680.152 441.41 669.793 454.186 669.793H554.225C567.001 669.793 577.358 680.151 577.358 692.928C577.36 705.705 567.003 716.062 554.225 716.062Z" fill="#E8505B"/>
<path d="M485.118 696.312L485.954 694.46C486.851 695.114 488.187 695.569 489.462 695.569C490.921 695.569 491.513 695.083 491.513 694.429C491.513 692.44 485.332 693.806 485.332 689.857C485.332 688.049 486.79 686.546 489.812 686.546C491.148 686.546 492.516 686.865 493.503 687.488L492.744 689.356C491.757 688.794 490.739 688.52 489.798 688.52C488.34 688.52 487.778 689.067 487.778 689.735C487.778 691.694 493.961 690.343 493.961 694.247C493.961 696.022 492.486 697.542 489.448 697.542C487.76 697.543 486.06 697.043 485.118 696.312Z" fill="white"/>
<path d="M500.743 696.966C500.255 697.316 499.543 697.483 498.813 697.483C496.884 697.483 495.76 696.496 495.76 694.551V691.194H494.5V689.37H495.76V687.38H498.129V689.37H500.164V691.194H498.129V694.52C498.129 695.219 498.508 695.598 499.147 695.598C499.497 695.598 499.845 695.493 500.104 695.295L500.743 696.966Z" fill="white"/>
<path d="M509.304 692.698V697.361H507.086V696.343C506.646 697.087 505.795 697.483 504.595 697.483C502.682 697.483 501.542 696.419 501.542 695.008C501.542 693.566 502.56 692.562 505.05 692.562H506.935C506.935 691.544 506.326 690.953 505.05 690.953C504.185 690.953 503.289 691.242 502.696 691.712L501.846 690.056C502.743 689.419 504.063 689.069 505.371 689.069C507.862 689.067 509.304 690.222 509.304 692.698ZM506.935 694.778V693.942H505.309C504.201 693.942 503.852 694.352 503.852 694.9C503.852 695.493 504.352 695.887 505.188 695.887C505.977 695.887 506.66 695.523 506.935 694.778Z" fill="white"/>
<path d="M516.514 689.067V691.256C516.316 691.24 516.165 691.226 515.983 691.226C514.675 691.226 513.81 691.94 513.81 693.504V697.362H511.441V689.191H513.704V690.27C514.281 689.478 515.252 689.067 516.514 689.067Z" fill="white"/>
<path d="M523.481 696.966C522.994 697.316 522.281 697.483 521.552 697.483C519.623 697.483 518.498 696.496 518.498 694.551V691.194H517.238V689.37H518.498V687.38H520.867V689.37H522.903V691.194H520.867V694.52C520.867 695.219 521.248 695.598 521.885 695.598C522.235 695.598 522.584 695.493 522.843 695.295L523.481 696.966Z" fill="white"/>
<path d="M599.276 606.296C599.276 606.498 556.266 606.66 503.221 606.66C450.158 606.66 407.157 606.496 407.157 606.296C407.157 606.095 450.158 605.932 503.221 605.932C556.266 605.932 599.276 606.096 599.276 606.296Z" fill="#263238"/>
<path d="M561.005 618.073C561.005 618.275 535.132 618.437 503.222 618.437C471.3 618.437 445.433 618.273 445.433 618.073C445.433 617.871 471.3 617.709 503.222 617.709C535.131 617.709 561.005 617.871 561.005 618.073Z" fill="#263238"/>
<path d="M295.175 791.54L286.67 822.988L314.313 825.511L320.122 795.572L295.175 791.54Z" fill="#404040"/>
<path d="M315.115 822.949C315.107 823.053 313.559 823.015 311.067 822.812C308.575 822.612 305.145 822.231 301.367 821.747C297.729 821.258 294.436 820.816 291.706 820.45C289.236 820.104 287.709 819.869 287.719 819.76C287.729 819.658 289.276 819.701 291.766 819.908C294.257 820.114 297.687 820.498 301.465 820.984C305.104 821.468 308.395 821.908 311.127 822.272C313.598 822.612 315.127 822.84 315.115 822.949Z" fill="#263238"/>
<g opacity="0.6">
<path d="M286.67 822.988L314.313 825.511L314.76 823.205L287.468 819.736L286.698 822.676" fill="white"/>
</g>
<path d="M300.403 821.59C300.229 821.546 301.405 816.152 303.031 809.541C304.657 802.928 306.116 797.603 306.29 797.647C306.463 797.69 305.287 803.084 303.661 809.697C302.037 816.306 300.578 821.632 300.403 821.59Z" fill="#263238"/>
<path d="M313.588 822.745C313.418 822.738 314.47 820.488 313.651 816.898C313.229 815.148 312.311 813.112 310.625 811.425C308.966 809.729 306.477 808.544 303.746 808.264C301.009 808.001 298.342 808.66 296.342 809.947C294.318 811.215 292.925 812.949 292.037 814.521C290.279 817.745 290.45 820.17 290.292 820.129C290.269 820.129 290.255 819.985 290.251 819.712C290.237 819.438 290.261 819.034 290.315 818.515C290.432 817.48 290.78 815.982 291.631 814.304C292.497 812.649 293.906 810.807 296.02 809.443C298.112 808.059 300.929 807.34 303.809 807.619C306.684 807.912 309.313 809.183 311.049 811.006C312.806 812.814 313.716 814.968 314.097 816.8C314.461 818.652 314.334 820.198 314.107 821.214C313.988 821.724 313.876 822.113 313.767 822.367C313.67 822.623 313.609 822.752 313.588 822.745Z" fill="#263238"/>
<path d="M409.312 783.101L407.461 811.041C407.461 811.041 435.271 820.27 435.431 825.467L381.097 825.86L382.194 782.207L409.312 783.101Z" fill="#404040"/>
<g opacity="0.6">
<path d="M390.741 808.181C389.681 808.437 388.92 809.596 389.131 810.666C389.342 811.735 390.516 812.519 391.58 812.283C392.644 812.046 393.601 810.681 393.271 809.644C392.94 808.605 391.514 807.758 390.538 808.244" fill="white"/>
</g>
<g opacity="0.6">
<path d="M381.098 825.86L381.208 821.46L433.686 822.909C433.686 822.909 435.432 823.662 435.707 825.86H381.098Z" fill="white"/>
</g>
<path d="M408.351 810.792C408.334 811.056 407.004 811.136 405.674 811.949C404.322 812.728 403.615 813.856 403.374 813.744C403.13 813.685 403.574 812.112 405.202 811.156C406.822 810.185 408.415 810.551 408.351 810.792Z" fill="#263238"/>
<path d="M413.975 813.32C414.028 813.579 412.866 813.995 411.931 815.09C410.965 816.156 410.7 817.362 410.437 817.342C410.186 817.376 410.049 815.818 411.238 814.479C412.414 813.131 413.977 813.067 413.975 813.32Z" fill="#263238"/>
<path d="M417.004 820.235C416.762 820.284 416.433 818.948 417.156 817.516C417.87 816.08 419.139 815.545 419.244 815.769C419.387 815.991 418.558 816.746 417.981 817.93C417.378 819.101 417.267 820.217 417.004 820.235Z" fill="#263238"/>
<path d="M408.066 804.377C407.947 804.615 406.741 804.213 405.239 804.269C403.737 804.296 402.555 804.763 402.424 804.531C402.275 804.335 403.444 803.387 405.214 803.347C406.984 803.292 408.202 804.173 408.066 804.377Z" fill="#263238"/>
<path d="M408.335 798.734C408.335 798.844 407.282 798.976 405.616 798.637C404.787 798.468 403.813 798.165 402.798 797.677C402.29 797.432 401.773 797.142 401.261 796.8C401.016 796.632 400.723 796.46 400.459 796.137C400.173 795.851 400.027 795.143 400.38 794.723C400.671 794.314 401.168 794.149 401.56 794.151C401.961 794.15 402.283 794.241 402.577 794.324C403.177 794.489 403.737 794.706 404.25 794.955C405.273 795.458 406.098 796.081 406.708 796.677C407.933 797.882 408.332 798.885 408.241 798.934C408.118 799.018 407.53 798.169 406.277 797.167C405.653 796.669 404.85 796.148 403.893 795.726C403.413 795.518 402.895 795.336 402.346 795.197C401.775 795.029 401.286 795.01 401.131 795.262C401.075 795.358 401.066 795.396 401.181 795.568C401.3 795.728 401.53 795.886 401.77 796.054C402.241 796.382 402.717 796.669 403.183 796.919C404.117 797.418 405.013 797.766 405.781 798.007C407.323 798.486 408.343 798.591 408.335 798.734Z" fill="#263238"/>
<path d="M407.978 799.103C407.883 799.141 407.386 798.175 407.341 796.454C407.321 795.602 407.44 794.571 407.802 793.488C407.985 792.947 408.229 792.396 408.545 791.857C408.88 791.33 409.29 790.623 410.322 790.537C410.859 790.532 411.293 790.965 411.435 791.329C411.603 791.701 411.629 792.018 411.684 792.334C411.765 792.971 411.734 793.593 411.631 794.165C411.425 795.316 410.922 796.264 410.385 796.94C409.28 798.315 408.164 798.599 408.145 798.508C408.061 798.372 409 797.888 409.852 796.561C410.272 795.907 410.656 795.038 410.791 794.031C410.859 793.53 410.867 792.996 410.788 792.457C410.72 791.878 410.518 791.406 410.301 791.458C410.03 791.445 409.559 791.867 409.322 792.32C409.028 792.799 408.791 793.29 408.604 793.773C408.234 794.745 408.056 795.68 407.995 796.471C407.87 798.066 408.124 799.067 407.978 799.103Z" fill="#263238"/>
<path d="M409.314 540.365L326.526 539.742L286.521 802.492L320.88 806.853L364.914 590.81L378.093 807.622L378.128 808.267L415.285 807.618L409.314 540.365Z" fill="#444968"/>
<path d="M371.659 561.657C371.633 561.632 372.229 561.596 373.37 561.547C374.61 561.5 376.278 561.44 378.35 561.363C382.786 561.237 388.941 561.064 396.242 560.856L396.582 560.847L396.583 561.191C396.596 566.382 396.61 572.189 396.625 578.352V578.517L396.504 578.631C395.51 579.544 394.454 580.515 393.387 581.497C390.199 584.418 387.117 587.244 384.202 589.915L383.958 590.137L383.713 589.919C379.16 585.862 375.007 582.159 371.466 579.003L371.365 578.914L371.367 578.783C371.431 573.564 371.483 569.277 371.522 566.192C371.553 564.789 371.578 563.661 371.596 562.8C371.617 562.03 371.638 561.636 371.659 561.657C371.68 561.678 371.701 562.112 371.724 562.913C371.742 563.791 371.767 564.94 371.798 566.371C371.836 569.413 371.889 573.638 371.953 578.783L371.854 578.564C375.421 581.688 379.607 585.355 384.195 589.373L383.706 589.377C386.615 586.699 389.693 583.865 392.873 580.938C393.942 579.958 394.999 578.988 395.993 578.075L395.871 578.352C395.886 572.189 395.9 566.384 395.913 561.191L396.254 561.526C389.037 561.593 382.954 561.652 378.57 561.692C376.465 561.695 374.771 561.698 373.511 561.699C372.971 561.694 372.524 561.689 372.152 561.685C371.84 561.68 371.672 561.67 371.659 561.657Z" fill="#444968"/>
<path d="M332.696 560.519C332.674 560.491 333.205 560.521 334.224 560.598C335.342 560.689 336.832 560.81 338.679 560.962C342.667 561.323 348.192 561.824 354.779 562.42L355.112 562.451L355.071 562.789C354.465 567.866 353.773 573.654 353.036 579.828L353.017 579.981L352.897 580.077C351.757 580.987 350.551 581.95 349.328 582.926C346.282 585.351 343.329 587.7 340.524 589.933L340.235 590.163L340.009 589.876C336.453 585.379 333.189 581.255 330.384 577.707L330.304 577.606L330.321 577.483C331.016 572.331 331.589 568.083 332.003 565.016C332.205 563.627 332.367 562.507 332.492 561.65C332.608 560.886 332.678 560.495 332.696 560.519C332.716 560.543 332.684 560.98 332.608 561.781C332.52 562.66 332.405 563.808 332.262 565.232C331.931 568.264 331.471 572.463 330.914 577.554L330.851 577.332C333.688 580.856 336.986 584.952 340.581 589.418L340.067 589.361C342.869 587.121 345.816 584.764 348.857 582.334C350.08 581.36 351.288 580.396 352.428 579.488L352.289 579.737C353.061 573.567 353.786 567.784 354.42 562.709L354.714 563.076C348.225 562.352 342.783 561.744 338.854 561.306C336.983 561.081 335.477 560.9 334.344 560.764C333.293 560.63 332.719 560.547 332.696 560.519Z" fill="#444968"/>
<path d="M383.347 600.401C383.292 600.495 381.873 599.768 379.594 598.576C377.314 597.385 374.167 595.741 370.66 593.99C367.15 592.24 363.944 590.716 361.62 589.611C359.298 588.506 357.864 587.809 357.906 587.71C357.945 587.617 359.453 588.139 361.837 589.121C364.222 590.102 367.475 591.556 370.998 593.311C374.517 595.068 377.636 596.793 379.854 598.108C382.073 599.422 383.399 600.313 383.347 600.401Z" fill="#444968"/>
<path d="M382.283 606.781C382.252 606.863 381.132 606.557 379.459 605.718C377.789 604.885 375.598 603.454 373.554 601.447C371.514 599.432 370.05 597.263 369.193 595.606C368.329 593.945 368.006 592.831 368.089 592.799C368.307 592.68 370.067 596.996 374.088 600.906C378.055 604.865 382.398 606.559 382.283 606.781Z" fill="#444968"/>
<path d="M405.653 682.703C405.696 682.717 405.587 683.212 405.278 684.075C404.971 684.937 404.421 686.154 403.551 687.551C401.848 690.333 398.577 693.813 393.89 695.797C389.197 697.772 384.422 697.686 381.24 696.966C379.632 696.615 378.377 696.16 377.545 695.777C376.711 695.397 376.281 695.129 376.3 695.089C376.356 694.951 378.171 695.885 381.34 696.44C384.474 697.009 389.078 697 393.595 695.098C398.107 693.189 401.325 689.897 403.103 687.256C404.918 684.598 405.516 682.647 405.653 682.703Z" fill="#444968"/>
<path d="M400.21 680.464C400.248 680.542 399.089 681.203 397.046 681.86C395.012 682.526 392.077 683.103 388.811 683.219C385.545 683.358 382.595 683.051 380.491 682.731C378.385 682.395 377.111 682.046 377.128 681.954C377.164 681.695 382.352 682.701 388.78 682.462C391.988 682.347 394.863 681.868 396.897 681.345C398.939 680.831 400.162 680.351 400.21 680.464Z" fill="#444968"/>
<path d="M338.657 682.026C338.715 682.088 337.701 683.184 335.777 684.635C333.861 686.086 330.981 687.821 327.527 689.112C324.069 690.394 320.755 690.965 318.357 691.121C315.953 691.282 314.469 691.115 314.474 691.031C314.475 690.907 315.953 690.881 318.305 690.587C320.656 690.299 323.879 689.656 327.264 688.401C330.645 687.135 333.502 685.514 335.469 684.195C337.441 682.882 338.576 681.933 338.657 682.026Z" fill="#444968"/>
<path d="M331.4 681.707C331.446 681.891 328.051 682.682 323.808 682.33C319.562 682.005 316.336 680.687 316.41 680.512C316.478 680.292 319.733 681.259 323.868 681.574C328.001 681.92 331.368 681.48 331.4 681.707Z" fill="#444968"/>
<path d="M364.422 592.622C364.458 592.706 363.069 593.429 360.699 594.308C358.332 595.19 354.963 596.173 351.148 596.787C347.33 597.395 343.822 597.513 341.299 597.415C338.772 597.319 337.228 597.066 337.236 596.975C337.246 596.857 338.8 596.92 341.303 596.878C343.807 596.839 347.26 596.639 351.029 596.04C354.794 595.434 358.138 594.545 360.528 593.801C362.918 593.058 364.375 592.513 364.422 592.622Z" fill="#444968"/>
<path d="M362.162 584.14C362.37 584.138 362.549 584.788 362.561 585.59C362.572 586.392 362.411 587.046 362.201 587.05C361.992 587.054 361.813 586.405 361.803 585.6C361.792 584.795 361.953 584.141 362.162 584.14Z" fill="#444968"/>
<path d="M362.169 578.318C362.378 578.321 362.544 578.974 362.539 579.776C362.535 580.578 362.361 581.229 362.151 581.229C361.942 581.229 361.776 580.577 361.781 579.772C361.787 578.967 361.961 578.316 362.169 578.318Z" fill="#444968"/>
<path d="M362.288 572.499C362.496 572.506 362.65 573.161 362.629 573.963C362.608 574.765 362.422 575.412 362.214 575.408C362.005 575.404 361.851 574.748 361.872 573.943C361.893 573.14 362.079 572.493 362.288 572.499Z" fill="#444968"/>
<path d="M362.522 566.683C362.731 566.694 362.871 567.352 362.836 568.155C362.8 568.957 362.601 569.599 362.392 569.591C362.184 569.583 362.044 568.925 362.079 568.12C362.114 567.316 362.312 566.672 362.522 566.683Z" fill="#444968"/>
<path d="M362.867 560.872C363.075 560.886 363.203 561.548 363.152 562.349C363.101 563.15 362.889 563.789 362.681 563.777C362.472 563.764 362.345 563.103 362.396 562.3C362.447 561.498 362.658 560.858 362.867 560.872Z" fill="#444968"/>
<path d="M363.324 555.07C363.532 555.088 363.647 555.752 363.58 556.551C363.513 557.351 363.289 557.986 363.08 557.97C362.871 557.953 362.757 557.291 362.824 556.488C362.892 555.686 363.115 555.052 363.324 555.07Z" fill="#444968"/>
<path d="M363.783 550.317C363.992 550.34 364.118 550.772 364.066 551.283C364.014 551.794 363.803 552.193 363.594 552.172C363.386 552.153 363.26 551.72 363.311 551.206C363.365 550.694 363.576 550.296 363.783 550.317Z" fill="#444968"/>
<path d="M316.981 801.089C317.187 801.13 317.225 801.802 317.068 802.59C316.91 803.378 316.616 803.983 316.411 803.943C316.207 803.902 316.168 803.23 316.326 802.442C316.483 801.654 316.777 801.049 316.981 801.089Z" fill="#444968"/>
<path d="M318.124 795.383C318.328 795.424 318.367 796.096 318.209 796.884C318.051 797.672 317.757 798.277 317.553 798.236C317.347 798.196 317.309 797.524 317.466 796.735C317.624 795.947 317.918 795.341 318.124 795.383Z" fill="#444968"/>
<path d="M319.264 789.675C319.47 789.716 319.508 790.388 319.351 791.176C319.193 791.964 318.899 792.569 318.694 792.528C318.49 792.488 318.451 791.816 318.609 791.028C318.766 790.239 319.06 789.635 319.264 789.675Z" fill="#444968"/>
<path d="M320.407 783.969C320.611 784.009 320.651 784.681 320.494 785.47C320.336 786.258 320.042 786.864 319.837 786.822C319.633 786.781 319.594 786.109 319.75 785.321C319.907 784.533 320.201 783.927 320.407 783.969Z" fill="#444968"/>
<path d="M321.547 778.261C321.753 778.302 321.791 778.975 321.634 779.762C321.476 780.55 321.182 781.155 320.978 781.114C320.773 781.074 320.734 780.402 320.892 779.614C321.049 778.825 321.343 778.221 321.547 778.261Z" fill="#444968"/>
<path d="M322.691 772.555C322.896 772.595 322.934 773.267 322.777 774.056C322.621 774.844 322.325 775.449 322.121 775.408C321.915 775.367 321.877 774.695 322.034 773.907C322.191 773.119 322.485 772.513 322.691 772.555Z" fill="#444968"/>
<path d="M323.832 766.847C324.037 766.887 324.075 767.559 323.918 768.347C323.76 769.136 323.466 769.74 323.262 769.7C323.057 769.659 323.018 768.987 323.176 768.199C323.333 767.411 323.627 766.806 323.832 766.847Z" fill="#444968"/>
<path d="M324.974 761.141C325.18 761.181 325.217 761.853 325.061 762.642C324.902 763.43 324.608 764.035 324.404 763.994C324.198 763.953 324.16 763.281 324.317 762.493C324.474 761.705 324.768 761.099 324.974 761.141Z" fill="#444968"/>
<path d="M326.115 755.433C326.319 755.473 326.358 756.145 326.202 756.933C326.043 757.722 325.749 758.326 325.545 758.286C325.341 758.245 325.301 757.573 325.46 756.785C325.616 755.997 325.91 755.392 326.115 755.433Z" fill="#444968"/>
<path d="M327.257 749.726C327.463 749.767 327.5 750.439 327.344 751.227C327.185 752.015 326.891 752.62 326.687 752.579C326.481 752.539 326.443 751.867 326.602 751.079C326.757 750.29 327.051 749.684 327.257 749.726Z" fill="#444968"/>
<path d="M328.398 744.019C328.604 744.059 328.642 744.731 328.485 745.519C328.327 746.308 328.033 746.914 327.828 746.872C327.624 746.831 327.585 746.159 327.743 745.371C327.9 744.583 328.194 743.978 328.398 744.019Z" fill="#444968"/>
<path d="M329.54 738.312C329.746 738.353 329.784 739.025 329.627 739.813C329.469 740.601 329.175 741.206 328.97 741.165C328.765 741.125 328.727 740.453 328.884 739.665C329.04 738.876 329.334 738.27 329.54 738.312Z" fill="#444968"/>
<path d="M330.682 732.604C330.887 732.645 330.925 733.317 330.767 734.105C330.609 734.893 330.315 735.498 330.11 735.458C329.906 735.417 329.867 734.745 330.025 733.957C330.183 733.169 330.477 732.564 330.682 732.604Z" fill="#444968"/>
<path d="M331.824 726.896C332.03 726.937 332.068 727.609 331.91 728.397C331.751 729.185 331.457 729.79 331.253 729.75C331.049 729.709 331.009 729.037 331.168 728.249C331.324 727.462 331.618 726.856 331.824 726.896Z" fill="#444968"/>
<path d="M332.964 721.19C333.17 721.231 333.208 721.904 333.051 722.691C332.893 723.479 332.599 724.084 332.395 724.043C332.19 724.003 332.151 723.331 332.309 722.542C332.466 721.754 332.76 721.149 332.964 721.19Z" fill="#444968"/>
<path d="M334.107 715.482C334.313 715.523 334.351 716.195 334.194 716.983C334.036 717.771 333.742 718.376 333.537 718.336C333.333 718.295 333.294 717.623 333.452 716.835C333.607 716.048 333.901 715.442 334.107 715.482Z" fill="#444968"/>
<path d="M335.248 709.776C335.452 709.816 335.491 710.488 335.335 711.277C335.176 712.065 334.882 712.67 334.678 712.629C334.474 712.588 334.434 711.916 334.591 711.128C334.749 710.34 335.043 709.735 335.248 709.776Z" fill="#444968"/>
<path d="M336.39 704.068C336.596 704.109 336.634 704.781 336.477 705.569C336.319 706.357 336.025 706.962 335.82 706.922C335.616 706.881 335.577 706.209 335.735 705.421C335.89 704.634 336.184 704.028 336.39 704.068Z" fill="#444968"/>
<path d="M337.531 698.362C337.736 698.402 337.775 699.074 337.617 699.863C337.458 700.651 337.164 701.257 336.96 701.215C336.756 701.174 336.716 700.502 336.875 699.714C337.031 698.926 337.327 698.321 337.531 698.362Z" fill="#444968"/>
<path d="M338.674 692.654C338.88 692.694 338.918 693.366 338.761 694.155C338.603 694.943 338.309 695.548 338.105 695.507C337.9 695.466 337.861 694.794 338.019 694.006C338.175 693.219 338.469 692.613 338.674 692.654Z" fill="#444968"/>
<path d="M339.815 686.947C340.021 686.988 340.059 687.66 339.902 688.448C339.744 689.236 339.45 689.842 339.245 689.8C339.041 689.76 339.002 689.088 339.16 688.3C339.315 687.511 339.611 686.907 339.815 686.947Z" fill="#444968"/>
<path d="M340.958 681.24C341.164 681.28 341.201 681.952 341.045 682.741C340.886 683.529 340.592 684.134 340.388 684.093C340.184 684.052 340.144 683.38 340.301 682.592C340.458 681.805 340.752 681.199 340.958 681.24Z" fill="#444968"/>
<path d="M342.099 675.533C342.304 675.574 342.342 676.246 342.185 677.034C342.027 677.822 341.733 678.427 341.529 678.386C341.323 678.346 341.285 677.674 341.443 676.886C341.599 676.097 341.894 675.493 342.099 675.533Z" fill="#444968"/>
<path d="M343.241 669.826C343.447 669.866 343.484 670.54 343.328 671.326C343.169 672.115 342.875 672.719 342.671 672.679C342.467 672.638 342.427 671.966 342.586 671.178C342.741 670.391 343.035 669.785 343.241 669.826Z" fill="#444968"/>
<path d="M344.382 664.119C344.587 664.16 344.625 664.832 344.467 665.62C344.309 666.408 344.015 667.013 343.81 666.972C343.605 666.932 343.567 666.26 343.724 665.472C343.882 664.683 344.177 664.077 344.382 664.119Z" fill="#444968"/>
<path d="M345.524 658.411C345.73 658.452 345.768 659.124 345.611 659.912C345.453 660.7 345.159 661.305 344.954 661.264C344.75 661.224 344.711 660.552 344.869 659.764C345.024 658.977 345.318 658.371 345.524 658.411Z" fill="#444968"/>
<path d="M346.665 652.705C346.869 652.746 346.908 653.418 346.75 654.206C346.592 654.994 346.298 655.599 346.094 655.558C345.888 655.518 345.85 654.846 346.007 654.057C346.165 653.269 346.46 652.664 346.665 652.705Z" fill="#444968"/>
<path d="M347.806 646.997C348.012 647.038 348.05 647.71 347.893 648.498C347.735 649.286 347.441 649.891 347.236 649.85C347.032 649.81 346.993 649.138 347.151 648.349C347.308 647.563 347.602 646.956 347.806 646.997Z" fill="#444968"/>
<path d="M348.949 641.291C349.153 641.331 349.192 642.003 349.036 642.791C348.877 643.58 348.583 644.186 348.379 644.144C348.175 644.103 348.135 643.431 348.294 642.643C348.449 641.855 348.744 641.249 348.949 641.291Z" fill="#444968"/>
<path d="M350.091 635.583C350.297 635.624 350.334 636.296 350.176 637.084C350.018 637.872 349.724 638.478 349.52 638.436C349.315 638.396 349.276 637.724 349.434 636.935C349.591 636.149 349.885 635.542 350.091 635.583Z" fill="#444968"/>
<path d="M351.232 629.877C351.436 629.917 351.476 630.589 351.319 631.377C351.161 632.166 350.867 632.77 350.662 632.73C350.458 632.689 350.419 632.017 350.577 631.229C350.732 630.441 351.028 629.835 351.232 629.877Z" fill="#444968"/>
<path d="M352.374 624.168C352.578 624.209 352.618 624.881 352.459 625.669C352.301 626.457 352.007 627.062 351.803 627.022C351.598 626.981 351.559 626.309 351.717 625.521C351.874 624.733 352.168 624.128 352.374 624.168Z" fill="#444968"/>
<path d="M353.515 618.463C353.721 618.503 353.759 619.175 353.6 619.963C353.444 620.751 353.148 621.356 352.944 621.316C352.738 621.275 352.7 620.603 352.858 619.815C353.015 619.027 353.311 618.421 353.515 618.463Z" fill="#444968"/>
<path d="M354.658 612.754C354.862 612.795 354.901 613.467 354.745 614.255C354.586 615.043 354.292 615.65 354.088 615.608C353.884 615.567 353.844 614.895 354.003 614.107C354.158 613.32 354.452 612.714 354.658 612.754Z" fill="#444968"/>
<path d="M355.799 607.048C356.005 607.089 356.042 607.761 355.886 608.549C355.727 609.337 355.433 609.942 355.229 609.901C355.023 609.861 354.985 609.189 355.144 608.4C355.299 607.612 355.594 607.006 355.799 607.048Z" fill="#444968"/>
<path d="M356.941 601.34C357.145 601.381 357.185 602.053 357.028 602.841C356.87 603.629 356.576 604.234 356.371 604.194C356.167 604.153 356.128 603.481 356.286 602.693C356.441 601.905 356.735 601.3 356.941 601.34Z" fill="#444968"/>
<path d="M358.082 595.634C358.288 595.674 358.326 596.346 358.168 597.135C358.01 597.923 357.716 598.528 357.511 598.487C357.305 598.446 357.268 597.774 357.426 596.986C357.583 596.198 357.877 595.592 358.082 595.634Z" fill="#444968"/>
<path d="M472.202 419.632C472.202 419.632 481.889 405.109 482.146 404.982C482.146 404.982 490.891 390.257 493.797 390.254C496.722 390.251 495.655 393.237 492.653 398.514C490.021 403.138 489.755 406.026 489.755 406.026L496.937 410.364C496.937 410.364 501.734 408.507 501.934 412.979C502.001 414.474 501.606 416.325 501.108 419.051C500.817 420.642 500.096 422.341 498.594 421.741C497.905 421.467 497.342 420.936 497.308 419.944C497.216 417.298 497.71 416.328 497.373 416.326C496.942 416.325 492.204 430.203 492.204 430.203L472.202 419.632Z" fill="#FFBE9D"/>
<path d="M491.762 408.232C492.501 407.725 493.244 407.215 494.066 406.858C494.887 406.501 495.799 406.304 496.681 406.452C497.236 406.545 497.785 406.788 498.137 407.226C498.62 407.827 498.653 408.698 498.413 409.431C498.174 410.165 497.701 410.795 497.236 411.41" fill="#FFBE9D"/>
<path d="M488.485 405.301C489.185 404.824 489.891 404.343 490.669 404.007C491.448 403.671 492.312 403.485 493.147 403.624C493.672 403.711 494.192 403.939 494.526 404.353C494.984 404.919 495.014 405.739 494.787 406.429C494.559 407.121 492.995 408.723 492.555 409.302" fill="#FFBE9D"/>
<path d="M475.577 411.435L461.58 441.371L477.011 457.142L485.052 434.831C485.052 434.831 489.362 435.69 491.119 432.832C493.08 429.642 495.655 420.421 495.655 420.421L475.577 411.435Z" fill="#FFBE9D"/>
<path d="M485.579 410.608C485.428 410.562 485.778 408.557 487.235 406.469C487.977 405.435 488.921 404.731 489.635 404.345C490.353 403.953 490.843 403.823 490.888 403.909C491.021 404.132 489.212 405.028 487.846 406.918C486.505 408.822 485.813 410.708 485.579 410.608Z" fill="#EB996E"/>
<path d="M501.108 410.733C501.045 410.833 500.566 410.572 499.751 410.431C498.952 410.287 497.764 410.308 496.693 410.898C495.624 411.492 494.927 412.469 494.42 413.152C493.919 413.852 493.588 414.293 493.493 414.24C493.406 414.191 493.563 413.669 493.962 412.872C494.368 412.101 495.041 410.957 496.327 410.233C497.619 409.522 499.022 409.608 499.883 409.911C500.77 410.218 501.162 410.665 501.108 410.733Z" fill="#EB996E"/>
<path d="M495.896 406.511C495.937 406.738 494.167 407.037 492.608 408.444C491.043 409.827 490.274 411.453 490.06 411.346C489.889 411.303 490.365 409.433 492.108 407.874C492.973 407.113 493.957 406.682 494.685 406.523C495.419 406.362 495.884 406.418 495.896 406.511Z" fill="#EB996E"/>
<path d="M499.336 412.977C499.534 412.9 499.901 414.062 499.166 415.223C498.44 416.39 497.235 416.564 497.218 416.354C497.155 416.148 497.973 415.732 498.524 414.821C499.104 413.928 499.124 413.009 499.336 412.977Z" fill="#EB996E"/>
<path d="M472.236 419.049C472.236 419.049 471.747 410.116 473.906 408.093C476.065 406.07 482.253 408.171 482.253 408.171" fill="#FFBE9D"/>
<path d="M483.127 403.913C483.291 404.043 481.858 406.322 479.926 409.004C477.992 411.687 476.284 413.767 476.109 413.652C475.934 413.538 477.368 411.258 479.311 408.561C481.254 405.864 482.964 403.782 483.127 403.913Z" fill="#EB996E"/>
<path d="M359.204 336.182L358.991 405.896L388.901 407.323L389.766 390.366C389.766 390.366 400.389 392.476 403.13 382.608C404.882 376.306 404.444 327.601 404.444 327.601L359.204 336.182Z" fill="#FFBE9D"/>
<path d="M408.376 332.511C403.665 333.859 402.642 341.559 402.642 341.559L395.253 357.88C391.488 354.933 386.434 355.103 385.476 361.716C384.785 366.496 390.728 367.463 390.728 367.463C387.268 373.35 384.921 378.113 379.883 383.713C374.432 389.774 371.377 390.386 365.465 390.484H358.945C358.945 390.484 355.753 380.123 349.844 354.215C343.286 325.472 377.275 329.175 383.577 321.837C393.84 309.888 423.227 328.259 408.376 332.511Z" fill="#263238"/>
<path d="M350.466 356.924C344.957 353.224 344.46 342.868 347.673 336.659C350.888 330.45 357.653 326.243 364.643 326.107C365.578 326.089 366.543 326.134 367.415 325.797C368.708 325.297 369.546 324.072 370.391 322.973C375.315 316.571 380.153 310.28 389.33 310.282C390.821 310.282 392.471 310.282 395.1 311.713C396.409 312.425 398.255 314.842 398.565 316.299C400.29 315.481 402.045 314.654 403.932 314.368C405.82 314.083 407.892 314.413 409.317 315.682C410.742 316.951 411.271 319.287 410.164 320.841C413.256 320.645 416.188 323.205 416.675 326.266C417.162 329.326 412.776 331.478 412.32 331.716C412.32 331.716 414.728 336.756 408.986 339.777C406.675 340.994 403.669 339.528 403.328 339.351" fill="#263238"/>
<path d="M372.304 363.628C372.497 363.608 372.794 366.026 372.133 368.921C371.489 371.82 370.186 373.878 370.019 373.778C369.819 373.677 370.778 371.542 371.394 368.754C372.031 365.974 372.08 363.633 372.304 363.628Z" fill="#455A64"/>
<path d="M375.92 360.207C376.121 360.215 376.165 362.521 375.641 365.303C375.126 368.088 374.254 370.223 374.062 370.157C373.856 370.091 374.391 367.894 374.896 365.164C375.411 362.436 375.704 360.193 375.92 360.207Z" fill="#455A64"/>
<path d="M386.28 348.701C386.352 348.8 385.505 349.417 384.429 350.679C383.344 351.926 382.11 353.876 381.207 356.242C380.301 358.61 379.804 360.876 379.419 362.512C379.044 364.151 378.785 365.167 378.678 365.148C378.579 365.131 378.65 364.087 378.892 362.412C379.144 360.743 379.564 358.417 380.5 355.969C381.433 353.521 382.804 351.516 384.036 350.316C385.261 349.097 386.237 348.628 386.28 348.701Z" fill="#455A64"/>
<path d="M390.467 340.867C390.555 340.843 390.86 341.542 391.048 342.753C391.237 343.96 391.242 345.687 390.787 347.513C390.327 349.339 389.506 350.859 388.77 351.833C388.034 352.815 387.434 353.285 387.369 353.222C387.181 353.079 389.205 350.828 390.052 347.328C390.957 343.845 390.234 340.905 390.467 340.867Z" fill="#455A64"/>
<path d="M354.772 358.279C354.669 358.463 353.754 358.145 352.726 357.571C351.699 356.997 350.948 356.384 351.05 356.2C351.153 356.018 352.068 356.335 353.096 356.91C354.123 357.483 354.874 358.097 354.772 358.279Z" fill="#455A64"/>
<path d="M369.222 350.836C369.42 350.865 369.297 352.342 368.368 353.868C367.449 355.401 366.198 356.196 366.081 356.035C365.938 355.869 366.879 354.885 367.719 353.476C368.576 352.078 369.008 350.788 369.222 350.836Z" fill="#455A64"/>
<path d="M373.666 348.45C373.859 348.494 373.546 350.263 372.335 352.073C371.136 353.893 369.627 354.869 369.512 354.708C369.371 354.539 370.58 353.364 371.703 351.655C372.841 349.958 373.455 348.386 373.666 348.45Z" fill="#455A64"/>
<path d="M395.75 319.253C395.698 319.313 395.188 318.826 394.11 318.213C393.031 317.62 391.309 316.972 389.1 316.918C386.912 316.849 384.225 317.37 381.747 318.893C379.269 320.413 377.077 322.89 375.485 325.868C374.326 328.032 373.523 330.286 372.944 332.404L372.823 332.843L372.422 332.631C370.201 331.465 367.849 330.952 365.749 330.924C363.641 330.867 361.786 331.253 360.317 331.745C357.362 332.754 355.959 334.083 355.882 333.964C355.86 333.937 356.191 333.604 356.883 333.078C357.579 332.561 358.669 331.889 360.165 331.316C361.656 330.749 363.564 330.292 365.758 330.304C367.942 330.288 370.413 330.782 372.765 331.991L372.244 332.218C372.815 330.052 373.624 327.74 374.82 325.508C376.462 322.436 378.759 319.86 381.389 318.294C384.023 316.723 386.843 316.24 389.125 316.38C391.429 316.507 393.199 317.268 394.264 317.958C394.789 318.325 395.184 318.621 395.414 318.869C395.652 319.104 395.768 319.235 395.75 319.253Z" fill="#455A64"/>
<path d="M411.478 323.047C411.425 323.033 412.31 322.823 413.194 323.824C413.598 324.305 413.97 325.067 413.883 326.008C413.792 326.946 413.144 327.913 412.144 328.491C411.16 329.095 409.813 329.295 408.511 328.991C407.201 328.706 405.942 328.011 404.762 327.174C403.574 326.342 402.431 325.376 401.096 324.661C399.763 323.937 398.262 323.409 396.677 323.108C393.494 322.515 390.331 322.873 387.66 323.726C384.973 324.587 382.743 325.88 380.994 327.114C377.503 329.624 375.779 331.725 375.673 331.616C375.638 331.585 376.037 331.044 376.856 330.142C377.682 329.252 378.931 327.996 380.678 326.68C382.42 325.368 384.678 323.989 387.443 323.061C390.199 322.14 393.485 321.742 396.817 322.362C398.476 322.677 400.053 323.237 401.453 324.009C402.867 324.78 404.022 325.782 405.167 326.603C406.304 327.434 407.467 328.092 408.65 328.377C409.827 328.675 410.988 328.525 411.877 328.024C412.77 327.545 413.35 326.729 413.462 325.953C413.575 325.165 413.292 324.461 412.962 324.004C412.251 323.055 411.439 323.131 411.478 323.047Z" fill="#455A64"/>
<path d="M327.361 413.197L300.649 458.057C297.66 463.289 294.894 468.87 292.255 474.652C290.125 480.191 291.356 487.422 295.074 492.02L294.32 490.934C297.282 494.597 301.741 496.727 306.453 496.727H307.144C313.354 496.727 318.972 493.045 321.45 487.35L330.032 474.327L327.361 413.197Z" fill="#E8505B"/>
<path d="M407.96 404.626C400.79 400.964 393.71 400.137 385.985 399.911C376.99 399.649 364.308 398.391 354.615 399.421C354.615 399.421 326.996 401.465 325.078 420.393L328.849 509.293L322.525 546.96L411.039 549.634L410.405 505.197C411.498 482.076 409.164 449.337 409.164 449.337C410.527 436.908 417.328 431.312 418.294 423.23C419.146 416.084 414.37 407.9 407.96 404.626Z" fill="#E15D58"/>
<path d="M383.014 510.571C383.043 510.605 382.598 511.064 381.712 511.805C380.827 512.547 379.472 513.538 377.677 514.571C374.119 516.647 368.58 518.729 362.204 518.841C355.827 518.954 350.216 517.069 346.587 515.12C344.757 514.15 343.367 513.209 342.457 512.498C341.544 511.789 341.084 511.347 341.112 511.312C341.2 511.19 343.158 512.85 346.828 514.641C350.462 516.437 355.966 518.193 362.19 518.082C368.412 517.972 373.849 516.024 377.418 514.101C381.021 512.18 382.923 510.452 383.014 510.571Z" fill="#263238"/>
<path d="M324.943 421.41C324.969 421.408 325.003 421.706 325.046 422.275C325.085 422.924 325.134 423.748 325.196 424.758C325.301 427.018 325.445 430.115 325.622 433.899C325.948 441.708 326.393 452.326 326.884 464.058C327.416 475.79 327.897 486.406 328.251 494.214C328.444 497.995 328.601 501.092 328.716 503.35C328.759 504.362 328.794 505.186 328.822 505.837C328.837 506.405 328.833 506.706 328.808 506.707C328.781 506.71 328.735 506.413 328.671 505.848C328.606 505.2 328.524 504.379 328.423 503.371C328.216 501.219 327.986 498.102 327.717 494.246C327.192 486.535 326.627 475.874 326.13 464.09C325.631 452.312 325.287 441.642 325.09 433.919C325.013 430.132 324.951 427.031 324.905 424.77C324.902 423.756 324.899 422.931 324.896 422.28C324.899 421.711 324.916 421.411 324.943 421.41Z" fill="#263238"/>
<path d="M319.401 426.116C319.423 426.129 319.318 426.367 319.095 426.808C318.825 427.322 318.495 427.954 318.092 428.722C317.198 430.371 315.87 432.74 314.166 435.629C310.806 441.436 305.753 449.213 300.648 458.056C298.097 462.473 295.932 466.845 294.058 470.839C292.199 474.829 291.24 478.744 291.485 482.057C291.672 485.368 292.655 487.942 293.534 489.564C294.411 491.206 295.136 491.968 295.073 492.018C295.053 492.035 294.87 491.852 294.537 491.482C294.215 491.104 293.761 490.525 293.278 489.71C292.302 488.101 291.213 485.494 290.95 482.092C290.625 478.685 291.571 474.604 293.421 470.555C295.276 466.51 297.423 462.126 299.991 457.681C305.118 448.803 310.235 441.084 313.71 435.353C315.408 432.565 316.804 430.273 317.838 428.575C318.29 427.835 318.661 427.228 318.964 426.732C319.228 426.316 319.378 426.104 319.401 426.116Z" fill="#263238"/>
<path d="M482.213 450.521L461.731 437.125L448.805 459.518C448.805 459.518 430.882 434.608 422.741 420.013C415.249 406.58 405.555 402.962 400.878 401.989C399.496 401.701 398.243 402.851 398.395 404.254L405.46 452.691C406.349 455.213 421.133 476.645 429.396 487.43C443.184 505.429 463.5 493.91 469.079 481.312C473.507 471.314 480.399 456.123 482.213 450.521Z" fill="#E8505B"/>
<path d="M454.694 479.729C454.586 479.734 454.463 478.507 454.302 476.533C454.131 474.562 453.929 471.833 453.313 468.905C452.699 465.976 451.674 463.45 450.698 461.756C449.735 460.051 448.919 459.128 449.011 459.046C449.068 458.984 450.041 459.791 451.156 461.478C452.28 463.149 453.425 465.741 454.055 468.746C454.687 471.749 454.804 474.52 454.838 476.507C454.86 478.497 454.794 479.725 454.694 479.729Z" fill="#263238"/>
<path d="M460.688 469.721C460.568 469.731 460.47 468.682 459.96 467.099C459.451 465.528 458.437 463.417 456.684 461.606C454.958 459.774 452.861 458.659 451.238 458.627C449.603 458.543 448.696 459.198 448.641 459.085C448.564 459.042 449.424 458.154 451.244 458.092C453.063 457.983 455.424 459.154 457.23 461.083C459.09 463.004 460.081 465.283 460.476 466.954C460.872 468.643 460.775 469.721 460.688 469.721Z" fill="#263238"/>
<path d="M399.544 407.971C399.561 407.991 399.39 408.187 399.052 408.54C398.863 408.733 398.656 408.946 398.422 409.184C398.184 409.469 397.924 409.784 397.638 410.129C396.502 411.568 395.008 413.843 394.092 417.014C393.116 420.15 392.73 424.14 393.315 428.449C393.615 430.601 394.143 432.838 395.075 435C395.981 437.188 397.181 439.357 398.386 441.576C403.401 450.379 408.563 457.999 412.295 463.495C414.144 466.154 415.665 468.339 416.792 469.959C417.861 471.48 418.465 472.314 418.419 472.35C418.398 472.366 418.221 472.178 417.903 471.804C417.586 471.431 417.124 470.873 416.555 470.136C415.402 468.673 413.794 466.51 411.855 463.802C408.003 458.373 402.765 450.796 397.724 441.945C396.509 439.707 395.309 437.527 394.389 435.285C393.436 433.044 392.909 430.742 392.622 428.54C392.062 424.125 392.516 420.045 393.58 416.853C394.585 413.626 396.187 411.34 397.412 409.937C397.721 409.604 398.002 409.3 398.259 409.024C398.513 408.803 398.74 408.604 398.946 408.425C399.324 408.109 399.527 407.952 399.544 407.971Z" fill="#263238"/>
<path d="M399.596 536.668C399.605 536.693 399.389 536.785 398.972 536.938C398.466 537.113 397.86 537.323 397.132 537.575C396.333 537.85 395.347 538.168 394.187 538.478C393.027 538.794 391.717 539.194 390.237 539.512C387.299 540.236 383.75 540.897 379.782 541.432C375.809 541.922 371.413 542.259 366.79 542.288C362.166 542.286 357.767 541.972 353.79 541.504C349.818 540.992 346.266 540.352 343.323 539.644C341.842 539.334 340.529 538.941 339.368 538.632C338.205 538.329 337.219 538.017 336.417 537.746C335.688 537.498 335.08 537.292 334.573 537.12C334.155 536.969 333.939 536.878 333.948 536.852C333.956 536.827 334.187 536.871 334.619 536.974C335.135 537.109 335.756 537.27 336.5 537.463C337.312 537.691 338.306 537.96 339.475 538.221C340.641 538.492 341.957 538.846 343.438 539.12C346.381 539.757 349.921 540.34 353.871 540.81C357.826 541.236 362.194 541.526 366.786 541.53C371.376 541.5 375.742 541.187 379.694 540.737C383.64 540.244 387.177 539.643 390.117 538.989C391.597 538.706 392.91 538.343 394.075 538.068C395.242 537.799 396.235 537.523 397.045 537.29C397.789 537.093 398.409 536.928 398.924 536.791C399.355 536.687 399.588 536.642 399.596 536.668Z" fill="#263238"/>
<g opacity="0.3">
<path d="M323.345 484.477L327.343 478.273L325.257 429.42L323.345 484.477Z" fill="black"/>
</g>
<g opacity="0.3">
<path d="M392.381 426.115C392.381 426.115 392.51 443.919 396.626 450.971C400.74 458.023 410.368 473.263 410.334 472.353C410.302 471.443 409.786 459.788 409.786 459.788C409.786 459.788 392.465 436.08 392.381 426.115Z" fill="black"/>
</g>
<path d="M319.808 485.961C319.819 485.989 319.388 486.21 318.53 486.33C317.679 486.455 316.387 486.396 314.925 485.865C313.466 485.339 311.872 484.332 310.448 482.865C309.02 481.39 307.841 479.483 306.714 477.468C305.59 475.452 304.573 473.515 303.414 471.93C302.259 470.344 300.981 469.096 299.763 468.263C297.299 466.555 295.293 466.666 295.331 466.516C295.329 466.484 295.805 466.407 296.659 466.524C297.51 466.638 298.731 467.013 300.046 467.832C301.358 468.648 302.728 469.91 303.953 471.529C305.184 473.152 306.231 475.106 307.35 477.111C308.467 479.11 309.604 480.977 310.934 482.402C312.264 483.826 313.752 484.827 315.11 485.385C317.885 486.544 319.812 485.8 319.808 485.961Z" fill="white"/>
<path d="M325.225 455.283C325.1 455.318 324.796 454.226 323.941 452.651C323.097 451.077 321.589 449.071 319.418 447.422C317.236 445.782 314.896 444.881 313.15 444.498C311.403 444.106 310.269 444.112 310.269 443.983C310.262 443.912 311.407 443.719 313.248 443.992C315.079 444.255 317.575 445.123 319.857 446.839C322.131 448.564 323.648 450.728 324.402 452.418C325.167 454.115 325.295 455.271 325.225 455.283Z" fill="white"/>
<path d="M392.706 429.063C392.69 429.135 391.746 428.88 390.006 428.739C388.27 428.6 385.72 428.659 382.689 429.405C379.656 430.126 376.182 431.508 372.537 433.465C368.869 435.382 364.986 437.818 360.59 439.828C356.206 441.879 351.619 442.918 347.44 443.175C343.247 443.411 339.466 442.921 336.4 442.148C333.324 441.391 330.958 440.369 329.389 439.569C328.591 439.193 328.011 438.823 327.611 438.589C327.213 438.35 327.011 438.214 327.024 438.191C327.058 438.13 327.909 438.605 329.51 439.312C331.105 440.026 333.472 440.963 336.52 441.645C339.56 442.344 343.284 442.771 347.398 442.505C351.506 442.211 355.97 441.183 360.291 439.163C364.625 437.182 368.516 434.767 372.227 432.867C375.919 430.927 379.475 429.568 382.576 428.9C385.677 428.205 388.284 428.225 390.037 428.453C390.914 428.569 391.589 428.704 392.036 428.837C392.482 428.963 392.713 429.04 392.706 429.063Z" fill="white"/>
<path d="M409.914 477.501C409.921 477.525 409.644 477.617 409.107 477.771C408.566 477.903 407.784 478.188 406.736 478.36C404.663 478.818 401.584 479.164 397.783 479.072C393.98 478.995 389.481 478.335 384.594 477.217C379.704 476.097 374.433 474.494 368.903 472.868C363.376 471.254 358.028 469.995 353.091 469.354C348.158 468.737 343.644 468.689 339.928 469.251C336.211 469.79 333.288 470.733 331.374 471.604C329.451 472.452 328.437 473.046 328.398 472.979C328.385 472.958 328.629 472.797 329.109 472.511C329.601 472.251 330.277 471.758 331.257 471.345C333.152 470.387 336.092 469.353 339.851 468.741C343.612 468.107 348.186 468.1 353.174 468.688C358.165 469.297 363.556 470.547 369.107 472.168C374.646 473.796 379.896 475.413 384.747 476.563C389.596 477.709 394.041 478.415 397.802 478.556C401.559 478.713 404.611 478.45 406.685 478.082C408.761 477.728 409.896 477.431 409.914 477.501Z" fill="white"/>
<path d="M410.405 505.197C410.338 505.431 406.255 502.793 398.758 502.058C395.04 501.652 390.561 501.872 385.653 502.512C380.74 503.18 375.394 504.305 369.748 505.365C364.104 506.419 358.695 507.349 353.719 507.783C348.748 508.229 344.22 508.197 340.469 507.695C336.717 507.207 333.748 506.381 331.782 505.611C330.781 505.277 330.058 504.876 329.547 504.662C329.044 504.427 328.785 504.294 328.796 504.272C328.824 504.206 329.894 504.673 331.878 505.345C333.857 506.027 336.813 506.768 340.531 507.184C344.249 507.615 348.727 507.594 353.659 507.114C358.595 506.646 363.975 505.702 369.616 504.648C375.248 503.59 380.616 502.481 385.568 501.845C390.518 501.238 395.053 501.07 398.816 501.546C402.578 501.997 405.544 502.883 407.479 503.731C408.472 504.094 409.173 504.539 409.676 504.771C410.164 505.029 410.416 505.175 410.405 505.197Z" fill="white"/>
<path d="M364.899 540.891C364.868 540.931 364.371 540.614 363.502 540.011C362.637 539.4 361.372 538.535 359.795 537.492C356.643 535.403 352.172 532.693 346.989 530.167C341.8 527.649 336.907 525.804 333.318 524.614C331.524 524.017 330.063 523.557 329.048 523.253C328.036 522.942 327.48 522.746 327.492 522.697C327.505 522.648 328.083 522.75 329.121 522.978C330.161 523.198 331.649 523.585 333.472 524.122C337.119 525.19 342.079 526.974 347.307 529.512C352.527 532.057 356.993 534.859 360.084 537.068C361.633 538.171 362.855 539.104 363.671 539.785C364.492 540.46 364.93 540.852 364.899 540.891Z" fill="white"/>
<path d="M407.995 540.416C408.033 540.484 406.975 541.188 405.054 541.892C403.142 542.599 400.33 543.205 397.197 543.113C394.063 543.011 391.295 542.232 389.43 541.409C387.557 540.587 386.543 539.819 386.585 539.754C386.647 539.646 387.743 540.25 389.619 540.929C391.489 541.612 394.183 542.284 397.22 542.385C400.255 542.472 402.985 541.969 404.894 541.402C406.81 540.841 407.941 540.306 407.995 540.416Z" fill="white"/>
<path d="M438.633 447.993C438.667 447.996 438.684 448.451 438.471 449.236C438.262 450.019 437.761 451.115 436.834 452.243C435.909 453.37 434.561 454.494 432.899 455.444C431.233 456.397 429.283 457.142 427.285 457.959C425.291 458.777 423.424 459.641 421.962 460.744C420.502 461.849 419.432 463.153 418.797 464.378C417.479 466.879 418.059 468.745 417.901 468.731C417.871 468.739 417.686 468.321 417.629 467.506C417.567 466.697 417.717 465.483 418.335 464.15C418.948 462.822 420.036 461.408 421.553 460.212C423.079 459.014 424.996 458.112 427.009 457.286C429.022 456.463 430.953 455.745 432.573 454.857C434.194 453.974 435.515 452.938 436.445 451.906C438.345 449.824 438.493 447.94 438.633 447.993Z" fill="white"/>
<path d="M421.433 418.279C421.482 418.292 421.395 418.741 421.196 419.549C421.104 419.955 420.971 420.447 420.764 421.001C420.562 421.557 420.366 422.205 420.043 422.877C419.47 424.255 418.616 425.82 417.521 427.463C416.394 429.085 415.008 430.769 413.356 432.342C411.683 433.896 409.918 435.177 408.231 436.202C406.523 437.195 404.907 437.951 403.499 438.438C402.809 438.719 402.149 438.876 401.584 439.043C401.018 439.216 400.52 439.319 400.108 439.386C399.289 439.534 398.835 439.593 398.826 439.544C398.796 439.408 400.599 439.06 403.313 437.958C404.673 437.419 406.232 436.629 407.882 435.628C409.513 434.594 411.224 433.328 412.856 431.812C414.471 430.275 415.837 428.645 416.97 427.081C418.07 425.495 418.952 423.989 419.574 422.663C420.841 420.021 421.3 418.242 421.433 418.279Z" fill="white"/>
<path d="M394.484 399.912C394.502 399.958 393.78 400.281 392.452 400.826C391.131 401.384 389.175 402.084 386.726 402.849C384.281 403.626 381.315 404.385 377.989 405.065C374.656 405.709 370.957 406.251 367.048 406.552C363.136 406.825 359.397 406.829 356.005 406.679C352.614 406.492 349.57 406.172 347.038 405.762C344.504 405.363 342.467 404.956 341.078 404.596C339.686 404.252 338.923 404.037 338.935 403.988C338.946 403.939 339.73 404.06 341.135 404.317C342.537 404.59 344.579 404.919 347.109 405.251C349.638 405.594 352.666 405.859 356.034 406.007C359.404 406.119 363.113 406.095 366.995 405.824C370.873 405.526 374.545 405.008 377.862 404.406C381.171 403.767 384.128 403.064 386.579 402.355C389.032 401.657 391.006 401.034 392.353 400.558C393.707 400.099 394.466 399.865 394.484 399.912Z" fill="white"/>
<path d="M449.494 460.85C449.534 460.838 449.744 461.332 449.989 462.269C450.238 463.202 450.501 464.59 450.591 466.322C450.834 469.796 450.171 474.562 449.214 479.707C448.75 482.291 448.184 484.765 447.31 486.903C446.454 489.046 445.278 490.817 444.058 492.07C442.847 493.342 441.615 494.092 440.729 494.491C439.837 494.89 439.302 494.98 439.291 494.943C439.211 494.809 441.411 494.273 443.679 491.72C444.806 490.466 445.888 488.745 446.685 486.655C447.497 484.569 448.034 482.146 448.496 479.575C449.452 474.428 450.183 469.752 450.075 466.34C450.025 462.929 449.354 460.884 449.494 460.85Z" fill="white"/>
<path d="M477.56 464.439C477.439 464.495 476.781 463.009 475.312 460.879C473.855 458.746 471.462 456.039 468.232 453.772C464.991 451.52 461.626 450.205 459.121 449.571C456.614 448.925 454.994 448.819 455.005 448.686C455.008 448.636 455.414 448.627 456.149 448.657C456.885 448.671 457.948 448.805 459.239 449.068C460.535 449.322 462.046 449.784 463.667 450.44C465.274 451.128 466.985 452.026 468.649 453.174C470.3 454.342 471.732 455.638 472.931 456.911C474.105 458.207 475.059 459.466 475.743 460.596C476.436 461.717 476.928 462.669 477.194 463.355C477.475 464.034 477.607 464.418 477.56 464.439Z" fill="white"/>
<g opacity="0.3">
<path d="M395.292 537.772C396.755 537.113 397.189 535.115 396.272 533.961C395.355 532.808 393.713 532.55 392.239 532.58C385.008 532.722 378.695 537.562 371.58 538.861C366.168 539.851 360.59 538.735 355.325 537.138C350.06 535.541 344.923 533.456 339.516 532.435C338.386 532.223 337.208 532.057 336.097 532.357C334.987 532.657 333.958 533.533 333.818 534.675C333.678 535.816 333.947 536.662 335.649 537.244C335.649 537.244 353.554 542.221 366.518 542.028C380.272 541.822 395.292 537.772 395.292 537.772Z" fill="black"/>
</g>
<path d="M795.723 825.333C795.723 825.535 663.313 825.697 500.014 825.697C336.658 825.697 204.276 825.533 204.276 825.333C204.276 825.133 336.659 824.969 500.014 824.969C663.313 824.969 795.723 825.133 795.723 825.333Z" fill="#263238"/>
</svg>
