<svg width="239" height="240" viewBox="0 0 239 240" fill="none" xmlns="http://www.w3.org/2000/svg">
<path d="M207.026 83.6411C207.026 75.9561 200.775 69.7051 193.09 69.7051C185.405 69.7051 179.154 75.9561 179.154 83.6411C179.154 91.3261 185.405 97.5771 193.09 97.5771C200.775 97.5771 207.026 91.3251 207.026 83.6411ZM184.155 83.6411C184.155 78.7141 188.164 74.7051 193.091 74.7051C198.018 74.7051 202.027 78.7141 202.027 83.6411C202.027 88.5681 198.018 92.5771 193.091 92.5771C188.164 92.5771 184.155 88.5671 184.155 83.6411Z" fill="#05D06D"/>
<path d="M59.8451 83.6411C59.8451 75.9561 53.5941 69.7051 45.9091 69.7051C38.2241 69.7051 31.9731 75.9561 31.9731 83.6411C31.9731 91.3261 38.2241 97.5771 45.9091 97.5771C53.5941 97.5771 59.8451 91.3251 59.8451 83.6411ZM36.9741 83.6411C36.9741 78.7141 40.9831 74.7051 45.9101 74.7051C50.8371 74.7051 54.8461 78.7141 54.8461 83.6411C54.8461 88.5681 50.8371 92.5771 45.9101 92.5771C40.9831 92.5771 36.9741 88.5671 36.9741 83.6411Z" fill="#05D06D"/>
<path d="M133.436 207.658C133.436 199.973 127.185 193.722 119.5 193.722C111.815 193.722 105.564 199.973 105.564 207.658C105.564 215.343 111.815 221.594 119.5 221.594C127.185 221.594 133.436 215.343 133.436 207.658ZM110.564 207.658C110.564 202.731 114.573 198.722 119.5 198.722C124.427 198.722 128.436 202.731 128.436 207.658C128.436 212.585 124.427 216.594 119.5 216.594C114.573 216.594 110.564 212.585 110.564 207.658Z" fill="#05D06D"/>
<path d="M45.2612 150.962C43.9322 150.608 42.5582 151.402 42.2032 152.736L37.8322 169.192C37.6612 169.833 37.7532 170.515 38.0862 171.088C38.4192 171.661 38.9662 172.079 39.6072 172.249L56.0632 176.619C56.2782 176.677 56.4942 176.704 56.7072 176.704C57.8122 176.704 58.8242 175.964 59.1212 174.845C59.4752 173.511 58.6822 172.142 57.3472 171.787L46.7712 168.978L67.8332 156.817L118.251 185.926C118.638 186.15 119.069 186.261 119.501 186.261C119.933 186.261 120.364 186.15 120.751 185.926L171.169 156.817L192.231 168.978L181.655 171.787C180.32 172.141 179.526 173.511 179.881 174.845C180.178 175.964 181.19 176.704 182.295 176.704C182.508 176.704 182.724 176.677 182.939 176.619L199.395 172.249C200.036 172.079 200.583 171.661 200.916 171.088C201.249 170.515 201.341 169.832 201.17 169.192L196.799 152.736C196.445 151.402 195.072 150.606 193.741 150.962C192.406 151.316 191.612 152.686 191.967 154.02L194.801 164.689L173.758 152.54V94.119C173.758 93.225 173.281 92.4 172.508 91.954L122.155 62.883V42.483L129.926 50.254C130.414 50.742 131.054 50.986 131.694 50.986C132.334 50.986 132.973 50.742 133.462 50.254C134.439 49.277 134.439 47.695 133.462 46.719L121.421 34.68C120.444 33.703 118.862 33.703 117.886 34.68L105.846 46.719C104.869 47.695 104.869 49.278 105.846 50.254C106.823 51.23 108.405 51.231 109.381 50.254L117.153 42.482V62.705L66.4942 91.953C65.7212 92.399 65.2442 93.224 65.2442 94.118V152.539L44.2012 164.688L47.0352 154.019C47.3902 152.686 46.5962 151.316 45.2612 150.962ZM168.756 149.653L145.361 136.146C144.169 135.457 142.636 135.866 141.946 137.061C141.256 138.256 141.666 139.786 142.861 140.476L166.168 153.933L121.999 179.433V125.444L168.755 98.449L168.756 149.653ZM117.153 68.479V94.475C117.153 95.856 118.272 96.975 119.653 96.975C121.034 96.975 122.153 95.856 122.153 94.475V68.656L166.256 94.119L119.5 121.113L72.7442 94.118L117.153 68.479ZM70.2442 98.449L117 125.444V179.433L72.8312 153.933L96.1382 140.476C97.3332 139.786 97.7432 138.256 97.0532 137.061C96.3622 135.866 94.8312 135.457 93.6382 136.146L70.2432 149.653V98.449H70.2442Z" fill="#05D06D"/>
<path d="M118.25 181.928C118.637 182.152 119.068 182.263 119.5 182.263C119.932 182.263 120.363 182.152 120.75 181.928L172.506 152.047C173.279 151.601 173.756 150.776 173.756 149.882V90.1176C173.756 89.2236 173.279 88.3986 172.506 87.9526L120.75 58.0716C119.977 57.6246 119.023 57.6246 118.25 58.0716L66.4941 87.9526C65.7211 88.3986 65.2441 89.2236 65.2441 90.1176V149.882C65.2441 150.776 65.7211 151.601 66.4941 152.047L118.25 181.928ZM70.2441 91.5616L119.5 63.1236L168.756 91.5616V148.439L119.5 176.876L70.2441 148.438V91.5616Z" fill="#05D06D"/>
<path d="M118.25 122.164C118.637 122.388 119.068 122.499 119.5 122.499C119.932 122.499 120.363 122.388 120.75 122.164L169.836 93.8244C171.031 93.1344 171.441 91.6045 170.751 90.4095C170.061 89.2135 168.529 88.8044 167.336 89.4944L119.5 117.112L72.0042 89.6904C70.8102 89.0014 69.2792 89.4094 68.5892 90.6054C67.8992 91.8004 68.3092 93.3305 69.5042 94.0205L118.25 122.164Z" fill="#05D06D"/>
<path d="M122 175.757V120C122 118.619 120.881 117.5 119.5 117.5C118.119 117.5 117 118.619 117 120V175.757C117 177.138 118.119 178.257 119.5 178.257C120.881 178.257 122 177.138 122 175.757Z" fill="#05D06D"/>
<path d="M118.25 181.927C118.637 182.151 119.068 182.262 119.5 182.262C119.932 182.262 120.363 182.151 120.75 181.927L172.506 152.046C173.279 151.6 173.756 150.775 173.756 149.881V90.1173C173.756 89.2233 173.279 88.3983 172.506 87.9523L120.75 58.0713C120.363 57.8473 119.932 57.7363 119.5 57.7363C119.068 57.7363 118.637 57.8483 118.25 58.0713L66.4941 87.9523C65.7211 88.3983 65.2441 89.2233 65.2441 90.1173V149.881C65.2441 150.775 65.7211 151.6 66.4941 152.046L118.25 181.927ZM66.7441 90.1173C66.7441 89.7613 66.9351 89.4293 67.2441 89.2513L119.001 59.3703C119.152 59.2823 119.325 59.2363 119.5 59.2363C119.675 59.2363 119.848 59.2823 120 59.3713L171.756 89.2523C172.064 89.4303 172.256 89.7623 172.256 90.1183V149.882C172.256 150.238 172.065 150.57 171.756 150.748L119.999 180.629C119.848 180.716 119.676 180.763 119.5 180.763C119.324 180.763 119.152 180.717 119 180.629L67.2441 150.748C66.9361 150.57 66.7441 150.238 66.7441 149.882V90.1173Z" fill="#05D06D"/>
<path d="M120.5 121.442V175.431C120.5 175.967 120.786 176.462 121.25 176.73C121.482 176.864 121.741 176.931 122 176.931C122.259 176.931 122.518 176.864 122.75 176.73L169.506 149.736C169.97 149.468 170.256 148.973 170.256 148.437V94.4473C170.256 93.9113 169.97 93.4163 169.506 93.1483C169.274 93.0143 169.015 92.9473 168.756 92.9473C168.497 92.9473 168.238 93.0143 168.006 93.1483L121.25 120.143C120.786 120.411 120.5 120.906 120.5 121.442ZM122 121.442L168.756 94.4473V148.437L122 175.432V121.442Z" fill="#05D06D"/>
<path d="M69.4941 149.737L116.25 176.731C116.482 176.865 116.741 176.932 117 176.932C117.259 176.932 117.518 176.865 117.75 176.731C118.214 176.463 118.5 175.968 118.5 175.432V121.443C118.5 120.907 118.214 120.412 117.75 120.144L70.9941 93.1492C70.7621 93.0152 70.5031 92.9482 70.2441 92.9482C69.9851 92.9482 69.7261 93.0152 69.4941 93.1492C69.0301 93.4172 68.7441 93.9122 68.7441 94.4482V148.438C68.7441 148.973 69.0301 149.468 69.4941 149.737ZM70.2441 94.4482L117 121.443V175.432L70.2441 148.438V94.4482Z" fill="#05D06D"/>
<path d="M122.153 90.4744V35.6504C122.153 34.2694 121.034 33.1504 119.653 33.1504C118.272 33.1504 117.153 34.2694 117.153 35.6504V90.4734C117.153 91.8544 118.272 92.9734 119.653 92.9734C121.034 92.9734 122.153 91.8544 122.153 90.4744Z" fill="#05D06D"/>
</svg>
