<svg width="154" height="164" viewBox="0 0 154 164" fill="none" xmlns="http://www.w3.org/2000/svg">
<path d="M79.1456 8.41992H74.2466V40.5679H79.1456V8.41992Z" fill="url(#paint0_linear_48_2480)"/>
<path d="M93.6137 58.3257H59.7797C57.2847 58.3257 55.2627 56.3037 55.2627 53.8087V41.7167C55.2627 39.2217 57.2847 37.1997 59.7797 37.1997H93.6137C96.1087 37.1997 98.1307 39.2217 98.1307 41.7167V53.8087C98.1297 56.3037 96.1077 58.3257 93.6137 58.3257Z" fill="url(#paint1_linear_48_2480)"/>
<path d="M153.393 128.593C153.393 148.123 137.56 163.956 118.03 163.956H35.363C15.913 163.956 0 148.043 0 128.593V110.223C0 75.6177 28.313 47.3037 62.919 47.3037H90.475C125.08 47.3037 153.394 75.6167 153.394 110.223L153.393 128.593Z" fill="url(#paint2_linear_48_2480)"/>
<path d="M129.266 125.244C127.259 126.236 125.009 126.756 122.723 126.756H30.6707C28.3847 126.756 26.1347 126.236 24.1277 125.244C19.1977 122.807 16.4157 117.886 17.1117 112.838L17.1627 112.471C19.5217 95.3718 35.0077 82.2258 53.9937 81.2378C62.0267 80.8198 70.4567 80.6038 79.2497 80.6548C86.1377 80.6948 92.7957 80.8968 99.2067 81.2268C118.265 82.2088 133.865 95.3028 136.233 112.467C136.25 112.59 136.267 112.714 136.284 112.837C136.979 117.886 134.196 122.807 129.266 125.244Z" fill="url(#paint3_linear_48_2480)"/>
<path d="M52.4356 122.988C62.0222 122.988 69.7937 115.217 69.7937 105.63C69.7937 96.0434 62.0222 88.272 52.4356 88.272C42.8491 88.272 35.0776 96.0434 35.0776 105.63C35.0776 115.217 42.8491 122.988 52.4356 122.988Z" fill="url(#paint4_radial_48_2480)"/>
<path d="M52.4356 118.089C59.3165 118.089 64.8946 112.511 64.8946 105.63C64.8946 98.749 59.3165 93.1709 52.4356 93.1709C45.5546 93.1709 39.9766 98.749 39.9766 105.63C39.9766 112.511 45.5546 118.089 52.4356 118.089Z" fill="#EEFDFF"/>
<path d="M52.4357 116.094C58.2148 116.094 62.8997 111.409 62.8997 105.63C62.8997 99.8509 58.2148 95.166 52.4357 95.166C46.6566 95.166 41.9717 99.8509 41.9717 105.63C41.9717 111.409 46.6566 116.094 52.4357 116.094Z" fill="url(#paint5_linear_48_2480)"/>
<path d="M59.1387 102.918C59.1387 105.059 57.4037 106.794 55.2627 106.794C53.1217 106.794 51.3867 105.058 51.3867 102.918C51.3867 100.778 53.1217 99.042 55.2627 99.042C57.4037 99.042 59.1387 100.778 59.1387 102.918Z" fill="#EEFDFF"/>
<path d="M50.8885 115.202C51.7429 115.202 52.4355 114.509 52.4355 113.655C52.4355 112.801 51.7429 112.108 50.8885 112.108C50.0342 112.108 49.3416 112.801 49.3416 113.655C49.3416 114.509 50.0342 115.202 50.8885 115.202Z" fill="#EEFDFF"/>
<path d="M47.0526 111.334C47.0526 111.761 46.7066 112.107 46.2796 112.107C45.8526 112.107 45.5066 111.761 45.5066 111.334C45.5066 110.907 45.8526 110.561 46.2796 110.561C46.7066 110.561 47.0526 110.908 47.0526 111.334Z" fill="#EEFDFF"/>
<path d="M99.3277 122.988C108.914 122.988 116.686 115.217 116.686 105.63C116.686 96.0434 108.914 88.272 99.3277 88.272C89.7412 88.272 81.9697 96.0434 81.9697 105.63C81.9697 115.217 89.7412 122.988 99.3277 122.988Z" fill="url(#paint6_radial_48_2480)"/>
<path d="M99.3277 118.089C106.209 118.089 111.787 112.511 111.787 105.63C111.787 98.749 106.209 93.1709 99.3277 93.1709C92.4468 93.1709 86.8687 98.749 86.8687 105.63C86.8687 112.511 92.4468 118.089 99.3277 118.089Z" fill="#EEFDFF"/>
<path d="M99.3278 116.094C105.107 116.094 109.792 111.409 109.792 105.63C109.792 99.8509 105.107 95.166 99.3278 95.166C93.5487 95.166 88.8638 99.8509 88.8638 105.63C88.8638 111.409 93.5487 116.094 99.3278 116.094Z" fill="url(#paint7_linear_48_2480)"/>
<path d="M106.032 102.918C106.032 105.059 104.296 106.794 102.156 106.794C100.016 106.794 98.2788 105.058 98.2788 102.918C98.2788 100.778 100.015 99.042 102.156 99.042C104.297 99.042 106.032 100.778 106.032 102.918Z" fill="#EEFDFF"/>
<path d="M97.7807 115.202C98.6351 115.202 99.3277 114.509 99.3277 113.655C99.3277 112.801 98.6351 112.108 97.7807 112.108C96.9263 112.108 96.2336 112.801 96.2336 113.655C96.2336 114.509 96.9263 115.202 97.7807 115.202Z" fill="#EEFDFF"/>
<path d="M93.9447 111.334C93.9447 111.761 93.5987 112.107 93.1717 112.107C92.7447 112.107 92.3987 111.761 92.3987 111.334C92.3987 110.907 92.7447 110.561 93.1717 110.561C93.5987 110.561 93.9447 110.908 93.9447 111.334Z" fill="#EEFDFF"/>
<path d="M82.9729 6.277C82.9729 9.743 80.1629 12.554 76.6959 12.554C73.2299 12.554 70.4199 9.744 70.4199 6.277C70.4199 2.811 73.2299 0 76.6959 0C80.1629 0 82.9729 2.81 82.9729 6.277Z" fill="url(#paint8_linear_48_2480)"/>
<path d="M81.0599 3.8266C81.0599 4.8836 80.2029 5.7396 79.1459 5.7396C78.0889 5.7396 77.2319 4.8826 77.2319 3.8266C77.2319 2.7696 78.0889 1.9126 79.1459 1.9126C80.2029 1.9136 81.0599 2.7696 81.0599 3.8266Z" fill="white"/>
<path d="M130.741 67.4287C130.824 70.3587 128.432 73.8637 125.692 74.1627C123.124 74.4437 121.073 71.8197 118.958 69.1137C116.873 66.4467 112.314 59.5947 114.13 57.6567C116.523 55.1017 130.544 60.5157 130.741 67.4287Z" fill="white"/>
<path d="M107.279 56.259C108.483 56.259 109.46 55.2825 109.46 54.078C109.46 52.8734 108.483 51.897 107.279 51.897C106.074 51.897 105.098 52.8734 105.098 54.078C105.098 55.2825 106.074 56.259 107.279 56.259Z" fill="white"/>
<path d="M130.43 108.077C129.73 108.571 124.851 98.6309 111.753 90.0129C107.149 86.9829 102.604 84.8239 102.874 84.1959C103.148 83.5589 108.267 84.7439 112.365 86.6449C125.423 92.7029 131.262 107.49 130.43 108.077Z" fill="white"/>
<path d="M96.8896 43.454C96.7336 43.476 96.6337 42.559 95.8697 41.142C95.8697 41.142 95.5126 40.479 95.1046 39.917C93.7896 38.107 89.3317 38.147 88.9817 38.15C82.0387 38.21 77.5747 37.77 77.5767 37.812C77.5777 37.847 80.8337 37.781 83.2197 37.733C89.9507 37.596 93.9607 37.2339 95.6797 39.0369C96.3927 39.7849 96.7516 40.7589 96.7516 40.7589C97.2376 42.0809 97.0756 43.427 96.8896 43.454Z" fill="white"/>
<path d="M95.446 134.205C95.276 135.868 93.892 137.149 92.228 137.309L69.234 139.526C67.571 139.686 65.967 138.695 65.482 137.095C65.266 136.384 65.1 135.651 64.987 134.897C64.956 134.689 65.011 134.477 65.141 134.31C65.271 134.144 65.463 134.039 65.673 134.018L94.682 131.22C94.889 131.2 95.094 131.266 95.251 131.402C95.408 131.538 95.501 131.733 95.51 131.94C95.545 132.707 95.522 133.463 95.446 134.205Z" fill="#EEFDFF"/>
<path d="M95.4467 134.207C94.7117 141.335 89.0447 147.195 81.6417 147.902C74.3397 148.609 67.7447 144.081 65.5767 137.376C66.1557 138.809 67.6617 139.682 69.2327 139.525L92.2327 137.311C93.8947 137.146 95.2727 135.869 95.4467 134.207Z" fill="url(#paint9_linear_48_2480)"/>
<defs>
<linearGradient id="paint0_linear_48_2480" x1="66.7123" y1="25.9498" x2="81.4087" y2="23.8066" gradientUnits="userSpaceOnUse">
<stop offset="0.0397" stop-color="#05D06D"/>
<stop offset="1" stop-color="#05D06D"/>
</linearGradient>
<linearGradient id="paint1_linear_48_2480" x1="62.9639" y1="63.2671" x2="89.0447" y2="33.8211" gradientUnits="userSpaceOnUse">
<stop offset="0.0397" stop-color="#05D06D"/>
<stop offset="1" stop-color="#05D06D"/>
</linearGradient>
<linearGradient id="paint2_linear_48_2480" x1="25.1885" y1="165.262" x2="128.537" y2="61.914" gradientUnits="userSpaceOnUse">
<stop offset="0.0397" stop-color="#05D06D"/>
<stop offset="1" stop-color="#05D06D" stop-opacity="0.662745"/>
</linearGradient>
<linearGradient id="paint3_linear_48_2480" x1="76.4245" y1="126.607" x2="77.3431" y2="85.2733" gradientUnits="userSpaceOnUse">
<stop offset="1" stop-color="#0B2F45"/>
</linearGradient>
<radialGradient id="paint4_radial_48_2480" cx="0" cy="0" r="1" gradientUnits="userSpaceOnUse" gradientTransform="translate(52.4352 105.63) scale(17.1784 17.1784)">
<stop offset="0.1296" stop-color="#3280FC"/>
<stop offset="1"/>
</radialGradient>
<linearGradient id="paint5_linear_48_2480" x1="41.9709" y1="105.63" x2="62.8997" y2="105.63" gradientUnits="userSpaceOnUse">
<stop stop-color="#030D14"/>
<stop offset="1" stop-color="#0B2F45"/>
</linearGradient>
<radialGradient id="paint6_radial_48_2480" cx="0" cy="0" r="1" gradientUnits="userSpaceOnUse" gradientTransform="translate(99.3275 105.63) scale(17.1784)">
<stop offset="0.1296" stop-color="#3280FC"/>
<stop offset="1"/>
</radialGradient>
<linearGradient id="paint7_linear_48_2480" x1="88.8632" y1="105.63" x2="109.792" y2="105.63" gradientUnits="userSpaceOnUse">
<stop offset="1" stop-color="#0B2F45"/>
</linearGradient>
<linearGradient id="paint8_linear_48_2480" x1="63.4838" y1="8.20341" x2="82.9331" y2="5.367" gradientUnits="userSpaceOnUse">
<stop offset="0.0397" stop-color="#05D06D"/>
<stop offset="1" stop-color="#05D06D"/>
</linearGradient>
<linearGradient id="paint9_linear_48_2480" x1="76.0683" y1="142.661" x2="105.991" y2="112.738" gradientUnits="userSpaceOnUse">
<stop offset="0.0714" stop-color="#A9EBAC"/>
<stop offset="1" stop-color="#A9EBAC"/>
</linearGradient>
</defs>
</svg>
