<svg width="165" height="247" viewBox="0 0 165 247" fill="none" xmlns="http://www.w3.org/2000/svg">
<path d="M19.6771 163.581C42.6941 169.886 48.1321 168.121 52.2341 174.291C52.7051 174.999 55.1101 178.619 54.6291 183.265C54.2451 186.967 52.1831 189.824 50.8861 191.08C43.0011 198.713 21.3042 189.375 8.87815 179.162C6.16915 176.935 -1.09985 170.962 0.364145 166.719C0.964145 164.981 2.82715 164.117 4.16415 163.519C10.0751 160.875 16.2061 162.63 19.6771 163.581Z" fill="url(#paint0_linear_36_70)"/>
<path d="M90.7418 8.86914H85.8428V41.0171H90.7418V8.86914Z" fill="url(#paint1_linear_36_70)"/>
<path d="M105.21 58.7749H71.3759C68.8809 58.7749 66.8589 56.7529 66.8589 54.2579V42.1659C66.8589 39.6709 68.8809 37.6489 71.3759 37.6489H105.21C107.705 37.6489 109.727 39.6709 109.727 42.1659V54.2579C109.726 56.7529 107.704 58.7749 105.21 58.7749Z" fill="url(#paint2_linear_36_70)"/>
<path d="M164.989 129.042C164.989 148.572 149.156 164.405 129.626 164.405H46.9592C27.5092 164.405 11.5962 148.492 11.5962 129.042V110.672C11.5962 76.0669 39.9092 47.7529 74.5152 47.7529H102.071C136.676 47.7529 164.99 76.0659 164.99 110.672L164.989 129.042Z" fill="url(#paint3_linear_36_70)"/>
<path d="M140.862 125.693C138.855 126.685 136.605 127.205 134.319 127.205H42.2669C39.9809 127.205 37.7309 126.685 35.7239 125.693C30.7939 123.256 28.0119 118.335 28.7079 113.287L28.7589 112.92C31.1179 95.821 46.6039 82.675 65.5899 81.687C73.6229 81.269 82.0529 81.053 90.8459 81.104C97.7339 81.144 104.392 81.346 110.803 81.676C129.861 82.658 145.461 95.752 147.829 112.916C147.846 113.039 147.863 113.163 147.88 113.286C148.575 118.335 145.792 123.256 140.862 125.693Z" fill="url(#paint4_linear_36_70)"/>
<path d="M64.0318 123.437C73.6184 123.437 81.3898 115.666 81.3898 106.079C81.3898 96.4926 73.6184 88.7212 64.0318 88.7212C54.4453 88.7212 46.6738 96.4926 46.6738 106.079C46.6738 115.666 54.4453 123.437 64.0318 123.437Z" fill="url(#paint5_radial_36_70)"/>
<path d="M64.0318 118.538C70.9127 118.538 76.4908 112.96 76.4908 106.079C76.4908 99.1982 70.9127 93.6201 64.0318 93.6201C57.1508 93.6201 51.5728 99.1982 51.5728 106.079C51.5728 112.96 57.1508 118.538 64.0318 118.538Z" fill="#EEFDFF"/>
<path d="M64.0319 116.543C69.811 116.543 74.4959 111.858 74.4959 106.079C74.4959 100.3 69.811 95.6152 64.0319 95.6152C58.2528 95.6152 53.5679 100.3 53.5679 106.079C53.5679 111.858 58.2528 116.543 64.0319 116.543Z" fill="url(#paint6_linear_36_70)"/>
<path d="M70.7349 103.367C70.7349 105.508 68.9999 107.243 66.8589 107.243C64.7179 107.243 62.9829 105.507 62.9829 103.367C62.9829 101.227 64.7179 99.4912 66.8589 99.4912C68.9999 99.4912 70.7349 101.227 70.7349 103.367Z" fill="#EEFDFF"/>
<path d="M62.485 115.651C63.3394 115.651 64.032 114.959 64.032 114.104C64.032 113.25 63.3394 112.557 62.485 112.557C61.6306 112.557 60.938 113.25 60.938 114.104C60.938 114.959 61.6306 115.651 62.485 115.651Z" fill="#EEFDFF"/>
<path d="M58.649 111.783C58.649 112.21 58.303 112.556 57.876 112.556C57.449 112.556 57.103 112.21 57.103 111.783C57.103 111.356 57.449 111.01 57.876 111.01C58.303 111.01 58.649 111.357 58.649 111.783Z" fill="#EEFDFF"/>
<path d="M110.924 123.437C120.51 123.437 128.282 115.666 128.282 106.079C128.282 96.4926 120.51 88.7212 110.924 88.7212C101.337 88.7212 93.5659 96.4926 93.5659 106.079C93.5659 115.666 101.337 123.437 110.924 123.437Z" fill="url(#paint7_radial_36_70)"/>
<path d="M110.924 118.538C117.805 118.538 123.383 112.96 123.383 106.079C123.383 99.1982 117.805 93.6201 110.924 93.6201C104.043 93.6201 98.4648 99.1982 98.4648 106.079C98.4648 112.96 104.043 118.538 110.924 118.538Z" fill="#EEFDFF"/>
<path d="M110.924 116.543C116.703 116.543 121.388 111.858 121.388 106.079C121.388 100.3 116.703 95.6152 110.924 95.6152C105.145 95.6152 100.46 100.3 100.46 106.079C100.46 111.858 105.145 116.543 110.924 116.543Z" fill="url(#paint8_linear_36_70)"/>
<path d="M117.628 103.367C117.628 105.508 115.892 107.243 113.752 107.243C111.612 107.243 109.875 105.507 109.875 103.367C109.875 101.227 111.611 99.4912 113.752 99.4912C115.893 99.4912 117.628 101.227 117.628 103.367Z" fill="#EEFDFF"/>
<path d="M109.377 115.651C110.231 115.651 110.924 114.959 110.924 114.104C110.924 113.25 110.231 112.557 109.377 112.557C108.523 112.557 107.83 113.25 107.83 114.104C107.83 114.959 108.523 115.651 109.377 115.651Z" fill="#EEFDFF"/>
<path d="M105.541 111.783C105.541 112.21 105.195 112.556 104.768 112.556C104.341 112.556 103.995 112.21 103.995 111.783C103.995 111.356 104.341 111.01 104.768 111.01C105.195 111.01 105.541 111.357 105.541 111.783Z" fill="#EEFDFF"/>
<path d="M94.5691 6.72622C94.5691 10.1922 91.7591 13.0032 88.2921 13.0032C84.8261 13.0032 82.0161 10.1932 82.0161 6.72622C82.0161 3.26022 84.8261 0.449219 88.2921 0.449219C91.7591 0.449219 94.5691 3.25922 94.5691 6.72622Z" fill="url(#paint9_linear_36_70)"/>
<path d="M92.6561 4.27582C92.6561 5.33282 91.7991 6.18882 90.7421 6.18882C89.6851 6.18882 88.8281 5.33182 88.8281 4.27582C88.8281 3.21882 89.6851 2.36182 90.7421 2.36182C91.7991 2.36282 92.6561 3.21882 92.6561 4.27582Z" fill="white"/>
<path d="M142.337 67.878C142.42 70.808 140.028 74.313 137.288 74.612C134.72 74.893 132.669 72.269 130.554 69.563C128.469 66.896 123.91 60.044 125.726 58.106C128.119 55.551 142.14 60.965 142.337 67.878Z" fill="white"/>
<path d="M118.875 56.7082C120.079 56.7082 121.056 55.7317 121.056 54.5272C121.056 53.3227 120.079 52.3462 118.875 52.3462C117.67 52.3462 116.694 53.3227 116.694 54.5272C116.694 55.7317 117.67 56.7082 118.875 56.7082Z" fill="white"/>
<path d="M142.026 108.526C141.326 109.02 136.447 99.0801 123.349 90.4621C118.745 87.4321 114.2 85.2731 114.47 84.6451C114.744 84.0081 119.863 85.1931 123.961 87.0941C137.019 93.1521 142.858 107.939 142.026 108.526Z" fill="white"/>
<path d="M108.486 43.9032C108.33 43.9252 108.23 43.0082 107.466 41.5912C107.466 41.5912 107.109 40.9282 106.701 40.3662C105.386 38.5562 100.928 38.5962 100.578 38.5992C93.6349 38.6592 89.1709 38.2192 89.1729 38.2612C89.1739 38.2962 92.4299 38.2302 94.8159 38.1822C101.547 38.0452 105.557 37.6832 107.276 39.4862C107.989 40.2342 108.348 41.2082 108.348 41.2082C108.834 42.5302 108.672 43.8762 108.486 43.9032Z" fill="white"/>
<path d="M107.042 134.654C106.872 136.317 105.488 137.598 103.824 137.758L80.8301 139.975C79.1671 140.135 77.5632 139.144 77.0782 137.544C76.8622 136.833 76.6962 136.1 76.5832 135.346C76.5522 135.138 76.6072 134.926 76.7372 134.759C76.8672 134.593 77.0592 134.488 77.2692 134.467L106.278 131.669C106.485 131.649 106.69 131.715 106.847 131.851C107.004 131.987 107.097 132.182 107.106 132.389C107.141 133.156 107.118 133.912 107.042 134.654Z" fill="#EEFDFF"/>
<path d="M107.043 134.656C106.308 141.784 100.641 147.644 93.2379 148.351C85.9359 149.058 79.3409 144.53 77.1729 137.825C77.7519 139.258 79.2579 140.131 80.8289 139.974L103.829 137.76C105.491 137.595 106.869 136.318 107.043 134.656Z" fill="url(#paint10_linear_36_70)"/>
<path d="M143.271 186.299C143.271 186.51 143.271 186.712 143.262 186.905C143.189 188.834 142.738 190.285 142.518 190.937C136.189 210.272 132.396 220.468 127.078 228.716C126.16 230.14 125.195 231.508 124.157 232.849C122.798 234.64 121.31 236.385 119.656 238.186C115.982 242.182 110.425 243.991 108.634 244.616C102.085 246.931 96.2979 246.508 92.4499 246.545H91.7789C87.9209 246.508 82.1439 246.931 75.5949 244.616C73.8039 243.991 68.2379 242.182 64.5729 238.186C54.4689 227.191 50.5839 218.052 41.7109 190.937C41.4999 190.313 41.0769 188.962 40.9759 187.153C40.9489 186.629 40.9389 186.106 40.9669 185.582C41.1599 182.34 42.4729 179.161 44.8069 176.259C48.8029 171.281 54.9749 168.553 61.3589 168.525L92.1199 168.396L122.321 168.277C128.843 168.249 135.162 170.987 139.304 176.029C141.307 178.472 142.583 181.108 143.052 183.827C143.116 184.213 143.171 184.608 143.208 184.994C143.243 185.426 143.271 185.858 143.271 186.299Z" fill="url(#paint11_linear_36_70)"/>
<path d="M92.114 168.401L61.3529 168.53C54.9689 168.558 48.7969 171.286 44.8009 176.264C42.4679 179.167 41.1549 182.345 40.9609 185.587C41.1169 182.262 42.4859 179.001 44.9199 176.034C49.0529 170.991 55.3819 168.254 61.9029 168.282L92.114 168.401Z" fill="url(#paint12_linear_36_70)"/>
<path d="M122.687 213.72C122.238 189.859 119.009 185.14 123.771 179.464C124.318 178.812 127.111 175.483 131.704 174.633C135.364 173.956 138.686 175.128 140.258 176.018C149.806 181.427 146.973 204.878 140.683 219.682C139.312 222.91 135.633 231.569 131.149 231.362C129.312 231.277 127.957 229.733 127.007 228.62C122.802 223.695 122.755 217.317 122.687 213.72Z" fill="url(#paint13_linear_36_70)"/>
<path d="M127.077 228.716C126.159 230.14 125.194 231.508 124.156 232.849C123.825 232.509 123.531 232.169 123.265 231.857C119.058 226.934 119.012 220.559 118.948 216.959C118.498 193.096 115.265 188.384 120.032 182.707C120.381 182.285 121.658 180.769 123.734 179.511C119.031 185.169 122.237 189.927 122.687 213.717C122.751 217.317 122.806 223.692 127.004 228.625C127.031 228.652 127.059 228.679 127.077 228.716Z" fill="url(#paint14_linear_36_70)"/>
<path d="M140.542 193.85C140.407 191.286 139.926 189.401 138.964 185.629C137.706 180.695 136.128 178.29 137.153 177.337C137.82 176.717 139.134 177.136 139.432 177.231C143.942 178.67 145.338 187.131 145.144 192.426C145.025 195.668 144.234 199.293 143.046 199.453C142.859 199.478 142.393 199.454 142.06 199.159C140.734 197.988 140.645 195.799 140.542 193.85Z" fill="white"/>
<path d="M143.639 202.899C143.639 203.416 143.22 203.835 142.703 203.835C142.186 203.835 141.767 203.416 141.767 202.899C141.767 202.382 142.186 201.963 142.703 201.963C143.22 201.963 143.639 202.382 143.639 202.899Z" fill="white"/>
<defs>
<linearGradient id="paint0_linear_36_70" x1="-11" y1="167" x2="122.02" y2="247.446" gradientUnits="userSpaceOnUse">
<stop offset="0.0397" stop-color="#05D06D"/>
<stop offset="1" stop-color="#05D06D" stop-opacity="0.2"/>
</linearGradient>
<linearGradient id="paint1_linear_36_70" x1="78.3084" y1="26.399" x2="93.0049" y2="24.2558" gradientUnits="userSpaceOnUse">
<stop offset="0.0397" stop-color="#05D06D"/>
<stop offset="1" stop-color="#05D06D"/>
</linearGradient>
<linearGradient id="paint2_linear_36_70" x1="74.5601" y1="63.7163" x2="100.641" y2="34.2703" gradientUnits="userSpaceOnUse">
<stop offset="0.0397" stop-color="#05D06D"/>
<stop offset="1" stop-color="#05D06D"/>
</linearGradient>
<linearGradient id="paint3_linear_36_70" x1="36.7847" y1="165.712" x2="140.133" y2="62.3632" gradientUnits="userSpaceOnUse">
<stop offset="0.0397" stop-color="#05D06D"/>
<stop offset="1" stop-color="#05D06D" stop-opacity="0.662745"/>
</linearGradient>
<linearGradient id="paint4_linear_36_70" x1="88.0207" y1="127.056" x2="88.9393" y2="85.7225" gradientUnits="userSpaceOnUse">
<stop offset="1" stop-color="#0B2F45"/>
</linearGradient>
<radialGradient id="paint5_radial_36_70" cx="0" cy="0" r="1" gradientUnits="userSpaceOnUse" gradientTransform="translate(64.0314 106.079) scale(17.1784 17.1784)">
<stop offset="0.1296" stop-color="#3280FC"/>
<stop offset="1"/>
</radialGradient>
<linearGradient id="paint6_linear_36_70" x1="53.5671" y1="106.079" x2="74.4959" y2="106.079" gradientUnits="userSpaceOnUse">
<stop stop-color="#030D14"/>
<stop offset="1" stop-color="#0B2F45"/>
</linearGradient>
<radialGradient id="paint7_radial_36_70" cx="0" cy="0" r="1" gradientUnits="userSpaceOnUse" gradientTransform="translate(110.924 106.079) scale(17.1784)">
<stop offset="0.1296" stop-color="#3280FC"/>
<stop offset="1"/>
</radialGradient>
<linearGradient id="paint8_linear_36_70" x1="100.459" y1="106.079" x2="121.388" y2="106.079" gradientUnits="userSpaceOnUse">
<stop offset="1" stop-color="#0B2F45"/>
</linearGradient>
<linearGradient id="paint9_linear_36_70" x1="75.08" y1="8.65262" x2="94.5293" y2="5.81622" gradientUnits="userSpaceOnUse">
<stop offset="0.0397" stop-color="#05D06D"/>
<stop offset="1" stop-color="#05D06D"/>
</linearGradient>
<linearGradient id="paint10_linear_36_70" x1="87.6645" y1="143.11" x2="117.587" y2="113.188" gradientUnits="userSpaceOnUse">
<stop offset="0.0714" stop-color="#A9EBAC"/>
<stop offset="1" stop-color="#A9EBAC"/>
</linearGradient>
<linearGradient id="paint11_linear_36_70" x1="59.4035" y1="233.914" x2="138.684" y2="141.335" gradientUnits="userSpaceOnUse">
<stop stop-color="#05D06D"/>
<stop offset="1" stop-color="#05D06D"/>
</linearGradient>
<linearGradient id="paint12_linear_36_70" x1="55.2038" y1="187.759" x2="102.88" y2="132.086" gradientUnits="userSpaceOnUse">
<stop offset="0.0397" stop-color="#A9EBAC"/>
<stop offset="1" stop-color="#A9EBAC"/>
</linearGradient>
<linearGradient id="paint13_linear_36_70" x1="157.643" y1="220.09" x2="108" y2="174" gradientUnits="userSpaceOnUse">
<stop stop-color="#05D06D"/>
<stop offset="1" stop-color="#05D06D"/>
</linearGradient>
<linearGradient id="paint14_linear_36_70" x1="105.332" y1="215.88" x2="147.401" y2="193.957" gradientUnits="userSpaceOnUse">
<stop offset="0.0397" stop-color="#06BED8"/>
<stop offset="1" stop-color="#DEFA8E"/>
</linearGradient>
</defs>
</svg>
